%TF.GenerationSoftware,KiCad,Pcbnew,7.0.9*%
%TF.CreationDate,2023-12-02T23:29:04+01:00*%
%TF.ProjectId,bepis,62657069-732e-46b6-9963-61645f706362,rev?*%
%TF.SameCoordinates,Original*%
%TF.FileFunction,Legend,Top*%
%TF.FilePolarity,Positive*%
%FSLAX46Y46*%
G04 Gerber Fmt 4.6, Leading zero omitted, Abs format (unit mm)*
G04 Created by KiCad (PCBNEW 7.0.9) date 2023-12-02 23:29:04*
%MOMM*%
%LPD*%
G01*
G04 APERTURE LIST*
%ADD10C,0.000000*%
G04 APERTURE END LIST*
D10*
G36*
X147956710Y-63695164D02*
G01*
X147973507Y-63695890D01*
X147989983Y-63697396D01*
X148005927Y-63699905D01*
X148021128Y-63703643D01*
X148028384Y-63706043D01*
X148035374Y-63708835D01*
X148042073Y-63712047D01*
X148048453Y-63715706D01*
X148054489Y-63719842D01*
X148060154Y-63724482D01*
X148065422Y-63729655D01*
X148070265Y-63735388D01*
X148074658Y-63741710D01*
X148078575Y-63748649D01*
X148081988Y-63756233D01*
X148084871Y-63764490D01*
X148087198Y-63773448D01*
X148088943Y-63783136D01*
X148090078Y-63793581D01*
X148090578Y-63804812D01*
X148090477Y-63816139D01*
X148089840Y-63826862D01*
X148088684Y-63836996D01*
X148087025Y-63846557D01*
X148084880Y-63855558D01*
X148082267Y-63864016D01*
X148079202Y-63871944D01*
X148075702Y-63879359D01*
X148071784Y-63886274D01*
X148067466Y-63892705D01*
X148062764Y-63898667D01*
X148057695Y-63904174D01*
X148052276Y-63909242D01*
X148046524Y-63913885D01*
X148040456Y-63918119D01*
X148034089Y-63921957D01*
X148027439Y-63925416D01*
X148020525Y-63928510D01*
X148013362Y-63931254D01*
X148005968Y-63933663D01*
X147998359Y-63935752D01*
X147990554Y-63937536D01*
X147982567Y-63939029D01*
X147974418Y-63940247D01*
X147957696Y-63941916D01*
X147940523Y-63942663D01*
X147923036Y-63942607D01*
X147905370Y-63941867D01*
X147887723Y-63940571D01*
X147870292Y-63938699D01*
X147853202Y-63936154D01*
X147836581Y-63932839D01*
X147820558Y-63928655D01*
X147805259Y-63923506D01*
X147790811Y-63917293D01*
X147783947Y-63913758D01*
X147777344Y-63909919D01*
X147771017Y-63905766D01*
X147764983Y-63901286D01*
X147759257Y-63896467D01*
X147753856Y-63891297D01*
X147748796Y-63885763D01*
X147744092Y-63879854D01*
X147739760Y-63873556D01*
X147735817Y-63866858D01*
X147732278Y-63859748D01*
X147729159Y-63852213D01*
X147726476Y-63844242D01*
X147724245Y-63835821D01*
X147722482Y-63826939D01*
X147721203Y-63817584D01*
X147720424Y-63807744D01*
X147720161Y-63797405D01*
X147720450Y-63787199D01*
X147721302Y-63777745D01*
X147722691Y-63769012D01*
X147724596Y-63760971D01*
X147726992Y-63753592D01*
X147729855Y-63746845D01*
X147733162Y-63740700D01*
X147736888Y-63735128D01*
X147741011Y-63730099D01*
X147745506Y-63725582D01*
X147750349Y-63721548D01*
X147755518Y-63717967D01*
X147760987Y-63714809D01*
X147766734Y-63712045D01*
X147772735Y-63709645D01*
X147778966Y-63707578D01*
X147785403Y-63705815D01*
X147792022Y-63704326D01*
X147798800Y-63703081D01*
X147805713Y-63702050D01*
X147819849Y-63700513D01*
X147834240Y-63699475D01*
X147863027Y-63697941D01*
X147877043Y-63696968D01*
X147890555Y-63695540D01*
X147923004Y-63695146D01*
X147956710Y-63695164D01*
G37*
G36*
X149213868Y-63696928D02*
G01*
X149267666Y-63701384D01*
X149321984Y-63706535D01*
X149376650Y-63712554D01*
X149431490Y-63719615D01*
X149434125Y-63719792D01*
X149436817Y-63720310D01*
X149439556Y-63721154D01*
X149442334Y-63722307D01*
X149445142Y-63723753D01*
X149447971Y-63725475D01*
X149450812Y-63727459D01*
X149453656Y-63729686D01*
X149456495Y-63732141D01*
X149459320Y-63734808D01*
X149462121Y-63737670D01*
X149464891Y-63740712D01*
X149470300Y-63747266D01*
X149475475Y-63754342D01*
X149480347Y-63761808D01*
X149484844Y-63769535D01*
X149488896Y-63777391D01*
X149492433Y-63785248D01*
X149495384Y-63792974D01*
X149496618Y-63796748D01*
X149497679Y-63800440D01*
X149498558Y-63804035D01*
X149499246Y-63807516D01*
X149499735Y-63810866D01*
X149500016Y-63814070D01*
X149499982Y-63820647D01*
X149499221Y-63827794D01*
X149497787Y-63835386D01*
X149495734Y-63843298D01*
X149493117Y-63851406D01*
X149489989Y-63859584D01*
X149486406Y-63867707D01*
X149482422Y-63875652D01*
X149478090Y-63883293D01*
X149473465Y-63890505D01*
X149468601Y-63897164D01*
X149463553Y-63903144D01*
X149458375Y-63908321D01*
X149455754Y-63910570D01*
X149453121Y-63912571D01*
X149450482Y-63914309D01*
X149447845Y-63915768D01*
X149445216Y-63916932D01*
X149442602Y-63917787D01*
X149383996Y-63931844D01*
X149325080Y-63944027D01*
X149265897Y-63954336D01*
X149206492Y-63962771D01*
X149146910Y-63969331D01*
X149087195Y-63974017D01*
X149027391Y-63976828D01*
X148967542Y-63977765D01*
X148907694Y-63976828D01*
X148847890Y-63974017D01*
X148788174Y-63969331D01*
X148728592Y-63962771D01*
X148669188Y-63954336D01*
X148610005Y-63944027D01*
X148551088Y-63931844D01*
X148492482Y-63917787D01*
X148490036Y-63917584D01*
X148487565Y-63916988D01*
X148485076Y-63916018D01*
X148482577Y-63914694D01*
X148480076Y-63913035D01*
X148477579Y-63911060D01*
X148475094Y-63908789D01*
X148472629Y-63906240D01*
X148470191Y-63903434D01*
X148467788Y-63900390D01*
X148465427Y-63897126D01*
X148463116Y-63893663D01*
X148458671Y-63886214D01*
X148454514Y-63878198D01*
X148450704Y-63869770D01*
X148447301Y-63861084D01*
X148444364Y-63852296D01*
X148441954Y-63843558D01*
X148440130Y-63835027D01*
X148439457Y-63830887D01*
X148438952Y-63826857D01*
X148438623Y-63822955D01*
X148438479Y-63819202D01*
X148438525Y-63815616D01*
X148438770Y-63812217D01*
X148439219Y-63808866D01*
X148439866Y-63805418D01*
X148441722Y-63798286D01*
X148444272Y-63790921D01*
X148447451Y-63783423D01*
X148451196Y-63775892D01*
X148455439Y-63768429D01*
X148460116Y-63761134D01*
X148465163Y-63754108D01*
X148470513Y-63747451D01*
X148476102Y-63741263D01*
X148481865Y-63735645D01*
X148487737Y-63730697D01*
X148493651Y-63726519D01*
X148496605Y-63724750D01*
X148499544Y-63723212D01*
X148502462Y-63721917D01*
X148505350Y-63720877D01*
X148508200Y-63720104D01*
X148511004Y-63719613D01*
X148570845Y-63713844D01*
X148631012Y-63708879D01*
X148752930Y-63700401D01*
X148877975Y-63692269D01*
X149007361Y-63682574D01*
X149213868Y-63696928D01*
G37*
G36*
X147076942Y-65209878D02*
G01*
X147106608Y-65210720D01*
X147121028Y-65210891D01*
X147134908Y-65210543D01*
X147148561Y-65210122D01*
X147162350Y-65210304D01*
X147176149Y-65211169D01*
X147189834Y-65212800D01*
X147203280Y-65215277D01*
X147216363Y-65218682D01*
X147228957Y-65223096D01*
X147235032Y-65225707D01*
X147240938Y-65228601D01*
X147246659Y-65231788D01*
X147252181Y-65235278D01*
X147257487Y-65239081D01*
X147262561Y-65243208D01*
X147267389Y-65247669D01*
X147271954Y-65252473D01*
X147276241Y-65257632D01*
X147280235Y-65263154D01*
X147283919Y-65269052D01*
X147287279Y-65275333D01*
X147290298Y-65282010D01*
X147292961Y-65289091D01*
X147295252Y-65296588D01*
X147297156Y-65304509D01*
X147298657Y-65312867D01*
X147299740Y-65321669D01*
X147298745Y-65328865D01*
X147297404Y-65335928D01*
X147295728Y-65342850D01*
X147293726Y-65349623D01*
X147291407Y-65356241D01*
X147288782Y-65362695D01*
X147285859Y-65368977D01*
X147282649Y-65375080D01*
X147279160Y-65380996D01*
X147275403Y-65386717D01*
X147271387Y-65392235D01*
X147267121Y-65397544D01*
X147262616Y-65402634D01*
X147257880Y-65407498D01*
X147252923Y-65412129D01*
X147247756Y-65416518D01*
X147242386Y-65420659D01*
X147236825Y-65424542D01*
X147231081Y-65428161D01*
X147225165Y-65431508D01*
X147219084Y-65434575D01*
X147212851Y-65437353D01*
X147206473Y-65439837D01*
X147199960Y-65442017D01*
X147193322Y-65443886D01*
X147186569Y-65445436D01*
X147179710Y-65446660D01*
X147172754Y-65447549D01*
X147165712Y-65448097D01*
X147158593Y-65448295D01*
X147151406Y-65448135D01*
X147144160Y-65447610D01*
X147127431Y-65447248D01*
X147110679Y-65446108D01*
X147094058Y-65444106D01*
X147077719Y-65441156D01*
X147061814Y-65437176D01*
X147046495Y-65432080D01*
X147031914Y-65425786D01*
X147024948Y-65422162D01*
X147018223Y-65418208D01*
X147011758Y-65413911D01*
X147005573Y-65409263D01*
X146999687Y-65404251D01*
X146994117Y-65398866D01*
X146988885Y-65393097D01*
X146984007Y-65386934D01*
X146979504Y-65380366D01*
X146975395Y-65373382D01*
X146971697Y-65365973D01*
X146968431Y-65358127D01*
X146965616Y-65349834D01*
X146963269Y-65341083D01*
X146961412Y-65331865D01*
X146960061Y-65322168D01*
X146959237Y-65311982D01*
X146958958Y-65301296D01*
X146959257Y-65290781D01*
X146960140Y-65281090D01*
X146961581Y-65272190D01*
X146963555Y-65264049D01*
X146966038Y-65256634D01*
X146969005Y-65249911D01*
X146972431Y-65243849D01*
X146976292Y-65238413D01*
X146980562Y-65233572D01*
X146985217Y-65229291D01*
X146990233Y-65225539D01*
X146995583Y-65222283D01*
X147001245Y-65219489D01*
X147007192Y-65217125D01*
X147013400Y-65215158D01*
X147019845Y-65213554D01*
X147026501Y-65212282D01*
X147033345Y-65211307D01*
X147040350Y-65210598D01*
X147047493Y-65210121D01*
X147062091Y-65209732D01*
X147076942Y-65209878D01*
G37*
G36*
X148642128Y-63256146D02*
G01*
X148658352Y-63257115D01*
X148674706Y-63258887D01*
X148690996Y-63261608D01*
X148707025Y-63265425D01*
X148722598Y-63270485D01*
X148730153Y-63273527D01*
X148737520Y-63276934D01*
X148744676Y-63280726D01*
X148751596Y-63284919D01*
X148758255Y-63289533D01*
X148764630Y-63294586D01*
X148770695Y-63300095D01*
X148776426Y-63306081D01*
X148781800Y-63312560D01*
X148786790Y-63319551D01*
X148791374Y-63327072D01*
X148795526Y-63335143D01*
X148799223Y-63343780D01*
X148802439Y-63353002D01*
X148805151Y-63362828D01*
X148807333Y-63373276D01*
X148806601Y-63381576D01*
X148805422Y-63389778D01*
X148803805Y-63397869D01*
X148801760Y-63405832D01*
X148799294Y-63413650D01*
X148796416Y-63421308D01*
X148793135Y-63428790D01*
X148789459Y-63436080D01*
X148785397Y-63443163D01*
X148780957Y-63450021D01*
X148776148Y-63456639D01*
X148770978Y-63463002D01*
X148765457Y-63469093D01*
X148759592Y-63474896D01*
X148753393Y-63480395D01*
X148746867Y-63485575D01*
X148740067Y-63490390D01*
X148733052Y-63494802D01*
X148725838Y-63498808D01*
X148718445Y-63502403D01*
X148710889Y-63505585D01*
X148703189Y-63508349D01*
X148695362Y-63510691D01*
X148687425Y-63512608D01*
X148679397Y-63514097D01*
X148671295Y-63515152D01*
X148663137Y-63515771D01*
X148654940Y-63515949D01*
X148646723Y-63515683D01*
X148638503Y-63514970D01*
X148630298Y-63513804D01*
X148622125Y-63512183D01*
X148604784Y-63511762D01*
X148587579Y-63510458D01*
X148570645Y-63508216D01*
X148554119Y-63504978D01*
X148538134Y-63500687D01*
X148522829Y-63495287D01*
X148508337Y-63488720D01*
X148501438Y-63484981D01*
X148494794Y-63480929D01*
X148488421Y-63476557D01*
X148482337Y-63471858D01*
X148476558Y-63466825D01*
X148471100Y-63461450D01*
X148465983Y-63455726D01*
X148461221Y-63449647D01*
X148456832Y-63443204D01*
X148452833Y-63436392D01*
X148449241Y-63429203D01*
X148446073Y-63421629D01*
X148443346Y-63413665D01*
X148441077Y-63405301D01*
X148439282Y-63396532D01*
X148437979Y-63387351D01*
X148437185Y-63377749D01*
X148436917Y-63367721D01*
X148437158Y-63357799D01*
X148437871Y-63348506D01*
X148439039Y-63339822D01*
X148440646Y-63331725D01*
X148442675Y-63324193D01*
X148445109Y-63317206D01*
X148447931Y-63310742D01*
X148451126Y-63304779D01*
X148454676Y-63299297D01*
X148458564Y-63294273D01*
X148462775Y-63289687D01*
X148467292Y-63285517D01*
X148472097Y-63281741D01*
X148477175Y-63278339D01*
X148482508Y-63275289D01*
X148488081Y-63272570D01*
X148493876Y-63270160D01*
X148499876Y-63268038D01*
X148506066Y-63266182D01*
X148512429Y-63264571D01*
X148518948Y-63263185D01*
X148525605Y-63262001D01*
X148539273Y-63260154D01*
X148553298Y-63258861D01*
X148567549Y-63257951D01*
X148596193Y-63256594D01*
X148610853Y-63256032D01*
X148626230Y-63255834D01*
X148642128Y-63256146D01*
G37*
G36*
X146966772Y-66459137D02*
G01*
X146984890Y-66460699D01*
X146984884Y-66460699D01*
X147017600Y-66463470D01*
X147049014Y-66465503D01*
X147079038Y-66467797D01*
X147093502Y-66469353D01*
X147107586Y-66471349D01*
X147121280Y-66473909D01*
X147134572Y-66477158D01*
X147147451Y-66481221D01*
X147159907Y-66486223D01*
X147171929Y-66492289D01*
X147183507Y-66499542D01*
X147189125Y-66503654D01*
X147194628Y-66508109D01*
X147200014Y-66512924D01*
X147205282Y-66518113D01*
X147209465Y-66521335D01*
X147213444Y-66524762D01*
X147217214Y-66528384D01*
X147220769Y-66532192D01*
X147224105Y-66536175D01*
X147227214Y-66540324D01*
X147230092Y-66544627D01*
X147232732Y-66549076D01*
X147235131Y-66553660D01*
X147237281Y-66558370D01*
X147239177Y-66563195D01*
X147240813Y-66568125D01*
X147242185Y-66573151D01*
X147243286Y-66578262D01*
X147244112Y-66583448D01*
X147244655Y-66588700D01*
X147244910Y-66593973D01*
X147244877Y-66599225D01*
X147244560Y-66604444D01*
X147243963Y-66609619D01*
X147243090Y-66614740D01*
X147241944Y-66619797D01*
X147240530Y-66624778D01*
X147238852Y-66629672D01*
X147236914Y-66634469D01*
X147234720Y-66639158D01*
X147232273Y-66643729D01*
X147229578Y-66648170D01*
X147226638Y-66652471D01*
X147223459Y-66656621D01*
X147220043Y-66660610D01*
X147216394Y-66664426D01*
X147187490Y-66678505D01*
X147158028Y-66690972D01*
X147128075Y-66701823D01*
X147097696Y-66711055D01*
X147066956Y-66718663D01*
X147035921Y-66724643D01*
X147004657Y-66728991D01*
X146973228Y-66731705D01*
X146941700Y-66732778D01*
X146910140Y-66732209D01*
X146878611Y-66729992D01*
X146847181Y-66726124D01*
X146815913Y-66720601D01*
X146784875Y-66713419D01*
X146754130Y-66704573D01*
X146723745Y-66694061D01*
X146718572Y-66689857D01*
X146713815Y-66685582D01*
X146709464Y-66681243D01*
X146705512Y-66676846D01*
X146701951Y-66672395D01*
X146698772Y-66667897D01*
X146695968Y-66663358D01*
X146693530Y-66658784D01*
X146691450Y-66654179D01*
X146689720Y-66649551D01*
X146688332Y-66644904D01*
X146687278Y-66640245D01*
X146686549Y-66635578D01*
X146686138Y-66630911D01*
X146686036Y-66626249D01*
X146686235Y-66621597D01*
X146686727Y-66616962D01*
X146687504Y-66612348D01*
X146688558Y-66607763D01*
X146689881Y-66603210D01*
X146691464Y-66598698D01*
X146693299Y-66594230D01*
X146695378Y-66589813D01*
X146697694Y-66585453D01*
X146700237Y-66581156D01*
X146703001Y-66576926D01*
X146705975Y-66572771D01*
X146709154Y-66568695D01*
X146716088Y-66560805D01*
X146723739Y-66553304D01*
X146736827Y-66540677D01*
X146750537Y-66528893D01*
X146764829Y-66517968D01*
X146779663Y-66507917D01*
X146794996Y-66498752D01*
X146810788Y-66490490D01*
X146826997Y-66483145D01*
X146843583Y-66476731D01*
X146860505Y-66471263D01*
X146877720Y-66466756D01*
X146895189Y-66463223D01*
X146912870Y-66460681D01*
X146930721Y-66459143D01*
X146948702Y-66458623D01*
X146966772Y-66459137D01*
G37*
G36*
X148664725Y-64717891D02*
G01*
X148671828Y-64717883D01*
X148678891Y-64718230D01*
X148685900Y-64718929D01*
X148692845Y-64719975D01*
X148699712Y-64721361D01*
X148706490Y-64723085D01*
X148713166Y-64725140D01*
X148719728Y-64727522D01*
X148726163Y-64730227D01*
X148732461Y-64733250D01*
X148738608Y-64736585D01*
X148744591Y-64740228D01*
X148750400Y-64744174D01*
X148756022Y-64748418D01*
X148761444Y-64752956D01*
X148766655Y-64757783D01*
X148771616Y-64762867D01*
X148776293Y-64768169D01*
X148780683Y-64773679D01*
X148784779Y-64779384D01*
X148788576Y-64785272D01*
X148792070Y-64791331D01*
X148795255Y-64797548D01*
X148798127Y-64803912D01*
X148800679Y-64810410D01*
X148802907Y-64817031D01*
X148804807Y-64823762D01*
X148806372Y-64830592D01*
X148807597Y-64837507D01*
X148808478Y-64844496D01*
X148809010Y-64851547D01*
X148809187Y-64858648D01*
X148808983Y-64865616D01*
X148808378Y-64872285D01*
X148807386Y-64878661D01*
X148806018Y-64884748D01*
X148804286Y-64890551D01*
X148802204Y-64896076D01*
X148799781Y-64901327D01*
X148797032Y-64906311D01*
X148793969Y-64911031D01*
X148790603Y-64915493D01*
X148786946Y-64919702D01*
X148783012Y-64923663D01*
X148778811Y-64927381D01*
X148774357Y-64930862D01*
X148769661Y-64934110D01*
X148764737Y-64937130D01*
X148759595Y-64939928D01*
X148754248Y-64942508D01*
X148748709Y-64944877D01*
X148742989Y-64947038D01*
X148737101Y-64948997D01*
X148731057Y-64950758D01*
X148724870Y-64952328D01*
X148718550Y-64953711D01*
X148705566Y-64955937D01*
X148692202Y-64957477D01*
X148678555Y-64958371D01*
X148664725Y-64958660D01*
X148650853Y-64958347D01*
X148637096Y-64957372D01*
X148623566Y-64955681D01*
X148610378Y-64953219D01*
X148597646Y-64949933D01*
X148585484Y-64945767D01*
X148574006Y-64940669D01*
X148568558Y-64937752D01*
X148563324Y-64934582D01*
X148558319Y-64931152D01*
X148553555Y-64927454D01*
X148549048Y-64923483D01*
X148544811Y-64919230D01*
X148540859Y-64914690D01*
X148537206Y-64909856D01*
X148533867Y-64904721D01*
X148530855Y-64899277D01*
X148528185Y-64893519D01*
X148525871Y-64887439D01*
X148523927Y-64881031D01*
X148522368Y-64874289D01*
X148521208Y-64867204D01*
X148520461Y-64859770D01*
X148520141Y-64851982D01*
X148520262Y-64843831D01*
X148520986Y-64836923D01*
X148522043Y-64830131D01*
X148523423Y-64823461D01*
X148525118Y-64816922D01*
X148527119Y-64810521D01*
X148529418Y-64804266D01*
X148532005Y-64798164D01*
X148534871Y-64792223D01*
X148538009Y-64786451D01*
X148541409Y-64780855D01*
X148545062Y-64775443D01*
X148548959Y-64770223D01*
X148553093Y-64765202D01*
X148557453Y-64760389D01*
X148562032Y-64755790D01*
X148566820Y-64751413D01*
X148571808Y-64747267D01*
X148576988Y-64743358D01*
X148582352Y-64739695D01*
X148587889Y-64736284D01*
X148593592Y-64733135D01*
X148599451Y-64730254D01*
X148605459Y-64727649D01*
X148611605Y-64725327D01*
X148617881Y-64723297D01*
X148624279Y-64721566D01*
X148630790Y-64720142D01*
X148637404Y-64719032D01*
X148644114Y-64718245D01*
X148650910Y-64717787D01*
X148657783Y-64717666D01*
X148664725Y-64717891D01*
G37*
G36*
X151961431Y-50383922D02*
G01*
X152771892Y-50401256D01*
X153582003Y-50430918D01*
X153605886Y-50430099D01*
X153629633Y-50430655D01*
X153653194Y-50432562D01*
X153676513Y-50435800D01*
X153699539Y-50440346D01*
X153722218Y-50446179D01*
X153744497Y-50453275D01*
X153766323Y-50461613D01*
X153787643Y-50471172D01*
X153808403Y-50481928D01*
X153828551Y-50493861D01*
X153848034Y-50506947D01*
X153866798Y-50521166D01*
X153884790Y-50536494D01*
X153901958Y-50552910D01*
X153918247Y-50570392D01*
X153933501Y-50588786D01*
X153947585Y-50607913D01*
X153960484Y-50627720D01*
X153972184Y-50648149D01*
X153982669Y-50669147D01*
X153991925Y-50690656D01*
X153999936Y-50712623D01*
X154006687Y-50734991D01*
X154012164Y-50757704D01*
X154016351Y-50780708D01*
X154019232Y-50803947D01*
X154020794Y-50827365D01*
X154021021Y-50850906D01*
X154019898Y-50874516D01*
X154017410Y-50898139D01*
X154013542Y-50921719D01*
X153996436Y-51120827D01*
X153982893Y-51320161D01*
X153972913Y-51519672D01*
X153966498Y-51719314D01*
X153963648Y-51919037D01*
X153964364Y-52118795D01*
X153968647Y-52318539D01*
X153976498Y-52518223D01*
X153978277Y-52548898D01*
X153979274Y-52579668D01*
X153979230Y-52610324D01*
X153977884Y-52640658D01*
X153974975Y-52670460D01*
X153970243Y-52699522D01*
X153963427Y-52727634D01*
X153959157Y-52741269D01*
X153954268Y-52754588D01*
X153948727Y-52767565D01*
X153942504Y-52780174D01*
X153935564Y-52792389D01*
X153927875Y-52804184D01*
X153919404Y-52815533D01*
X153910120Y-52826410D01*
X153899990Y-52836788D01*
X153888980Y-52846641D01*
X153877059Y-52855943D01*
X153864194Y-52864669D01*
X153850352Y-52872792D01*
X153835501Y-52880286D01*
X153819608Y-52887124D01*
X153802640Y-52893281D01*
X153784566Y-52898731D01*
X153765352Y-52903448D01*
X153749829Y-52907310D01*
X153735192Y-52911599D01*
X153721415Y-52916307D01*
X153708472Y-52921426D01*
X153696338Y-52926950D01*
X153684987Y-52932871D01*
X153674392Y-52939181D01*
X153664529Y-52945873D01*
X153655370Y-52952939D01*
X153646892Y-52960372D01*
X153639068Y-52968165D01*
X153631871Y-52976309D01*
X153625277Y-52984798D01*
X153619259Y-52993625D01*
X153613792Y-53002780D01*
X153608850Y-53012258D01*
X153604408Y-53022051D01*
X153600439Y-53032151D01*
X153596917Y-53042551D01*
X153593817Y-53053243D01*
X153591113Y-53064220D01*
X153588780Y-53075474D01*
X153585121Y-53098785D01*
X153582635Y-53123116D01*
X153581114Y-53148408D01*
X153580352Y-53174600D01*
X153580144Y-53201633D01*
X153628299Y-53843379D01*
X153653069Y-54164252D01*
X153682006Y-54485125D01*
X153686501Y-54521077D01*
X153693082Y-54556473D01*
X153701698Y-54591236D01*
X153712301Y-54625287D01*
X153724841Y-54658549D01*
X153739269Y-54690944D01*
X153755535Y-54722393D01*
X153773590Y-54752818D01*
X153793383Y-54782141D01*
X153814867Y-54810285D01*
X153837991Y-54837171D01*
X153862706Y-54862720D01*
X153888963Y-54886856D01*
X153916712Y-54909499D01*
X153945903Y-54930573D01*
X153976487Y-54949997D01*
X154139134Y-55066191D01*
X154298110Y-55187135D01*
X154453315Y-55312740D01*
X154604647Y-55442916D01*
X154752005Y-55577574D01*
X154895289Y-55716624D01*
X155034397Y-55859976D01*
X155169229Y-56007541D01*
X155285976Y-56133959D01*
X155404155Y-56259076D01*
X155523636Y-56382977D01*
X155644289Y-56505749D01*
X155888590Y-56748255D01*
X156136017Y-56987289D01*
X156255498Y-57108454D01*
X156369964Y-57233773D01*
X156479329Y-57363085D01*
X156583505Y-57496227D01*
X156682406Y-57633038D01*
X156775944Y-57773357D01*
X156864034Y-57917022D01*
X156946587Y-58063870D01*
X157023517Y-58213741D01*
X157094737Y-58366472D01*
X157160161Y-58521902D01*
X157219701Y-58679870D01*
X157273270Y-58840213D01*
X157320782Y-59002770D01*
X157362149Y-59167379D01*
X157397285Y-59333878D01*
X157455924Y-59604945D01*
X157506645Y-59877427D01*
X157549429Y-60151150D01*
X157584255Y-60425940D01*
X157611105Y-60701623D01*
X157629959Y-60978027D01*
X157640798Y-61254977D01*
X157643603Y-61532300D01*
X157623930Y-62736609D01*
X157618864Y-63940876D01*
X157634580Y-66349105D01*
X157654809Y-68756640D01*
X157643610Y-71163130D01*
X157593605Y-75159924D01*
X157575478Y-75403351D01*
X157550576Y-75646035D01*
X157518922Y-75887835D01*
X157480541Y-76128612D01*
X157435458Y-76368225D01*
X157383695Y-76606532D01*
X157325279Y-76843395D01*
X157260232Y-77078673D01*
X157242411Y-77142083D01*
X157220455Y-77204565D01*
X157194745Y-77266190D01*
X157165659Y-77327028D01*
X157133579Y-77387150D01*
X157098883Y-77446626D01*
X157061951Y-77505527D01*
X157023164Y-77563924D01*
X156691641Y-78021389D01*
X156572309Y-78181918D01*
X156448256Y-78338653D01*
X156319576Y-78491495D01*
X156186362Y-78640340D01*
X156048707Y-78785090D01*
X155906705Y-78925642D01*
X155760449Y-79061895D01*
X155610031Y-79193749D01*
X155576606Y-79223698D01*
X155541816Y-79251694D01*
X155505748Y-79277706D01*
X155468489Y-79301704D01*
X155430124Y-79323658D01*
X155390741Y-79343538D01*
X155350426Y-79361313D01*
X155309266Y-79376952D01*
X155267348Y-79390427D01*
X155224757Y-79401705D01*
X155181580Y-79410757D01*
X155137904Y-79417554D01*
X155093816Y-79422063D01*
X155049402Y-79424255D01*
X155004749Y-79424100D01*
X154959943Y-79421568D01*
X154871116Y-79415987D01*
X154782226Y-79412001D01*
X154693294Y-79409609D01*
X154604341Y-79408812D01*
X154515388Y-79409608D01*
X154426456Y-79411999D01*
X154337568Y-79415984D01*
X154248743Y-79421562D01*
X154187040Y-79423626D01*
X154125672Y-79422198D01*
X154064774Y-79417333D01*
X154004479Y-79409084D01*
X153944919Y-79397506D01*
X153886227Y-79382653D01*
X153828539Y-79364580D01*
X153771985Y-79343340D01*
X153716700Y-79318989D01*
X153662817Y-79291580D01*
X153610468Y-79261168D01*
X153559788Y-79227807D01*
X153510909Y-79191551D01*
X153463965Y-79152455D01*
X153419089Y-79110574D01*
X153376414Y-79065960D01*
X153150344Y-78837229D01*
X152925894Y-78606645D01*
X152703066Y-78374207D01*
X152481860Y-78139917D01*
X152443664Y-78100521D01*
X152404788Y-78063254D01*
X152365249Y-78028128D01*
X152325063Y-77995156D01*
X152284244Y-77964350D01*
X152242809Y-77935723D01*
X152200773Y-77909287D01*
X152158151Y-77885055D01*
X152114960Y-77863040D01*
X152071214Y-77843254D01*
X152026931Y-77825709D01*
X151982124Y-77810419D01*
X151936809Y-77797395D01*
X151891003Y-77786651D01*
X151844721Y-77778198D01*
X151797979Y-77772050D01*
X151750791Y-77768218D01*
X151703174Y-77766717D01*
X151655144Y-77767557D01*
X151606715Y-77770751D01*
X151557903Y-77776313D01*
X151508725Y-77784255D01*
X151459196Y-77794588D01*
X151409330Y-77807327D01*
X151359145Y-77822482D01*
X151308655Y-77840068D01*
X151257876Y-77860096D01*
X151206824Y-77882579D01*
X151155514Y-77907529D01*
X151103962Y-77934959D01*
X151052183Y-77964882D01*
X151000193Y-77997311D01*
X150905330Y-78065181D01*
X150812765Y-78136005D01*
X150722563Y-78209722D01*
X150634794Y-78286273D01*
X150549522Y-78365598D01*
X150466815Y-78447635D01*
X150386740Y-78532325D01*
X150309364Y-78619608D01*
X150238978Y-78690371D01*
X150167085Y-78759550D01*
X150093711Y-78827121D01*
X150018883Y-78893062D01*
X149942629Y-78957348D01*
X149864977Y-79019955D01*
X149785952Y-79080861D01*
X149705583Y-79140042D01*
X149672432Y-79165637D01*
X149638371Y-79189800D01*
X149603448Y-79212514D01*
X149567710Y-79233760D01*
X149531205Y-79253520D01*
X149493980Y-79271779D01*
X149456082Y-79288517D01*
X149417559Y-79303717D01*
X149378458Y-79317362D01*
X149338826Y-79329435D01*
X149298711Y-79339916D01*
X149258160Y-79348790D01*
X149217221Y-79356038D01*
X149175940Y-79361643D01*
X149134365Y-79365587D01*
X149092544Y-79367852D01*
X148959194Y-79367852D01*
X148290621Y-79376967D01*
X148170596Y-79374668D01*
X148063346Y-79366972D01*
X148013563Y-79360544D01*
X147965836Y-79352098D01*
X147919785Y-79341412D01*
X147875030Y-79328263D01*
X147831193Y-79312428D01*
X147787892Y-79293684D01*
X147744750Y-79271808D01*
X147701387Y-79246579D01*
X147657422Y-79217772D01*
X147612477Y-79185166D01*
X147518128Y-79107661D01*
X147415304Y-79012284D01*
X147300968Y-78897250D01*
X147172085Y-78760779D01*
X147025619Y-78601087D01*
X146934697Y-78511347D01*
X146845119Y-78420296D01*
X146756899Y-78327949D01*
X146670051Y-78234320D01*
X146584588Y-78139425D01*
X146500524Y-78043278D01*
X146417873Y-77945895D01*
X146336649Y-77847291D01*
X146288613Y-77782258D01*
X146243390Y-77715524D01*
X146201012Y-77647180D01*
X146161511Y-77577321D01*
X146124919Y-77506038D01*
X146091270Y-77433424D01*
X146060593Y-77359573D01*
X146032923Y-77284578D01*
X146008291Y-77208530D01*
X145986728Y-77131524D01*
X145968268Y-77053651D01*
X145952943Y-76975005D01*
X145940784Y-76895678D01*
X145931823Y-76815763D01*
X145926094Y-76735354D01*
X145923627Y-76654543D01*
X145942149Y-69855549D01*
X145948491Y-68777782D01*
X146412538Y-68777782D01*
X146413322Y-68810975D01*
X146416119Y-68842217D01*
X146418329Y-68857117D01*
X146421109Y-68871539D01*
X146424481Y-68885489D01*
X146428469Y-68898970D01*
X146433095Y-68911985D01*
X146438380Y-68924539D01*
X146444348Y-68936636D01*
X146451020Y-68948278D01*
X146458420Y-68959470D01*
X146466569Y-68970215D01*
X146475490Y-68980517D01*
X146485205Y-68990380D01*
X146495736Y-68999807D01*
X146507107Y-69008803D01*
X146519339Y-69017371D01*
X146532455Y-69025515D01*
X146546477Y-69033238D01*
X146561427Y-69040545D01*
X146577328Y-69047438D01*
X146594203Y-69053922D01*
X146612073Y-69060000D01*
X146630961Y-69065677D01*
X146671881Y-69075839D01*
X146666339Y-69046544D01*
X146659213Y-69017763D01*
X146650542Y-68989552D01*
X146640363Y-68961965D01*
X146628714Y-68935059D01*
X146615634Y-68908890D01*
X146601161Y-68883511D01*
X146585331Y-68858980D01*
X146568184Y-68835351D01*
X146549757Y-68812679D01*
X146530089Y-68791021D01*
X146509216Y-68770431D01*
X146487177Y-68750966D01*
X146464010Y-68732679D01*
X146439754Y-68715628D01*
X146414445Y-68699867D01*
X146416293Y-68705424D01*
X146413588Y-68742608D01*
X146412538Y-68777782D01*
X145948491Y-68777782D01*
X145949505Y-68605407D01*
X146785248Y-68605407D01*
X146792853Y-68641745D01*
X146802548Y-68679385D01*
X146813917Y-68716428D01*
X146826927Y-68752822D01*
X146841547Y-68788516D01*
X146857746Y-68823459D01*
X146875493Y-68857599D01*
X146894757Y-68890885D01*
X146915506Y-68923266D01*
X146937709Y-68954691D01*
X146961335Y-68985108D01*
X146986353Y-69014466D01*
X147012732Y-69042715D01*
X147040440Y-69069802D01*
X147069445Y-69095677D01*
X147099718Y-69120288D01*
X147091274Y-69082201D01*
X147081178Y-69044661D01*
X147069460Y-69007715D01*
X147056149Y-68971412D01*
X147041276Y-68935800D01*
X147024869Y-68900929D01*
X147006959Y-68866845D01*
X146987575Y-68833599D01*
X146966747Y-68801237D01*
X146944504Y-68769809D01*
X146920877Y-68739363D01*
X146895895Y-68709948D01*
X146869587Y-68681612D01*
X146841983Y-68654403D01*
X146813114Y-68628369D01*
X146785248Y-68605407D01*
X145949505Y-68605407D01*
X145949789Y-68557180D01*
X145949786Y-68555404D01*
X147012664Y-68555404D01*
X147059991Y-68604948D01*
X147104353Y-68656141D01*
X147146214Y-68708680D01*
X147186037Y-68762260D01*
X147261426Y-68871330D01*
X147334232Y-68980922D01*
X147408167Y-69088603D01*
X147446718Y-69140968D01*
X147486943Y-69191944D01*
X147529305Y-69241226D01*
X147574269Y-69288513D01*
X147622299Y-69333498D01*
X147673859Y-69375880D01*
X147673859Y-69375877D01*
X147624537Y-69267794D01*
X147577156Y-69168411D01*
X147531527Y-69077487D01*
X147487463Y-68994781D01*
X147444778Y-68920052D01*
X147403284Y-68853057D01*
X147362793Y-68793556D01*
X147323120Y-68741306D01*
X147284075Y-68696067D01*
X147245473Y-68657597D01*
X147207126Y-68625655D01*
X147168847Y-68599999D01*
X147130448Y-68580387D01*
X147091743Y-68566578D01*
X147052544Y-68558331D01*
X147012664Y-68555404D01*
X145949786Y-68555404D01*
X145949623Y-68453542D01*
X147401603Y-68453542D01*
X147413613Y-68471008D01*
X147425242Y-68488722D01*
X147436486Y-68506677D01*
X147447341Y-68524867D01*
X147457803Y-68543286D01*
X147467869Y-68561928D01*
X147477535Y-68580785D01*
X147486797Y-68599853D01*
X147521871Y-68662015D01*
X147557640Y-68723482D01*
X147594103Y-68784254D01*
X147631259Y-68844332D01*
X147816467Y-69142518D01*
X147834294Y-69179712D01*
X147853138Y-69216374D01*
X147872986Y-69252484D01*
X147893826Y-69288021D01*
X147915646Y-69322965D01*
X147938434Y-69357295D01*
X147962176Y-69390991D01*
X147986862Y-69424033D01*
X147992551Y-69429359D01*
X147998498Y-69434237D01*
X148004689Y-69438686D01*
X148011109Y-69442724D01*
X148017745Y-69446370D01*
X148024583Y-69449643D01*
X148031608Y-69452561D01*
X148038808Y-69455142D01*
X148053673Y-69459372D01*
X148069067Y-69462482D01*
X148084879Y-69464620D01*
X148100997Y-69465937D01*
X148117311Y-69466580D01*
X148133709Y-69466700D01*
X148166312Y-69465966D01*
X148197915Y-69464927D01*
X148213064Y-69464667D01*
X148227630Y-69464779D01*
X148217077Y-69446369D01*
X148206159Y-69428181D01*
X148194878Y-69410221D01*
X148183239Y-69392494D01*
X148171245Y-69375005D01*
X148158901Y-69357760D01*
X148146208Y-69340763D01*
X148133172Y-69324021D01*
X148027602Y-69155481D01*
X147875735Y-68896188D01*
X147859067Y-68868407D01*
X147840790Y-68834198D01*
X147821973Y-68800291D01*
X147802619Y-68766693D01*
X147782733Y-68733411D01*
X147762317Y-68700451D01*
X147741377Y-68667819D01*
X147719916Y-68635521D01*
X147697937Y-68603564D01*
X147685147Y-68587758D01*
X147671150Y-68571745D01*
X147656041Y-68555754D01*
X147639914Y-68540013D01*
X147622865Y-68524749D01*
X147604989Y-68510191D01*
X147586380Y-68496566D01*
X147567133Y-68484102D01*
X147557300Y-68478377D01*
X147547344Y-68473028D01*
X147537276Y-68468083D01*
X147527107Y-68463570D01*
X147516851Y-68459519D01*
X147506518Y-68455957D01*
X147496120Y-68452914D01*
X147485670Y-68450417D01*
X147475180Y-68448496D01*
X147464660Y-68447178D01*
X147454124Y-68446492D01*
X147443582Y-68446467D01*
X147433048Y-68447131D01*
X147422531Y-68448512D01*
X147412046Y-68450640D01*
X147401603Y-68453542D01*
X145949623Y-68453542D01*
X145949474Y-68360935D01*
X147803502Y-68360935D01*
X147926454Y-68580736D01*
X148054375Y-68797651D01*
X148184250Y-69002194D01*
X148248977Y-69096863D01*
X148313060Y-69184881D01*
X148376124Y-69265065D01*
X148437790Y-69336228D01*
X148497682Y-69397184D01*
X148555423Y-69446749D01*
X148610635Y-69483736D01*
X148637175Y-69497142D01*
X148662941Y-69506960D01*
X148687887Y-69513040D01*
X148711965Y-69515235D01*
X148735128Y-69513396D01*
X148757329Y-69507375D01*
X148751767Y-69507375D01*
X148459312Y-69051647D01*
X148317273Y-68838932D01*
X148183177Y-68650786D01*
X148120316Y-68569318D01*
X148060889Y-68498062D01*
X148005380Y-68438374D01*
X147954271Y-68391611D01*
X147908046Y-68359129D01*
X147886916Y-68348667D01*
X147867188Y-68342284D01*
X147848922Y-68340150D01*
X147832178Y-68342434D01*
X147817018Y-68349306D01*
X147803502Y-68360935D01*
X145949474Y-68360935D01*
X145949382Y-68303473D01*
X148166831Y-68303473D01*
X148167161Y-68309511D01*
X148168035Y-68315550D01*
X148169417Y-68321587D01*
X148171268Y-68327617D01*
X148173552Y-68333635D01*
X148176232Y-68339635D01*
X148179270Y-68345614D01*
X148182628Y-68351566D01*
X148190159Y-68363372D01*
X148198525Y-68375016D01*
X148207428Y-68386459D01*
X148225652Y-68408590D01*
X148234377Y-68419202D01*
X148242444Y-68429461D01*
X148340888Y-68555726D01*
X148437558Y-68683326D01*
X148532440Y-68812242D01*
X148625522Y-68942455D01*
X148716790Y-69073945D01*
X148806231Y-69206695D01*
X148893830Y-69340684D01*
X148978264Y-69473824D01*
X148980569Y-69472702D01*
X148988298Y-69469401D01*
X149006634Y-69462521D01*
X149027705Y-69455380D01*
X149050187Y-69448109D01*
X149072755Y-69440838D01*
X149094085Y-69433697D01*
X149112855Y-69426817D01*
X149120866Y-69423516D01*
X149127740Y-69420328D01*
X148386907Y-68309077D01*
X148378702Y-68297300D01*
X148370060Y-68285706D01*
X148360979Y-68274474D01*
X148351456Y-68263788D01*
X148341488Y-68253830D01*
X148336336Y-68249180D01*
X148331072Y-68244779D01*
X148325695Y-68240652D01*
X148320206Y-68236820D01*
X148314603Y-68233306D01*
X148308887Y-68230133D01*
X148303057Y-68227323D01*
X148297112Y-68224900D01*
X148291053Y-68222885D01*
X148284879Y-68221303D01*
X148278589Y-68220174D01*
X148272184Y-68219523D01*
X148265663Y-68219372D01*
X148259026Y-68219743D01*
X148252272Y-68220660D01*
X148245401Y-68222144D01*
X148238412Y-68224220D01*
X148231306Y-68226909D01*
X148224082Y-68230234D01*
X148216740Y-68234218D01*
X148209278Y-68238883D01*
X148201698Y-68244253D01*
X148194530Y-68250009D01*
X148188279Y-68255815D01*
X148182908Y-68261665D01*
X148178381Y-68267555D01*
X148174659Y-68273481D01*
X148171706Y-68279437D01*
X148169484Y-68285419D01*
X148167955Y-68291422D01*
X148167084Y-68297442D01*
X148166831Y-68303473D01*
X145949382Y-68303473D01*
X145949072Y-68110807D01*
X146424088Y-68110807D01*
X146424789Y-68127171D01*
X146426654Y-68143500D01*
X146429692Y-68159731D01*
X146433912Y-68175802D01*
X146439320Y-68191649D01*
X146445927Y-68207209D01*
X146451900Y-68216972D01*
X146458009Y-68225795D01*
X146464248Y-68233718D01*
X146470612Y-68240778D01*
X146477095Y-68247014D01*
X146483692Y-68252462D01*
X146490397Y-68257162D01*
X146497206Y-68261151D01*
X146504113Y-68264467D01*
X146511111Y-68267149D01*
X146518197Y-68269233D01*
X146525364Y-68270759D01*
X146532606Y-68271763D01*
X146539920Y-68272285D01*
X146547298Y-68272362D01*
X146554736Y-68272032D01*
X146562229Y-68271333D01*
X146569770Y-68270303D01*
X146584978Y-68267402D01*
X146600315Y-68263633D01*
X146615740Y-68259299D01*
X146646675Y-68250155D01*
X146662100Y-68245952D01*
X146677437Y-68242400D01*
X147055542Y-68164935D01*
X147319443Y-68103497D01*
X148542487Y-68103497D01*
X148637312Y-68254606D01*
X148734177Y-68404386D01*
X148833067Y-68552816D01*
X148933969Y-68699877D01*
X149036868Y-68845548D01*
X149141749Y-68989808D01*
X149248599Y-69132637D01*
X149357402Y-69274014D01*
X149362340Y-69279879D01*
X149367430Y-69285323D01*
X149372672Y-69290345D01*
X149378068Y-69294947D01*
X149383617Y-69299130D01*
X149389319Y-69302895D01*
X149395176Y-69306243D01*
X149401187Y-69309175D01*
X149407352Y-69311691D01*
X149413672Y-69313794D01*
X149420148Y-69315483D01*
X149426780Y-69316760D01*
X149433567Y-69317627D01*
X149440511Y-69318083D01*
X149447611Y-69318130D01*
X149454868Y-69317770D01*
X149462283Y-69317002D01*
X149469856Y-69315829D01*
X149477586Y-69314250D01*
X149485475Y-69312268D01*
X149493522Y-69309882D01*
X149501729Y-69307095D01*
X149510095Y-69303907D01*
X149518620Y-69300320D01*
X149527306Y-69296333D01*
X149536152Y-69291949D01*
X149545159Y-69287167D01*
X149554326Y-69281991D01*
X149573146Y-69270453D01*
X149592615Y-69257346D01*
X149529564Y-69191570D01*
X149468727Y-69124246D01*
X149409844Y-69055559D01*
X149352654Y-68985698D01*
X149242310Y-68843200D01*
X149135613Y-68698249D01*
X148924823Y-68406980D01*
X148816564Y-68263657D01*
X148760807Y-68193229D01*
X148703617Y-68123872D01*
X148702992Y-68122379D01*
X148702153Y-68121018D01*
X148701094Y-68119783D01*
X148699808Y-68118666D01*
X148698287Y-68117659D01*
X148696524Y-68116753D01*
X148694512Y-68115942D01*
X148692244Y-68115218D01*
X148689713Y-68114572D01*
X148686912Y-68113997D01*
X148683833Y-68113485D01*
X148680470Y-68113029D01*
X148672861Y-68112250D01*
X148664029Y-68111599D01*
X148615325Y-68109023D01*
X148599520Y-68108074D01*
X148582151Y-68106879D01*
X148563158Y-68105373D01*
X148542487Y-68103497D01*
X147319443Y-68103497D01*
X147431248Y-68077468D01*
X147522189Y-68053726D01*
X148960064Y-68053726D01*
X148960363Y-68059740D01*
X148961015Y-68065792D01*
X148962009Y-68071876D01*
X148963333Y-68077986D01*
X148964976Y-68084117D01*
X148966926Y-68090263D01*
X148969174Y-68096418D01*
X148971707Y-68102577D01*
X148974515Y-68108733D01*
X148980908Y-68121015D01*
X148988264Y-68133219D01*
X148996494Y-68145298D01*
X149005508Y-68157206D01*
X149343978Y-68589203D01*
X149685224Y-69018423D01*
X149692077Y-69026986D01*
X149699149Y-69035350D01*
X149706435Y-69043513D01*
X149713931Y-69051471D01*
X149721632Y-69059219D01*
X149729533Y-69066754D01*
X149737630Y-69074072D01*
X149745919Y-69081169D01*
X149754395Y-69088042D01*
X149763053Y-69094686D01*
X149771889Y-69101099D01*
X149780899Y-69107276D01*
X149790077Y-69113213D01*
X149799420Y-69118907D01*
X149808922Y-69124354D01*
X149818580Y-69129550D01*
X149823649Y-69132710D01*
X149828882Y-69135475D01*
X149834258Y-69137845D01*
X149839754Y-69139818D01*
X149845349Y-69141395D01*
X149851022Y-69142574D01*
X149856751Y-69143355D01*
X149862515Y-69143737D01*
X149868291Y-69143719D01*
X149874058Y-69143301D01*
X149879795Y-69142482D01*
X149885480Y-69141262D01*
X149891091Y-69139639D01*
X149896607Y-69137613D01*
X149902007Y-69135183D01*
X149907267Y-69132349D01*
X149909825Y-69130790D01*
X149912313Y-69129148D01*
X149914729Y-69127426D01*
X149917073Y-69125627D01*
X149919343Y-69123753D01*
X149921538Y-69121807D01*
X149923657Y-69119791D01*
X149925699Y-69117707D01*
X149927661Y-69115557D01*
X149929544Y-69113345D01*
X149931346Y-69111073D01*
X149933065Y-69108742D01*
X149934700Y-69106355D01*
X149936251Y-69103916D01*
X149937715Y-69101425D01*
X149939092Y-69098886D01*
X149940380Y-69096300D01*
X149941578Y-69093671D01*
X149942685Y-69091001D01*
X149943699Y-69088292D01*
X149944620Y-69085546D01*
X149945446Y-69082766D01*
X149946176Y-69079954D01*
X149946809Y-69077113D01*
X149947342Y-69074245D01*
X149947776Y-69071353D01*
X149948109Y-69068438D01*
X149948339Y-69065503D01*
X149948466Y-69062552D01*
X149948487Y-69059585D01*
X149948403Y-69056605D01*
X149948211Y-69053616D01*
X149948217Y-69053616D01*
X149948217Y-69009165D01*
X149583358Y-68488498D01*
X149397629Y-68229119D01*
X149303179Y-68100200D01*
X149207384Y-67971997D01*
X149203094Y-67966478D01*
X149198565Y-67961376D01*
X149193808Y-67956684D01*
X149188835Y-67952398D01*
X149183655Y-67948511D01*
X149178279Y-67945016D01*
X149172720Y-67941908D01*
X149166986Y-67939180D01*
X149161090Y-67936827D01*
X149155042Y-67934842D01*
X149148853Y-67933219D01*
X149142533Y-67931953D01*
X149136094Y-67931036D01*
X149129547Y-67930463D01*
X149122902Y-67930228D01*
X149116170Y-67930325D01*
X149109362Y-67930747D01*
X149102489Y-67931488D01*
X149095562Y-67932543D01*
X149088591Y-67933906D01*
X149081588Y-67935569D01*
X149074563Y-67937528D01*
X149067528Y-67939775D01*
X149060492Y-67942305D01*
X149046464Y-67948190D01*
X149032566Y-67955133D01*
X149018885Y-67963085D01*
X149005508Y-67971997D01*
X148999173Y-67976749D01*
X148993360Y-67981626D01*
X148988056Y-67986621D01*
X148983250Y-67991730D01*
X148978931Y-67996945D01*
X148975088Y-68002262D01*
X148971709Y-68007675D01*
X148968784Y-68013177D01*
X148966301Y-68018764D01*
X148964249Y-68024428D01*
X148962617Y-68030166D01*
X148961394Y-68035970D01*
X148960568Y-68041835D01*
X148960128Y-68047756D01*
X148960064Y-68053726D01*
X147522189Y-68053726D01*
X147804358Y-67980060D01*
X148174676Y-67872771D01*
X148248957Y-67849089D01*
X149380484Y-67849089D01*
X149719483Y-68315098D01*
X149888544Y-68545393D01*
X150059343Y-68773953D01*
X150068041Y-68786082D01*
X150076833Y-68799274D01*
X150095083Y-68827200D01*
X150104730Y-68841109D01*
X150114851Y-68854431D01*
X150125543Y-68866756D01*
X150131132Y-68872414D01*
X150136899Y-68877669D01*
X150142856Y-68882468D01*
X150149015Y-68886759D01*
X150155388Y-68890492D01*
X150161986Y-68893614D01*
X150168821Y-68896075D01*
X150175906Y-68897821D01*
X150183252Y-68898803D01*
X150190870Y-68898968D01*
X150198774Y-68898265D01*
X150206975Y-68896642D01*
X150215484Y-68894048D01*
X150224313Y-68890431D01*
X150233475Y-68885740D01*
X150242981Y-68879923D01*
X150252843Y-68872929D01*
X150263073Y-68864705D01*
X150272849Y-68856021D01*
X150281378Y-68847670D01*
X150288715Y-68839637D01*
X150294914Y-68831907D01*
X150300030Y-68824466D01*
X150304119Y-68817300D01*
X150307235Y-68810393D01*
X150309434Y-68803732D01*
X150310770Y-68797301D01*
X150311298Y-68791086D01*
X150311073Y-68785073D01*
X150310150Y-68779246D01*
X150308584Y-68773592D01*
X150306431Y-68768095D01*
X150303744Y-68762742D01*
X150300579Y-68757517D01*
X150296990Y-68752406D01*
X150293034Y-68747394D01*
X150284236Y-68737610D01*
X150274623Y-68728049D01*
X150264637Y-68718594D01*
X150254716Y-68709127D01*
X150245299Y-68699533D01*
X150240917Y-68694652D01*
X150236826Y-68689695D01*
X150233081Y-68684648D01*
X150229737Y-68679497D01*
X150165149Y-68577169D01*
X150099541Y-68475536D01*
X149967436Y-68272965D01*
X149902024Y-68171332D01*
X149837762Y-68069005D01*
X149775192Y-67965635D01*
X149714859Y-67860877D01*
X149703809Y-67842332D01*
X149692882Y-67825550D01*
X149682068Y-67810474D01*
X149671359Y-67797044D01*
X149660746Y-67785202D01*
X149650221Y-67774887D01*
X149639776Y-67766041D01*
X149629401Y-67758606D01*
X149619089Y-67752521D01*
X149608830Y-67747729D01*
X149598617Y-67744170D01*
X149588441Y-67741785D01*
X149578294Y-67740515D01*
X149568166Y-67740300D01*
X149558050Y-67741083D01*
X149547938Y-67742804D01*
X149537819Y-67745404D01*
X149527687Y-67748824D01*
X149517532Y-67753006D01*
X149507347Y-67757889D01*
X149497122Y-67763415D01*
X149486849Y-67769525D01*
X149466127Y-67783261D01*
X149445111Y-67798624D01*
X149423734Y-67815144D01*
X149380484Y-67849089D01*
X148248957Y-67849089D01*
X148542006Y-67755660D01*
X148781553Y-67672199D01*
X149861988Y-67672199D01*
X149862284Y-67678417D01*
X149862892Y-67684681D01*
X149863809Y-67690982D01*
X149865038Y-67697314D01*
X149866578Y-67703671D01*
X149868430Y-67710046D01*
X149870594Y-67716431D01*
X149873070Y-67722820D01*
X149875859Y-67729207D01*
X149878961Y-67735584D01*
X149882376Y-67741945D01*
X149886105Y-67748283D01*
X149890148Y-67754591D01*
X149894505Y-67760863D01*
X150472354Y-68592449D01*
X150482715Y-68618869D01*
X150487527Y-68632394D01*
X150489594Y-68639017D01*
X150491340Y-68645463D01*
X150492696Y-68651671D01*
X150493591Y-68657577D01*
X150493953Y-68663120D01*
X150493913Y-68665736D01*
X150493714Y-68668237D01*
X150493346Y-68670617D01*
X150492801Y-68672866D01*
X150492070Y-68674978D01*
X150491832Y-68675484D01*
X150512623Y-68668805D01*
X150532721Y-68661742D01*
X150551170Y-68654614D01*
X150567969Y-68647432D01*
X150583119Y-68640206D01*
X150596619Y-68632948D01*
X150608469Y-68625668D01*
X150618670Y-68618378D01*
X150627222Y-68611087D01*
X150634124Y-68603807D01*
X150639376Y-68596549D01*
X150641384Y-68592931D01*
X150642979Y-68589323D01*
X150644162Y-68585726D01*
X150644932Y-68582141D01*
X150645290Y-68578570D01*
X150645236Y-68575013D01*
X150644769Y-68571473D01*
X150643890Y-68567951D01*
X150642598Y-68564447D01*
X150640894Y-68560964D01*
X150504216Y-68309689D01*
X150369794Y-68059281D01*
X150234331Y-67810610D01*
X150165178Y-67687196D01*
X150094527Y-67564542D01*
X150090248Y-67557604D01*
X150085753Y-67551359D01*
X150081054Y-67545787D01*
X150076163Y-67540863D01*
X150071091Y-67536566D01*
X150065850Y-67532873D01*
X150060453Y-67529762D01*
X150054911Y-67527211D01*
X150049236Y-67525197D01*
X150043440Y-67523698D01*
X150037535Y-67522691D01*
X150031532Y-67522154D01*
X150025444Y-67522065D01*
X150019282Y-67522401D01*
X150013059Y-67523140D01*
X150006786Y-67524260D01*
X150000474Y-67525737D01*
X149994137Y-67527551D01*
X149987785Y-67529677D01*
X149981431Y-67532095D01*
X149968764Y-67537714D01*
X149956229Y-67544228D01*
X149943922Y-67551458D01*
X149931938Y-67559225D01*
X149920372Y-67567350D01*
X149909319Y-67575654D01*
X149904089Y-67579907D01*
X149899162Y-67584327D01*
X149894540Y-67588906D01*
X149890223Y-67593639D01*
X149886212Y-67598519D01*
X149882505Y-67603538D01*
X149879105Y-67608690D01*
X149876011Y-67613968D01*
X149873223Y-67619366D01*
X149870743Y-67624876D01*
X149868570Y-67630493D01*
X149866704Y-67636208D01*
X149865146Y-67642015D01*
X149863896Y-67647908D01*
X149862955Y-67653880D01*
X149862323Y-67659923D01*
X149862001Y-67666032D01*
X149861988Y-67672199D01*
X148781553Y-67672199D01*
X148906152Y-67628787D01*
X149266916Y-67492212D01*
X149432643Y-67424370D01*
X150247224Y-67424370D01*
X150247938Y-67433043D01*
X150249469Y-67442172D01*
X150251843Y-67451772D01*
X150255087Y-67461857D01*
X150259228Y-67472443D01*
X150264293Y-67483545D01*
X150270308Y-67495176D01*
X150277301Y-67507354D01*
X150285297Y-67520091D01*
X150511020Y-67875690D01*
X150735353Y-68231290D01*
X150743127Y-68243068D01*
X150751189Y-68254669D01*
X150759566Y-68265917D01*
X150768285Y-68276637D01*
X150777373Y-68286651D01*
X150786856Y-68295783D01*
X150791755Y-68299964D01*
X150796763Y-68303858D01*
X150801884Y-68307443D01*
X150807121Y-68310697D01*
X150812477Y-68313599D01*
X150817956Y-68316127D01*
X150823561Y-68318257D01*
X150829295Y-68319969D01*
X150835163Y-68321239D01*
X150841166Y-68322047D01*
X150847310Y-68322370D01*
X150853597Y-68322186D01*
X150860030Y-68321473D01*
X150866613Y-68320208D01*
X150873349Y-68318371D01*
X150880242Y-68315939D01*
X150887295Y-68312889D01*
X150894512Y-68309200D01*
X150901895Y-68304850D01*
X150909449Y-68299816D01*
X150913727Y-68295902D01*
X150917778Y-68291826D01*
X150921599Y-68287599D01*
X150925189Y-68283228D01*
X150928547Y-68278723D01*
X150931673Y-68274093D01*
X150934566Y-68269346D01*
X150937223Y-68264491D01*
X150939645Y-68259537D01*
X150941831Y-68254494D01*
X150943778Y-68249369D01*
X150945487Y-68244172D01*
X150946957Y-68238912D01*
X150948185Y-68233597D01*
X150949172Y-68228236D01*
X150949916Y-68222838D01*
X150950416Y-68217413D01*
X150950671Y-68211968D01*
X150950681Y-68206513D01*
X150950443Y-68201056D01*
X150949958Y-68195607D01*
X150949224Y-68190174D01*
X150948240Y-68184766D01*
X150947005Y-68179392D01*
X150945518Y-68174061D01*
X150943779Y-68168782D01*
X150941785Y-68163563D01*
X150939536Y-68158413D01*
X150937031Y-68153342D01*
X150934269Y-68148358D01*
X150931250Y-68143469D01*
X150927971Y-68138686D01*
X150821735Y-67944536D01*
X150714286Y-67750907D01*
X150496438Y-67364517D01*
X150487957Y-67351660D01*
X150483543Y-67345153D01*
X150478956Y-67338761D01*
X150474152Y-67332606D01*
X150469087Y-67326816D01*
X150463718Y-67321514D01*
X150460907Y-67319085D01*
X150458003Y-67316825D01*
X150455001Y-67314749D01*
X150451896Y-67312874D01*
X150448683Y-67311214D01*
X150445356Y-67309785D01*
X150441910Y-67308604D01*
X150438339Y-67307685D01*
X150434637Y-67307043D01*
X150430800Y-67306696D01*
X150426822Y-67306658D01*
X150422697Y-67306945D01*
X150418421Y-67307572D01*
X150413987Y-67308555D01*
X150409390Y-67309910D01*
X150404626Y-67311653D01*
X150399687Y-67313798D01*
X150394570Y-67316361D01*
X150373422Y-67321091D01*
X150353184Y-67326331D01*
X150334069Y-67332200D01*
X150316291Y-67338818D01*
X150300065Y-67346304D01*
X150292601Y-67350410D01*
X150285605Y-67354778D01*
X150279105Y-67359423D01*
X150273126Y-67364359D01*
X150267696Y-67369601D01*
X150262842Y-67375166D01*
X150258590Y-67381066D01*
X150254966Y-67387318D01*
X150251999Y-67393936D01*
X150249715Y-67400936D01*
X150248139Y-67408331D01*
X150247300Y-67416138D01*
X150247224Y-67424370D01*
X149432643Y-67424370D01*
X149624102Y-67345995D01*
X149706419Y-67306986D01*
X149787651Y-67264012D01*
X149867692Y-67217197D01*
X149946433Y-67166668D01*
X150023768Y-67112549D01*
X150099589Y-67054967D01*
X150122139Y-67036452D01*
X150672789Y-67036452D01*
X150688025Y-67096725D01*
X150705344Y-67158070D01*
X150724324Y-67218846D01*
X150744950Y-67279020D01*
X150767205Y-67338560D01*
X150791074Y-67397433D01*
X150816540Y-67455607D01*
X150843589Y-67513050D01*
X150872204Y-67569728D01*
X150902369Y-67625611D01*
X150934069Y-67680664D01*
X150967287Y-67734856D01*
X151002009Y-67788155D01*
X151038217Y-67840527D01*
X151075897Y-67891941D01*
X151115033Y-67942364D01*
X151118353Y-67946800D01*
X151121713Y-67950744D01*
X151125110Y-67954214D01*
X151128540Y-67957227D01*
X151132000Y-67959803D01*
X151135487Y-67961958D01*
X151138996Y-67963712D01*
X151142525Y-67965081D01*
X151146071Y-67966083D01*
X151149629Y-67966738D01*
X151153197Y-67967062D01*
X151156771Y-67967074D01*
X151160347Y-67966791D01*
X151163923Y-67966232D01*
X151167495Y-67965415D01*
X151171059Y-67964357D01*
X151174613Y-67963077D01*
X151178152Y-67961592D01*
X151181674Y-67959921D01*
X151185174Y-67958081D01*
X151192099Y-67953967D01*
X151198898Y-67949395D01*
X151205546Y-67944508D01*
X151212014Y-67939450D01*
X151224305Y-67929397D01*
X151228968Y-67926475D01*
X151233457Y-67923338D01*
X151237768Y-67919992D01*
X151241894Y-67916447D01*
X151245829Y-67912709D01*
X151249567Y-67908788D01*
X151253102Y-67904691D01*
X151256428Y-67900427D01*
X151259540Y-67896004D01*
X151262430Y-67891429D01*
X151265093Y-67886711D01*
X151267524Y-67881859D01*
X151269715Y-67876879D01*
X151271662Y-67871781D01*
X151273357Y-67866572D01*
X151274795Y-67861260D01*
X151275965Y-67855883D01*
X151276859Y-67850479D01*
X151277479Y-67845057D01*
X151277827Y-67839627D01*
X151277904Y-67834200D01*
X151277712Y-67828786D01*
X151277252Y-67823394D01*
X151276527Y-67818034D01*
X151275538Y-67812717D01*
X151274286Y-67807452D01*
X151272773Y-67802250D01*
X151271000Y-67797120D01*
X151268970Y-67792073D01*
X151266684Y-67787118D01*
X151264143Y-67782265D01*
X151261349Y-67777525D01*
X151002749Y-67379101D01*
X150968352Y-67330685D01*
X150932510Y-67283347D01*
X150894926Y-67237316D01*
X150855304Y-67192823D01*
X150813349Y-67150099D01*
X150768765Y-67109374D01*
X150721257Y-67070880D01*
X150672789Y-67036452D01*
X150122139Y-67036452D01*
X150173788Y-66994046D01*
X150246257Y-66929912D01*
X150316890Y-66862691D01*
X150385579Y-66792508D01*
X150423026Y-66751475D01*
X150892781Y-66751475D01*
X151136098Y-67123975D01*
X151258711Y-67309096D01*
X151383582Y-67492308D01*
X151389356Y-67497484D01*
X151395405Y-67502245D01*
X151401708Y-67506583D01*
X151408240Y-67510494D01*
X151414982Y-67513971D01*
X151421909Y-67517009D01*
X151429001Y-67519602D01*
X151436235Y-67521744D01*
X151443588Y-67523429D01*
X151451039Y-67524651D01*
X151458566Y-67525405D01*
X151466146Y-67525684D01*
X151473757Y-67525483D01*
X151481377Y-67524797D01*
X151488984Y-67523619D01*
X151496556Y-67521943D01*
X151501630Y-67519806D01*
X151506546Y-67517397D01*
X151511294Y-67514726D01*
X151515866Y-67511803D01*
X151520253Y-67508637D01*
X151524446Y-67505237D01*
X151528437Y-67501613D01*
X151532216Y-67497775D01*
X151535774Y-67493731D01*
X151539104Y-67489492D01*
X151542195Y-67485066D01*
X151545040Y-67480464D01*
X151547628Y-67475695D01*
X151549953Y-67470768D01*
X151552003Y-67465692D01*
X151553772Y-67460478D01*
X151555240Y-67455172D01*
X151556397Y-67449821D01*
X151557245Y-67444440D01*
X151557785Y-67439040D01*
X151558019Y-67433635D01*
X151557950Y-67428237D01*
X151557579Y-67422859D01*
X151556909Y-67417515D01*
X151555942Y-67412216D01*
X151554678Y-67406975D01*
X151553122Y-67401806D01*
X151551273Y-67396721D01*
X151549135Y-67391733D01*
X151546710Y-67386855D01*
X151543999Y-67382100D01*
X151541004Y-67377480D01*
X151512073Y-67329219D01*
X151482282Y-67281524D01*
X151451639Y-67234404D01*
X151420155Y-67187871D01*
X151387836Y-67141936D01*
X151354693Y-67096610D01*
X151320734Y-67051904D01*
X151285968Y-67007828D01*
X151250403Y-66964394D01*
X151214048Y-66921613D01*
X151176912Y-66879496D01*
X151139005Y-66838053D01*
X151100334Y-66797295D01*
X151060908Y-66757235D01*
X151020737Y-66717881D01*
X150980685Y-66680055D01*
X150892781Y-66751475D01*
X150423026Y-66751475D01*
X150452216Y-66719489D01*
X150516694Y-66643758D01*
X150578906Y-66565442D01*
X150638743Y-66484666D01*
X150673117Y-66434856D01*
X151198776Y-66434856D01*
X151201999Y-66454319D01*
X151208514Y-66476796D01*
X151218070Y-66501967D01*
X151245313Y-66559118D01*
X151281737Y-66623225D01*
X151325350Y-66691740D01*
X151374162Y-66762117D01*
X151426180Y-66831808D01*
X151479414Y-66898265D01*
X151531871Y-66958940D01*
X151581562Y-67011287D01*
X151626494Y-67052757D01*
X151646553Y-67068617D01*
X151664675Y-67080803D01*
X151680613Y-67088995D01*
X151694116Y-67092877D01*
X151704936Y-67092129D01*
X151712824Y-67086432D01*
X151717531Y-67075469D01*
X151718808Y-67058921D01*
X151738725Y-67056410D01*
X151753194Y-67049440D01*
X151762528Y-67038342D01*
X151767042Y-67023443D01*
X151767049Y-67005071D01*
X151762865Y-66983554D01*
X151754802Y-66959222D01*
X151743174Y-66932401D01*
X151728297Y-66903421D01*
X151710484Y-66872610D01*
X151667304Y-66806807D01*
X151616149Y-66737618D01*
X151559529Y-66667670D01*
X151499958Y-66599587D01*
X151439947Y-66535998D01*
X151382009Y-66479528D01*
X151328656Y-66432802D01*
X151282400Y-66398448D01*
X151262719Y-66386731D01*
X151245754Y-66379092D01*
X151231820Y-66375858D01*
X151221230Y-66377359D01*
X151214298Y-66383922D01*
X151211339Y-66395876D01*
X151211339Y-66397726D01*
X151203197Y-66406241D01*
X151199092Y-66418723D01*
X151198776Y-66434856D01*
X150673117Y-66434856D01*
X150696098Y-66401556D01*
X150750864Y-66316236D01*
X150802933Y-66228833D01*
X150852198Y-66139472D01*
X150898552Y-66048278D01*
X150937705Y-65964340D01*
X151352099Y-65964340D01*
X151360097Y-66013464D01*
X151370732Y-66061810D01*
X151383943Y-66109285D01*
X151399674Y-66155797D01*
X151417862Y-66201254D01*
X151438451Y-66245562D01*
X151461380Y-66288630D01*
X151486589Y-66330364D01*
X151514020Y-66370673D01*
X151543614Y-66409465D01*
X151575310Y-66446646D01*
X151609051Y-66482124D01*
X151644775Y-66515808D01*
X151682425Y-66547603D01*
X151721940Y-66577419D01*
X151763262Y-66605162D01*
X151766964Y-66607013D01*
X151759639Y-66560789D01*
X151749517Y-66516423D01*
X151736666Y-66473691D01*
X151721153Y-66432367D01*
X151703047Y-66392226D01*
X151682415Y-66353042D01*
X151659325Y-66314591D01*
X151633845Y-66276647D01*
X151606043Y-66238985D01*
X151575986Y-66201381D01*
X151543743Y-66163608D01*
X151509380Y-66125441D01*
X151472967Y-66086657D01*
X151434571Y-66047028D01*
X151352099Y-65964340D01*
X150937705Y-65964340D01*
X150941886Y-65955377D01*
X150982093Y-65860894D01*
X151019066Y-65764955D01*
X151052698Y-65667685D01*
X151054342Y-65662319D01*
X151463371Y-65662319D01*
X151463662Y-65678433D01*
X151465129Y-65693725D01*
X151467708Y-65708232D01*
X151471337Y-65721997D01*
X151475953Y-65735058D01*
X151481494Y-65747456D01*
X151487896Y-65759230D01*
X151495097Y-65770421D01*
X151503035Y-65781069D01*
X151511646Y-65791214D01*
X151520868Y-65800895D01*
X151530638Y-65810153D01*
X151540893Y-65819028D01*
X151562608Y-65835788D01*
X151585511Y-65851495D01*
X151609101Y-65866470D01*
X151656332Y-65895503D01*
X151678970Y-65910201D01*
X151700286Y-65925447D01*
X151702140Y-65927299D01*
X151697975Y-65900128D01*
X151692388Y-65873356D01*
X151685410Y-65847034D01*
X151677071Y-65821209D01*
X151667400Y-65795932D01*
X151656427Y-65771250D01*
X151644184Y-65747214D01*
X151630699Y-65723871D01*
X151616003Y-65701272D01*
X151600126Y-65679464D01*
X151583097Y-65658497D01*
X151564948Y-65638421D01*
X151545708Y-65619283D01*
X151525407Y-65601133D01*
X151504075Y-65584021D01*
X151481742Y-65567994D01*
X151475215Y-65588826D01*
X151470177Y-65608634D01*
X151466566Y-65627459D01*
X151464318Y-65645341D01*
X151463371Y-65662319D01*
X151054342Y-65662319D01*
X151082880Y-65569210D01*
X151109505Y-65469656D01*
X151132466Y-65369147D01*
X151151655Y-65267809D01*
X151166965Y-65165767D01*
X151178288Y-65063148D01*
X151185517Y-64960077D01*
X151188544Y-64856678D01*
X151187261Y-64753078D01*
X151196519Y-64753076D01*
X151200198Y-64679833D01*
X151199774Y-64606908D01*
X151195308Y-64534459D01*
X151186859Y-64462639D01*
X151174486Y-64391605D01*
X151158250Y-64321513D01*
X151138209Y-64252519D01*
X151114423Y-64184778D01*
X151086952Y-64118445D01*
X151055856Y-64053677D01*
X151021193Y-63990630D01*
X150983023Y-63929459D01*
X150941406Y-63870319D01*
X150896402Y-63813368D01*
X150848070Y-63758759D01*
X150796469Y-63706650D01*
X150742653Y-63659362D01*
X150694723Y-63618314D01*
X150652093Y-63583669D01*
X150632584Y-63568798D01*
X150614182Y-63555589D01*
X150596813Y-63544062D01*
X150580405Y-63534238D01*
X150564885Y-63526136D01*
X150550180Y-63519777D01*
X150536217Y-63515182D01*
X150522923Y-63512371D01*
X150510225Y-63511363D01*
X150498050Y-63512181D01*
X150486326Y-63514843D01*
X150474979Y-63519370D01*
X150463937Y-63525783D01*
X150453126Y-63534102D01*
X150442474Y-63544347D01*
X150431908Y-63556538D01*
X150421355Y-63570697D01*
X150410742Y-63586842D01*
X150399996Y-63604996D01*
X150389044Y-63625177D01*
X150366231Y-63671705D01*
X150341719Y-63726589D01*
X150314926Y-63789992D01*
X150192383Y-64049947D01*
X150063442Y-64306637D01*
X149928170Y-64559947D01*
X149786636Y-64809760D01*
X149638907Y-65055961D01*
X149485051Y-65298432D01*
X149325135Y-65537058D01*
X149159228Y-65771724D01*
X149046322Y-65926676D01*
X148928697Y-66077634D01*
X148806466Y-66224501D01*
X148679742Y-66367183D01*
X148548638Y-66505584D01*
X148413266Y-66639609D01*
X148273740Y-66769163D01*
X148130172Y-66894152D01*
X147982676Y-67014479D01*
X147831363Y-67130049D01*
X147676348Y-67240768D01*
X147517743Y-67346540D01*
X147355661Y-67447270D01*
X147190214Y-67542863D01*
X147021516Y-67633224D01*
X146849680Y-67718257D01*
X146825131Y-67730098D01*
X146800187Y-67741442D01*
X146749609Y-67763432D01*
X146698944Y-67785813D01*
X146673892Y-67797645D01*
X146649192Y-67810169D01*
X146624969Y-67823583D01*
X146601349Y-67838084D01*
X146578456Y-67853872D01*
X146556415Y-67871144D01*
X146535350Y-67890097D01*
X146515386Y-67910931D01*
X146505857Y-67922115D01*
X146496649Y-67933843D01*
X146487780Y-67946140D01*
X146479263Y-67959031D01*
X146468784Y-67972297D01*
X146459385Y-67986155D01*
X146451075Y-68000543D01*
X146443861Y-68015396D01*
X146437753Y-68030654D01*
X146432759Y-68046253D01*
X146428887Y-68062131D01*
X146426145Y-68078224D01*
X146424543Y-68094471D01*
X146424088Y-68110807D01*
X145949072Y-68110807D01*
X145947749Y-67286884D01*
X146470640Y-67286884D01*
X146471973Y-67316312D01*
X146474698Y-67345628D01*
X146478811Y-67374782D01*
X146484305Y-67403724D01*
X146491175Y-67432403D01*
X146499414Y-67460768D01*
X146509016Y-67488771D01*
X146519976Y-67516359D01*
X146532289Y-67543484D01*
X146545947Y-67570095D01*
X146562813Y-67547870D01*
X146580604Y-67526509D01*
X146599283Y-67506036D01*
X146618817Y-67486474D01*
X146639170Y-67467845D01*
X146660307Y-67450173D01*
X146682193Y-67433482D01*
X146704794Y-67417793D01*
X146728073Y-67403131D01*
X146751996Y-67389519D01*
X146776529Y-67376979D01*
X146801635Y-67365535D01*
X146827280Y-67355210D01*
X146853429Y-67346027D01*
X146880048Y-67338009D01*
X146907100Y-67331180D01*
X146931909Y-67324666D01*
X146956225Y-67316901D01*
X146980006Y-67307916D01*
X147003212Y-67297742D01*
X147025802Y-67286411D01*
X147047735Y-67273951D01*
X147068971Y-67260395D01*
X147089468Y-67245773D01*
X147109185Y-67230116D01*
X147128082Y-67213454D01*
X147146118Y-67195819D01*
X147163252Y-67177241D01*
X147179443Y-67157750D01*
X147194650Y-67137378D01*
X147208833Y-67116155D01*
X147221950Y-67094112D01*
X147223804Y-67094112D01*
X147132341Y-67087247D01*
X147040775Y-67082942D01*
X146949160Y-67081194D01*
X146857550Y-67082003D01*
X146765999Y-67085367D01*
X146674559Y-67091285D01*
X146583285Y-67099757D01*
X146492229Y-67110780D01*
X146485080Y-67139824D01*
X146479359Y-67169057D01*
X146475060Y-67198430D01*
X146472178Y-67227893D01*
X146470707Y-67257394D01*
X146470640Y-67286884D01*
X145947749Y-67286884D01*
X145947706Y-67259853D01*
X145942670Y-66477370D01*
X146388507Y-66477370D01*
X146396629Y-66490492D01*
X146403369Y-66504120D01*
X146408852Y-66518197D01*
X146413203Y-66532665D01*
X146416550Y-66547467D01*
X146419017Y-66562546D01*
X146421817Y-66593299D01*
X146423003Y-66715826D01*
X146425830Y-66744030D01*
X146428315Y-66757450D01*
X146431682Y-66770340D01*
X146436056Y-66782640D01*
X146441565Y-66794295D01*
X146448332Y-66805245D01*
X146456486Y-66815433D01*
X146466150Y-66824803D01*
X146477451Y-66833295D01*
X146490516Y-66840852D01*
X146505468Y-66847418D01*
X146522435Y-66852933D01*
X146541543Y-66857341D01*
X146562916Y-66860584D01*
X146586681Y-66862603D01*
X146725562Y-66869516D01*
X146864291Y-66872761D01*
X147002716Y-66873184D01*
X147140686Y-66871632D01*
X147414649Y-66865989D01*
X147684965Y-66862603D01*
X147820170Y-66794077D01*
X147787680Y-66785131D01*
X147757869Y-66776009D01*
X147730647Y-66766721D01*
X147705926Y-66757274D01*
X147683617Y-66747679D01*
X147663631Y-66737943D01*
X147645879Y-66728075D01*
X147630272Y-66718084D01*
X147616722Y-66707980D01*
X147605140Y-66697770D01*
X147595436Y-66687464D01*
X147587522Y-66677071D01*
X147581309Y-66666599D01*
X147576709Y-66656057D01*
X147573632Y-66645454D01*
X147571989Y-66634799D01*
X147571692Y-66624100D01*
X147572652Y-66613367D01*
X147574780Y-66602608D01*
X147577987Y-66591832D01*
X147582184Y-66581048D01*
X147587282Y-66570264D01*
X147599828Y-66548735D01*
X147614914Y-66527314D01*
X147631827Y-66506072D01*
X147650958Y-66484217D01*
X147632239Y-66481742D01*
X147621461Y-66479522D01*
X147856107Y-66479522D01*
X147866500Y-66495400D01*
X147878380Y-66512472D01*
X147884505Y-66520494D01*
X147890798Y-66528039D01*
X147897294Y-66535008D01*
X147904026Y-66541300D01*
X147911026Y-66546816D01*
X147918330Y-66551455D01*
X147925401Y-66554830D01*
X147933313Y-66557879D01*
X147941908Y-66560408D01*
X147951030Y-66562220D01*
X147955740Y-66562797D01*
X147960521Y-66563121D01*
X147965356Y-66563169D01*
X147970224Y-66562915D01*
X147975105Y-66562336D01*
X147979980Y-66561407D01*
X147984830Y-66560103D01*
X147989634Y-66558401D01*
X147994373Y-66556275D01*
X147999027Y-66553702D01*
X148003577Y-66550656D01*
X148008002Y-66547115D01*
X148012284Y-66543052D01*
X148016403Y-66538444D01*
X148020338Y-66533266D01*
X148024070Y-66527494D01*
X148027581Y-66521104D01*
X148030848Y-66514070D01*
X148033855Y-66506369D01*
X148036579Y-66497977D01*
X148039003Y-66488868D01*
X148041106Y-66479018D01*
X148042868Y-66468404D01*
X148044270Y-66457000D01*
X148009546Y-66460251D01*
X147974839Y-66464253D01*
X147905537Y-66473350D01*
X147856107Y-66479522D01*
X147621461Y-66479522D01*
X147598785Y-66474851D01*
X147565542Y-66465229D01*
X147549006Y-66459302D01*
X147532528Y-66452584D01*
X147516111Y-66445038D01*
X147499757Y-66436627D01*
X147485469Y-66429448D01*
X147470529Y-66423040D01*
X147439565Y-66411623D01*
X147408600Y-66400554D01*
X147393661Y-66394580D01*
X147379372Y-66388009D01*
X147365952Y-66380613D01*
X147359635Y-66376535D01*
X147353617Y-66372165D01*
X147347924Y-66367475D01*
X147342584Y-66362436D01*
X147337623Y-66357020D01*
X147333070Y-66351199D01*
X147328951Y-66344944D01*
X147325292Y-66338226D01*
X147322123Y-66331017D01*
X147319468Y-66323288D01*
X147317357Y-66315011D01*
X147315815Y-66306158D01*
X147314870Y-66296700D01*
X147314549Y-66286609D01*
X147314897Y-66276518D01*
X147315921Y-66267068D01*
X147317592Y-66258236D01*
X147319881Y-66250001D01*
X147322758Y-66242342D01*
X147326196Y-66235236D01*
X147330163Y-66228661D01*
X147334632Y-66222597D01*
X147339573Y-66217020D01*
X147344957Y-66211911D01*
X147350755Y-66207246D01*
X147356937Y-66203005D01*
X147363474Y-66199165D01*
X147370338Y-66195705D01*
X147377499Y-66192603D01*
X147384928Y-66189838D01*
X147392595Y-66187387D01*
X147400472Y-66185229D01*
X147408530Y-66183343D01*
X147416738Y-66181706D01*
X147433493Y-66179094D01*
X147450503Y-66177220D01*
X147467534Y-66175911D01*
X147484354Y-66174992D01*
X147516425Y-66173631D01*
X147694196Y-66166570D01*
X147871793Y-66161592D01*
X148225771Y-66155109D01*
X148245158Y-66157528D01*
X148264561Y-66159020D01*
X148283947Y-66159591D01*
X148303285Y-66159249D01*
X148322545Y-66158002D01*
X148341695Y-66155856D01*
X148360703Y-66152819D01*
X148379539Y-66148897D01*
X148398171Y-66144100D01*
X148416567Y-66138433D01*
X148434697Y-66131904D01*
X148452529Y-66124520D01*
X148470031Y-66116289D01*
X148487174Y-66107217D01*
X148503924Y-66097313D01*
X148520251Y-66086583D01*
X148556424Y-66055503D01*
X148564993Y-66047530D01*
X148572926Y-66039247D01*
X148576586Y-66034954D01*
X148580003Y-66030541D01*
X148583150Y-66025994D01*
X148585999Y-66021298D01*
X148588523Y-66016440D01*
X148590694Y-66011404D01*
X148592483Y-66006177D01*
X148593864Y-66000745D01*
X148594807Y-65995092D01*
X148595286Y-65989206D01*
X148595273Y-65983072D01*
X148594739Y-65976675D01*
X148593658Y-65970001D01*
X148592000Y-65963037D01*
X148589739Y-65955767D01*
X148586847Y-65948178D01*
X148583295Y-65940255D01*
X148579057Y-65931984D01*
X148574103Y-65923351D01*
X148568407Y-65914341D01*
X148544121Y-65878038D01*
X148523440Y-65845995D01*
X148506497Y-65817869D01*
X148499470Y-65805168D01*
X148493426Y-65793319D01*
X148488384Y-65782278D01*
X148484360Y-65772003D01*
X148481370Y-65762451D01*
X148479431Y-65753579D01*
X148478559Y-65745344D01*
X148478772Y-65737705D01*
X148480085Y-65730617D01*
X148482516Y-65724039D01*
X148486081Y-65717928D01*
X148490797Y-65712240D01*
X148496680Y-65706934D01*
X148503747Y-65701966D01*
X148512014Y-65697294D01*
X148521499Y-65692875D01*
X148532217Y-65688666D01*
X148544186Y-65684624D01*
X148571941Y-65676873D01*
X148604896Y-65669279D01*
X148643186Y-65661501D01*
X148686943Y-65653196D01*
X148752461Y-65643271D01*
X148768189Y-65640158D01*
X148783310Y-65636105D01*
X148790588Y-65633617D01*
X148797649Y-65630765D01*
X148804471Y-65627505D01*
X148811033Y-65623795D01*
X148817313Y-65619591D01*
X148823289Y-65614850D01*
X148828939Y-65609529D01*
X148834242Y-65603585D01*
X148839176Y-65596975D01*
X148843720Y-65589655D01*
X148847851Y-65581584D01*
X148851548Y-65572718D01*
X148854789Y-65563013D01*
X148857553Y-65552426D01*
X148859818Y-65540916D01*
X148861562Y-65528437D01*
X148862763Y-65514949D01*
X148863399Y-65500406D01*
X148863450Y-65484767D01*
X148862893Y-65467988D01*
X148122060Y-65467988D01*
X148077758Y-65468219D01*
X148033464Y-65467789D01*
X147989188Y-65466697D01*
X147944936Y-65464943D01*
X147900715Y-65462528D01*
X147856532Y-65459453D01*
X147812395Y-65455716D01*
X147768311Y-65451320D01*
X147755337Y-65450860D01*
X147742216Y-65449464D01*
X147729106Y-65447108D01*
X147716164Y-65443767D01*
X147703548Y-65439416D01*
X147691414Y-65434032D01*
X147685578Y-65430945D01*
X147679921Y-65427590D01*
X147674464Y-65423964D01*
X147669226Y-65420065D01*
X147664226Y-65415889D01*
X147659485Y-65411434D01*
X147655022Y-65406695D01*
X147650857Y-65401671D01*
X147647009Y-65396358D01*
X147643498Y-65390752D01*
X147640345Y-65384852D01*
X147637567Y-65378654D01*
X147635186Y-65372154D01*
X147633220Y-65365351D01*
X147631690Y-65358240D01*
X147630615Y-65350818D01*
X147630015Y-65343084D01*
X147629909Y-65335033D01*
X147630317Y-65326663D01*
X147631259Y-65317970D01*
X147631452Y-65311838D01*
X147632023Y-65305941D01*
X147632959Y-65300277D01*
X147634247Y-65294841D01*
X147635874Y-65289630D01*
X147637827Y-65284641D01*
X147640094Y-65279870D01*
X147642661Y-65275314D01*
X147645515Y-65270970D01*
X147648645Y-65266834D01*
X147652036Y-65262903D01*
X147655676Y-65259174D01*
X147659552Y-65255642D01*
X147663651Y-65252305D01*
X147667960Y-65249159D01*
X147672467Y-65246202D01*
X147677159Y-65243428D01*
X147682022Y-65240836D01*
X147687043Y-65238422D01*
X147692211Y-65236181D01*
X147697511Y-65234112D01*
X147702932Y-65232210D01*
X147714082Y-65228896D01*
X147725557Y-65226211D01*
X147737255Y-65224128D01*
X147749073Y-65222620D01*
X147760907Y-65221660D01*
X147787106Y-65220597D01*
X147817687Y-65220097D01*
X147887314Y-65220271D01*
X148027608Y-65221660D01*
X148870303Y-65221660D01*
X148895924Y-65220929D01*
X148921862Y-65218759D01*
X148947783Y-65215190D01*
X148973355Y-65210259D01*
X148998243Y-65204004D01*
X149022113Y-65196462D01*
X149044632Y-65187673D01*
X149065466Y-65177674D01*
X149084282Y-65166503D01*
X149092829Y-65160489D01*
X149100746Y-65154197D01*
X149107992Y-65147631D01*
X149114524Y-65140796D01*
X149120302Y-65133696D01*
X149125282Y-65126336D01*
X149129425Y-65118722D01*
X149132688Y-65110857D01*
X149135029Y-65102746D01*
X149136406Y-65094395D01*
X149136778Y-65085808D01*
X149136104Y-65076989D01*
X149134341Y-65067944D01*
X149131448Y-65058677D01*
X149123449Y-65034874D01*
X149117117Y-65012391D01*
X149112383Y-64991169D01*
X149109179Y-64971151D01*
X149107433Y-64952278D01*
X149107078Y-64934491D01*
X149108045Y-64917732D01*
X149110263Y-64901944D01*
X149113665Y-64887067D01*
X149118180Y-64873043D01*
X149123739Y-64859814D01*
X149130274Y-64847322D01*
X149137715Y-64835508D01*
X149145993Y-64824313D01*
X149155039Y-64813681D01*
X149164784Y-64803552D01*
X149175158Y-64793867D01*
X149186092Y-64784570D01*
X149209364Y-64766901D01*
X149234048Y-64750078D01*
X149259588Y-64733636D01*
X149285433Y-64717107D01*
X149311028Y-64700024D01*
X149335820Y-64681921D01*
X149347742Y-64672341D01*
X149359256Y-64662331D01*
X149374320Y-64647731D01*
X149388087Y-64632524D01*
X149394404Y-64624747D01*
X149400302Y-64616882D01*
X149405748Y-64608953D01*
X149410710Y-64600981D01*
X149415157Y-64592986D01*
X149419056Y-64584992D01*
X149422377Y-64577019D01*
X149425086Y-64569090D01*
X149427152Y-64561226D01*
X149428543Y-64553448D01*
X149429227Y-64545780D01*
X149429173Y-64538241D01*
X149428349Y-64530854D01*
X149426721Y-64523641D01*
X149424260Y-64516624D01*
X149420933Y-64509823D01*
X149416707Y-64503261D01*
X149411552Y-64496960D01*
X149405435Y-64490941D01*
X149398324Y-64485225D01*
X149390188Y-64479835D01*
X149380994Y-64474793D01*
X149370711Y-64470119D01*
X149359307Y-64465836D01*
X149346750Y-64461965D01*
X149333008Y-64458529D01*
X149318049Y-64455548D01*
X149301842Y-64453045D01*
X149273884Y-64448324D01*
X149259963Y-64445414D01*
X149246251Y-64442019D01*
X149232875Y-64438049D01*
X149219964Y-64433413D01*
X149207643Y-64428024D01*
X149196042Y-64421791D01*
X149190551Y-64418330D01*
X149185287Y-64414624D01*
X149180267Y-64410663D01*
X149175506Y-64406435D01*
X149171021Y-64401929D01*
X149166827Y-64397134D01*
X149162940Y-64392038D01*
X149159376Y-64386630D01*
X149156151Y-64380900D01*
X149153282Y-64374835D01*
X149150783Y-64368426D01*
X149148672Y-64361659D01*
X149146963Y-64354526D01*
X149145673Y-64347013D01*
X149144818Y-64339111D01*
X149144414Y-64330807D01*
X149144729Y-64319806D01*
X149145659Y-64309367D01*
X149147177Y-64299474D01*
X149149257Y-64290116D01*
X149151873Y-64281276D01*
X149154998Y-64272943D01*
X149158607Y-64265101D01*
X149162674Y-64257737D01*
X149167172Y-64250836D01*
X149172075Y-64244386D01*
X149177357Y-64238372D01*
X149182992Y-64232780D01*
X149188955Y-64227597D01*
X149195218Y-64222807D01*
X149201755Y-64218399D01*
X149208542Y-64214357D01*
X149215550Y-64210667D01*
X149222756Y-64207317D01*
X149230131Y-64204291D01*
X149237650Y-64201576D01*
X149245288Y-64199158D01*
X149253017Y-64197024D01*
X149268648Y-64193549D01*
X149284332Y-64191040D01*
X149299862Y-64189385D01*
X149315028Y-64188474D01*
X149329622Y-64188195D01*
X149369272Y-64187182D01*
X149406346Y-64184193D01*
X149440955Y-64179302D01*
X149473215Y-64172586D01*
X149503240Y-64164118D01*
X149531143Y-64153974D01*
X149557039Y-64142229D01*
X149581041Y-64128957D01*
X149603263Y-64114234D01*
X149623819Y-64098134D01*
X149642824Y-64080733D01*
X149660391Y-64062105D01*
X149676634Y-64042325D01*
X149691666Y-64021469D01*
X149705603Y-63999611D01*
X149718558Y-63976826D01*
X149730644Y-63953189D01*
X149741976Y-63928775D01*
X149762834Y-63877916D01*
X149782043Y-63824849D01*
X149800513Y-63770173D01*
X149819157Y-63714488D01*
X149838886Y-63658393D01*
X149860612Y-63602488D01*
X149872509Y-63574794D01*
X149885247Y-63547372D01*
X149734099Y-63548935D01*
X149598405Y-63551540D01*
X149534237Y-63552256D01*
X149471393Y-63552060D01*
X149409026Y-63550563D01*
X149346290Y-63547372D01*
X149325974Y-63547915D01*
X149304177Y-63549282D01*
X149257680Y-63552929D01*
X149233750Y-63554426D01*
X149209881Y-63555186D01*
X149186456Y-63554817D01*
X149163861Y-63552929D01*
X149152995Y-63551293D01*
X149142482Y-63549130D01*
X149132368Y-63546393D01*
X149122703Y-63543032D01*
X149113535Y-63538997D01*
X149104911Y-63534241D01*
X149096879Y-63528715D01*
X149089489Y-63522369D01*
X149082788Y-63515155D01*
X149076824Y-63507024D01*
X149071645Y-63497928D01*
X149067300Y-63487816D01*
X149063837Y-63476641D01*
X149061304Y-63464354D01*
X149059748Y-63450906D01*
X149059219Y-63436247D01*
X149059754Y-63421508D01*
X149061330Y-63407825D01*
X149063900Y-63395155D01*
X149067420Y-63383459D01*
X149071845Y-63372694D01*
X149077129Y-63362820D01*
X149083228Y-63353796D01*
X149090097Y-63345581D01*
X149097690Y-63338134D01*
X149105962Y-63331413D01*
X149114869Y-63325378D01*
X149124364Y-63319988D01*
X149134404Y-63315201D01*
X149144942Y-63310978D01*
X149155934Y-63307275D01*
X149167335Y-63304053D01*
X149179099Y-63301271D01*
X149191182Y-63298887D01*
X149216123Y-63295151D01*
X149241796Y-63292516D01*
X149267840Y-63290655D01*
X149319602Y-63287938D01*
X149344596Y-63286426D01*
X149368520Y-63284374D01*
X149406465Y-63280858D01*
X149444625Y-63279075D01*
X149483040Y-63278632D01*
X149521751Y-63279136D01*
X149600222Y-63281411D01*
X149680364Y-63282754D01*
X149721164Y-63282091D01*
X149762504Y-63280015D01*
X149804424Y-63276133D01*
X149846966Y-63270050D01*
X149890169Y-63261373D01*
X149934075Y-63249710D01*
X149978725Y-63234666D01*
X150001341Y-63225753D01*
X150024159Y-63215848D01*
X149521087Y-63067219D01*
X149283702Y-62998113D01*
X149049961Y-62932480D01*
X149009190Y-62921555D01*
X148988996Y-62916641D01*
X148968962Y-62912454D01*
X148949112Y-62909266D01*
X148929471Y-62907347D01*
X148910063Y-62906969D01*
X148900455Y-62907443D01*
X148890914Y-62908403D01*
X148881443Y-62909885D01*
X148872046Y-62911921D01*
X148862726Y-62914547D01*
X148853485Y-62917794D01*
X148844327Y-62921699D01*
X148835255Y-62926293D01*
X148826272Y-62931612D01*
X148817380Y-62937690D01*
X148808584Y-62944559D01*
X148799885Y-62952255D01*
X148791288Y-62960811D01*
X148782795Y-62970261D01*
X148774409Y-62980638D01*
X148766133Y-62991977D01*
X148757971Y-63004312D01*
X148749925Y-63017677D01*
X148743968Y-63027416D01*
X148737583Y-63036486D01*
X148730810Y-63044883D01*
X148723685Y-63052599D01*
X148716248Y-63059629D01*
X148708539Y-63065966D01*
X148700594Y-63071605D01*
X148692453Y-63076539D01*
X148684155Y-63080762D01*
X148675738Y-63084268D01*
X148667242Y-63087052D01*
X148658703Y-63089106D01*
X148650162Y-63090425D01*
X148641657Y-63091002D01*
X148633227Y-63090832D01*
X148624910Y-63089909D01*
X148616745Y-63088226D01*
X148608770Y-63085777D01*
X148601024Y-63082556D01*
X148593547Y-63078558D01*
X148586376Y-63073775D01*
X148579550Y-63068202D01*
X148573108Y-63061833D01*
X148567089Y-63054661D01*
X148561531Y-63046681D01*
X148556472Y-63037887D01*
X148551952Y-63028271D01*
X148548010Y-63017829D01*
X148544683Y-63006554D01*
X148542011Y-62994440D01*
X148540032Y-62981481D01*
X148538784Y-62967670D01*
X148537685Y-62953867D01*
X148536131Y-62940917D01*
X148534134Y-62928793D01*
X148531708Y-62917468D01*
X148528864Y-62906917D01*
X148525614Y-62897112D01*
X148521971Y-62888028D01*
X148517947Y-62879638D01*
X148513554Y-62871915D01*
X148508804Y-62864833D01*
X148503710Y-62858365D01*
X148498283Y-62852486D01*
X148492537Y-62847168D01*
X148486482Y-62842385D01*
X148480131Y-62838111D01*
X148473498Y-62834320D01*
X148466592Y-62830984D01*
X148459428Y-62828077D01*
X148452017Y-62825573D01*
X148444371Y-62823446D01*
X148436503Y-62821669D01*
X148428425Y-62820215D01*
X148411686Y-62818172D01*
X148394253Y-62817106D01*
X148376222Y-62816805D01*
X148357693Y-62817058D01*
X148338762Y-62817652D01*
X148300542Y-62819454D01*
X148262191Y-62821993D01*
X148223579Y-62825140D01*
X148184577Y-62828765D01*
X148022057Y-62845432D01*
X148031733Y-62857523D01*
X148041905Y-62868887D01*
X148052419Y-62879665D01*
X148063121Y-62889998D01*
X148084467Y-62909893D01*
X148094802Y-62919738D01*
X148104706Y-62929702D01*
X148114024Y-62939926D01*
X148122601Y-62950552D01*
X148126564Y-62956060D01*
X148130283Y-62961721D01*
X148133740Y-62967552D01*
X148136916Y-62973573D01*
X148139790Y-62979799D01*
X148142343Y-62986250D01*
X148144557Y-62992942D01*
X148146411Y-62999892D01*
X148147887Y-63007120D01*
X148148966Y-63014642D01*
X148149627Y-63022476D01*
X148149852Y-63030640D01*
X148149357Y-63036087D01*
X148148655Y-63041498D01*
X148147749Y-63046866D01*
X148146641Y-63052186D01*
X148145333Y-63057452D01*
X148143828Y-63062660D01*
X148142126Y-63067803D01*
X148140232Y-63072876D01*
X148138146Y-63077873D01*
X148135870Y-63082790D01*
X148133408Y-63087619D01*
X148130761Y-63092357D01*
X148127932Y-63096997D01*
X148124922Y-63101534D01*
X148121734Y-63105962D01*
X148118369Y-63110276D01*
X148110922Y-63118752D01*
X148103028Y-63126708D01*
X148094713Y-63134132D01*
X148086006Y-63141013D01*
X148076933Y-63147339D01*
X148067523Y-63153098D01*
X148057804Y-63158279D01*
X148047802Y-63162870D01*
X148037545Y-63166860D01*
X148027062Y-63170236D01*
X148016379Y-63172986D01*
X148005524Y-63175101D01*
X147994524Y-63176566D01*
X147983408Y-63177372D01*
X147972202Y-63177506D01*
X147960935Y-63176957D01*
X147878091Y-63178119D01*
X147795261Y-63177756D01*
X147712465Y-63175870D01*
X147629725Y-63172461D01*
X147547062Y-63167530D01*
X147464496Y-63161079D01*
X147382049Y-63153107D01*
X147299740Y-63143617D01*
X147274159Y-63138906D01*
X147248529Y-63135948D01*
X147222930Y-63134716D01*
X147197442Y-63135185D01*
X147172145Y-63137329D01*
X147147118Y-63141121D01*
X147122442Y-63146536D01*
X147098197Y-63153548D01*
X147074462Y-63162130D01*
X147051317Y-63172257D01*
X147028843Y-63183902D01*
X147007119Y-63197040D01*
X146986225Y-63211645D01*
X146966241Y-63227691D01*
X146947247Y-63245152D01*
X146929324Y-63264001D01*
X148057242Y-63264001D01*
X148090724Y-63264240D01*
X148107769Y-63264807D01*
X148124727Y-63265911D01*
X148141382Y-63267732D01*
X148157515Y-63270448D01*
X148172911Y-63274238D01*
X148180264Y-63276592D01*
X148187351Y-63279281D01*
X148194145Y-63282329D01*
X148200620Y-63285757D01*
X148206747Y-63289588D01*
X148212499Y-63293845D01*
X148217850Y-63298549D01*
X148222772Y-63303723D01*
X148227239Y-63309389D01*
X148231222Y-63315571D01*
X148234696Y-63322289D01*
X148237632Y-63329567D01*
X148240004Y-63337427D01*
X148241785Y-63345891D01*
X148242947Y-63354982D01*
X148243463Y-63364722D01*
X148243307Y-63375134D01*
X148242450Y-63386239D01*
X148241019Y-63397382D01*
X148239167Y-63407902D01*
X148236905Y-63417817D01*
X148234245Y-63427145D01*
X148231201Y-63435903D01*
X148227783Y-63444108D01*
X148224004Y-63451780D01*
X148219877Y-63458934D01*
X148215413Y-63465589D01*
X148210626Y-63471763D01*
X148205526Y-63477473D01*
X148200126Y-63482736D01*
X148194439Y-63487571D01*
X148188476Y-63491995D01*
X148182251Y-63496025D01*
X148175774Y-63499680D01*
X148169059Y-63502976D01*
X148162117Y-63505932D01*
X148154961Y-63508566D01*
X148147603Y-63510894D01*
X148140054Y-63512934D01*
X148132329Y-63514704D01*
X148116393Y-63517506D01*
X148099893Y-63519439D01*
X148082926Y-63520646D01*
X148065590Y-63521266D01*
X148047984Y-63521441D01*
X146805237Y-63521441D01*
X146784935Y-63521025D01*
X146764358Y-63519936D01*
X146722676Y-63516695D01*
X146680777Y-63513627D01*
X146659929Y-63512755D01*
X146639246Y-63512643D01*
X146618802Y-63513529D01*
X146598670Y-63515653D01*
X146578924Y-63519252D01*
X146569218Y-63521680D01*
X146559635Y-63524566D01*
X146550186Y-63527940D01*
X146540879Y-63531833D01*
X146531723Y-63536274D01*
X146522727Y-63541292D01*
X146513902Y-63546919D01*
X146505254Y-63553183D01*
X146496795Y-63560114D01*
X146488533Y-63567743D01*
X146493402Y-63592725D01*
X146495948Y-63604133D01*
X146498662Y-63614798D01*
X146501615Y-63624704D01*
X146504877Y-63633833D01*
X146508518Y-63642170D01*
X146512611Y-63649699D01*
X146514848Y-63653155D01*
X146517224Y-63656403D01*
X146519747Y-63659440D01*
X146522428Y-63662266D01*
X146525274Y-63664877D01*
X146528294Y-63667271D01*
X146531498Y-63669447D01*
X146534893Y-63671403D01*
X146538490Y-63673136D01*
X146542295Y-63674645D01*
X146546319Y-63675928D01*
X146550571Y-63676981D01*
X146555058Y-63677804D01*
X146559790Y-63678395D01*
X146564776Y-63678750D01*
X146570025Y-63678869D01*
X146597515Y-63676097D01*
X146625056Y-63674116D01*
X146652631Y-63672928D01*
X146680224Y-63672532D01*
X146707816Y-63672928D01*
X146735392Y-63674116D01*
X146762933Y-63676097D01*
X146790423Y-63678869D01*
X146808275Y-63682732D01*
X146827042Y-63685376D01*
X146866941Y-63687511D01*
X146909363Y-63686288D01*
X146953551Y-63682718D01*
X147044198Y-63672586D01*
X147089143Y-63668047D01*
X147132826Y-63665210D01*
X147174491Y-63665085D01*
X147194331Y-63666357D01*
X147213381Y-63668686D01*
X147231549Y-63672199D01*
X147248738Y-63677023D01*
X147264856Y-63683285D01*
X147279807Y-63691110D01*
X147293496Y-63700625D01*
X147305828Y-63711957D01*
X147316711Y-63725232D01*
X147326047Y-63740577D01*
X147333744Y-63758118D01*
X147339706Y-63777981D01*
X147343839Y-63800294D01*
X147346048Y-63825183D01*
X147345059Y-63845345D01*
X147342153Y-63863529D01*
X147337421Y-63879828D01*
X147330953Y-63894335D01*
X147322839Y-63907146D01*
X147313170Y-63918354D01*
X147302037Y-63928053D01*
X147289530Y-63936336D01*
X147275740Y-63943299D01*
X147260757Y-63949034D01*
X147244672Y-63953635D01*
X147227576Y-63957198D01*
X147209558Y-63959814D01*
X147190710Y-63961580D01*
X147171122Y-63962587D01*
X147150884Y-63962931D01*
X147108823Y-63962004D01*
X147065250Y-63959549D01*
X146976470Y-63953063D01*
X146932710Y-63950534D01*
X146890337Y-63949485D01*
X146850075Y-63950666D01*
X146830961Y-63952327D01*
X146812647Y-63954828D01*
X146796202Y-63957270D01*
X146779537Y-63959082D01*
X146762694Y-63960330D01*
X146745712Y-63961079D01*
X146711495Y-63961339D01*
X146677213Y-63960384D01*
X146609757Y-63956911D01*
X146577233Y-63955435D01*
X146545947Y-63954828D01*
X146538469Y-63955064D01*
X146531310Y-63955762D01*
X146524466Y-63956906D01*
X146517930Y-63958481D01*
X146511697Y-63960471D01*
X146505760Y-63962861D01*
X146500115Y-63965634D01*
X146494754Y-63968776D01*
X146489673Y-63972271D01*
X146484866Y-63976102D01*
X146480326Y-63980255D01*
X146476049Y-63984714D01*
X146472028Y-63989464D01*
X146468258Y-63994488D01*
X146464733Y-63999771D01*
X146461446Y-64005297D01*
X146458393Y-64011052D01*
X146455568Y-64017018D01*
X146452964Y-64023182D01*
X146450576Y-64029526D01*
X146448399Y-64036036D01*
X146446426Y-64042696D01*
X146444652Y-64049490D01*
X146443071Y-64056403D01*
X146440464Y-64070523D01*
X146438560Y-64084930D01*
X146437312Y-64099500D01*
X146436674Y-64114108D01*
X146436625Y-64121249D01*
X146436821Y-64128094D01*
X146437260Y-64134647D01*
X146437936Y-64140916D01*
X146438848Y-64146906D01*
X146439990Y-64152625D01*
X146441360Y-64158079D01*
X146442953Y-64163274D01*
X146444766Y-64168217D01*
X146446795Y-64172914D01*
X146449036Y-64177371D01*
X146451486Y-64181596D01*
X146454141Y-64185594D01*
X146456997Y-64189372D01*
X146460050Y-64192936D01*
X146463297Y-64196293D01*
X146466733Y-64199449D01*
X146470356Y-64202411D01*
X146474162Y-64205186D01*
X146478146Y-64207778D01*
X146482305Y-64210196D01*
X146486635Y-64212445D01*
X146491133Y-64214532D01*
X146495795Y-64216464D01*
X146505594Y-64219885D01*
X146516005Y-64222762D01*
X146526995Y-64225144D01*
X146538537Y-64227085D01*
X146549093Y-64230370D01*
X146559716Y-64233390D01*
X146570401Y-64236144D01*
X146581142Y-64238631D01*
X146591935Y-64240851D01*
X146602775Y-64242803D01*
X146613656Y-64244486D01*
X146624574Y-64245901D01*
X146635523Y-64247045D01*
X146646499Y-64247920D01*
X146657497Y-64248523D01*
X146668511Y-64248855D01*
X146679537Y-64248915D01*
X146690569Y-64248703D01*
X146701603Y-64248217D01*
X146712633Y-64247458D01*
X146821801Y-64219155D01*
X146931201Y-64197014D01*
X147040808Y-64180380D01*
X147150594Y-64168599D01*
X147260532Y-64161018D01*
X147370594Y-64156984D01*
X147590984Y-64156937D01*
X148032069Y-64170625D01*
X148252329Y-64173899D01*
X148362294Y-64172356D01*
X148472112Y-64167819D01*
X148510672Y-64167737D01*
X148549187Y-64168874D01*
X148587627Y-64171230D01*
X148625964Y-64174799D01*
X148664169Y-64179579D01*
X148702213Y-64185568D01*
X148740068Y-64192761D01*
X148777705Y-64201155D01*
X148783142Y-64201948D01*
X148788502Y-64203022D01*
X148793778Y-64204370D01*
X148798958Y-64205989D01*
X148804033Y-64207870D01*
X148808993Y-64210010D01*
X148813830Y-64212402D01*
X148818533Y-64215040D01*
X148823092Y-64217919D01*
X148827499Y-64221033D01*
X148831743Y-64224377D01*
X148835815Y-64227944D01*
X148839705Y-64231729D01*
X148843403Y-64235727D01*
X148846901Y-64239930D01*
X148850188Y-64244335D01*
X148853237Y-64248907D01*
X148856026Y-64253610D01*
X148858554Y-64258434D01*
X148860818Y-64263366D01*
X148862816Y-64268397D01*
X148864545Y-64273516D01*
X148866004Y-64278711D01*
X148867190Y-64283971D01*
X148868102Y-64289285D01*
X148868736Y-64294644D01*
X148869091Y-64300035D01*
X148869165Y-64305447D01*
X148868955Y-64310871D01*
X148868459Y-64316294D01*
X148867675Y-64321705D01*
X148866601Y-64327095D01*
X148865821Y-64331304D01*
X148864857Y-64335438D01*
X148863715Y-64339493D01*
X148862399Y-64343464D01*
X148860914Y-64347348D01*
X148859264Y-64351140D01*
X148857455Y-64354838D01*
X148855491Y-64358437D01*
X148853376Y-64361933D01*
X148851116Y-64365322D01*
X148848714Y-64368600D01*
X148846176Y-64371763D01*
X148843507Y-64374808D01*
X148840710Y-64377730D01*
X148837791Y-64380526D01*
X148834755Y-64383191D01*
X148831606Y-64385722D01*
X148828348Y-64388114D01*
X148824987Y-64390364D01*
X148821527Y-64392468D01*
X148817973Y-64394422D01*
X148814330Y-64396222D01*
X148810601Y-64397864D01*
X148806793Y-64399343D01*
X148802909Y-64400657D01*
X148798954Y-64401801D01*
X148794933Y-64402772D01*
X148790851Y-64403564D01*
X148786712Y-64404175D01*
X148782521Y-64404601D01*
X148778283Y-64404837D01*
X148774003Y-64404879D01*
X148741040Y-64408795D01*
X148708021Y-64412122D01*
X148674953Y-64414859D01*
X148641844Y-64417008D01*
X148608702Y-64418566D01*
X148575535Y-64419534D01*
X148542350Y-64419911D01*
X148509156Y-64419697D01*
X147684979Y-64417384D01*
X147276190Y-64411886D01*
X146866359Y-64401178D01*
X146795441Y-64402756D01*
X146759481Y-64404939D01*
X146723720Y-64408239D01*
X146688555Y-64412799D01*
X146654385Y-64418759D01*
X146621611Y-64426259D01*
X146590629Y-64435442D01*
X146561840Y-64446448D01*
X146535642Y-64459418D01*
X146523639Y-64466683D01*
X146512433Y-64474493D01*
X146502075Y-64482864D01*
X146492614Y-64491814D01*
X146484099Y-64501362D01*
X146476581Y-64511523D01*
X146470110Y-64522317D01*
X146464735Y-64533761D01*
X146460506Y-64545872D01*
X146457474Y-64558668D01*
X146455687Y-64572167D01*
X146455196Y-64586386D01*
X146456054Y-64600323D01*
X146458238Y-64613003D01*
X146461683Y-64624479D01*
X146466327Y-64634807D01*
X146472107Y-64644042D01*
X146478959Y-64652239D01*
X146486819Y-64659451D01*
X146495624Y-64665736D01*
X146505311Y-64671147D01*
X146515817Y-64675739D01*
X146527077Y-64679567D01*
X146539029Y-64682687D01*
X146551608Y-64685153D01*
X146564753Y-64687020D01*
X146578398Y-64688343D01*
X146592482Y-64689176D01*
X146825613Y-64680842D01*
X146941749Y-64684564D01*
X147058079Y-64686311D01*
X147290717Y-64685704D01*
X147751655Y-64680842D01*
X147779423Y-64679569D01*
X147807203Y-64678661D01*
X147834990Y-64678116D01*
X147862781Y-64677934D01*
X147890572Y-64678116D01*
X147918359Y-64678662D01*
X147946138Y-64679571D01*
X147973907Y-64680844D01*
X148000158Y-64682897D01*
X148027907Y-64683813D01*
X148086075Y-64684113D01*
X148115581Y-64684435D01*
X148144763Y-64685498D01*
X148173162Y-64687770D01*
X148200325Y-64691723D01*
X148225794Y-64697823D01*
X148237752Y-64701826D01*
X148249115Y-64706542D01*
X148259827Y-64712030D01*
X148269831Y-64718349D01*
X148279070Y-64725557D01*
X148287487Y-64733712D01*
X148295025Y-64742874D01*
X148301627Y-64753101D01*
X148307236Y-64764453D01*
X148311795Y-64776986D01*
X148315247Y-64790761D01*
X148317535Y-64805836D01*
X148318602Y-64822270D01*
X148318392Y-64840120D01*
X148316929Y-64857965D01*
X148314313Y-64874380D01*
X148310592Y-64889423D01*
X148305817Y-64903149D01*
X148300038Y-64915617D01*
X148293306Y-64926883D01*
X148285671Y-64937004D01*
X148277182Y-64946037D01*
X148267890Y-64954039D01*
X148257845Y-64961067D01*
X148247098Y-64967178D01*
X148235698Y-64972429D01*
X148223696Y-64976878D01*
X148211142Y-64980579D01*
X148198086Y-64983592D01*
X148184578Y-64985973D01*
X148170669Y-64987778D01*
X148156408Y-64989066D01*
X148127034Y-64990314D01*
X148096856Y-64990173D01*
X148066277Y-64989098D01*
X148005520Y-64985972D01*
X147976145Y-64984833D01*
X147947975Y-64984583D01*
X146705229Y-64984583D01*
X146699690Y-64987340D01*
X146693853Y-64989733D01*
X146687732Y-64991796D01*
X146681344Y-64993567D01*
X146667825Y-64996375D01*
X146653423Y-64998448D01*
X146589466Y-65005192D01*
X146572514Y-65007943D01*
X146555426Y-65011701D01*
X146546870Y-65014047D01*
X146538328Y-65016755D01*
X146529813Y-65019859D01*
X146521343Y-65023396D01*
X146512932Y-65027402D01*
X146504597Y-65031914D01*
X146496353Y-65036968D01*
X146488215Y-65042600D01*
X146480199Y-65048847D01*
X146472320Y-65055745D01*
X146464595Y-65063329D01*
X146457039Y-65071637D01*
X146466297Y-65069782D01*
X146468830Y-65075688D01*
X146471562Y-65081259D01*
X146474485Y-65086508D01*
X146477591Y-65091447D01*
X146480874Y-65096089D01*
X146484326Y-65100447D01*
X146487939Y-65104532D01*
X146491707Y-65108359D01*
X146495620Y-65111938D01*
X146499673Y-65115283D01*
X146503857Y-65118406D01*
X146508166Y-65121320D01*
X146512591Y-65124037D01*
X146517125Y-65126570D01*
X146521761Y-65128931D01*
X146526491Y-65131134D01*
X146536204Y-65135112D01*
X146546205Y-65138604D01*
X146556433Y-65141711D01*
X146566830Y-65144533D01*
X146608906Y-65154979D01*
X146631220Y-65161245D01*
X146643198Y-65165023D01*
X146655467Y-65169333D01*
X146667833Y-65174251D01*
X146680104Y-65179853D01*
X146692088Y-65186214D01*
X146703592Y-65193410D01*
X146709103Y-65197346D01*
X146714423Y-65201519D01*
X146719526Y-65205938D01*
X146724388Y-65210614D01*
X146728986Y-65215556D01*
X146733296Y-65220774D01*
X146737293Y-65226276D01*
X146740953Y-65232072D01*
X146744252Y-65238173D01*
X146747166Y-65244587D01*
X146749672Y-65251323D01*
X146751744Y-65258392D01*
X146753359Y-65265803D01*
X146754494Y-65273565D01*
X146755122Y-65281688D01*
X146755222Y-65290181D01*
X146754818Y-65298632D01*
X146753963Y-65306630D01*
X146752674Y-65314189D01*
X146750965Y-65321323D01*
X146748854Y-65328046D01*
X146746355Y-65334372D01*
X146743486Y-65340315D01*
X146740262Y-65345889D01*
X146736698Y-65351107D01*
X146732811Y-65355983D01*
X146728617Y-65360532D01*
X146724132Y-65364768D01*
X146719371Y-65368703D01*
X146714351Y-65372353D01*
X146709087Y-65375731D01*
X146703595Y-65378850D01*
X146697892Y-65381725D01*
X146691994Y-65384371D01*
X146685915Y-65386799D01*
X146679673Y-65389026D01*
X146666761Y-65392926D01*
X146653385Y-65396184D01*
X146639673Y-65398910D01*
X146625752Y-65401215D01*
X146597794Y-65405009D01*
X146586830Y-65406035D01*
X146575885Y-65407231D01*
X146564963Y-65408597D01*
X146554063Y-65410134D01*
X146543189Y-65411840D01*
X146532343Y-65413716D01*
X146521525Y-65415761D01*
X146510740Y-65417976D01*
X146505292Y-65419549D01*
X146499976Y-65421364D01*
X146494797Y-65423413D01*
X146489759Y-65425690D01*
X146484868Y-65428186D01*
X146480128Y-65430894D01*
X146475544Y-65433807D01*
X146471121Y-65436917D01*
X146466863Y-65440217D01*
X146462775Y-65443699D01*
X146458863Y-65447356D01*
X146455129Y-65451180D01*
X146451581Y-65455164D01*
X146448222Y-65459301D01*
X146445056Y-65463582D01*
X146442090Y-65468002D01*
X146439327Y-65472551D01*
X146436772Y-65477223D01*
X146434431Y-65482010D01*
X146432307Y-65486904D01*
X146430406Y-65491899D01*
X146428733Y-65496987D01*
X146427291Y-65502160D01*
X146426087Y-65507411D01*
X146425124Y-65512732D01*
X146424407Y-65518117D01*
X146423942Y-65523556D01*
X146423733Y-65529044D01*
X146423784Y-65534572D01*
X146424101Y-65540134D01*
X146424689Y-65545721D01*
X146425551Y-65551326D01*
X146425718Y-65558120D01*
X146426211Y-65564616D01*
X146427021Y-65570819D01*
X146428138Y-65576734D01*
X146429551Y-65582367D01*
X146431253Y-65587723D01*
X146433231Y-65592808D01*
X146435477Y-65597628D01*
X146437981Y-65602186D01*
X146440733Y-65606490D01*
X146443723Y-65610544D01*
X146446941Y-65614354D01*
X146450377Y-65617925D01*
X146454022Y-65621263D01*
X146457866Y-65624373D01*
X146461898Y-65627261D01*
X146466110Y-65629931D01*
X146470491Y-65632390D01*
X146475031Y-65634643D01*
X146479721Y-65636695D01*
X146484551Y-65638552D01*
X146489511Y-65640218D01*
X146494590Y-65641701D01*
X146499780Y-65643004D01*
X146510451Y-65645095D01*
X146521445Y-65646534D01*
X146532683Y-65647366D01*
X146544087Y-65647634D01*
X146643783Y-65653899D01*
X146743552Y-65658374D01*
X146843368Y-65661060D01*
X146943208Y-65661955D01*
X147043048Y-65661060D01*
X147142864Y-65658374D01*
X147242633Y-65653899D01*
X147342329Y-65647634D01*
X147365922Y-65645169D01*
X147389473Y-65643951D01*
X147412983Y-65643873D01*
X147436453Y-65644824D01*
X147483282Y-65649381D01*
X147529970Y-65656751D01*
X147715527Y-65696947D01*
X147761672Y-65705320D01*
X147807741Y-65711282D01*
X147853745Y-65713961D01*
X147876726Y-65713797D01*
X147899695Y-65712486D01*
X147922653Y-65709919D01*
X147945601Y-65705987D01*
X147968541Y-65700581D01*
X147991475Y-65693593D01*
X148014403Y-65684913D01*
X148037327Y-65674432D01*
X148060248Y-65662042D01*
X148083168Y-65647634D01*
X148089364Y-65644202D01*
X148095714Y-65641171D01*
X148102200Y-65638542D01*
X148108803Y-65636315D01*
X148115504Y-65634492D01*
X148122285Y-65633075D01*
X148129127Y-65632063D01*
X148136011Y-65631459D01*
X148142919Y-65631262D01*
X148149832Y-65631475D01*
X148156731Y-65632099D01*
X148163598Y-65633134D01*
X148170414Y-65634582D01*
X148177161Y-65636444D01*
X148183820Y-65638720D01*
X148190372Y-65641412D01*
X148196748Y-65644496D01*
X148202887Y-65647937D01*
X148208775Y-65651721D01*
X148214402Y-65655833D01*
X148219755Y-65660257D01*
X148224823Y-65664981D01*
X148229594Y-65669989D01*
X148234057Y-65675266D01*
X148238200Y-65680797D01*
X148242012Y-65686569D01*
X148245480Y-65692567D01*
X148248593Y-65698775D01*
X148251340Y-65705180D01*
X148253709Y-65711766D01*
X148255687Y-65718519D01*
X148257264Y-65725425D01*
X148259340Y-65732310D01*
X148260949Y-65739263D01*
X148262093Y-65746262D01*
X148262779Y-65753284D01*
X148263009Y-65760308D01*
X148262788Y-65767313D01*
X148262120Y-65774276D01*
X148261010Y-65781176D01*
X148259462Y-65787991D01*
X148257479Y-65794699D01*
X148255066Y-65801279D01*
X148252228Y-65807708D01*
X148248968Y-65813966D01*
X148245291Y-65820029D01*
X148241201Y-65825878D01*
X148236702Y-65831489D01*
X148231844Y-65836793D01*
X148226690Y-65841729D01*
X148221259Y-65846290D01*
X148215574Y-65850469D01*
X148209654Y-65854257D01*
X148203521Y-65857647D01*
X148197194Y-65860633D01*
X148190696Y-65863205D01*
X148184048Y-65865358D01*
X148177268Y-65867083D01*
X148170380Y-65868372D01*
X148163403Y-65869220D01*
X148156358Y-65869617D01*
X148149266Y-65869556D01*
X148142149Y-65869031D01*
X148135026Y-65868033D01*
X148107840Y-65861165D01*
X148080796Y-65855779D01*
X148053886Y-65851785D01*
X148027098Y-65849093D01*
X148000425Y-65847610D01*
X147973856Y-65847246D01*
X147920994Y-65849512D01*
X147868436Y-65855164D01*
X147816105Y-65863475D01*
X147763927Y-65873718D01*
X147711824Y-65885165D01*
X147607543Y-65908765D01*
X147555213Y-65919463D01*
X147502655Y-65928458D01*
X147449792Y-65935022D01*
X147396550Y-65938428D01*
X147342852Y-65937948D01*
X147315809Y-65936025D01*
X147288623Y-65932857D01*
X147205607Y-65926749D01*
X147122509Y-65922386D01*
X147039357Y-65919769D01*
X146956177Y-65918896D01*
X146872997Y-65919769D01*
X146789844Y-65922386D01*
X146706747Y-65926749D01*
X146623731Y-65932857D01*
X146549066Y-65930311D01*
X146529993Y-65930325D01*
X146511343Y-65931295D01*
X146493410Y-65933567D01*
X146484803Y-65935299D01*
X146476486Y-65937488D01*
X146468494Y-65940176D01*
X146460864Y-65943406D01*
X146453633Y-65947222D01*
X146446837Y-65951668D01*
X146440514Y-65956787D01*
X146434699Y-65962622D01*
X146429430Y-65969216D01*
X146424742Y-65976614D01*
X146420673Y-65984858D01*
X146417259Y-65993991D01*
X146414537Y-66004058D01*
X146412543Y-66015102D01*
X146411315Y-66027166D01*
X146410888Y-66040293D01*
X146411299Y-66054528D01*
X146412585Y-66069912D01*
X146414637Y-66085228D01*
X146417303Y-66099261D01*
X146420557Y-66112063D01*
X146424373Y-66123688D01*
X146428725Y-66134186D01*
X146433586Y-66143611D01*
X146438932Y-66152014D01*
X146444735Y-66159449D01*
X146450969Y-66165966D01*
X146457608Y-66171618D01*
X146464627Y-66176458D01*
X146471998Y-66180538D01*
X146479697Y-66183909D01*
X146487697Y-66186625D01*
X146495971Y-66188737D01*
X146504493Y-66190297D01*
X146513239Y-66191359D01*
X146522180Y-66191973D01*
X146531292Y-66192193D01*
X146540548Y-66192070D01*
X146559388Y-66191006D01*
X146578490Y-66189198D01*
X146616650Y-66185024D01*
X146635288Y-66183493D01*
X146653354Y-66182889D01*
X146680851Y-66179982D01*
X146708304Y-66176714D01*
X146735708Y-66173085D01*
X146763062Y-66169097D01*
X146790361Y-66164749D01*
X146817601Y-66160042D01*
X146844779Y-66154977D01*
X146871893Y-66149554D01*
X146889241Y-66147748D01*
X146906498Y-66146566D01*
X146923570Y-66146111D01*
X146940365Y-66146486D01*
X146956791Y-66147795D01*
X146972756Y-66150140D01*
X146988167Y-66153624D01*
X147002932Y-66158351D01*
X147010044Y-66161213D01*
X147016960Y-66164424D01*
X147023668Y-66167997D01*
X147030157Y-66171945D01*
X147036416Y-66176281D01*
X147042432Y-66181018D01*
X147048195Y-66186169D01*
X147053692Y-66191746D01*
X147058913Y-66197763D01*
X147063845Y-66204232D01*
X147068478Y-66211167D01*
X147072799Y-66218580D01*
X147076797Y-66226484D01*
X147080462Y-66234891D01*
X147083780Y-66243816D01*
X147086741Y-66253270D01*
X147089101Y-66262773D01*
X147090646Y-66271842D01*
X147091408Y-66280488D01*
X147091418Y-66288723D01*
X147090708Y-66296558D01*
X147089309Y-66304004D01*
X147087253Y-66311073D01*
X147084571Y-66317774D01*
X147081295Y-66324120D01*
X147077456Y-66330122D01*
X147073086Y-66335791D01*
X147068217Y-66341139D01*
X147062880Y-66346175D01*
X147057106Y-66350912D01*
X147050927Y-66355361D01*
X147044375Y-66359533D01*
X147037481Y-66363439D01*
X147030277Y-66367090D01*
X147022794Y-66370498D01*
X147015064Y-66373673D01*
X146998988Y-66379372D01*
X146982302Y-66384276D01*
X146965257Y-66388474D01*
X146948107Y-66392056D01*
X146931103Y-66395112D01*
X146914498Y-66397731D01*
X146388507Y-66477370D01*
X145942670Y-66477370D01*
X145931037Y-64669716D01*
X145921082Y-63114197D01*
X145925567Y-62336871D01*
X145933963Y-61995160D01*
X146394638Y-61995160D01*
X146395097Y-62105390D01*
X146400982Y-62326215D01*
X146416293Y-62767647D01*
X146416594Y-62778348D01*
X146417485Y-62788902D01*
X146418950Y-62799282D01*
X146420970Y-62809460D01*
X146423529Y-62819409D01*
X146426609Y-62829101D01*
X146430193Y-62838509D01*
X146434264Y-62847605D01*
X146438804Y-62856362D01*
X146443796Y-62864753D01*
X146449223Y-62872749D01*
X146455067Y-62880324D01*
X146461312Y-62887450D01*
X146467939Y-62894099D01*
X146474932Y-62900245D01*
X146482274Y-62905859D01*
X146489946Y-62910914D01*
X146497932Y-62915383D01*
X146506214Y-62919238D01*
X146514776Y-62922452D01*
X146523599Y-62924997D01*
X146532667Y-62926846D01*
X146541962Y-62927971D01*
X146551467Y-62928345D01*
X146561165Y-62927940D01*
X146571038Y-62926729D01*
X146581069Y-62924685D01*
X146591240Y-62921779D01*
X146601536Y-62917985D01*
X146611937Y-62913275D01*
X146622427Y-62907622D01*
X146632989Y-62900997D01*
X146689181Y-62866537D01*
X146746542Y-62836453D01*
X146804939Y-62810260D01*
X146864240Y-62787471D01*
X146924311Y-62767601D01*
X146985019Y-62750165D01*
X147046232Y-62734677D01*
X147107817Y-62720652D01*
X147355214Y-62669459D01*
X147416663Y-62655460D01*
X147477687Y-62640010D01*
X147538151Y-62622623D01*
X147597923Y-62602813D01*
X147752269Y-62552851D01*
X147906183Y-62513753D01*
X148059582Y-62485008D01*
X148212382Y-62466105D01*
X148364497Y-62456535D01*
X148515845Y-62455788D01*
X148666341Y-62463354D01*
X148815900Y-62478722D01*
X148964440Y-62501383D01*
X149111875Y-62530826D01*
X149258122Y-62566542D01*
X149403096Y-62608021D01*
X149546714Y-62654751D01*
X149688891Y-62706224D01*
X149829544Y-62761930D01*
X149968587Y-62821357D01*
X150182440Y-62921986D01*
X150387578Y-63030917D01*
X150583622Y-63148334D01*
X150770192Y-63274422D01*
X150946909Y-63409366D01*
X151113392Y-63553349D01*
X151269262Y-63706556D01*
X151414139Y-63869172D01*
X151547643Y-64041382D01*
X151669394Y-64223369D01*
X151779012Y-64415318D01*
X151829153Y-64515086D01*
X151876118Y-64617414D01*
X151919860Y-64722325D01*
X151960331Y-64829842D01*
X151997485Y-64939987D01*
X152031273Y-65052785D01*
X152061648Y-65168257D01*
X152088562Y-65286428D01*
X152111968Y-65407320D01*
X152131819Y-65530956D01*
X152158141Y-65744777D01*
X152175098Y-65955604D01*
X152182396Y-66163391D01*
X152179743Y-66368097D01*
X152166845Y-66569677D01*
X152143410Y-66768089D01*
X152109145Y-66963288D01*
X152063756Y-67155232D01*
X152006951Y-67343877D01*
X151938437Y-67529179D01*
X151857920Y-67711096D01*
X151765108Y-67889583D01*
X151659707Y-68064598D01*
X151541425Y-68236096D01*
X151409969Y-68404035D01*
X151265046Y-68568371D01*
X151214793Y-68620131D01*
X151163735Y-68671050D01*
X151111883Y-68721119D01*
X151059247Y-68770330D01*
X151005839Y-68818673D01*
X150951670Y-68866141D01*
X150896749Y-68912723D01*
X150841089Y-68958411D01*
X150784700Y-69003197D01*
X150727593Y-69047071D01*
X150669779Y-69090025D01*
X150611269Y-69132049D01*
X150552074Y-69173136D01*
X150492205Y-69213275D01*
X150431672Y-69252459D01*
X150370486Y-69290679D01*
X150234675Y-69375883D01*
X150096584Y-69460435D01*
X149956018Y-69541949D01*
X149884746Y-69580821D01*
X149812783Y-69618037D01*
X149740103Y-69653300D01*
X149666682Y-69686311D01*
X149592497Y-69716772D01*
X149517521Y-69744384D01*
X149441732Y-69768850D01*
X149365105Y-69789869D01*
X149287615Y-69807145D01*
X149209238Y-69820379D01*
X149076829Y-69837445D01*
X148944178Y-69851026D01*
X148811354Y-69861127D01*
X148678425Y-69867751D01*
X148545457Y-69870904D01*
X148412520Y-69870589D01*
X148279680Y-69866813D01*
X148147006Y-69859578D01*
X148014566Y-69848890D01*
X147882427Y-69834753D01*
X147750657Y-69817172D01*
X147619324Y-69796152D01*
X147488495Y-69771697D01*
X147358240Y-69743811D01*
X147228625Y-69712499D01*
X147099718Y-69677766D01*
X147067723Y-69667841D01*
X147036239Y-69656352D01*
X147005124Y-69643648D01*
X146974237Y-69630076D01*
X146912582Y-69601716D01*
X146850146Y-69574051D01*
X146818283Y-69561347D01*
X146785801Y-69549858D01*
X146752559Y-69539932D01*
X146718417Y-69531917D01*
X146700964Y-69528733D01*
X146683233Y-69526158D01*
X146665206Y-69524234D01*
X146646866Y-69523004D01*
X146628195Y-69522512D01*
X146609175Y-69522801D01*
X146589789Y-69523915D01*
X146570019Y-69525898D01*
X146579277Y-69525895D01*
X146579277Y-70811241D01*
X146579522Y-70870767D01*
X146580543Y-70923252D01*
X146582769Y-70969167D01*
X146586627Y-71008980D01*
X146589303Y-71026745D01*
X146592548Y-71043161D01*
X146596415Y-71058286D01*
X146600959Y-71072179D01*
X146606232Y-71084899D01*
X146612289Y-71096504D01*
X146619183Y-71107052D01*
X146626968Y-71116604D01*
X146635696Y-71125217D01*
X146645422Y-71132949D01*
X146656200Y-71139861D01*
X146668082Y-71146009D01*
X146681123Y-71151454D01*
X146695376Y-71156253D01*
X146710895Y-71160466D01*
X146727733Y-71164150D01*
X146765581Y-71170170D01*
X146809348Y-71174782D01*
X146859464Y-71178455D01*
X146916358Y-71181658D01*
X147123979Y-71184454D01*
X147330298Y-71181455D01*
X147535576Y-71174332D01*
X147740072Y-71164757D01*
X148147762Y-71144934D01*
X148351477Y-71138028D01*
X148555452Y-71135355D01*
X155130348Y-71161288D01*
X155965174Y-71160130D01*
X156385192Y-71157382D01*
X156808335Y-71152030D01*
X156863924Y-71151727D01*
X156912895Y-71150561D01*
X156955665Y-71148148D01*
X156992647Y-71144101D01*
X157009098Y-71141345D01*
X157024258Y-71138036D01*
X157038178Y-71134126D01*
X157050912Y-71129567D01*
X157062509Y-71124310D01*
X157073024Y-71118309D01*
X157082507Y-71111513D01*
X157091010Y-71103877D01*
X157098585Y-71095350D01*
X157105284Y-71085885D01*
X157111159Y-71075434D01*
X157116262Y-71063948D01*
X157120644Y-71051380D01*
X157124358Y-71037682D01*
X157127456Y-71022804D01*
X157129989Y-71006700D01*
X157133568Y-70970617D01*
X157135512Y-70929049D01*
X157136235Y-70881610D01*
X157136152Y-70827914D01*
X157135504Y-70772353D01*
X157133750Y-70716790D01*
X157128050Y-70605665D01*
X157121308Y-70494540D01*
X157115781Y-70383415D01*
X157101027Y-70244929D01*
X157090023Y-70106170D01*
X157082771Y-69967216D01*
X157079271Y-69828141D01*
X157079525Y-69689024D01*
X157083533Y-69549938D01*
X157091296Y-69410961D01*
X157102816Y-69272168D01*
X157131287Y-69091188D01*
X157153834Y-68909534D01*
X157171996Y-68727404D01*
X157187315Y-68544992D01*
X157215588Y-68180102D01*
X157231624Y-67998016D01*
X157250980Y-67816429D01*
X157258924Y-67725791D01*
X157261662Y-67635149D01*
X157259847Y-67544495D01*
X157254134Y-67453825D01*
X157245176Y-67363134D01*
X157233627Y-67272415D01*
X157205372Y-67090874D01*
X157174599Y-66909160D01*
X157146540Y-66727229D01*
X157135162Y-66636169D01*
X157126424Y-66545038D01*
X157120980Y-66453831D01*
X157119484Y-66362542D01*
X157118441Y-65718256D01*
X157105245Y-65074360D01*
X157056975Y-63787220D01*
X157003843Y-62500081D01*
X156984570Y-61856185D01*
X156975021Y-61211899D01*
X156974745Y-61117766D01*
X156973422Y-61034952D01*
X156970308Y-60962795D01*
X156964661Y-60900633D01*
X156960654Y-60873093D01*
X156955736Y-60847803D01*
X156949812Y-60824681D01*
X156942790Y-60803644D01*
X156934577Y-60784609D01*
X156925080Y-60767494D01*
X156914207Y-60752216D01*
X156901863Y-60738691D01*
X156887957Y-60726838D01*
X156872395Y-60716573D01*
X156855085Y-60707814D01*
X156835933Y-60700477D01*
X156814847Y-60694481D01*
X156791733Y-60689743D01*
X156766500Y-60686179D01*
X156739053Y-60683707D01*
X156677148Y-60681709D01*
X156605276Y-60683085D01*
X156522692Y-60687175D01*
X156428655Y-60693315D01*
X155768843Y-60724225D01*
X155108987Y-60745781D01*
X153788973Y-60767167D01*
X151146515Y-60767397D01*
X149059217Y-60760915D01*
X146971918Y-60741468D01*
X146954915Y-60740821D01*
X146938023Y-60740897D01*
X146921261Y-60741684D01*
X146904645Y-60743170D01*
X146871924Y-60748188D01*
X146839999Y-60755855D01*
X146809011Y-60766075D01*
X146779100Y-60778751D01*
X146750406Y-60793785D01*
X146723068Y-60811082D01*
X146697228Y-60830544D01*
X146673024Y-60852075D01*
X146650597Y-60875577D01*
X146630086Y-60900955D01*
X146611633Y-60928111D01*
X146595376Y-60956948D01*
X146588115Y-60971967D01*
X146581456Y-60987370D01*
X146575417Y-61003146D01*
X146570013Y-61019281D01*
X146527572Y-61125556D01*
X146492230Y-61232509D01*
X146463405Y-61340081D01*
X146440513Y-61448212D01*
X146422971Y-61556842D01*
X146410196Y-61665911D01*
X146401604Y-61775360D01*
X146396612Y-61885130D01*
X146394638Y-61995160D01*
X145933963Y-61995160D01*
X145935112Y-61948393D01*
X145951407Y-61560066D01*
X145958656Y-61354498D01*
X145971816Y-61149526D01*
X145990854Y-60945273D01*
X146015739Y-60741862D01*
X146046439Y-60539416D01*
X146082924Y-60338060D01*
X146125160Y-60137915D01*
X146173117Y-59939107D01*
X146226762Y-59741757D01*
X146286065Y-59545990D01*
X146350993Y-59351929D01*
X146421516Y-59159696D01*
X146497601Y-58969416D01*
X146579216Y-58781212D01*
X146666331Y-58595207D01*
X146758913Y-58411525D01*
X146879163Y-58205953D01*
X147003162Y-58002792D01*
X147130870Y-57802089D01*
X147262249Y-57603895D01*
X147397260Y-57408256D01*
X147535864Y-57215224D01*
X147678024Y-57024845D01*
X147823700Y-56837169D01*
X147972854Y-56652245D01*
X148125446Y-56470122D01*
X148281440Y-56290848D01*
X148380117Y-56181632D01*
X149088859Y-56181632D01*
X149098111Y-56181634D01*
X149234175Y-56187919D01*
X149370293Y-56192408D01*
X149506447Y-56195102D01*
X149642619Y-56196000D01*
X149778791Y-56195103D01*
X149914945Y-56192410D01*
X150051063Y-56187921D01*
X150187126Y-56181637D01*
X150685803Y-56200320D01*
X151184479Y-56209562D01*
X152181828Y-56210574D01*
X153179177Y-56206377D01*
X153677852Y-56209108D01*
X154176526Y-56218675D01*
X154398778Y-56218675D01*
X154428069Y-56218466D01*
X154443590Y-56217967D01*
X154459465Y-56216997D01*
X154475525Y-56215397D01*
X154491598Y-56213011D01*
X154507514Y-56209680D01*
X154523102Y-56205248D01*
X154538190Y-56199557D01*
X154545494Y-56196190D01*
X154552608Y-56192450D01*
X154559513Y-56188316D01*
X154566185Y-56183769D01*
X154572605Y-56178789D01*
X154578751Y-56173357D01*
X154584601Y-56167453D01*
X154590133Y-56161057D01*
X154595328Y-56154150D01*
X154600162Y-56146712D01*
X154604615Y-56138723D01*
X154608666Y-56130163D01*
X154612293Y-56121014D01*
X154615475Y-56111254D01*
X154618132Y-56101409D01*
X154620213Y-56092001D01*
X154621740Y-56083014D01*
X154622732Y-56074430D01*
X154623212Y-56066231D01*
X154623200Y-56058399D01*
X154622717Y-56050918D01*
X154621785Y-56043769D01*
X154620424Y-56036934D01*
X154618655Y-56030397D01*
X154616500Y-56024139D01*
X154613979Y-56018143D01*
X154611113Y-56012392D01*
X154607924Y-56006866D01*
X154604433Y-56001550D01*
X154600660Y-55996425D01*
X154596626Y-55991473D01*
X154592353Y-55986678D01*
X154583173Y-55977484D01*
X154573288Y-55968703D01*
X154562866Y-55960193D01*
X154541082Y-55943424D01*
X154530057Y-55934881D01*
X154519168Y-55926046D01*
X154460794Y-55879769D01*
X154403604Y-55832078D01*
X154347398Y-55783210D01*
X154291969Y-55733401D01*
X154182635Y-55631901D01*
X154073974Y-55529469D01*
X153964357Y-55427991D01*
X153908682Y-55378201D01*
X153852158Y-55329357D01*
X153794580Y-55281696D01*
X153735747Y-55235454D01*
X153675453Y-55190867D01*
X153613497Y-55148172D01*
X153580372Y-55128981D01*
X153548136Y-55108706D01*
X153516806Y-55087377D01*
X153486399Y-55065025D01*
X153456931Y-55041683D01*
X153428420Y-55017381D01*
X153400883Y-54992152D01*
X153374336Y-54966025D01*
X153348797Y-54939034D01*
X153324281Y-54911209D01*
X153300807Y-54882581D01*
X153278391Y-54853183D01*
X153257049Y-54823045D01*
X153236799Y-54792199D01*
X153217658Y-54760677D01*
X153199642Y-54728510D01*
X153182769Y-54695729D01*
X153167055Y-54662366D01*
X153152517Y-54628452D01*
X153139173Y-54594018D01*
X153127038Y-54559097D01*
X153116130Y-54523719D01*
X153106466Y-54487916D01*
X153098062Y-54451720D01*
X153090936Y-54415161D01*
X153085104Y-54378272D01*
X153080584Y-54341083D01*
X153077392Y-54303626D01*
X153075545Y-54265933D01*
X153075059Y-54228035D01*
X153075953Y-54189964D01*
X153078242Y-54151750D01*
X153086218Y-54004235D01*
X153089962Y-53856111D01*
X153090450Y-53707293D01*
X153088660Y-53557694D01*
X153082149Y-53255804D01*
X153079382Y-53103340D01*
X153078242Y-52949747D01*
X153019220Y-52937455D01*
X152959962Y-52926803D01*
X152900500Y-52917789D01*
X152840870Y-52910414D01*
X152781104Y-52904678D01*
X152721237Y-52900581D01*
X152661303Y-52898123D01*
X152601334Y-52897304D01*
X152541366Y-52898124D01*
X152481431Y-52900582D01*
X152421564Y-52904679D01*
X152361799Y-52910415D01*
X152302168Y-52917790D01*
X152242707Y-52926804D01*
X152183448Y-52937456D01*
X152124426Y-52949747D01*
X151987976Y-52971563D01*
X151851105Y-52990132D01*
X151713871Y-53005448D01*
X151576333Y-53017508D01*
X151438547Y-53026306D01*
X151300573Y-53031839D01*
X151162467Y-53034102D01*
X151024288Y-53033090D01*
X150802030Y-53033090D01*
X150786990Y-53033345D01*
X150772430Y-53034108D01*
X150758355Y-53035379D01*
X150744767Y-53037156D01*
X150731671Y-53039437D01*
X150719069Y-53042222D01*
X150706964Y-53045509D01*
X150695361Y-53049296D01*
X150684263Y-53053582D01*
X150673673Y-53058366D01*
X150663594Y-53063647D01*
X150654029Y-53069423D01*
X150644983Y-53075692D01*
X150636459Y-53082454D01*
X150628459Y-53089707D01*
X150620988Y-53097450D01*
X150614049Y-53105681D01*
X150607645Y-53114399D01*
X150601779Y-53123603D01*
X150596456Y-53133291D01*
X150591677Y-53143461D01*
X150587447Y-53154114D01*
X150583770Y-53165246D01*
X150580648Y-53176858D01*
X150578085Y-53188947D01*
X150576084Y-53201512D01*
X150574649Y-53214551D01*
X150573782Y-53228065D01*
X150573489Y-53242050D01*
X150573771Y-53256506D01*
X150574632Y-53271431D01*
X150576076Y-53286825D01*
X150575797Y-53403436D01*
X150572344Y-53519932D01*
X150565723Y-53636248D01*
X150555940Y-53752319D01*
X150543003Y-53868081D01*
X150526917Y-53983469D01*
X150507690Y-54098419D01*
X150485326Y-54212866D01*
X150479935Y-54276282D01*
X150471430Y-54339072D01*
X150459861Y-54401134D01*
X150445280Y-54462363D01*
X150427738Y-54522656D01*
X150407284Y-54581910D01*
X150383970Y-54640020D01*
X150357846Y-54696882D01*
X150328963Y-54752395D01*
X150297372Y-54806453D01*
X150263123Y-54858953D01*
X150226267Y-54909792D01*
X150186854Y-54958866D01*
X150144937Y-55006071D01*
X150100564Y-55051303D01*
X150053787Y-55094460D01*
X149919412Y-55217586D01*
X149788810Y-55344539D01*
X149662060Y-55475229D01*
X149539242Y-55609567D01*
X149420433Y-55747466D01*
X149305714Y-55888835D01*
X149195163Y-56033587D01*
X149088859Y-56181632D01*
X148380117Y-56181632D01*
X148440795Y-56114473D01*
X148603473Y-55941044D01*
X148769436Y-55770612D01*
X148938645Y-55603224D01*
X149111061Y-55438930D01*
X149192994Y-55356415D01*
X149272714Y-55271925D01*
X149429157Y-55100231D01*
X149507704Y-55014634D01*
X149587684Y-54930273D01*
X149628496Y-54888808D01*
X149670008Y-54847954D01*
X149712334Y-54807810D01*
X149755587Y-54768477D01*
X149781689Y-54743124D01*
X149806565Y-54716738D01*
X149830193Y-54689366D01*
X149852549Y-54661053D01*
X149873609Y-54631847D01*
X149893350Y-54601792D01*
X149911749Y-54570935D01*
X149928781Y-54539321D01*
X149944423Y-54506998D01*
X149958652Y-54474010D01*
X149971445Y-54440404D01*
X149982776Y-54406225D01*
X149992624Y-54371521D01*
X150000965Y-54336336D01*
X150007775Y-54300717D01*
X150013030Y-54264710D01*
X150035815Y-54132098D01*
X150054650Y-53998312D01*
X150070271Y-53863569D01*
X150083418Y-53728088D01*
X150126015Y-53183114D01*
X149983648Y-53147468D01*
X149926093Y-53131471D01*
X149876766Y-53115686D01*
X149854988Y-53107637D01*
X149835025Y-53099358D01*
X149816798Y-53090755D01*
X149800227Y-53081733D01*
X149785230Y-53072199D01*
X149771728Y-53062057D01*
X149759640Y-53051215D01*
X149748885Y-53039577D01*
X149739385Y-53027048D01*
X149731057Y-53013536D01*
X149723822Y-52998945D01*
X149717599Y-52983182D01*
X149712308Y-52966152D01*
X149707868Y-52947760D01*
X149704200Y-52927913D01*
X149701223Y-52906516D01*
X149697019Y-52858696D01*
X149694614Y-52803545D01*
X149692629Y-52668235D01*
X149690557Y-52451664D01*
X149691594Y-52235124D01*
X149695737Y-52018646D01*
X149702987Y-51802264D01*
X149713341Y-51586010D01*
X149726798Y-51369918D01*
X149731446Y-51309308D01*
X150219703Y-51309308D01*
X150219717Y-51395192D01*
X150223019Y-51480904D01*
X150229098Y-51566563D01*
X150237446Y-51652284D01*
X150258905Y-51824379D01*
X150306597Y-52174452D01*
X150316540Y-52263877D01*
X150324670Y-52354296D01*
X150330478Y-52445829D01*
X150333453Y-52538590D01*
X150342706Y-52529326D01*
X150353498Y-52521736D01*
X150364991Y-52515552D01*
X150377118Y-52510650D01*
X150389808Y-52506906D01*
X150402993Y-52504195D01*
X150416605Y-52502394D01*
X150444832Y-52501024D01*
X150561021Y-52507101D01*
X150588135Y-52506545D01*
X150601024Y-52505273D01*
X150613375Y-52503173D01*
X150625119Y-52500120D01*
X150636189Y-52495991D01*
X150646514Y-52490662D01*
X150656027Y-52484008D01*
X150664657Y-52475905D01*
X150672337Y-52466230D01*
X150678998Y-52454857D01*
X150684571Y-52441664D01*
X150688986Y-52426525D01*
X150692175Y-52409317D01*
X150694070Y-52389915D01*
X150694601Y-52368196D01*
X150690058Y-52197645D01*
X150688203Y-52027077D01*
X150689037Y-51856523D01*
X150692558Y-51686014D01*
X150698765Y-51515582D01*
X150707658Y-51345259D01*
X150719236Y-51175075D01*
X150733499Y-51005062D01*
X150734612Y-50993125D01*
X150735182Y-50981617D01*
X150735209Y-50973030D01*
X151218728Y-50973030D01*
X151218738Y-51001357D01*
X151220306Y-51162259D01*
X151220136Y-51320381D01*
X151218749Y-51631067D01*
X151228002Y-51623657D01*
X151249530Y-51999631D01*
X151272450Y-52375603D01*
X151272707Y-52409085D01*
X151273317Y-52425706D01*
X151274505Y-52442046D01*
X151276463Y-52457951D01*
X151279384Y-52473271D01*
X151283461Y-52487852D01*
X151285994Y-52494819D01*
X151288887Y-52501544D01*
X151292166Y-52508009D01*
X151295853Y-52514194D01*
X151299975Y-52520081D01*
X151304553Y-52525650D01*
X151309614Y-52530883D01*
X151315180Y-52535761D01*
X151321275Y-52540264D01*
X151327925Y-52544374D01*
X151335152Y-52548071D01*
X151342982Y-52551337D01*
X151351437Y-52554153D01*
X151360542Y-52556499D01*
X151370322Y-52558357D01*
X151380800Y-52559708D01*
X151392000Y-52560532D01*
X151403946Y-52560811D01*
X151427305Y-52560245D01*
X151438042Y-52559534D01*
X151448179Y-52558536D01*
X151457735Y-52557249D01*
X151466730Y-52555671D01*
X151475186Y-52553801D01*
X151483122Y-52551638D01*
X151490559Y-52549178D01*
X151497517Y-52546421D01*
X151504017Y-52543365D01*
X151510078Y-52540008D01*
X151515722Y-52536349D01*
X151520968Y-52532385D01*
X151525838Y-52528115D01*
X151530350Y-52523538D01*
X151534526Y-52518652D01*
X151538386Y-52513454D01*
X151541950Y-52507944D01*
X151545239Y-52502120D01*
X151548273Y-52495979D01*
X151551072Y-52489521D01*
X151556047Y-52475644D01*
X151560329Y-52460476D01*
X151564078Y-52444003D01*
X151567458Y-52426212D01*
X151570632Y-52407088D01*
X151576599Y-52363682D01*
X152188923Y-52363682D01*
X152189908Y-52386346D01*
X152192559Y-52407848D01*
X152194652Y-52418081D01*
X152197334Y-52427924D01*
X152200662Y-52437343D01*
X152204692Y-52446306D01*
X152209483Y-52454779D01*
X152215092Y-52462730D01*
X152221575Y-52470124D01*
X152228991Y-52476929D01*
X152237396Y-52483111D01*
X152246849Y-52488637D01*
X152257405Y-52493474D01*
X152269123Y-52497589D01*
X152282060Y-52500949D01*
X152296273Y-52503519D01*
X152311819Y-52505267D01*
X152328756Y-52506161D01*
X152347141Y-52506165D01*
X152367032Y-52505248D01*
X152397001Y-52503727D01*
X152426996Y-52502980D01*
X152485940Y-52501689D01*
X152514332Y-52500086D01*
X152541630Y-52497141D01*
X152567555Y-52492324D01*
X152579916Y-52489049D01*
X152591828Y-52485106D01*
X152603258Y-52480432D01*
X152614170Y-52474958D01*
X152624529Y-52468620D01*
X152634300Y-52461351D01*
X152643449Y-52453085D01*
X152651940Y-52443756D01*
X152659739Y-52433298D01*
X152666810Y-52421644D01*
X152673119Y-52408728D01*
X152678630Y-52394485D01*
X152683310Y-52378848D01*
X152687122Y-52361752D01*
X152690032Y-52343129D01*
X152692005Y-52322914D01*
X152693006Y-52301040D01*
X152693000Y-52277443D01*
X152687207Y-52108893D01*
X152683453Y-51939237D01*
X152680504Y-51595647D01*
X152681719Y-50974143D01*
X153241629Y-50974143D01*
X153242081Y-50990164D01*
X153243181Y-51007250D01*
X153244934Y-51025438D01*
X153248659Y-51102719D01*
X153251386Y-51180031D01*
X153253114Y-51257365D01*
X153253844Y-51334712D01*
X153253575Y-51412062D01*
X153252308Y-51489405D01*
X153250042Y-51566732D01*
X153246777Y-51644033D01*
X153246777Y-52307079D01*
X153246960Y-52318832D01*
X153247547Y-52330433D01*
X153248596Y-52341817D01*
X153250162Y-52352918D01*
X153252304Y-52363673D01*
X153255078Y-52374015D01*
X153258541Y-52383879D01*
X153262750Y-52393201D01*
X153265153Y-52397638D01*
X153267763Y-52401916D01*
X153270588Y-52406024D01*
X153273635Y-52409957D01*
X153276912Y-52413705D01*
X153280425Y-52417261D01*
X153284181Y-52420615D01*
X153288188Y-52423761D01*
X153292453Y-52426690D01*
X153296983Y-52429393D01*
X153301785Y-52431863D01*
X153306866Y-52434092D01*
X153312233Y-52436071D01*
X153317893Y-52437793D01*
X153323854Y-52439248D01*
X153330123Y-52440430D01*
X153337160Y-52441452D01*
X153344170Y-52442125D01*
X153351144Y-52442456D01*
X153358071Y-52442450D01*
X153364943Y-52442114D01*
X153371751Y-52441454D01*
X153378483Y-52440477D01*
X153385133Y-52439188D01*
X153391688Y-52437594D01*
X153398141Y-52435701D01*
X153404482Y-52433516D01*
X153410701Y-52431045D01*
X153416789Y-52428293D01*
X153422737Y-52425268D01*
X153428534Y-52421976D01*
X153434172Y-52418422D01*
X153439641Y-52414613D01*
X153444931Y-52410556D01*
X153450034Y-52406256D01*
X153454939Y-52401720D01*
X153459637Y-52396955D01*
X153464119Y-52391965D01*
X153468375Y-52386759D01*
X153472396Y-52381341D01*
X153476172Y-52375719D01*
X153479695Y-52369898D01*
X153482953Y-52363886D01*
X153485939Y-52357687D01*
X153488642Y-52351308D01*
X153491053Y-52344756D01*
X153493162Y-52338037D01*
X153494961Y-52331157D01*
X153500015Y-52315361D01*
X153504556Y-52299421D01*
X153508582Y-52283353D01*
X153512090Y-52267168D01*
X153515077Y-52250878D01*
X153517542Y-52234498D01*
X153519481Y-52218038D01*
X153520893Y-52201512D01*
X153571826Y-51606530D01*
X153620907Y-51010624D01*
X153621384Y-50970497D01*
X153621542Y-50950822D01*
X153621254Y-50931650D01*
X153620229Y-50913161D01*
X153618172Y-50895538D01*
X153614792Y-50878962D01*
X153612514Y-50871123D01*
X153609795Y-50863615D01*
X153606598Y-50856459D01*
X153602888Y-50849678D01*
X153598626Y-50843296D01*
X153593777Y-50837335D01*
X153588304Y-50831817D01*
X153582171Y-50826765D01*
X153575340Y-50822202D01*
X153567776Y-50818152D01*
X153559441Y-50814635D01*
X153550299Y-50811676D01*
X153540313Y-50809297D01*
X153529446Y-50807520D01*
X153517663Y-50806369D01*
X153504926Y-50805865D01*
X153491199Y-50806033D01*
X153476445Y-50806894D01*
X153418791Y-50811802D01*
X153392653Y-50814735D01*
X153368387Y-50818382D01*
X153346053Y-50823038D01*
X153325710Y-50828999D01*
X153316304Y-50832561D01*
X153307418Y-50836561D01*
X153299059Y-50841034D01*
X153291236Y-50846019D01*
X153283956Y-50851551D01*
X153277226Y-50857669D01*
X153271053Y-50864408D01*
X153265445Y-50871807D01*
X153260409Y-50879901D01*
X153255954Y-50888728D01*
X153252086Y-50898325D01*
X153248812Y-50908729D01*
X153246141Y-50919977D01*
X153244080Y-50932105D01*
X153242636Y-50945150D01*
X153241816Y-50959151D01*
X153241629Y-50974143D01*
X152681719Y-50974143D01*
X152681894Y-50884678D01*
X152691146Y-50882824D01*
X152676142Y-50882636D01*
X152661668Y-50882104D01*
X152647688Y-50881274D01*
X152634165Y-50880191D01*
X152608356Y-50877452D01*
X152583957Y-50874258D01*
X152538263Y-50867978D01*
X152516403Y-50865630D01*
X152505597Y-50864816D01*
X152494826Y-50864302D01*
X152400673Y-50864845D01*
X152362566Y-50866133D01*
X152329874Y-50868643D01*
X152315426Y-50870483D01*
X152302174Y-50872780D01*
X152290064Y-50875587D01*
X152279043Y-50878952D01*
X152269058Y-50882929D01*
X152260057Y-50887566D01*
X152251986Y-50892916D01*
X152244793Y-50899029D01*
X152238425Y-50905955D01*
X152232829Y-50913747D01*
X152227952Y-50922454D01*
X152223741Y-50932127D01*
X152220143Y-50942818D01*
X152217105Y-50954578D01*
X152214574Y-50967456D01*
X152212498Y-50981504D01*
X152209498Y-51013314D01*
X152207680Y-51050415D01*
X152205901Y-51142115D01*
X152204280Y-51696351D01*
X152200431Y-51970864D01*
X152192936Y-52242253D01*
X152192469Y-52266734D01*
X152191377Y-52291383D01*
X152189145Y-52340123D01*
X152188923Y-52363682D01*
X151576599Y-52363682D01*
X151594811Y-52231209D01*
X151615082Y-52055047D01*
X151632229Y-51878669D01*
X151647031Y-51702139D01*
X151698427Y-50995801D01*
X151699591Y-50976497D01*
X151699969Y-50958156D01*
X151699579Y-50940756D01*
X151698438Y-50924272D01*
X151696562Y-50908680D01*
X151693971Y-50893958D01*
X151690679Y-50880080D01*
X151686706Y-50867024D01*
X151682069Y-50854765D01*
X151676784Y-50843281D01*
X151670868Y-50832546D01*
X151664340Y-50822538D01*
X151657217Y-50813232D01*
X151649515Y-50804606D01*
X151641252Y-50796634D01*
X151632446Y-50789294D01*
X151623114Y-50782562D01*
X151613272Y-50776414D01*
X151602939Y-50770826D01*
X151592131Y-50765774D01*
X151580866Y-50761236D01*
X151569161Y-50757186D01*
X151557034Y-50753602D01*
X151544501Y-50750459D01*
X151518289Y-50745402D01*
X151490664Y-50741828D01*
X151461763Y-50739544D01*
X151431726Y-50738362D01*
X151416765Y-50738354D01*
X151402435Y-50739016D01*
X151388725Y-50740334D01*
X151375628Y-50742294D01*
X151363133Y-50744882D01*
X151351231Y-50748084D01*
X151339912Y-50751886D01*
X151329166Y-50756275D01*
X151318985Y-50761236D01*
X151309359Y-50766755D01*
X151300279Y-50772820D01*
X151291734Y-50779415D01*
X151283715Y-50786526D01*
X151276213Y-50794141D01*
X151269219Y-50802245D01*
X151262722Y-50810824D01*
X151256714Y-50819864D01*
X151251185Y-50829352D01*
X151246125Y-50839272D01*
X151241525Y-50849613D01*
X151237375Y-50860359D01*
X151233666Y-50871496D01*
X151230389Y-50883012D01*
X151227533Y-50894891D01*
X151225090Y-50907121D01*
X151223050Y-50919686D01*
X151220140Y-50945769D01*
X151218728Y-50973030D01*
X150735209Y-50973030D01*
X150735217Y-50970538D01*
X150734729Y-50959882D01*
X150733727Y-50949646D01*
X150732221Y-50939828D01*
X150730221Y-50930424D01*
X150727735Y-50921429D01*
X150724775Y-50912842D01*
X150721350Y-50904658D01*
X150717470Y-50896875D01*
X150713145Y-50889488D01*
X150708385Y-50882495D01*
X150703199Y-50875891D01*
X150697597Y-50869675D01*
X150691589Y-50863841D01*
X150685185Y-50858387D01*
X150678395Y-50853310D01*
X150671228Y-50848606D01*
X150663695Y-50844271D01*
X150655805Y-50840303D01*
X150647569Y-50836697D01*
X150638995Y-50833451D01*
X150630094Y-50830561D01*
X150620875Y-50828024D01*
X150611349Y-50825836D01*
X150601525Y-50823994D01*
X150591414Y-50822495D01*
X150570366Y-50820510D01*
X150548284Y-50819854D01*
X150509567Y-50820766D01*
X150473904Y-50823587D01*
X150457183Y-50825755D01*
X150441183Y-50828449D01*
X150425889Y-50831686D01*
X150411288Y-50835481D01*
X150397365Y-50839852D01*
X150384106Y-50844814D01*
X150371497Y-50850384D01*
X150359524Y-50856578D01*
X150348172Y-50863412D01*
X150337427Y-50870902D01*
X150327274Y-50879066D01*
X150317700Y-50887918D01*
X150308691Y-50897476D01*
X150300231Y-50907756D01*
X150292308Y-50918774D01*
X150284906Y-50930545D01*
X150278011Y-50943088D01*
X150271610Y-50956417D01*
X150265687Y-50970549D01*
X150260229Y-50985500D01*
X150255221Y-51001288D01*
X150250649Y-51017927D01*
X150242757Y-51053825D01*
X150236439Y-51093327D01*
X150231580Y-51136561D01*
X150223488Y-51223137D01*
X150219703Y-51309308D01*
X149731446Y-51309308D01*
X149743356Y-51154021D01*
X149763014Y-50938350D01*
X149772210Y-50865581D01*
X149783968Y-50798568D01*
X149798511Y-50737164D01*
X149806895Y-50708520D01*
X149816057Y-50681224D01*
X149826025Y-50655256D01*
X149836826Y-50630600D01*
X149848488Y-50607236D01*
X149861038Y-50585147D01*
X149874503Y-50564313D01*
X149888912Y-50544717D01*
X149904291Y-50526341D01*
X149920669Y-50509165D01*
X149938072Y-50493173D01*
X149956528Y-50478344D01*
X149976064Y-50464662D01*
X149996708Y-50452108D01*
X150018488Y-50440663D01*
X150041431Y-50430310D01*
X150065563Y-50421029D01*
X150090914Y-50412803D01*
X150117510Y-50405613D01*
X150145379Y-50399442D01*
X150174548Y-50394270D01*
X150205045Y-50390079D01*
X150270131Y-50384569D01*
X150340858Y-50382765D01*
X151150970Y-50378047D01*
X151961431Y-50383922D01*
G37*
M02*
