<svg id="Layer_7" data-name="Layer 7" xmlns="http://www.w3.org/2000/svg" viewBox="0 0 74.19 166.88"><defs><style>.cls-1{fill:none;stroke:#f04e23;stroke-miterlimit:10;}</style></defs><title>bepisobrys3</title><path class="cls-1" d="M451.94,202.61v84.57a13.92,13.92,0,0,1-1.34,6c-2.84,6-6.83,15.07-14.75,15.07h-9.61a6.51,6.51,0,0,1-4.42-1.73l-5.21-4.83a2.69,2.69,0,0,0-3.71,0l-5.24,5.09a5,5,0,0,1-3.52,1.43H394a9.19,9.19,0,0,1-6.85-3.06l-3.92-4.37a14.6,14.6,0,0,1-2.86-4.78l-.61-1.7a16.93,16.93,0,0,1-1-5.75V203.6a21.42,21.42,0,0,1,1.72-8.41l2.38-5.57a30,30,0,0,1,4.21-7c1.76-2.19,2.4-2.91,3.83-4.47l8.13-8.63a7.39,7.39,0,0,0,2.11-6.06,2.17,2.17,0,0,0-.21-.68c-.41-.8-1.26-1.3-1.62-2.14a8.22,8.22,0,0,1-.55-3.31v-7a8,8,0,0,1,8-8h17.52a7.62,7.62,0,0,1,7.62,7.62v9.88a5.06,5.06,0,0,1-1.35,3.26,2.45,2.45,0,0,0-.53,2.11l.17.8a8.21,8.21,0,0,0,2.25,4.09l12,11.89A23.27,23.27,0,0,1,451,194.71l.59,3.53A26.6,26.6,0,0,1,451.94,202.61Z" transform="translate(-378.25 -141.84)"/></svg>