<?xml version="1.0" encoding="utf-8"?>
<!-- Generator: Adobe Illustrator 21.1.0, SVG Export Plug-In . SVG Version: 6.00 Build 0)  -->
<svg version="1.1" xmlns="http://www.w3.org/2000/svg" xmlns:xlink="http://www.w3.org/1999/xlink" x="0px" y="0px"
	 viewBox="0 0 841.9 595.3" style="enable-background:new 0 0 841.9 595.3;" xml:space="preserve">
<style type="text/css">
	.st0{display:none;}
	.st1{display:inline;fill:#8F494A;}
	.st2{display:inline;fill:none;stroke:#FEBC12;stroke-miterlimit:10;}
	.st3{fill:none;stroke:#F04E23;stroke-miterlimit:10;}
	.st4{display:inline;}
	.st5{fill:#111010;}
	.st6{display:inline;fill:none;stroke:#F04E23;stroke-miterlimit:10;}
</style>
<g id="Layer_1" class="st0">
	<rect x="221.3" y="97.9" class="st1" width="278.1" height="399"/>
</g>
<g id="Layer_5" class="st0">
	<path class="st2" d="M356.3,342.1l1.7,89.4c0,0.9,0.4,1.7,1.1,2.2l2.7,2c0.7,0.5,1.5,0.8,2.3,0.8l72.7,0.3c6.1-0.1,7.3-1.2,7.8-7.9
		l-1.4-91.1c0-3.1-1.1-6.2-3.1-8.6L428.5,315l0.2-9.3c0.1-3.7-2.9-6.7-6.6-6.7l-43-0.1c-3.8,0-6.9,3.1-6.9,6.9l0.1,5.9l-12.7,18.5
		C357.4,333.2,356.2,338.3,356.3,342.1z"/>
</g>
<g id="Layer_6">
	<path class="st3" d="M444,338.4c0-0.6-0.1-1.4-0.3-2.2c-0.3-1.3-0.9-2.6-1.7-3.7l-1.3-1.9c-0.2-0.4-0.5-0.8-0.8-1.2l-10.5-13.1
		c-0.9-1.2-1.5-2.6-1.5-4.1v-7.6c0-3.1-2.5-5.6-5.6-5.6h-42.7c-3.4,0-6.1,2.8-6.1,6.1v7.2c0,0.9-0.3,1.7-0.8,2.4l-13.1,17.1
		c-1.3,1.7-2,3.8-2,5.9v89c0,1.8,0.6,3.5,1.7,4.8l0.4,0.5l0.6,0.7c1.8,2.2,4.4,3.4,7.2,3.4h71.3c2.8,0,5.1-2.3,5.1-5.1L444,338.4z"
		/>
</g>
<g id="Layer_2" class="st0">
	<g class="st4">
		<path class="st5" d="M406.5,162.3c-2.3-0.6-2.3-0.6-2.3-2.8c0-3.1,0.1-6.2,0.4-9.3c0.2-2.2,1-3,3.1-3c5.8-0.1,11.7,0,17.5,0.3
			c1.6,0.1,2.4,1,2.3,2.7c-0.2,2.9-0.4,5.7-0.2,8.6c0.1,0.9,0,1.8-1.1,2.1c-0.9,0.2-1,0.8-1,1.6c0.2,2.3,0.3,4.6,0.5,6.9
			c0.1,1.1,0.6,1.9,1.6,2.5c2.4,1.6,4.5,3.6,6.4,5.7c1.7,1.8,3.4,3.6,5.2,5.3c3.7,3.5,5.8,7.9,6.8,12.7c0.8,3.9,1.4,7.9,1.3,11.9
			c-0.4,17.3,0.3,34.7,0,52c-0.1,7.2-0.2,14.4-0.3,21.6c-0.1,3.5-1,7-1.8,10.4c-0.4,1.8-1.9,3.5-3.1,5.1c-1.6,2.4-3.7,4.4-5.8,6.3
			c-1,0.9-2.1,1.3-3.5,1.2c-1.3-0.1-2.6-0.1-3.8,0c-1.9,0.1-3.4-0.6-4.7-1.9c-1.6-1.6-3.3-3.3-4.8-5c-2.2-2.3-5-2.7-8-0.8
			c-1.4,0.9-2.6,2.1-3.7,3.4c-1,1.1-2.1,1.9-3.3,2.8c-0.9,0.7-2.1,1.2-3.3,1.2c-0.2,0-0.5,0-0.7,0c-6.2,0-5.9,0.8-10.4-4.1
			c-1.2-1.4-2.6-2.6-3.7-4.1c-1.4-1.9-2.2-4-2.2-6.4c0.1-12.2,0-24.5,0.1-36.7c0.1-9.3,0-18.7-0.1-28c0-5.6-0.2-11.2,0.1-16.8
			c0.3-5.9,1.4-11.6,4.4-17c3.4-6.1,7.8-11.3,12.7-16.1c1.2-1.2,2.2-2.5,3.5-3.6c0.8-0.7,1.3-1.7,1.4-2.7
			C406.3,166.3,406.4,164.3,406.5,162.3z M394.4,247.2c0-0.1-0.1-0.1-0.1-0.2c-0.3-0.5-0.5-1-0.9-1.4c-0.4-0.5-1-1-1.6-0.8
			c0,0,0.4,0.7,0.5,0.8c0.2,0.4,0.5,0.9,0.8,1.3c0.3,0.5,0.7,1.1,1,1.6c0.3,0.5,0.5,1.1,0.9,1.5c0.3,0.3,0.9,0.2,1.3,0.2
			c0-0.2-0.4-0.7-0.5-0.8c-0.2-0.3-0.4-0.6-0.6-0.9C394.9,248.1,394.7,247.6,394.4,247.2z M387.4,250.6c0,2.3,0,4.6,0,6.9
			c0,1.8,0.1,1.9,1.8,2c3,0.1,5.9-0.2,8.9-0.3c11.8,0,23.7,0.1,35.5,0.1c3,0,6,0,9.1-0.1c1.7,0,1.8-0.1,1.8-1.8
			c0-0.8-0.1-1.6-0.1-2.4c-0.1-2-0.4-4-0.1-6c0.5-2.6,0.5-5.2,0.8-7.9c0.3-2.7-0.7-5.2-0.7-7.8c0.1-9.3-0.7-18.5-0.8-27.8
			c0-2.9-0.1-3-2.9-2.8c-9.5,0.5-19,0.4-28.5,0.4c-7.5,0-15-0.1-22.5-0.1c-1.1,0-1.8,0.5-2.2,1.5c-1.3,3.1-0.9,6.3-0.8,9.4
			c0,0.6,0.6,1.1,1.2,0.7c1.6-1.1,3.5-1,5.2-1.6c4.5-1.6,8.8-0.6,12.8,1.2c6.3,2.8,10.6,7.4,11.7,14.6c0.9,6.2-0.3,11.7-4.7,16.4
			c-1.4,1.5-3.1,2.8-4.8,3.9c-1.9,1.2-4,2.5-6.3,2.9c-3.8,0.5-7.6,0.3-11.4-0.8C389.3,251.1,388.5,250.4,387.4,250.6z M400.9,178.5
			c2.3,0.3,4.1,0,5.9,0c7.2,0.4,14.4,0,21.5,0.2c0.4,0,0.8,0,1.2,0c0.5,0,1,0,1.2-0.6c0.1-0.5-0.2-0.7-0.5-1c-1.7-1.3-3.1-3-4.9-4.2
			c-1.9-1.3-3.1-2.9-2.9-5.4c0.2-2.1,0-4.3,0-6.5c-1.7-0.4-3.5-0.3-5.2,0c-2,0.4-4,0.4-5.9,0.4c-0.4,0-0.8,0-1.2,0
			c-0.9,0-1.3,0.5-1.2,1.4c0.2,1.7-0.3,3.3-0.5,5c-0.2,1.9-0.8,3.5-2.3,4.8C404.3,174.3,402.6,176.2,400.9,178.5z M412.3,224.8
			c0-1.7-0.2-3.9-2.2-5.6c-1.6-1.5-1.8-1.5-2.6,0.4c-1.6,3.8-3.9,7.3-6.2,10.7c-3.1,4.6-7.5,8-12.5,10.5c-0.7,0.4-1.5,0.5-2,1.3
			c-0.2,0.4-0.5,0.8-0.2,1.3c0.3,0.6,0.8,0.3,1.3,0.2c5.4-1.1,10.8-2.6,15.9-4.8C408.6,236.6,412.5,230.7,412.3,224.8z M386.7,226.5
			c0.1,0.3,0.5,0.4,0.8,0.5c0.4,0.1,0.8,0.2,0.8,0.7c0,0.5-0.5,0.6-0.8,0.6c-0.2,0-0.3,0-0.5,0.1c-0.4,0.1-0.5,0.4-0.5,0.7
			c0,0.4,0.3,0.5,0.6,0.5c1.4,0,2.9,0.2,4.3,0c1.4-0.2,2.7,0.9,4,0c0.3-0.2,0.8-0.1,0.9,0.4c0.1,0.5-0.3,0.9-0.7,0.8
			c-1.6-0.4-3,0.6-4.6,0.3c-1.2-0.2-2.4,0-3.6,0c-0.5,0-1.2-0.2-1.1,0.7c0.1,0.8,0.8,0.6,1.3,0.6c0.4,0,0.8-0.1,1.2-0.2
			c0.5-0.1,1,0,1.2,0.6c0.1,0.7-0.5,0.7-0.9,0.8c-0.9,0.1-1.7,0.3-2.8,0.4c0.5,0.7-0.4,2,1.1,2.1c2,0.1,4,0,5.9,0
			c0.2-0.1,0.5-0.2,0.7-0.4c-1.9-0.5-1.3-1.2-0.8-1.8c0.8-0.9,0.9,0.2,1.4,0.5c0.2,0.1,0.6,0.2,0.7-0.5c-1,0.1-2,0.4-2.9-0.1
			c-0.4-0.2-1-0.2-1-0.8c0-0.7,0.7-0.6,1.1-0.6c1.3-0.1,2.6-0.1,3.8-0.1c0.6,0,1.1,0,1.6-0.4c0.2-0.2,0.6-0.4,0.3-0.9
			c-0.7-1.1-0.7-1.2,0.6-1.4c0.5-0.1,1,0,0.9-1c-1.3,0-2.7,0-4,0c-0.6,0-1.3,0-1.9-0.1c-0.4,0-0.8-0.2-0.7-0.7
			c0-0.4,0.4-0.5,0.7-0.5c0.5,0,1,0,1.4,0c1.5,0,3,0,4.6,0c0.7,0,1.6-0.3,1.4-0.9c-0.5-1.4,0.6-1.6,1.2-2.1c0.4-0.4,0.7-1-0.3-1.1
			c-0.4-0.1-0.8-0.2-0.8-0.7c0-0.6,0.6-0.8,1-0.8c2.4,0,2.2-1.9,3-3.5c-1.2,0-2,0.1-2.9,0c-0.6,0-1.5,0.3-1.5-0.6c0-1,1-0.7,1.7-0.8
			c1.1-0.1,2.2,0.2,3.5-0.4c-1.9-0.6-3.6-1.1-5.3-1.5c-0.6-0.2-1.2-0.3-1.6,0.5c-0.3,0.6-1.1,0.5-1.1-0.3c-0.1-0.9-0.5-0.8-1.1-0.8
			c-0.6,0-1.1,0.1-1.7,0.2c0.3,0.4,0.7,0.5,0.7,1c0,0.1-0.1,0.3-0.2,0.4c-0.2,0.3-0.5,0.4-0.8,0.4c-1.2,0-2.4,0-3.6-0.2
			c-0.7-0.1-1.2,0-2,0.6c2.3,0,4.2,0,6.1,0c0.5,0,1.1,0,1,0.7c0,0.6-0.5,0.7-1.1,0.7c-2.2,0-4.5,0-6.7,0c-0.6,0-1.2-0.2-1.7,0.3
			c0.1,0.4,0.1,0.6,0.4,0.6c0.4,0,0.8-0.1,1.2,0c1,0.3,2.9-0.7,3,0.8c0,1.2-1.9,0.5-2.9,0.7c-0.5,0.1-1,0-1.4,0
			c-0.5,0-0.6,0.4-0.6,0.9c0,0.4,0.2,0.6,0.6,0.6c0.3,0,0.7,0.2,0.9,0.1c3.1-0.9,6.3-0.2,9.5-0.4c0.5,0,1.1,0.1,1.7,0.2
			c0.3,0.1,0.5,0.3,0.5,0.7c0,0.3-0.3,0.4-0.5,0.4c-0.5,0.1-1,0.1-1.4,0.1c-3,0-5.9,0-8.9-0.1c-1,0-2.2,0.2-2.2,1c0,1,1.3,0.5,2,0.5
			c1.7,0.1,3.4,0,5,0c0.4,0,0.8,0,1.2,0c0.7,0.1,1.9-0.2,1.9,0.9c0,1-1.2,0.8-2,0.8c-2.2,0-4.5,0-6.7,0
			C387.8,226.2,387.2,226,386.7,226.5z M420.4,149.9c-0.4,0-0.8-0.1-1.1-0.1c-1.5,0-1.5,0-1.6,1.5c0,2,0,4-0.1,5.9
			c0,0.7-0.3,1.5,0.9,1.4c0.9-0.1,1.8,0.2,1.8-1.2C420.3,155,420.4,152.5,420.4,149.9z M412.5,153.9
			C412.5,153.9,412.5,153.9,412.5,153.9c0.1,1.4,0.2,2.7,0.3,4.1c0,0.5,0,1,0.7,1c0.6,0,0.8-0.3,0.9-0.8c0.4-2.5,0.5-5.1,0.7-7.6
			c0.1-1.1-0.6-1.4-1.4-1.4c-1,0-1.2,0.6-1.1,1.4C412.5,151.7,412.5,152.8,412.5,153.9z M407.7,158.8c0.6-0.5,1.9,0.5,1.9-0.9
			c0-2.5-0.1-4.9,0.2-7.4c0.1-0.7-0.4-1-1-1c-1.2,0-1.6,0.4-1.7,1.7C406.8,153.8,407.6,156.1,407.7,158.8z M423.4,154
			C423.4,154,423.4,154,423.4,154c0,1.2,0,2.4,0,3.6c0,0.3,0.1,0.7,0.5,0.7c0.4,0.1,0.7-0.2,0.9-0.6c0.1-0.2,0.1-0.5,0.1-0.7
			c0.2-2.1,0.4-4.3,0.5-6.4c0-0.6,0.1-1.2-0.8-1.1c-0.7,0.1-1.4,0.1-1.3,1.2C423.5,151.8,423.4,152.9,423.4,154z M405.6,248
			c0-0.1,0-0.2,0-0.2c-1.3-1.9-2.6-3.8-4-5.6c-0.2-0.3-0.7-0.3-1.1,0c-0.5,0.3-0.3,0.7,0,1c1.2,1.6,2.4,3.1,3.7,4.6
			c0.2,0.2,0.4,0.5,0.7,0.6C405.2,248.5,405.5,248.4,405.6,248z M402.5,241.5c1.2,1.7,2.4,3.4,3.7,5c0.2,0.3,0.5,1,1.1,0.5
			c0.5-0.4,0-0.7-0.2-1c-0.9-1.5-1.9-2.9-2.8-4.4C403.7,240.4,403.2,241,402.5,241.5z M408.5,246c0.6-0.2,0.9-0.4,0.8-0.6
			c-1-1.8-1.9-3.6-2.9-5.4c-0.2-0.4-0.7-0.2-1,0.1c-0.4,0.3-0.3,0.6-0.1,1c1,1.5,2.1,3,3.1,4.5C408.5,245.7,408.6,245.9,408.5,246z
			 M398,242.9c1.5,2.3,2.9,4.4,4.4,6.3c0.3,0.4,0.7,0.3,1.3-0.1c-1.8-1.9-3.1-4.1-4.8-6.1C398.8,242.9,398.6,242.9,398,242.9z
			 M400.4,250.3c0.2-0.1,0.7-0.2,0.8-0.3c-1.3-2-2.7-4-4-6c-0.2-0.3-0.6-0.7-1-0.3c-0.5,0.4,0,0.7,0.2,1
			C397.8,246.5,399.2,248.2,400.4,250.3z M399.2,250.5c-2.1-3.3-4.4-7-5.1-6.2C395.7,247.4,397.9,250.9,399.2,250.5z M408,238.6
			c-0.6,0.1-1.1,0.3-0.6,1.1c0.8,1.3,1.6,2.6,2.4,3.8c0.2,0.3,0.5,0.7,0.9,0.4c0.3-0.2,0.3-0.6,0.1-0.9c-0.8-1.4-1.5-2.8-2.3-4.2
			C408.4,238.7,408.3,238.5,408,238.6z M409.5,237.1c0.4,1.8,1.3,3.4,2.4,4.9c0.2,0.3,0.4,0.1,0.6-0.1c0.3-0.2,0.4-0.5,0.2-0.8
			C411.7,239.7,411,238.1,409.5,237.1z M390.9,237.4c-1.4,0-2.7-0.2-3.9,0.1c-0.1,0.9-0.3,1.7,0.3,2.5c0.4-0.7,1.2-1.1,1.9-1.3
			C389.8,238.5,390.3,238.3,390.9,237.4z M411.2,235.2c-0.2,0.1-0.3,0.3-0.5,0.4c0.9,1.3,1.7,2.7,2.6,4c0.1,0.1,0.5,0.2,0.6,0.2
			c0.3-0.1,0.4-0.5,0.2-0.8C413.2,237.6,412.5,236.2,411.2,235.2z M393.3,249.7c-1.5-3.2-2.4-4.4-3.6-4.4
			C391.1,246.7,391.8,248.6,393.3,249.7z M412.4,233.7c-0.6,0.4,2.8,4.7,2.7,3.6C416.5,237.2,412.5,232.8,412.4,233.7z M415.4,234.8
			c-0.2-1.4-1-2.2-2.2-3.5C413.4,233.2,414.4,234,415.4,234.8z M388.5,245.6c0.2,1.1,0.8,2.1,1.7,2.8
			C389.8,247.3,389.5,246.2,388.5,245.6z M415.1,231.1c-0.2-0.8-0.4-1.5-1.2-1.9C413.5,230.4,414.5,230.7,415.1,231.1z M386.5,246.1
			c-0.1,1.1,0.1,1.7,1.4,2C387.6,247.2,387.4,246.6,386.5,246.1z"/>
		<path class="st5" d="M400.5,219c0.7,0.1,1.5,0.1,2.3,0.2c0.2,0,0.4,0.3,0.4,0.5c0,0.2-0.2,0.5-0.3,0.6c-1.7,0.4-3.4,0.4-5.1,0
			c-0.1,0-0.3-0.4-0.3-0.6c0-0.2,0.2-0.5,0.4-0.5C398.7,219.1,399.6,219.1,400.5,219z"/>
		<path class="st5" d="M389.6,234c0.5,0.1,0.9,0,1.2,0.3c0.2,0.3,0.3,0.5,0.1,0.8c-0.4,0.4-2.2,0.5-2.7,0.2c-0.3-0.2-0.2-0.5,0-0.8
			C388.6,234.1,389.1,233.9,389.6,234z"/>
		<path class="st5" d="M399.4,217.3c-0.1,0.6-0.5,0.8-1,0.8c-0.5,0-1-0.2-1-0.8c0-0.5,0.5-0.6,0.9-0.6
			C398.8,216.7,399.3,216.7,399.4,217.3z"/>
		<path class="st5" d="M391.3,227.8c-0.1,0.4-0.4,0.7-0.8,0.7c-0.5,0-1-0.2-1-0.8c0.1-0.5,0.6-0.5,0.9-0.5
			C390.9,227.2,391.2,227.3,391.3,227.8z"/>
		<path class="st5" d="M394.5,219.1c0.5,0,1.1-0.1,1.1,0.6c0,0.6-0.5,0.8-1,0.7c-0.5,0-1-0.2-1-0.8
			C393.6,219.1,394.1,219.1,394.5,219.1z"/>
		<path class="st5" d="M399.4,225.4c0,0.4-0.4,0.5-0.8,0.5c-0.4,0-0.8-0.1-0.8-0.6c0-0.4,0.4-0.7,0.8-0.7
			C399,224.6,399.4,224.8,399.4,225.4z"/>
	</g>
</g>
<g id="Layer_4" class="st0">
	<path class="st2" d="M379.5,203c-0.3,14.1-0.9,46.5-0.4,88.9c0,0.6,0.1,1.3,0.3,1.9c0.6,2,1.2,4.4,3.6,7.4c1.4,1.7,2.8,3.4,4.1,4.5
		c1.3,1,2.7,2.3,4.3,2.3l10.7,0c2.4,0,4.7-0.8,6.4-2.4c0.8-0.7,1.9-1.5,3.3-1.9c0.8-0.3,3.4-1.1,6,0.3c0.8,0.4,1.4,0.9,1.9,1.4
		c1.8,1.9,4.3,3.2,7,3.2h7.1c4.3,0,8.4-2,11-5.5c0.9-1.2,1.8-2.5,2.7-4l0.1-0.1c2.9-4.5,4.4-9.7,4.4-15l0.3-83.7
		c-0.4-7.1-2.5-12-4-14.6c-1.7-3.2-4.8-7.4-9.5-11.5c-2.8-2.4-4.8-4.3-7.3-6.2c-2-1.5-2.2-4.4-0.7-5.8c1-1,1.9-1.3,2.2-2.6
		c0.3-1.2,0.3-2.8,0.3-4.1c0-1.4,0-2.8,0-4.1l0.1-5c0-2.2-1.7-3.9-3.9-3.9l-27,0.2c-2.3,0-4.2,1.9-4.2,4.2v11.6
		c0,1.3,0.6,2.6,1.6,3.5c0.8,0.8,1.5,1.7,1.6,2.8c0.1,2.4-2.1,4.2-3.8,5.7c-1.9,1.7-3.8,3.5-5.5,5.4
		C384.8,183.7,379.7,191.9,379.5,203z"/>
</g>
<g id="Layer_7" class="st0">
	<path class="st6" d="M451.9,202.6v84.6c0,2.1-0.5,4.1-1.3,6c-2.8,6-6.8,15.1-14.7,15.1h-9.6c-1.6,0-3.2-0.6-4.4-1.7l-5.2-4.8
		c-1.1-1-2.7-1-3.7,0l-5.2,5.1c-0.9,0.9-2.2,1.4-3.5,1.4H394c-2.6,0-5.1-1.1-6.8-3.1l-3.9-4.4c-1.3-1.4-2.2-3-2.9-4.8l-0.6-1.7
		c-0.7-1.8-1-3.8-1-5.8v-84.9c0-2.9,0.6-5.8,1.7-8.4l2.4-5.6c1.1-2.5,2.5-4.9,4.2-7c1.8-2.2,2.4-2.9,3.8-4.5l8.1-8.6
		c1.5-1.6,2.4-3.8,2.1-6.1c0-0.2-0.1-0.5-0.2-0.7c-0.4-0.8-1.3-1.3-1.6-2.1c-0.5-1-0.5-2.2-0.5-3.3v-7c0-4.4,3.6-8,8-8h17.5
		c4.2,0,7.6,3.4,7.6,7.6l0,9.9c0,1.2-0.6,2.3-1.4,3.3c-0.5,0.6-0.7,1.4-0.5,2.1l0.2,0.8c0.3,1.6,1.1,3,2.2,4.1l12,11.9
		c3.5,3.4,5.8,7.9,6.6,12.7l0.6,3.5C451.8,199.7,451.9,201.1,451.9,202.6z"/>
</g>
<g id="Layer_3" class="st0">
	<g class="st4">
		<path d="M363.1,396.8c-0.2-8.9-0.4-18-0.6-27.1c0-1.7,0.3-3.3,0.4-5c0.1-1.3,0.1-2.7,0.1-4c0-4,0-8-0.1-12
			c-0.1-3.1-0.1-6.2-0.4-9.3c-0.2-2.5,0.5-4.7,2-6.7c2.3-3,4.6-5.9,6.9-8.9c1.6-2.2,3.3-4.3,4.8-6.6c0.6-1,1-2.2,1.1-3.4
			c0.2-1.9,0.2-3.8,0.2-5.7c0-2.7,1.2-4.1,3.9-4.3c0.9-0.1,1.9,0.1,2.9,0.1c1.3,0.1,2.5,0.3,3.8,0.4c4.7,0.3,9.4,0.7,14.1,0.7
			c6.4,0,12.7-0.4,19.1-0.7c1.2-0.1,1.9,0.4,2.1,1.8c0.2,1.5,0.3,3.1,0.1,4.5c-0.4,3.7,0.8,6.8,2.6,9.9c2.9,4.8,6.4,9.1,10.4,13.1
			c1.2,1.2,1.9,2.5,1.9,4.2c0,2.2,0,4.5,0.1,6.7c0.1,6.2,0.2,12.5,0.2,18.7c0,5.2-0.2,10.4-0.2,15.6c0,3,0.3,6.1,0.3,9.1
			c0,2.4-0.3,4.8-0.2,7.2c0,3.8,0.2,7.5,0.3,11.3c0,0.4,0.2,0.8,0.1,1.2c-0.7,5.3,0.3,10.5,0.4,15.8c0,1.9,0.1,3.8,0.2,5.7
			c0.1,1.2-0.7,1.8-1.7,1.9c-2,0.2-4,0.4-6,0.3c-5.3-0.3-10.7-0.8-16-1.1c-1.4-0.1-2.7-0.1-4.1,0c-5.8,0.5-11.6,1.1-17.4,1.6
			c-2.5,0.2-4.9-0.1-7.4-0.5c-6.6-1-13.3-1.7-20-1.2c-1.5,0.1-2.5-0.3-3.1-1.5c-0.3-0.6-0.6-1.3-0.6-1.9
			C363.1,416.7,363.1,406.8,363.1,396.8z M435.9,426.7c0-7.9,0-15.2,0-22.6c0-4.6,0-9.3,0.2-13.9c0.1-3.4,0.7-6.9,0.7-10.3
			c0-3.9-0.7-7.8-0.7-11.7c-0.1-8.4,0.1-16.8,0.1-25.2c0-1,0.1-2.1-0.1-3.1c-0.2-1.6-1-2.2-2.6-2.2c-3.5-0.1-7-0.4-10.5-0.4
			c-5.4,0-10.9,0.3-16.3,0.3c-2.8,0-5.6-0.1-8.4-0.4c-2.7-0.2-3.3,0-3.6,2.7c-0.2,1.6,0,3.2,0,4.8c-0.1,3.9-0.3,7.8-0.3,11.7
			c-0.1,8.1,0.7,16.1,0.4,24.2c-0.4,12.5-0.3,25.1-0.5,37.7c0,1.5-0.1,3.1,0.2,4.5c0.9,4,0.7,4.4,4.8,4.4c10.6,0,21.3,0,31.9,0
			C432.8,427.3,434.2,426.9,435.9,426.7z M392.4,356.6c0.1,0-0.2-2.4-0.1-2.4c0-2.3,0.4-2.2,0.4-4.5c0.1-3,0.3-6.1,0.3-9.1
			c0-1.4-0.1-3-0.8-4.2c-3.5-5.6-7.1-11-10.7-16.5c-0.3-0.5-0.7-0.9-1-1.3c-1.2-1.4-2-1.4-3,0.1c-3.7,5.5-7.4,11-11.2,16.5
			c-0.9,1.3-1.2,2.7-1.1,4.3c0.2,2.6,0.1,5.1,0.1,7.7c0.1,4.4,0.1,8.8-0.3,13.2c-0.3,4,0.2,8,0.4,12c0.2,3.5,0.7,7,0.7,10.5
			c0,11.9,0.1,23.8,1.2,35.7c0.1,1.6,0.5,3.2,0.7,4.7c0.2,0.9,0.7,1.3,1.7,1.4c4.5,0.6,9,1.3,13.5,1.9c2.3,0.3,4.6,0.4,6.9,0.5
			c1.5,0,1.9-0.4,2.1-1.8c0.2-2.5,0.5-5.1,0.5-7.6c0.1-4.9,0-9.8-0.1-14.6c-0.1-10-0.2-20-0.3-30
			C392.4,367.5,392.4,362.1,392.4,356.6z M432.4,334.7c0.5-1.3-0.2-2.2-0.9-3.1c-3.3-4.3-6.8-8.5-9.3-13.3c-0.4-0.7-0.9-1.3-1.3-2
			c-0.5-0.7-1-1.1-2-1.1c-3.4-0.1-6.7-0.3-10.1-0.4c-8.5-0.1-17.1-0.1-25.7-0.2c-0.6,0-1.2,0.1-1.7,0.2c0,0.4-0.1,0.6,0,0.7
			c2.6,5,5.6,9.8,9.3,14.2c0.7,0.9,1.4,1.8,2,2.7c0.7,1.2,1.6,1.8,3.1,1.8c3,0,6.1,0.1,9.1,0.2c5.8,0.3,11.7,0.6,17.5,0.8
			C425.8,335.4,429.1,335.5,432.4,334.7z M401.5,306.6c0.2,2.3,0.3,4.3,0.4,6.5c1.2,0,2.2,0,3.3,0c0.1-2.2,0.2-4.3,0.4-6.5
			C404.1,306.6,403,306.6,401.5,306.6z M399.4,306.7c-1.1,0-2.3,0-3.6,0c0.1,2.1,0.2,4.2,0.4,6.3c1.2,0,2.2,0,3.3,0
			C399.4,310.9,399.4,308.9,399.4,306.7z M388.3,313.1c0.1-2.6,0.2-5,0.4-7.3c-1.3,0-2.3,0-3.5,0c0.2,2.4,0.3,4.7,0.5,6.9
			C386.6,312.8,387.3,312.9,388.3,313.1z M418.3,306.7c0,2.2-0.7,4.3,0.1,6.4c0.4,0,0.7,0.1,1,0.1c1.9,0,2.1-0.2,2.2-2.2
			c0-0.8,0-1.6,0-2.4C421.5,306.2,421,305.9,418.3,306.7z M380,312.3c1.2,0.2,2.3,0.3,3.1,0.4c0-2.5,0-4.8,0-7.1
			c-2.2,0-3.4,0.6-3.4,1.8C379.7,308.9,379.9,310.5,380,312.3z M407.4,306.6c0,2.3,0,4.4,0,6.5c1.1,0,2,0,3.1,0
			c0-2.2,0.4-4.3-0.1-6.5C409.3,306.6,408.4,306.6,407.4,306.6z M390.7,306c0,2.5,0,4.7,0,7c1,0,1.9,0,2.9,0c0-2.3,0.5-4.5-0.4-6.7
			C392.4,306.2,391.7,306.1,390.7,306z M412.7,306.8c0,2.2,0,4.2,0,6.3c1,0,2,0,2.9,0c0-2.2,0-4.2,0-6.4
			C414.5,306.7,413.6,306.7,412.7,306.8z"/>
		<path d="M400.9,359.4c2.9,0.9,2.5,4,4.3,5.8c0.5-0.7,1-1.4,1.4-2.1c0.3-0.5,0.6-1.1,0.9-1.7c0.3-0.7,0.8-1.4,1.6-1
			c0.4,0.2,0.7,1,0.7,1.5c0.1,2.7,0.1,5.4,0.2,8.1c0,0.4,0.1,0.8-0.1,1.2c-0.2,0.4-0.6,0.9-0.9,0.9c-0.3,0-0.8-0.5-0.9-0.8
			c-0.2-0.6-0.1-1.3-0.1-1.9c-0.1-1.1-0.2-2.2-0.4-3.7c-0.8,0.9-1.2,1.4-1.7,1.9c-1.2,1.2-2,1-2.7-0.6c-0.4-0.8-0.7-1.7-1-2.5
			c-0.2,0-0.3,0.1-0.5,0.1c0,1.7,0,3.5,0,5.2c0,1.4,0.1,1.4-1.1,2.2C399.2,370.2,399.3,362.9,400.9,359.4z"/>
		<path d="M407.3,380.9c-0.7,0.6-1.3,1.2-2.1,1.9c-1.1-0.7-1.2-1.5-0.5-2.4c1.1-1.7,3.4-2.3,5.3-1.4c2,1,2.6,2.7,1.6,4.8
			c-0.8,1.5-1.9,2.9-3,4.3c-0.4,0.6-0.9,1-1.6,1.9c2,0,3.5-0.1,5.1,0c0.4,0,0.8,0.6,1.2,0.9c-0.4,0.3-0.7,0.9-1.1,1
			c-2.4,0.2-4.8,0.4-7.1,0.5c-0.4,0-1.1-0.5-1.2-0.8c-0.1-0.5,0-1.3,0.3-1.7c0.6-0.8,1.4-1.3,2-2c0.9-0.9,1.7-1.9,2.4-2.9
			C409.7,383.1,409.4,382.2,407.3,380.9z"/>
		<path d="M428.6,365.9c1.1,0.7,2.1,1.4,3.1,2c0.4,0.3,0.9,0.5,1.1,0.8c0.3,0.5,0.7,1.2,0.5,1.6c-0.3,0.7-1,0.4-1.6,0
			c-1.3-0.9-2.6-1.7-4.4-2.8c0,1.1,0,1.8,0,2.5c0,0.6,0.1,1.2-0.1,1.6c-0.2,0.4-0.7,0.8-1.1,1c-0.2,0.1-0.8-0.5-0.9-0.9
			c-0.2-0.7-0.3-1.4-0.3-2.1c0-2.6,0.1-5.3,0.2-7.9c0-0.5,0.4-1,0.6-1.5c1.7,0.6,1.3,2.1,1.8,3.6c0.9-0.8,1.5-1.5,2.2-2.1
			c0.3-0.3,0.6-0.8,1-1c0.4-0.2,0.8-0.1,1.3-0.2c0,0.4,0.3,1,0.1,1.3c-0.7,1-1.6,2-2.4,2.9C429.4,365.1,429.1,365.4,428.6,365.9z"/>
		<path d="M431.2,378.2c-0.1,0.6,0,1.3-0.2,1.9c-0.2,0.6-0.7,1.1-1.1,1.5c-3.4,3.6-6.8,7.2-10.2,10.7c-0.4,0.4-1.3,0.7-1.6,0.5
			c-0.7-0.5-0.4-1.3,0.1-1.9c0.9-1,1.8-2,2.8-3c2.6-2.8,5.2-5.6,7.9-8.3c0.5-0.6,1.2-1,1.8-1.5C430.7,378.1,431,378.1,431.2,378.2z"
			/>
		<path d="M420.5,383.9c-2,0-3.6-1.7-3.6-3.9c0-1.5,1.8-2.9,3.5-2.9c2,0,4.1,2,4,3.7C424.4,382.5,422.5,383.9,420.5,383.9z
			 M420.5,379c-1.4,1.3-1.6,1.9-0.8,2.5c0.7,0.7,1.5,0.4,2.8-1.1C421.7,380,421.1,379.5,420.5,379z"/>
		<path d="M418.6,369.4c0.9,0,1.6,0,2.3,0c0.9,0,1.9,0.3,1.9,1.4c0,1.1-1,1.1-1.8,1.1c-0.6,0-1.1,0-1.7-0.1c-2.5-0.2-2.9-0.5-3-2.9
			c-0.1-2.1-0.1-4.3-0.1-6.4c0-0.7,0-1.7,0.9-2.1C418.9,360.7,417.6,366.4,418.6,369.4z"/>
		<path d="M429.2,385.8c1.6,0,3.1,1.5,3.2,3.2c0.1,1.3-1,2.5-2.7,2.9c-0.1,0-0.2,0-0.2,0c-2.3,0.3-4.4-1-4.5-2.8
			C425,387.4,427,385.8,429.2,385.8z M430,388.5c-0.4-0.2-0.9-0.7-1.4-0.8c-0.9-0.1-1.8,0.7-1.7,1.6c0.1,0.8,0.6,1.2,1.5,1.3
			C429.2,390.5,430,389.8,430,388.5z"/>
		<path d="M412.9,360.4c1,0.3,1.1,1.7,0.9,3c0.2,2.4,0.1,4.8,0.2,7.1c0,0.3,0,0.7-0.1,0.9c-0.2,0.3-0.5,0.8-0.7,0.8
			c-0.4-0.1-0.7-0.4-1-0.7c-0.1-0.1-0.1-0.5-0.1-0.7c0-3.1,0-6.2,0.1-9.3C412,361,412.1,360.5,412.9,360.4z"/>
		<path d="M412.9,358.7c-0.9-0.1-1.1-1-1.1-1.3c0-0.4,0.6-0.9,1-1c0.3,0,0.9,0.5,1,0.9C413.9,357.6,414,358.3,412.9,358.7z"/>
		<path d="M378.1,346c2.1,0,4.1,0,6.2,0c0.5,0,1-0.1,1.4,0.1c0.3,0.1,0.6,0.5,0.7,0.8c0,0.1-0.3,0.5-0.6,0.6
			c-0.4,0.1-0.8,0.1-1.2,0.1c-4.5,0-8.9,0-13.4,0c-0.3,0-0.7,0.1-0.9-0.1c-0.3-0.1-0.5-0.5-0.8-0.7c0.3-0.3,0.6-0.8,0.9-0.8
			c1.9-0.1,3.8,0,5.7-0.1C376.8,346,377.5,346,378.1,346C378.1,346,378.1,346,378.1,346z"/>
		<path d="M369.3,356c6,0,11.3,0,16.6,0c0.4,0,0.7,0.5,1.1,0.7c-0.1,0.2-0.1,0.3-0.2,0.5c-0.6,0.1-1.2,0.2-1.8,0.2
			c-4.4,0.1-8.8,0.1-13.2,0.2c-0.6,0-1.2,0.1-1.7-0.1C369.9,357.4,369.8,356.9,369.3,356z"/>
		<path d="M369.5,353.5c0.3-0.3,0.6-0.7,0.9-0.7c5.3,0.1,10.5,0.2,15.8,0.4c0.1,0,0.2,0.2,0.5,0.6c-0.5,0.3-0.8,0.7-1.2,0.7
			c-1.2,0.1-2.4,0-3.6,0c-3.5-0.1-7-0.1-10.5-0.2c-0.5,0-1.1-0.1-1.6-0.2C369.7,353.8,369.6,353.7,369.5,353.5z"/>
		<path d="M369.3,359.9c5.7-1.2,11.5-0.3,17.3,0c0.4,0.7,0.3,1.3-0.6,1.3c-1.5,0-3-0.1-4.5-0.1c-3.7,0-7.3-0.1-11-0.1
			c-0.4,0-0.9-0.2-1.3-0.3C369.2,360.4,369.3,360.2,369.3,359.9z"/>
		<path d="M386.5,350.4c-0.3,0.3-0.4,0.4-0.5,0.4c-0.2,0.1-0.5,0.1-0.7,0.1c-5.3-0.2-10.6-0.3-16.1-0.5c0.2-0.4,0.3-0.9,0.6-1
			c0.3-0.2,0.8-0.1,1.2-0.1c4.5,0,8.9,0,13.4,0C385.6,349.4,385.6,349.4,386.5,350.4z"/>
		<path d="M386.6,364.4c-1.2,0.4-16-0.2-16.9-0.5c-0.2-0.1-0.3-0.4-0.8-1c6-0.5,11.5-0.1,17.1,0.1C386.3,362.9,386,364,386.6,364.4z
			"/>
		<path d="M376.9,412.4c0,2.7,0,5.2,0,7.9c-0.6-0.3-1.3-0.4-1.3-0.6c0-2.2,0.1-4.5,0.2-6.7C375.8,412.9,376.4,412.7,376.9,412.4z"/>
		<path d="M371.1,419.5c-1.4-1.8-0.6-3.9-0.8-5.9c-0.1-0.5-0.2-1.3,0.8-1.3C371.8,414.1,371.9,417.6,371.1,419.5z"/>
		<path d="M373.9,420.2c-1.3-1.8-1.4-5.4-0.5-7.9c0.3,0.2,0.6,0.3,0.7,0.5C374.3,415.1,374.6,417.4,373.9,420.2z"/>
		<path d="M379.4,420.1c-1.1-1.2-1.3-4.7-0.6-7.5c0.3,0.1,0.9,0.2,0.9,0.4C380,415.4,380.1,417.8,379.4,420.1z"/>
	</g>
</g>
</svg>
