<svg id="Layer_4" data-name="Layer 4" xmlns="http://www.w3.org/2000/svg" viewBox="0 0 74.36 167.18"><defs><style>.cls-1{fill:none;stroke:#febc12;stroke-miterlimit:10;}</style></defs><title>bepisobrys</title><path class="cls-1" d="M379.51,203c-.26,14.07-.88,46.54-.44,88.94a7.36,7.36,0,0,0,.28,1.92,18.16,18.16,0,0,0,3.63,7.4,31.19,31.19,0,0,0,4.1,4.51c1.26,1,2.72,2.33,4.34,2.33H402.1a9.44,9.44,0,0,0,6.41-2.39,8.75,8.75,0,0,1,3.28-1.92,7.79,7.79,0,0,1,6,.29,7.05,7.05,0,0,1,1.92,1.44,9.67,9.67,0,0,0,7,3.16h7.07a13.59,13.59,0,0,0,11-5.54c.86-1.19,1.77-2.53,2.73-4l.05-.08a27.77,27.77,0,0,0,4.45-15l.27-83.66a33.85,33.85,0,0,0-4-14.65,43.13,43.13,0,0,0-9.48-11.49C436,171.85,434,170,431.46,168a4,4,0,0,1-.72-5.84c1-1,1.89-1.35,2.23-2.59a17.25,17.25,0,0,0,.32-4.07l0-4.14.05-5a3.89,3.89,0,0,0-3.91-3.93l-27,.16a4.21,4.21,0,0,0-4.18,4.21v11.64a4.74,4.74,0,0,0,1.6,3.47,4.25,4.25,0,0,1,1.56,2.82c.12,2.45-2.13,4.23-3.76,5.68q-2.88,2.55-5.52,5.37C384.82,183.68,379.71,191.87,379.51,203Z" transform="translate(-378.42 -142.01)"/></svg>