<svg id="Layer_2" data-name="Layer 2" xmlns="http://www.w3.org/2000/svg" viewBox="0 0 63.33 156.87"><defs><style>.cls-1{fill:#111010;}</style></defs><title>bepis</title><path class="cls-1" d="M406.55,162.31c-2.33-.57-2.32-.57-2.34-2.78a81.46,81.46,0,0,1,.38-9.34c.23-2.18,1-3,3.12-3,5.83-.07,11.67,0,17.5.26a2.23,2.23,0,0,1,2.33,2.65,60.41,60.41,0,0,0-.2,8.62c.06.88,0,1.83-1.14,2.08-.92.21-1,.82-1,1.61.19,2.31.32,4.62.55,6.93a3.28,3.28,0,0,0,1.59,2.51,35.92,35.92,0,0,1,6.44,5.71c1.67,1.83,3.43,3.58,5.22,5.29a24,24,0,0,1,6.81,12.67,51.61,51.61,0,0,1,1.33,11.87c-.41,17.34.28,34.68,0,52-.1,7.19-.17,14.39-.27,21.58a47.18,47.18,0,0,1-1.8,10.36c-.45,1.84-1.94,3.45-3.07,5.09a35.66,35.66,0,0,1-5.84,6.33,4.56,4.56,0,0,1-3.51,1.23,26.81,26.81,0,0,0-3.84,0,5.86,5.86,0,0,1-4.71-1.92q-2.45-2.46-4.83-5c-2.18-2.33-5-2.71-8-.77a19.62,19.62,0,0,0-3.73,3.36,24.59,24.59,0,0,1-3.26,2.81,5.58,5.58,0,0,1-3.31,1.23c-.24,0-.48,0-.72,0-6.19,0-5.94.81-10.44-4.14a46.91,46.91,0,0,1-3.72-4.07,10.73,10.73,0,0,1-2.23-6.44c.06-12.24,0-24.47.1-36.71.1-9.35,0-18.69-.06-28,0-5.6-.18-11.2.11-16.79a38.45,38.45,0,0,1,4.36-17,68.72,68.72,0,0,1,12.7-16.05c1.2-1.17,2.22-2.5,3.48-3.62a4.46,4.46,0,0,0,1.39-2.72C406.3,166.25,406.39,164.27,406.55,162.31ZM394.4,247.15l-.09-.15a13.11,13.11,0,0,0-.87-1.43c-.35-.45-1-1-1.6-.81a5.33,5.33,0,0,1,.46.79c.25.45.51.89.78,1.32l1,1.61A8,8,0,0,0,395,250c.32.32.89.21,1.3.22a5.68,5.68,0,0,0-.51-.76l-.57-.91Q394.8,247.83,394.4,247.15Zm-7,3.4c0,2.32,0,4.63,0,6.94,0,1.82.08,1.91,1.82,2,3,.09,5.91-.25,8.85-.25,11.83,0,23.67.09,35.5.14,3,0,6,0,9.06-.05,1.7,0,1.78-.11,1.77-1.75,0-.8-.08-1.6-.11-2.4a27.84,27.84,0,0,1-.07-6c.46-2.6.49-5.25.8-7.86s-.73-5.22-.71-7.85c.09-9.28-.73-18.53-.78-27.81,0-2.88-.07-3-2.95-2.8-9.5.52-19,.41-28.52.4q-11.27,0-22.54-.14a2.14,2.14,0,0,0-2.17,1.5c-1.33,3.05-.89,6.27-.83,9.44,0,.62.56,1.13,1.17.72,1.6-1.06,3.5-1,5.21-1.61,4.45-1.6,8.82-.58,12.8,1.18,6.28,2.78,10.64,7.43,11.68,14.63.89,6.2-.31,11.72-4.68,16.4a24.13,24.13,0,0,1-4.83,3.9c-1.94,1.22-4,2.54-6.27,2.86a27.54,27.54,0,0,1-11.39-.77C389.28,251.11,388.5,250.41,387.35,250.55Zm13.6-72.05a55.76,55.76,0,0,0,5.88,0c7.18.35,14.36,0,21.54.2.4,0,.8,0,1.2,0s1,0,1.17-.58-.21-.74-.52-1c-1.7-1.31-3.08-3-4.89-4.2a5.65,5.65,0,0,1-2.89-5.38c.15-2.12,0-4.27,0-6.49a11.85,11.85,0,0,0-5.15,0,31.47,31.47,0,0,1-5.94.45l-1.2,0c-.88,0-1.32.47-1.22,1.37a23.11,23.11,0,0,1-.49,5,6.88,6.88,0,0,1-2.33,4.76A33.36,33.36,0,0,0,400.95,178.5Zm11.33,46.28a7.05,7.05,0,0,0-2.16-5.65c-1.64-1.45-1.79-1.5-2.6.45a62.07,62.07,0,0,1-6.24,10.7,32.09,32.09,0,0,1-12.47,10.51c-.7.35-1.52.54-2,1.3a1.25,1.25,0,0,0-.18,1.34c.34.59.81.28,1.25.19a78.18,78.18,0,0,0,15.91-4.84C408.61,236.65,412.48,230.75,412.28,224.78Zm-25.54,1.71c.14.35.47.38.77.46s.8.23.79.73-.45.57-.85.62a3.81,3.81,0,0,0-.47.07.63.63,0,0,0-.46.72c0,.4.31.52.64.52a30.07,30.07,0,0,0,4.31,0c1.36-.18,2.68.89,4,0a.63.63,0,0,1,.94.42.59.59,0,0,1-.66.77c-1.57-.44-3,.57-4.57.35a21.41,21.41,0,0,0-3.59,0c-.5,0-1.24-.18-1.14.74s.79.61,1.3.61a11.35,11.35,0,0,0,1.18-.18c.5-.06,1,0,1.16.56s-.46.71-.93.78l-2.84.43c.51.74-.37,2,1.07,2.08,2,.13,4,0,5.93,0l.73-.37c-1.95-.51-1.35-1.19-.82-1.78.8-.91.92.23,1.35.47.19.1.61.17.68-.51-1,.08-2,.4-2.94-.11-.4-.22-1-.21-1-.81s.65-.59,1.09-.61c1.28-.06,2.56-.08,3.83-.1a2.22,2.22,0,0,0,1.59-.37c.25-.23.61-.4.26-.93-.75-1.11-.7-1.16.64-1.41.47-.09,1,0,.95-1-1.32,0-2.65,0-4,0a16,16,0,0,1-1.91-.09c-.37,0-.81-.21-.74-.72,0-.36.36-.5.7-.52s1,0,1.44,0c1.52,0,3,0,4.55,0,.73,0,1.61-.34,1.41-.88-.51-1.41.58-1.55,1.23-2.14.45-.41.66-1-.31-1.13-.4-.06-.84-.17-.85-.66,0-.65.59-.77,1-.77,2.36,0,2.24-1.89,3-3.46-1.16,0-2,.06-2.91,0-.56,0-1.55.28-1.55-.6s1-.75,1.67-.82c1.09-.13,2.22.23,3.54-.37-1.91-.56-3.58-1.07-5.26-1.53-.59-.16-1.16-.34-1.62.46-.33.58-1.09.55-1.14-.27s-.53-.83-1.08-.81-1.1.09-1.71.15c.27.36.69.52.69,1a.77.77,0,0,1-.17.43,1,1,0,0,1-.85.36,24.3,24.3,0,0,1-3.57-.18,2.08,2.08,0,0,0-2,.65c2.32,0,4.21,0,6.09,0,.47,0,1.07,0,1,.66s-.54.73-1.05.73c-2.24,0-4.47,0-6.71,0-.58,0-1.24-.21-1.71.25.07.38.13.6.44.6a5.19,5.19,0,0,1,1.19,0c1,.26,2.93-.72,3,.79,0,1.22-1.85.53-2.88.7-.47.08-1,0-1.44,0s-.58.44-.59.86.21.56.55.61a2.41,2.41,0,0,0,.94.11c3.14-.91,6.34-.25,9.5-.43a6.57,6.57,0,0,1,1.65.18.56.56,0,0,1,.48.68.5.5,0,0,1-.5.42,10.06,10.06,0,0,1-1.43.08c-3,0-5.91,0-8.87-.1-1,0-2.23.16-2.22,1s1.3.47,2,.51c1.67.07,3.36,0,5,0a11.46,11.46,0,0,1,1.2,0c.73.08,1.91-.21,1.86.86s-1.21.77-2,.78c-2.24,0-4.48,0-6.71,0C387.77,226.2,387.17,226,386.74,226.5Zm33.61-76.6c-.44,0-.75-.09-1.06-.1-1.54,0-1.54,0-1.56,1.5,0,2,0,4-.07,5.94,0,.7-.25,1.5.94,1.42.86-.06,1.79.18,1.76-1.23C420.31,155,420.35,152.53,420.35,149.9Zm-7.9,4h0c.08,1.35.15,2.71.24,4.06,0,.48,0,1,.71,1s.81-.26.9-.83c.38-2.53.49-5.08.69-7.62.09-1.14-.56-1.37-1.44-1.39s-1.17.59-1.15,1.42C412.47,151.7,412.45,152.82,412.45,153.93Zm-4.78,4.89c.6-.48,1.91.45,1.9-.87a58.43,58.43,0,0,1,.21-7.36c.08-.7-.35-1-1-1-1.16,0-1.59.41-1.71,1.71C406.82,153.76,407.63,156.14,407.67,158.83ZM423.4,154h0q0,1.79,0,3.58c0,.34.08.66.45.72a.78.78,0,0,0,.89-.59,2.79,2.79,0,0,0,.14-.7q.28-3.21.54-6.43c0-.58.1-1.17-.78-1.1s-1.37.1-1.25,1.18A32.35,32.35,0,0,1,423.4,154Zm-17.81,94c0-.08,0-.19,0-.24-1.31-1.87-2.61-3.76-4-5.6-.24-.33-.71-.27-1.09,0s-.27.66,0,1q1.82,2.34,3.67,4.65a2.2,2.2,0,0,0,.72.6A.45.45,0,0,0,405.59,248Zm-3.07-6.51c1.24,1.7,2.43,3.36,3.67,5,.25.33.5,1,1.1.49s0-.7-.18-1c-.92-1.48-1.93-2.9-2.78-4.42C403.69,240.44,403.17,241,402.52,241.5Zm6,4.47c.65-.2.92-.42.81-.62-1-1.81-1.92-3.62-2.95-5.38-.24-.42-.69-.18-1,.06s-.34.64-.08,1l3.12,4.49C408.49,245.69,408.6,245.93,408.49,246ZM398,242.87a70.58,70.58,0,0,0,4.4,6.32c.28.35.7.31,1.27-.09-1.85-1.87-3.13-4.14-4.8-6.12C398.84,242.89,398.62,242.93,398,242.87Zm2.33,7.41c.17-.09.65-.21.83-.3-1.34-2-2.67-4-4-6-.23-.34-.56-.68-1-.35s0,.71.22,1A62.34,62.34,0,0,1,400.36,250.28Zm-1.2.17c-2.09-3.27-4.39-7-5.12-6.19C395.73,247.4,397.91,250.92,399.16,250.45ZM408,238.62c-.62.13-1.08.35-.59,1.1.82,1.28,1.62,2.56,2.43,3.84.22.34.5.68.94.37a.65.65,0,0,0,.1-.87c-.76-1.4-1.54-2.79-2.33-4.18C408.43,238.7,408.3,238.46,408,238.62Zm1.5-1.52a12.49,12.49,0,0,0,2.39,4.9c.19.27.42.07.59-.07a.59.59,0,0,0,.2-.82C411.7,239.72,411,238.1,409.49,237.1Zm-18.62.32a17.73,17.73,0,0,0-3.95.09,3.35,3.35,0,0,0,.29,2.48,3.32,3.32,0,0,1,1.95-1.29A2.64,2.64,0,0,0,390.87,237.42Zm20.29-2.24-.48.39c.88,1.34,1.74,2.69,2.65,4a.65.65,0,0,0,.61.16.52.52,0,0,0,.24-.78A16.61,16.61,0,0,0,411.16,235.18Zm-17.86,14.56c-1.45-3.24-2.41-4.42-3.57-4.43C391.15,246.71,391.77,248.56,393.31,249.74Zm19.1-16.08c-.59.37,2.77,4.69,2.74,3.57C416.46,237.22,412.46,232.8,412.41,233.65Zm3,1.13c-.17-1.36-1-2.24-2.24-3.47A4.86,4.86,0,0,0,415.39,234.78Zm-26.9,10.78a4.59,4.59,0,0,0,1.7,2.79A4.72,4.72,0,0,0,388.5,245.57Zm26.55-14.45a2.76,2.76,0,0,0-1.19-1.94C413.45,230.41,414.46,230.66,415.05,231.11Zm-28.54,15c-.1,1.1.14,1.73,1.38,2A2.88,2.88,0,0,0,386.51,246.09Z" transform="translate(-383.94 -147.13)"/><path class="cls-1" d="M400.51,219c.71.05,1.5.09,2.29.2.15,0,.36.33.37.51s-.16.52-.31.56a10.32,10.32,0,0,1-5.13,0c-.14,0-.31-.38-.29-.57s.23-.48.39-.5C398.69,219.11,399.56,219.08,400.51,219Z" transform="translate(-383.94 -147.13)"/><path class="cls-1" d="M389.59,234c.48.05.89,0,1.19.31a.52.52,0,0,1,.06.79,3.27,3.27,0,0,1-2.66.16c-.31-.24-.23-.55,0-.76A1.7,1.7,0,0,1,389.59,234Z" transform="translate(-383.94 -147.13)"/><path class="cls-1" d="M399.43,217.33a.82.82,0,0,1-1,.75c-.5,0-1-.19-1-.78s.45-.58.86-.6S399.32,216.71,399.43,217.33Z" transform="translate(-383.94 -147.13)"/><path class="cls-1" d="M391.29,227.85a.77.77,0,0,1-.84.68c-.48,0-1-.16-1-.79s.56-.47.95-.49S391.24,227.33,391.29,227.85Z" transform="translate(-383.94 -147.13)"/><path class="cls-1" d="M394.48,219.07c.45,0,1.07-.08,1.08.59s-.49.77-1,.74-1-.17-1-.78S394.1,219.12,394.48,219.07Z" transform="translate(-383.94 -147.13)"/><path class="cls-1" d="M399.44,225.35c0,.41-.38.54-.78.54s-.8-.14-.78-.62a.74.74,0,0,1,.78-.68A.76.76,0,0,1,399.44,225.35Z" transform="translate(-383.94 -147.13)"/></svg>