<svg id="Layer_5" data-name="Layer 5" xmlns="http://www.w3.org/2000/svg" viewBox="0 0 89.28 139.01"><defs><style>.cls-1{fill:none;stroke:#febc12;stroke-miterlimit:10;}</style></defs><title>milkobrys</title><path class="cls-1" d="M356.35,340.65,358,431.48a2.81,2.81,0,0,0,1.09,2.17l2.66,2a3.78,3.78,0,0,0,2.29.78l72.72.32c6.09-.09,7.33-1.17,7.82-7.86l-1.39-91.06a13.92,13.92,0,0,0-3.13-8.58L428.47,315l.21-9.33a6.59,6.59,0,0,0-6.57-6.74l-43-.14a6.89,6.89,0,0,0-6.91,6.95l.05,5.86L359.5,330.14A18,18,0,0,0,356.35,340.65Z" transform="translate(-355.85 -298.3)"/></svg>