<svg id="Layer_3" data-name="Layer 3" xmlns="http://www.w3.org/2000/svg" viewBox="0 0 76.98 128.11"><title>mommymilkers</title><path d="M363.1,396.81c-.21-8.91-.44-18-.6-27.13,0-1.66.3-3.33.4-5,.08-1.35.1-2.7.1-4,0-4,0-8-.11-12-.07-3.11-.15-6.24-.41-9.34a9.44,9.44,0,0,1,2-6.7c2.26-3,4.63-5.92,6.9-8.9,1.64-2.16,3.3-4.32,4.77-6.59a8.06,8.06,0,0,0,1.13-3.36,46,46,0,0,0,.2-5.74c0-2.65,1.21-4.14,3.88-4.35a18.53,18.53,0,0,1,2.87.13c1.27.1,2.54.28,3.81.35,4.7.27,9.41.74,14.12.72,6.37,0,12.74-.42,19.11-.69a1.73,1.73,0,0,1,2.06,1.78,19.89,19.89,0,0,1,.13,4.54c-.42,3.69.75,6.8,2.64,9.92a69.7,69.7,0,0,0,10.4,13.1,5.57,5.57,0,0,1,1.85,4.2c0,2.23,0,4.47.07,6.7.08,6.23.23,12.46.23,18.68,0,5.19-.2,10.38-.21,15.56,0,3,.28,6.07.3,9.1,0,2.39-.25,4.79-.24,7.18,0,3.75.19,7.5.3,11.25a7.73,7.73,0,0,1,.11,1.19c-.7,5.28.32,10.53.35,15.79q0,2.87.16,5.74a1.72,1.72,0,0,1-1.68,1.94,36.48,36.48,0,0,1-6,.33c-5.34-.29-10.68-.77-16-1.12a26.87,26.87,0,0,0-4.07,0c-5.81.5-11.61,1.09-17.42,1.59a30.69,30.69,0,0,1-7.37-.52,89.57,89.57,0,0,0-20-1.22,2.91,2.91,0,0,1-3.12-1.54,4.39,4.39,0,0,1-.62-1.92C363.09,416.66,363.1,406.83,363.1,396.81Zm72.81,29.84c0-7.87,0-15.21,0-22.56,0-4.64,0-9.28.17-13.91.12-3.43.72-6.85.7-10.27,0-3.9-.69-7.8-.72-11.7-.07-8.39.09-16.78.15-25.18a21.18,21.18,0,0,0-.07-3.1c-.22-1.58-1-2.17-2.59-2.23-3.51-.13-7-.39-10.53-.37-5.43,0-10.85.29-16.28.33-2.78,0-5.58-.12-8.36-.37s-3.29,0-3.57,2.72c-.16,1.58,0,3.19,0,4.79-.09,3.92-.26,7.83-.31,11.75-.1,8.06.65,16.1.37,24.18-.44,12.54-.35,25.1-.46,37.65a20.39,20.39,0,0,0,.24,4.54c.88,4,.67,4.38,4.78,4.38,10.64,0,21.27,0,31.91,0A36.33,36.33,0,0,0,435.91,426.65Zm-43.5-70c.12,0-.19-2.45-.07-2.45,0-2.32.37-2.19.43-4.51.07-3,.31-6.07.3-9.11a8.33,8.33,0,0,0-.75-4.16c-3.46-5.56-7.13-11-10.74-16.46a12.27,12.27,0,0,0-1-1.32c-1.19-1.36-2-1.38-3,.11-3.75,5.47-7.43,11-11.18,16.46a6.44,6.44,0,0,0-1.11,4.26c.15,2.55.07,5.12.11,7.68.06,4.39.05,8.77-.26,13.17a94.72,94.72,0,0,0,.41,12c.2,3.5.73,7,.73,10.49,0,11.92.11,23.83,1.18,35.7.14,1.58.47,3.15.73,4.73.15.92.74,1.29,1.65,1.41,4.51.6,9,1.31,13.53,1.88a67.41,67.41,0,0,0,6.92.47c1.49,0,1.95-.43,2.07-1.75.23-2.54.51-5.08.54-7.63.05-4.88,0-9.76-.1-14.64-.1-10-.23-20-.32-30C392.38,367.49,392.41,362.06,392.41,356.62Zm40-21.91c.53-1.35-.23-2.22-.9-3.11-3.27-4.33-6.76-8.5-9.29-13.35-.37-.7-.89-1.33-1.31-2a2.14,2.14,0,0,0-2-1.11c-3.35-.08-6.71-.34-10.06-.38-8.55-.1-17.1-.13-25.65-.16a12.66,12.66,0,0,0-1.73.22c0,.38-.06.57,0,.69a79.74,79.74,0,0,0,9.29,14.21,23.32,23.32,0,0,1,2,2.71,3.38,3.38,0,0,0,3.1,1.83q4.55,0,9.11.2c5.83.25,11.65.61,17.48.83A34.65,34.65,0,0,0,432.39,334.71Zm-30.86-28.15L402,313h3.28l.36-6.49Zm-2.15.17h-3.64l.38,6.28h3.26Zm-11.07,6.38.36-7.34h-3.54l.46,6.92Zm29.95-6.42c0,2.15-.68,4.26.05,6.4a8.81,8.81,0,0,0,1,.1c1.92,0,2.13-.25,2.19-2.24,0-.79,0-1.59,0-2.38C421.47,306.19,421,305.89,418.26,306.68ZM380,312.27l3.15.41v-7.05c-2.16,0-3.35.62-3.38,1.76C379.72,308.94,379.9,310.51,380,312.27Zm27.45-5.7V313h3.08c0-2.23.41-4.34-.14-6.47ZM390.68,306v7h2.9c0-2.33.47-4.51-.36-6.72Zm22,.76V313h2.92v-6.43Z" transform="translate(-362.45 -303.65)"/><path d="M400.93,359.44c2.88.92,2.54,4,4.31,5.78.48-.7,1-1.37,1.42-2.08.34-.54.61-1.12.91-1.68s.8-1.4,1.61-1a2,2,0,0,1,.74,1.54c.12,2.71.13,5.42.17,8.13a2.81,2.81,0,0,1-.07,1.18c-.18.37-.59.87-.89.86a1.34,1.34,0,0,1-.92-.84,10,10,0,0,1-.13-1.9c-.09-1.08-.22-2.16-.37-3.65-.78.86-1.23,1.4-1.73,1.89-1.18,1.15-2,1-2.71-.55-.38-.83-.68-1.69-1-2.54l-.46.11c0,1.73,0,3.45,0,5.18,0,1.36.05,1.36-1.14,2.24C399.2,370.21,399.27,362.88,400.93,359.44Z" transform="translate(-362.45 -303.65)"/><path d="M407.33,380.89l-2.1,1.89a1.52,1.52,0,0,1-.55-2.42A4.17,4.17,0,0,1,410,379a3.26,3.26,0,0,1,1.58,4.8,33.55,33.55,0,0,1-3,4.3c-.4.55-.89,1-1.64,1.91,2,0,3.54-.06,5.09,0,.41,0,.8.56,1.19.86-.38.33-.73.92-1.14,1q-3.56.36-7.15.47a1.53,1.53,0,0,1-1.2-.84,2.25,2.25,0,0,1,.29-1.71,27.14,27.14,0,0,1,2-2,27.6,27.6,0,0,0,2.44-2.94C409.67,383.09,409.39,382.23,407.33,380.89Z" transform="translate(-362.45 -303.65)"/><path d="M428.62,365.91l3.09,2a3.73,3.73,0,0,1,1.15.84c.3.47.68,1.23.5,1.62-.35.74-1,.4-1.62,0-1.31-.87-2.63-1.71-4.36-2.83,0,1.14,0,1.81,0,2.48a4.66,4.66,0,0,1-.06,1.64,1.92,1.92,0,0,1-1.12,1c-.2.06-.77-.51-.89-.88a6.56,6.56,0,0,1-.32-2.12c0-2.63.11-5.26.25-7.89a5.29,5.29,0,0,1,.59-1.5c1.72.59,1.31,2.11,1.75,3.58l2.17-2.15a5,5,0,0,1,1-1,3.79,3.79,0,0,1,1.28-.17c0,.43.26,1,.06,1.28-.74,1-1.62,2-2.45,2.92C429.37,365.1,429.05,365.44,428.62,365.91Z" transform="translate(-362.45 -303.65)"/><path d="M431.17,378.19A6.66,6.66,0,0,1,431,380a5.2,5.2,0,0,1-1.14,1.51c-3.39,3.58-6.78,7.17-10.23,10.7-.36.37-1.29.71-1.57.52-.72-.51-.4-1.28.12-1.86.9-1,1.83-2,2.75-3,2.61-2.79,5.22-5.58,7.85-8.34.54-.56,1.17-1,1.77-1.55Z" transform="translate(-362.45 -303.65)"/><path d="M420.52,383.93a3.76,3.76,0,0,1-3.63-3.95c0-1.48,1.77-2.91,3.54-2.88,2,0,4.09,2,4,3.71S422.53,383.95,420.52,383.93Zm0-4.89c-1.4,1.27-1.57,1.87-.84,2.52s1.52.4,2.76-1.1Z" transform="translate(-362.45 -303.65)"/><path d="M418.63,369.43c.86,0,1.57,0,2.28,0,.95,0,1.88.27,1.86,1.38s-1,1.05-1.8,1.06c-.56,0-1.11,0-1.67-.09-2.55-.19-2.91-.48-3-2.94-.11-2.14-.13-4.29-.07-6.43,0-.71,0-1.7.95-2.08C418.89,360.67,417.56,366.36,418.63,369.43Z" transform="translate(-362.45 -303.65)"/><path d="M429.25,385.82a3.53,3.53,0,0,1,3.24,3.24,3,3,0,0,1-2.66,2.87l-.24,0c-2.29.33-4.41-1-4.53-2.78S427,385.76,429.25,385.82Zm.71,2.7a4.18,4.18,0,0,0-1.44-.82,1.53,1.53,0,0,0-1.7,1.56,1.36,1.36,0,0,0,1.47,1.25A1.74,1.74,0,0,0,430,388.52Z" transform="translate(-362.45 -303.65)"/><path d="M412.95,360.4c1,.28,1.11,1.68.91,3,.15,2.37.14,4.75.18,7.13a2,2,0,0,1-.12.93c-.16.31-.54.79-.72.75a2.36,2.36,0,0,1-1-.75c-.13-.14-.12-.45-.12-.69,0-3.09,0-6.18.06-9.27C412,361,412.15,360.51,412.95,360.4Z" transform="translate(-362.45 -303.65)"/><path d="M412.93,358.68a1.35,1.35,0,0,1-1.12-1.32,1,1,0,0,1,2-.09A1.11,1.11,0,0,1,412.93,358.68Z" transform="translate(-362.45 -303.65)"/><path d="M378.11,346h6.22a4.7,4.7,0,0,1,1.42.08,1.29,1.29,0,0,1,.66.79c0,.14-.31.53-.55.62a3.63,3.63,0,0,1-1.18.11H371.29a2.33,2.33,0,0,1-.94-.07,3.84,3.84,0,0,1-.82-.71c.31-.27.61-.76.93-.78,1.91-.08,3.82,0,5.74-.05h1.91Z" transform="translate(-362.45 -303.65)"/><path d="M369.3,356c6,0,11.31,0,16.64,0,.36,0,.72.49,1.08.74l-.18.47a17.58,17.58,0,0,1-1.8.21q-6.58.12-13.16.2a4.59,4.59,0,0,1-1.65-.12C369.93,357.45,369.8,356.9,369.3,356Z" transform="translate(-362.45 -303.65)"/><path d="M369.55,353.51c.3-.26.61-.74.9-.74,5.26.08,10.53.22,15.79.36.11,0,.21.21.52.56-.45.26-.84.66-1.25.69-1.19.09-2.39,0-3.59,0q-5.27-.09-10.53-.21a15.05,15.05,0,0,1-1.62-.21Z" transform="translate(-362.45 -303.65)"/><path d="M369.29,359.88c5.72-1.21,11.48-.32,17.31,0,.38.73.32,1.3-.57,1.33-1.51,0-3-.08-4.54-.1-3.66,0-7.31-.06-11-.12a7.28,7.28,0,0,1-1.34-.27Z" transform="translate(-362.45 -303.65)"/><path d="M386.54,350.39c-.29.25-.39.39-.53.44a2,2,0,0,1-.69.13l-16.12-.5c.24-.43.34-.86.6-1a2.55,2.55,0,0,1,1.17-.14c4.46,0,8.92,0,13.38,0C385.58,349.36,385.58,349.44,386.54,350.39Z" transform="translate(-362.45 -303.65)"/><path d="M386.58,364.4c-1.24.45-16-.19-16.95-.53-.22-.08-.34-.43-.78-1,6-.46,11.55-.06,17.12.05C386.26,362.89,386,364,386.58,364.4Z" transform="translate(-362.45 -303.65)"/><path d="M376.91,412.38v7.91c-.61-.27-1.28-.42-1.28-.58,0-2.23.06-4.45.19-6.67C375.82,412.85,376.36,412.7,376.91,412.38Z" transform="translate(-362.45 -303.65)"/><path d="M371.06,419.48c-1.4-1.8-.59-3.95-.8-5.94-.06-.54-.19-1.33.79-1.35A11,11,0,0,1,371.06,419.48Z" transform="translate(-362.45 -303.65)"/><path d="M373.91,420.21c-1.29-1.8-1.41-5.44-.53-7.93.26.2.65.34.67.53A18.58,18.58,0,0,1,373.91,420.21Z" transform="translate(-362.45 -303.65)"/><path d="M379.38,420.12c-1.14-1.23-1.31-4.67-.6-7.53.34.14.9.25.92.42A16.12,16.12,0,0,1,379.38,420.12Z" transform="translate(-362.45 -303.65)"/></svg>