<svg id="Layer_4" data-name="Layer 4" xmlns="http://www.w3.org/2000/svg" viewBox="0 0 98.02 26.16"><defs><style>.cls-1{fill:none;stroke:#a9a9a9;stroke-miterlimit:10;}</style></defs><title>oczy</title><path class="cls-1" d="M211,167.49c-.87,1.74-1.84,3.4-2.53,5.17a14.65,14.65,0,0,0-1,4.34c-.08,1.33.49,2.69.48,4,0,3.51,1.9,6.2,3.62,9a3.57,3.57,0,0,0,2,1.27,4.4,4.4,0,0,0,5.47-2.49c3.52-6.76,4-13.58.29-20.48a2.05,2.05,0,0,0-2.28-1.24C215.13,167.22,213.22,167.33,211,167.49Z" transform="translate(-206.94 -165.81)"/><path class="cls-1" d="M289.18,179.9a26.58,26.58,0,0,0,2.41,8.72c1.78,3.35,5.22,3.61,7.66,1.31a13.15,13.15,0,0,0,3.53-5.45c1.46-4.33,2.23-8.73,1.21-13.26-.37-1.65-1.07-3.28-3-3.77-1.39-.35-2.8-.6-4.17-1a2.52,2.52,0,0,0-2.94.86,23.33,23.33,0,0,0-3.29,5.37A45.71,45.71,0,0,0,289.18,179.9Z" transform="translate(-206.94 -165.81)"/></svg>