<?xml version="1.0" encoding="UTF-8" standalone="no"?>
<svg
   id="Layer_3"
   data-name="Layer 3"
   viewBox="0 0 275 424.65"
   version="1.1"
   sodipodi:docname="dupa.svg"
   inkscape:version="1.3 (0e150ed6c4, 2023-07-21)"
   xmlns:inkscape="http://www.inkscape.org/namespaces/inkscape"
   xmlns:sodipodi="http://sodipodi.sourceforge.net/DTD/sodipodi-0.dtd"
   xmlns="http://www.w3.org/2000/svg"
   xmlns:svg="http://www.w3.org/2000/svg">
  <sodipodi:namedview
     id="namedview1"
     pagecolor="#ffffff"
     bordercolor="#000000"
     borderopacity="0.25"
     inkscape:showpageshadow="2"
     inkscape:pageopacity="0.0"
     inkscape:pagecheckerboard="0"
     inkscape:deskcolor="#d1d1d1"
     inkscape:zoom="2.7505005"
     inkscape:cx="88.529344"
     inkscape:cy="274.85907"
     inkscape:window-width="3440"
     inkscape:window-height="1416"
     inkscape:window-x="0"
     inkscape:window-y="0"
     inkscape:window-maximized="1"
     inkscape:current-layer="Layer_3" />
  <defs
     id="defs1">
    <inkscape:path-effect
       effect="simplify"
       id="path-effect4"
       is_visible="false"
       lpeversion="1.3"
       threshold="7.4958824"
       steps="3"
       smooth_angles="59.679144"
       helper_size="2"
       simplify_individual_paths="false"
       simplify_just_coalesce="false" />
    <inkscape:path-effect
       effect="simplify"
       id="path-effect3"
       is_visible="true"
       lpeversion="1.3"
       threshold="5"
       steps="1"
       smooth_angles="360"
       helper_size="10"
       simplify_individual_paths="false"
       simplify_just_coalesce="false" />
    <inkscape:path-effect
       effect="simplify"
       id="path-effect2"
       is_visible="true"
       lpeversion="1.3"
       threshold="5"
       steps="1"
       smooth_angles="360"
       helper_size="4.3315508"
       simplify_individual_paths="false"
       simplify_just_coalesce="false" />
    <inkscape:path-effect
       effect="fillet_chamfer"
       id="path-effect1"
       is_visible="true"
       lpeversion="1"
       nodesatellites_param="F,0,0,1,0,11.338583,0,1 @ F,0,0,1,0,11.338583,0,1 @ F,0,0,1,0,11.338583,0,1 @ F,0,0,1,0,11.338583,0,1 @ F,0,0,1,0,11.338583,0,1 @ F,0,0,1,0,11.338583,0,1 @ F,0,0,1,0,11.338583,0,1 @ F,0,0,1,0,11.338583,0,1 @ F,0,0,1,0,11.338583,0,1 @ F,0,0,1,0,11.338583,0,1 @ F,0,0,1,0,11.338583,0,1 @ F,0,0,1,0,11.338583,0,1 @ F,0,0,1,0,11.338583,0,1 @ F,0,0,1,0,11.338583,0,1 @ F,0,0,1,0,11.338583,0,1 @ F,0,0,1,0,11.338583,0,1 @ F,0,0,1,0,11.338583,0,1 @ F,0,0,1,0,11.338583,0,1 @ F,0,0,1,0,11.338583,0,1 @ F,0,0,1,0,11.338583,0,1 @ F,0,0,1,0,11.338583,0,1 @ F,0,0,1,0,11.338583,0,1 @ F,0,0,1,0,11.338583,0,1 @ F,0,0,1,0,11.338583,0,1 @ F,0,0,1,0,11.338583,0,1 @ F,0,0,1,0,11.338583,0,1 @ F,0,0,1,0,11.338583,0,1 @ F,0,0,1,0,11.338583,0,1 @ F,0,0,1,0,11.338583,0,1 @ F,0,0,1,0,11.338583,0,1 @ F,0,0,1,0,11.338583,0,1 @ F,0,0,1,0,11.338583,0,1 @ F,0,0,1,0,11.338583,0,1 @ F,0,0,1,0,11.338583,0,1 @ F,0,0,1,0,11.338583,0,1 @ F,0,0,1,0,11.338583,0,1 @ F,0,0,1,0,11.338583,0,1 @ F,0,0,1,0,11.338583,0,1 @ F,0,0,1,0,11.338583,0,1 @ F,0,0,1,0,11.338583,0,1 @ F,0,0,1,0,11.338583,0,1 @ F,0,0,1,0,11.338583,0,1 @ F,0,0,1,0,11.338583,0,1 @ F,0,0,1,0,11.338583,0,1 @ F,0,0,1,0,11.338583,0,1 @ F,0,0,1,0,11.338583,0,1 @ F,0,0,1,0,11.338583,0,1 @ F,0,0,1,0,11.338583,0,1 @ F,0,0,1,0,11.338583,0,1 @ F,0,0,1,0,11.338583,0,1 @ F,0,0,1,0,11.338583,0,1 @ F,0,0,1,0,11.338583,0,1 @ F,0,0,1,0,11.338583,0,1 @ F,0,0,1,0,11.338583,0,1 @ F,0,0,1,0,11.338583,0,1 @ F,0,0,1,0,11.338583,0,1 @ F,0,0,1,0,11.338583,0,1 @ F,0,0,1,0,11.338583,0,1 @ F,0,0,1,0,11.338583,0,1 @ F,0,0,1,0,11.338583,0,1 @ F,0,0,1,0,11.338583,0,1 @ F,0,0,1,0,11.338583,0,1 @ F,0,0,1,0,11.338583,0,1 @ F,0,0,1,0,11.338583,0,1 @ F,0,0,1,0,11.338583,0,1 @ F,0,0,1,0,11.338583,0,1 @ F,0,0,1,0,11.338583,0,1 @ F,0,0,1,0,11.338583,0,1 @ F,0,0,1,0,11.338583,0,1 @ F,0,0,1,0,11.338583,0,1 @ F,0,0,1,0,11.338583,0,1 @ F,0,0,1,0,11.338583,0,1 @ F,0,0,1,0,11.338583,0,1 @ F,0,0,1,0,11.338583,0,1 @ F,0,0,1,0,11.338583,0,1 @ F,0,0,1,0,11.338583,0,1 @ F,0,0,1,0,11.338583,0,1 @ F,0,0,1,0,11.338583,0,1 @ F,0,0,1,0,11.338583,0,1 @ F,0,0,1,0,11.338583,0,1 @ F,0,0,1,0,11.338583,0,1 @ F,0,0,1,0,11.338583,0,1 @ F,0,0,1,0,11.338583,0,1 @ F,0,0,1,0,11.338583,0,1 @ F,0,0,1,0,11.338583,0,1 @ F,0,0,1,0,11.338583,0,1 @ F,0,0,1,0,11.338583,0,1 @ F,0,0,1,0,11.338583,0,1 @ F,0,0,1,0,11.338583,0,1 @ F,0,0,1,0,11.338583,0,1 @ F,0,0,1,0,11.338583,0,1 @ F,0,0,1,0,11.338583,0,1 @ F,0,0,1,0,11.338583,0,1 @ F,0,0,1,0,11.338583,0,1 @ F,0,0,1,0,11.338583,0,1 @ F,0,0,1,0,11.338583,0,1 @ F,0,0,1,0,11.338583,0,1 @ F,0,0,1,0,11.338583,0,1 @ F,0,0,1,0,11.338583,0,1 @ F,0,0,1,0,11.338583,0,1 @ F,0,0,1,0,11.338583,0,1 @ F,0,0,1,0,11.338583,0,1 @ F,0,0,1,0,11.338583,0,1"
       radius="3"
       unit="mm"
       method="auto"
       mode="F"
       chamfer_steps="1"
       flexible="false"
       use_knot_distance="true"
       apply_no_radius="true"
       apply_with_radius="true"
       only_selected="false"
       hide_knots="false" />
    <style
       id="style1">.cls-1{fill:none;stroke:#a9a9a9;stroke-miterlimit:10;}</style>
  </defs>
  <title
     id="title1">dupa</title>
  <path
     class="cls-1"
     d="m 370.55,290.14 c 6.29,3 10,7.8 12.15,10.69 11.56,15.42 10.74,38 2,52.05 -2.53443,4.37063 -6.11064,8.04646 -10.41,10.7 -10.60864,6.93259 -30.61497,-7.719 -33,-4.63 l -3.76,5.21 -12.61781,-3.80951 -2.17011,1.6118 -0.5819,2.82517 c 0.43506,1.10633 2.2373,0.63532 1.3,3.32499 -4.09619,8.02057 -5.72633,7.85264 -8.46018,11.08755 0,0 8.1,37.3 8.1,38.17 0,0.87 3.18,18.22 3.18,18.22 l -2.89,5.21 -14.75,3.47 5.49,28.63 14.5,6.1 8.1,3.47 3.47,10.41 -9,11.57 -5.2,3.43 h -41.9 l -12.98463,-52.24147 c -0.2031,-0.51183 0.10276,-3.5726 -1.19537,-4.93853 -1.55882,-0.33775 -2.52387,-0.0564 -3.66489,0.63751 l -15.12258,2.108 -7.21962,-3.80422 c -0.73394,-0.51668 -1.76209,-0.42992 -2.97133,-0.29936 -0.50551,0.15429 -1.47126,0.63258 -2.06318,2.14996 L 228.49,494.78 l -6.27,13.11 h -43.38 l -8.1,-22 3.76,-6.07 25.16,-6.94 c 0,0 3.47,-35.57 2.6,-35 -0.87,0.57 -13,-2.89 -13,-2.89 l -2.89,-6.07 12.72,-54.37 -9.25,-10.41 -21.4,-9.83 c 0,0 -7.52,9 -8.68,9.54 -4.48,2.24 -8.71,1.68 -14.46,0.87 -7.37,-1 -13.06,-1.84 -17.93,-5.78 -7.13,-5.77 -8.11,-14.74 -9.25,-25.16 -1,-8.94 -2.06,-18.77 3.76,-28.63 3.17023,-5.38954 7.77455,-9.79307 13.3,-12.72 3.11,-1.63 10,-5.09 18.8,-3.47 5.76723,1.12426 11.02347,4.06425 15,8.39 l 4.85,-3.75 6.67,1.43 c 0,0 10.75,-3.75 10.75,-4.62 0,-0.87 11.86,-15.33 11.86,-15.33 0,0 11.67969,-8.15911 11.86,-9 0.66484,-3.10063 -3.69855,-2.74639 -3.69855,-2.74639 L 194.17,268.68 190.4,251.1 l -20,9.54 -7.52,-3.76 -0.87,-22 -13.3,6.65 -5.71,-12.7 c 0.0445,-3.87121 0.33504,-7.73567 0.87,-11.57 1.28108,-9.11266 3.91333,-17.98347 7.81,-26.32 l -6.07,-0.58 3.47,-10.7 13,-21.4 -11.28,-10.7 -0.29,-4.92 8.68,-3.18 -9.83,-26.6 -2.6,-17.93 4,-3.47 0.87,-6.07 9.54,-1.16 34.82,13 c 0,0 17.9,9.92 18.42,9.74 0.52,-0.18 31.42,-5.44 31.42,-5.44 l 16.85,0.53 24.93,6.14 13.52,-7.37 12.12,-4.14 c 7.93485,-2.868947 16.07895,-5.122282 24.36,-6.74 2.47,-0.5 11.39,-3 17.24,-3.34 l 8.6,5.09 -3.45,17.91 -6,24.05 2.81,12.82 1.58,7.72 c 0,0 -6.5,10 -6.14,10 0.36,0 4.39,9.83 4.39,9.83 l 4.26,23.26 c 1.31,21.66 1.63,28 -1,38.48 l -3.76,1.16 c -2.49849,-1.34796 -4.16166,-4.19026 -7.52,-4 -0.97274,0.25618 -1.37717,1.22684 -0.43404,3.89163 L 346.27,254 c -0.2894,3.88296 -2.56096,3.76477 -4.92,3.47 l -10.2089,-8.48123 c -1.08911,-0.53578 -2.16454,-0.90912 -3.07986,0.617 L 324.29,262.64 c -1.64765,2.92285 -3.76003,4.40322 -6.65,3.47 -2.40701,-3.09204 -3.52765,-9.92651 -7.23,-9.25 -1.60102,0.33181 -1.03335,9.14021 -4.92,9.54 -2.33775,0.15289 -4.78095,-5.00392 -9.25,-4.63 -3.23664,1.96578 -2.73864,4.34494 -0.29,6.94 3.41189,2.76212 6.19137,3.17832 9.25,4.63 l 17.93,22.56 c 0,0 15.9,2 15.62,2.31 -0.28,0.31 9.83,-9 9.83,-9 5.86084,-2.10658 12.23705,-2.30955 18.22,-0.58 1.28635,0.40788 2.53994,0.91266 3.75,1.51 z"
     transform="translate(-116.83,-83.73)"
     id="path1"
     sodipodi:nodetypes="cccccccccccscccccccccccccccccccccccscccccccccccccccscsccccccccccccccccccccccsccccccccccccsccccccccccccccccccsccc" />
</svg>
