<svg id="Layer_1" data-name="Layer 1" xmlns="http://www.w3.org/2000/svg" viewBox="0 0 262.49 414.06"><title>Untitled-1</title><path d="M356.08,93.29a11,11,0,0,1,.29,2.51c-.38,3.33-.71,6.68-1.38,9.95a68.79,68.79,0,0,1-2.34,7.61,119.55,119.55,0,0,0-4.52,18.92,5,5,0,0,0,.19,3c.71,1.26.3,2.2-.22,3.37.58.83,1.21,1.71,1.82,2.6.93,1.36.88,1.39,0,2.66-1.27,1.85-2.47,3.75-3.69,5.62,1.16,1.69,3.12,1.21,4.57,2.15a4.36,4.36,0,0,1-1,4.18c-2.08,2.24-3.82,4.79-5.83,7.36.12.23.3.65.53,1a70.93,70.93,0,0,1,6.3,14.19,99.06,99.06,0,0,1,3.64,19c.49,4.28,1.28,8.53,1.58,12.8.42,5.79.24,11.61.25,17.43,0,1.07-.15,2.23-1.73,2.56l-8.67-6.8-3.58,2.13c0,.39,0,1.06,0,1.73a115,115,0,0,1-.65,14.34,30,30,0,0,0,.12,5.32c.12,1.55-.18,2.72-2,3.14-1.39-.54-2.4-1.77-3.54-2.83-1.59-1.48-3.2-2.94-4.78-4.42a1.5,1.5,0,0,1-.54-.84c-.07-2-1.9-2.25-3.12-3.58-1.56,3.63-2.94,7-4.42,10.25s-2.23,6.85-4.15,10.33c-3.18-3.25-5.47-6.92-8.67-9.89-3.36,3.1-4.57,7.73-7.79,10.94-3.51-2.6-5-6.31-6.94-10-.45.57-.79,1-1.07,1.38-2.08,3.14-4.12,6.3-6.23,9.42-1.14,1.7-1.57,1.84-3.39,1s-3.29-1.66-4.94-2.5l-1.83-.93-1.24,3.41c.31.35.52.76.85.93,3.09,1.62,5.09,4.63,8.14,6.31s6.06,3.45,9.11,5.13c1.8,1,3.68,1.82,5.46,2.85a10.4,10.4,0,0,1,2.7,2.13c5.6,6.56,11.24,13.08,16.62,19.81,1.86,2.32,4,3,6.74,3.44,3.25.46,6.55.26,9.73,1a16.76,16.76,0,0,1,3.59,1.88,31.64,31.64,0,0,0,2.37-3.13c2.64-4.44,6.74-6.89,11.46-8.42,7.18-2.33,13.42-.4,18.91,4.52,2.13,3.33,4.88,6.19,7.09,9.5,2.83,4.24,3.11,8.95,3.89,13.64a76.6,76.6,0,0,1,.8,14.88,26.22,26.22,0,0,1-3.13,12,45.21,45.21,0,0,1-6.79,9.24,8.6,8.6,0,0,1-3.92,2.52c-2.76.78-5.52,1.57-8.32,2.21a13.11,13.11,0,0,1-7.83-.52,64.24,64.24,0,0,1-6.18-3.11,34.41,34.41,0,0,1-9.67-7.37l-.73,3.83a42.71,42.71,0,0,1-14.58,1.32,9.87,9.87,0,0,1-5.23-1.49c-2.75-1.89-5.53-3.75-8.3-5.62-.32-.22-.67-.39-1.2-.7a9.52,9.52,0,0,0,1.1,3.42,15.47,15.47,0,0,1,1.73,4.57c.53,2.67,2.07,4.71,3.61,6.79.65.88,1.29,1.77,1.87,2.69a2.64,2.64,0,0,1-.17,3.36,26.74,26.74,0,0,1-6.21,6.16,3.32,3.32,0,0,0-1.26,4.05,140.19,140.19,0,0,1,3.59,15.7c1.25,6.54,3,13,4.45,19.49,1.21,5.44,2.31,10.91,3.45,16.37a6.17,6.17,0,0,1,0,1.23c0,2-.55,2.85-2.45,3.48a80,80,0,0,1-14.57,3.87,7.06,7.06,0,0,0-1.32.49c.51,2.39,1,4.76,1.52,7.15,1.14,5.69,2.23,11.4,3.39,17.09.64,3.14,1.4,6.25,2.06,9.38a3.24,3.24,0,0,0,2.23,2.58c5.59,2.22,11.14,4.55,16.7,6.85,1.14.47,2.27,1,3.38,1.47a6.49,6.49,0,0,1,3.18,7.7c-.85,2.83-3.18,4.38-5,6.29a38.18,38.18,0,0,1-5.33,4.15A6,6,0,0,1,321,504c-10.2-.07-20.4-.06-30.59-.08-2.41,0-2.66-.29-3.36-2.63-3.56-11.87-5.94-24-8.75-36.07-1.41-6.06-2.78-12.13-4.17-18.19a10.41,10.41,0,0,0-.41-1.12c-1.47.15-2.94.27-4.41.46-5.34.68-10.67,1.49-16.07,1.19a29,29,0,0,1-5.35-1.2c-4-1-8-2.08-12.06-3.12-.31-.08-.64-.13-1-.19-.74,3.27-1.49,6.43-2.17,9.6-2,9.18-3.89,18.37-5.84,27.56-.92,4.33-2.06,8.61-2.74,13-.56,3.63-2.31,6.64-4,9.76a1.78,1.78,0,0,1-1.79,1c-2.46,0-4.93.06-7.39.09l-19.3.24a23.85,23.85,0,0,1-8.4-1.66,4.18,4.18,0,0,1-2.25-2c-1-1.77-2.09-3.53-3.22-5.25-.91-1.38-1.81-2.7-1.41-4.49.09-.42-.23-.92-.24-1.38a2.55,2.55,0,0,1,.23-1.33,13.93,13.93,0,0,1,8.12-6L185,482l14.72-5,.2-.06c3.3-1.15,3.31-1.23,3.54-4.74.15-2.32.47-4.62.69-6.93.1-1,.15-2,.22-3.05.22-2.91.45-5.83.65-8.74.13-1.91.15-3.82.29-5.72.23-3.05.53-6.1.78-9.15.06-.73,0-1.47,0-2.36l-5.84-2.07c-1.8-.65-3.6-1.31-5.39-2a2.55,2.55,0,0,0-1-.32c-1.72.17-2.35-.81-2.41-2.29a14.39,14.39,0,0,1,.11-3.41c1.31-6.6,2.63-13.2,4.07-19.78.58-2.65,1.55-5.22,2.19-7.86.82-3.37,1.54-6.77,2.23-10.17.83-4.07,1.53-8.17,2.38-12.24a4.52,4.52,0,0,0-.95-4.19c-1.82-2.12-3.63-4.27-5.36-6.47-1.43-1.83-1.35-2.42-.23-4.42,1.53-2.74,3-5.52,4.44-8.29.51-1,1-1.94,1.66-3.34-1.5.81-2.64,1.4-3.74,2a40.55,40.55,0,0,1-4.58,2.71,61.3,61.3,0,0,1-8.45,2.92,5,5,0,0,1-3.89-.87c-1.06-.74-2.14-1.46-3.2-2.22-3.16-2.28-7-3-10.28-4.5-3,3-5.29,6.44-9,8.39a22.71,22.71,0,0,1-7.86,2,31.91,31.91,0,0,1-10.78-.34,39.72,39.72,0,0,1-6-1.86,8,8,0,0,1-3.79-3,56.86,56.86,0,0,0-4.23-5.23,7.54,7.54,0,0,1-1.53-3.51c-.59-2.59-1.23-5.18-2-7.74a12.29,12.29,0,0,1-.55-4.62c.22-2.43,0-4.89.14-7.33.08-2,.32-4.07.49-6.11.43-5,2.64-9.39,4.94-13.59a23.75,23.75,0,0,1,11.59-10.33,65.22,65.22,0,0,1,7.35-2.38,5.42,5.42,0,0,1,2-.17c3.51.35,7.06.52,10.43,1.75a14.39,14.39,0,0,1,4.79,3.27c2.53,2.31,3.84,5.42,6.24,8.08.74-1.25,1.52-2.42,2.15-3.67s1.54-2.09,3.22-1.82c4.41.71,8.28-1.17,12.24-2.69a19.74,19.74,0,0,0,9-7.14c3-4.14,6-8.28,9.13-12.35a11.48,11.48,0,0,1,2.63-2.25c4-2.81,8-5.65,12.14-8.34,3.36-2.21,6.84-4.22,10.37-6.38-.08-2-1.07-3.7-2.11-5.6l-8.45,6c-1.34-1.22-2.76-2.41-4-3.72a3.47,3.47,0,0,0-3.75-.91c-4.4,1.28-8.78,2.61-13.18,3.88a28.34,28.34,0,0,1-3,.51L193.89,245c-1.05.36-2.09.63-3.05,1.05-3.31,1.47-6.62,2.94-9.88,4.52a36.74,36.74,0,0,1-9.14,3.55c-.34.06-.66.18-1,.23-1.53.21-2-.14-2.19-1.65-.56-4.2-1-8.42-1.7-12.6-.39-2.49-1-5-1.59-7.42-.57-2.23-1.49-2.56-3.6-1.58-.93.43-1.89.8-2.85,1.14-2.64.92-5.3,1.79-7.94,2.73-1.64.59-1.87.45-2.56-1.18a13.67,13.67,0,0,1-.66-7.66c2-12.25,4.6-24.33,9.48-35.81.72-1.69,1.34-3.42,2.13-5.44l-4.24.31a8.7,8.7,0,0,1,0-2.26c.71-2.42,1.44-4.85,2.37-7.19a30,30,0,0,1,2.32-4.08q3.78-6.34,7.58-12.67a2.28,2.28,0,0,0-.13-3,19.49,19.49,0,0,0-1.4-1.49c-2.4-2.42-4.82-4.82-7.19-7.27-1.18-1.22-1-1.83.54-2.6,1.28-.63,2.6-1.2,3.92-1.74s1.58-1,1.27-2.33a16.39,16.39,0,0,0-.62-1.74c-3.46-9.8-7.6-19.35-10.21-29.44q-1-3.87-1.79-7.79a6.25,6.25,0,0,1,.28-2l3.88.55a21.73,21.73,0,0,0,.17-2.46c-.07-1.5-.25-3-.34-4.5a5.41,5.41,0,0,1,.09-1.62c.29-1.18.77-1.51,1.94-1.2,2.77.75,5.55,1.46,8.25,2.4,6.07,2.1,12.07,4.4,18.15,6.48a100.52,100.52,0,0,1,13,5.11c5.18,2.61,10.48,5,15.75,7.43a3.86,3.86,0,0,0,1.75.25c4.32-.22,8.48-1.4,12.72-2.07,7-1.09,13.91-2.31,20.91-3.06,3.36-.36,6.82.2,10.22.43,2.18.15,4.37.35,6.52.7s4.41.87,6.58,1.44q7.94,2.07,15.84,4.26a2.68,2.68,0,0,0,2.3-.43c2.8-1.72,5.6-3.44,8.43-5.1.94-.55,2-.84,3-1.4,3.16-1.89,6.91-2,10.19-3.37a62.7,62.7,0,0,1,10.83-3c7-1.6,14-3.28,21-4.86,2.73-.61,5.5-1,8.26-1.54C352.87,93.82,354.34,93.58,356.08,93.29ZM222.26,387.61c-5.79,3.09-11.53,6.27-17.38,9.23-2.27,1.15-2.69,3-2.92,5.18.3-.06.54,0,.68-.14,5-3.76,10.75-6.25,16.32-9a3.92,3.92,0,0,0,1.25-.68,2.28,2.28,0,0,1,2.69-.53,8.13,8.13,0,0,0,1.79,2c8.25,6,16.54,11.92,24.79,17.91,1.14.83,2.15,1.83,3.52,3a4.57,4.57,0,0,1-3.41-1.11q-9-6.33-17.91-12.71l-10.27-7.33c-4.69,2.53-9.4,5-14.06,7.61-2,1.12-3.95,2.41-5.9,3.66a1.56,1.56,0,0,0-.63.76c-.33,1.05-.58,2.13-1,3.62,1.12-.54,1.79-.85,2.44-1.19,2.29-1.23,4.54-2.54,6.86-3.69,4-2,8-3.86,12-5.75a2.71,2.71,0,0,1,3-.12c-1,.63-1.66,1.15-2.42,1.53-4.15,2.1-8.32,4.15-12.46,6.27-2.74,1.4-5.36,3.06-8.17,4.28-1.82.79-2.41,1.93-2.31,3.94,1.28-.67,2.42-1.25,3.56-1.86,1.57-.83,3.09-1.78,4.7-2.5,4.31-1.92,8.65-3.75,13-5.61l3.91-1.69a2.13,2.13,0,0,1,2.48.4l-2.13,1c2.47,1.41,4.44,2.49,6.35,3.65s3.95,2.46,5.87,3.77,3.68,2.61,5.51,3.94,3.64,2.68,5.46,4,3.79,2.7,5.66,4.08,3.76,2.36,5,4.32a5.83,5.83,0,0,1-2.46-.78c-2.72-1.72-5.45-3.42-8.07-5.28-7.69-5.47-15.34-11-23.47-15.84a2.27,2.27,0,0,0-2.42-.35c-4.9,2.26-9.89,4.34-14.77,6.64-2.9,1.37-5.66,3-8.5,4.54-.63.34-.89.73-.48,1.49,3-1.49,5.8-3,8.7-4.37s5.72-2.63,8.63-3.81,5.68-2.8,9-3.51a2,2,0,0,1-1.4,1.89c-1.27.67-2.57,1.27-3.87,1.9-6.88,3.35-13.76,6.72-20.66,10-1.09.53-1.75,1.18-1.57,2.45.14,0,.29.09.39.05,3.62-1.62,7.25-3.22,10.84-4.89,5-2.34,10-4.75,15-7.11a20.69,20.69,0,0,1,2.18-.74c0,1.64-1.08,2-1.91,2.37q-10.09,5-20.23,10c-1.9.93-3.86,1.74-5.76,2.68a10.43,10.43,0,0,0-1.64,1.25l.17.52a7.18,7.18,0,0,0,1.69,0,14.45,14.45,0,0,0,2.3-.86c7.57-3.33,15.13-6.69,22.71-10a27.74,27.74,0,0,1,3.29-1.07c.15,0,.36.14.62.24l-.1.9c3.54,1.89,7.17,3.41,10.35,5.6,7.27,5,14.33,10.3,21.46,15.49a7.41,7.41,0,0,1,1,1.21,2.61,2.61,0,0,1-2.7-.53c-2.47-1.59-5-3.13-7.34-4.89a207.51,207.51,0,0,0-24.1-15.9L200.28,428.3c2,.58,3.74,1.08,5.68.14,6-2.88,12-5.61,18-8.39.71-.33,1.47-.56,2.48-.94l-.22,1.72A80.13,80.13,0,0,1,239.45,429q8.62,6.46,17.2,13c.91.69,3.48,1,4,.35,1.32-1.9,3.44-2.42,5.33-3.25,4.95-2.16,10-4.16,15-6.18,2.65-1.07,5.33-2,8-3.06-.59-1.14-1.29-1.25-2.39-.76-8,3.55-16,7-24,10.54a12.59,12.59,0,0,1-2.33.75.94.94,0,0,1-.8-.44,1,1,0,0,1,.26-.87,5.49,5.49,0,0,1,1.24-.7,283.37,283.37,0,0,1,26.23-11.14c.68-.25,1.4-.4,1.82-.52.93.95,1.58,1.71,2.33,2.36,2.09,1.77,4.26,3.44,6.31,5.25,1.49,1.32,3,1.29,4.79.4-.46-.41-.8-.72-1.16-1-1.36-1.14-2.72-2.29-4.1-3.42s-2.66-2.16-4-3.22a41.06,41.06,0,0,0-4.23-3.24c-1.52-.91-2.41-2.44-3.85-3.38a1.42,1.42,0,0,0-.29-.13c-2.13,1.06-4.18,2.16-6.29,3.1-5.38,2.38-10.78,4.69-16.19,7-1.19.51-2.4,1-3.62,1.45-.76.29-1.45.26-1.92-.94,9-4,17.95-7.76,26.94-11.44.2-1.8.52-2,1.91-1,.4.27.78.56,1.15.87,5.54,4.57,11.14,9.08,16.58,13.77a3.7,3.7,0,0,0,4.77.57L284.68,414c-5.4,2.32-10.73,4.61-16.07,6.89-2.07.89-4.16,1.74-6.25,2.59a3.1,3.1,0,0,1-2.68.13,6.69,6.69,0,0,1,2.8-2c4.63-2,9.28-4,13.9-6.08,1.06-.47,2-1.1,3.09-1.59,2.59-1.23,5.18-2.48,7.81-3.61,1.45-.62,2.88-.71,3.93.89.25.38.76.57,1.13.87,2.36,1.87,4.78,3.67,7.06,5.63,5,4.28,9.88,8.65,14.83,13a4,4,0,0,0,1.15.83,1.34,1.34,0,0,0,1.13-.12,1.18,1.18,0,0,0,.26-1.08,4.93,4.93,0,0,0-1.13-1.62c-1.62-1.47-3.31-2.86-5-4.31L287.38,404a3.05,3.05,0,0,0-.55-.34c-6.3,2.65-12.46,5.27-18.64,7.83-4.11,1.7-8.25,3.31-12.38,4.94a2.59,2.59,0,0,1-2.78,0,4.67,4.67,0,0,1,.85-1.15,7.6,7.6,0,0,1,1.67-.78l28.22-11.17c.55-.22,1.09-.45,1.9-.79l-2.75-2.61c-4.71,1.91-9.27,3.74-13.82,5.62s-9.2,3.88-13.81,5.78c-.95.39-1.92,1.07-3.27.3a7.22,7.22,0,0,1,1.25-1.09c1.77-.89,3.53-1.81,5.36-2.56,7.53-3.08,15.08-6.1,22.62-9.17,1.2-.49,2.33-1.14,3.75-.78-.53,1.24.54,1.65,1.22,2.22,8.08,6.66,16.08,13.41,23.53,20.79,1.36,1.35,2.78,2.64,4.19,3.94.48.45,1,.85,1.62,1.35-.12-2.93-.16-3-1.88-4.63-6.21-5.89-12.37-11.82-18.63-17.64-3.6-3.35-7.38-6.51-11-9.68-1.69.8-3.09,1.51-4.52,2.13-1.88.82-3.79,1.57-5.69,2.35s-3.8,1.55-5.69,2.35-3.65,1.56-5.47,2.33-3.83,1.48-5.66,2.4-3.88,1-5.45,2.38c-.18.16-.68.08-1,0a11.11,11.11,0,0,1-2.23-1c-2.17-1.43-4.34-2.86-6.43-4.41q-9.06-6.73-18-13.56a14.69,14.69,0,0,1-1.67-1.73,13.63,13.63,0,0,1,6,2.54c1.64,1.11,3.22,2.32,4.8,3.52,5.33,4.06,10.65,8.14,16,12.19a22.32,22.32,0,0,0,2,1.27,28.83,28.83,0,0,1,3.21-1.89c9.08-3.79,18.19-7.53,27.28-11.29.4-.17.78-.38,1.14-.56-.26-.87-1.35-1.25-.82-2.46.77.49,1.46.89,2.11,1.35a120.78,120.78,0,0,1,13.8,11.62q7.43,7.24,14.9,14.42c.47.45,1,.87,1.59,1.43a2.67,2.67,0,0,0-1.09-2.72c-5.23-5.12-10.35-10.37-15.73-15.34-4.66-4.3-9.61-8.26-14.3-12.26-2.69,1.32-5.06,2.54-7.48,3.66q-11.54,5.34-23.11,10.61a5.87,5.87,0,0,1-1.53.56c-.32,0-.68-.22-1.08-.37.34-1.23,1.34-1.5,2.16-1.88,6.19-2.89,12.37-5.82,18.62-8.59,3.74-1.66,7.63-3,11.4-4.61a2.9,2.9,0,0,1,3.35.58c4.45,3.73,9,7.32,13.34,11.23s8.42,8.23,12.61,12.36c.48.47,1,.93,1.58,1.5-.17-1.86-.18-1.86-1-2.63-1.18-1-2.38-2.07-3.52-3.15-6-5.69-12-11.41-18-17.08-2.19-2.06-4.46-4-6.65-6-2.67,1.15-5.17,2.26-7.68,3.3q-13.25,5.51-26.52,11a21.69,21.69,0,0,0-2.07,1.16c-2.92-1.23-5.5-3.5-8.22-5.54s-5.29-4.13-8-6.11-5.47-3.84-8.22-5.75l.2-.39a13.73,13.73,0,0,1,2.25.77,49.3,49.3,0,0,1,5.84,3.39c4.79,3.53,9.47,7.21,14.2,10.83.42.33.86.64,1.28.95,12.2-6.5,25.26-10.6,37.77-15.42.78.74,1.3,1.26,1.84,1.75,1.84,1.64,3.75,3.2,5.52,4.91,6.25,6,12.44,12.14,18.66,18.2.35.34.75.62,1.36,1.12-.4-1.72-.73-3.1-1.06-4.48a7.14,7.14,0,0,0-2.24-3.76c-6.77-6.18-13.47-12.44-20.2-18.67a6.58,6.58,0,0,0-6.63-1c-2.68,1.19-5.38,2.37-8.11,3.47-8.56,3.45-17.24,6.6-25.45,10.87a8.34,8.34,0,0,1-1.72.66,3.27,3.27,0,0,1-1-.07,4.54,4.54,0,0,1,1.76-1.79,84,84,0,0,1,7.64-4c7.2-3,14.47-5.8,21.7-8.68.67-.27,1.31-.59,2-.88-1.71-.44-3.33-1-4.86.21a7.48,7.48,0,0,1-1.85.86l-25.29,10.2a2.57,2.57,0,0,1-2.35,0c-1.39-.73-2.93-1.22-4.23-2.08-3.81-2.53-7.52-5.22-11.3-7.81-2.26-1.55-4.53-3.07-6.86-4.5a4.23,4.23,0,0,0-4.81.06c-1.14.73-2.44,1.23-3.64,1.88-2.23,1.19-4.46,2.39-6.65,3.65a8.35,8.35,0,0,0-1.44,1.37,1.36,1.36,0,0,0,1.13-.11q5.59-2.8,11.19-5.6a7.56,7.56,0,0,1,1.71-.66c.3-.07.67.18,1.07.3-.46,1.26-1.48,1.61-2.35,2.08-3.84,2.1-7.7,4.16-11.55,6.24a12,12,0,0,0-1.39.87.82.82,0,0,0-.1,1.4c.32-.14.62-.27.92-.42q6.78-3.41,13.56-6.81a14.74,14.74,0,0,1,2.27-.94c.29-.09.68.15,1.49.35a21.17,21.17,0,0,1-2.18,1.68c-2.92,1.64-5.87,3.23-8.82,4.83-2.41,1.3-4.85,2.54-7.24,3.86-1.23.68-1.35,1.1-1,2.7.5-.28,1-.56,1.44-.8,5.41-2.78,10.82-5.57,16.25-8.32.81-.41,1.64-1,2.68-.55C223.72,386.54,223.72,386.54,222.26,387.61Zm1.15-107.29c0,1.7.09,3.31,0,4.9a33.37,33.37,0,0,1-.7,4.21q-1.26,6.09-2.58,12.17c-1.18,5.38-2.4,10.75-3.6,16.13-.43,1.92-.85,3.84-1.24,5.77-.62,3.06-1.14,6.14-1.85,9.18-.83,3.61-2.53,6.9-3.85,10.33a134.8,134.8,0,0,1-7.87,16.65,4.09,4.09,0,0,0-.5,2.13,11,11,0,0,0,2.1,6.52,11,11,0,0,1,1.43,2.47,2.55,2.55,0,0,0,2.31,1.64c3.11.28,6.22.81,9.33.87,4.22.08,8.46-.15,12.68-.31,2.31-.09,4.62-.42,6.93-.45,4.37-.07,8.75-.1,13.11,0,2.85.09,5.69.48,8.52.78s5.67.65,8.5,1c5.24.72,10.46,1.67,15.73,2.18,4.27.41,8.58.3,12.88.44.88,0,1.76.19,2.64.24a23.27,23.27,0,0,0,2.45,0,25.27,25.27,0,0,1,3-.23,3.13,3.13,0,0,0,2.89-1.52,33.62,33.62,0,0,1,3-3.26c.63-.61,1.41-1.07,2.09-1.63,1.65-1.35,1.8-3,.62-4.75a20.55,20.55,0,0,1-2.06-3.73c-1.39-3.53-2.69-7.11-3.95-10.69s-2.37-7.35-3.7-11c-1.82-4.95-2.63-10.26-5.37-14.87a1.36,1.36,0,0,1-.09-.4c-.88-4.05-2.19-8-1.85-12.28a9.46,9.46,0,0,0-.32-3c-1-4-2.07-8-3.22-12-.91-3.14-2-6.25-3-9.34-.21-.62-.9-1.28,0-1.7s1.13.47,1.41,1.09c.08.19.18.37.28.55,1.32,2.45,2.65,4.9,4,7.36a2.88,2.88,0,0,1,.37,1.14,16.42,16.42,0,0,0,1.46,5.7,17.13,17.13,0,0,1,1,3.53c.53,2.73.83,5.51,1.48,8.21,1.13,4.68,2.47,9.31,3.68,14,1,3.88,2,7.77,2.89,11.68a3,3,0,0,0,2.28,2.36,3.68,3.68,0,0,1,2,1.29,3.5,3.5,0,0,0,1.35.89,88.94,88.94,0,0,1,12.68,7,4.88,4.88,0,0,0,3.88.56,24.51,24.51,0,0,1,3.82-.58c4.24-.19,3.43.14,5.3-3.8a4,4,0,0,0,0-2.93c-2-4.9-2.12-10.08-2.48-15.23a2.69,2.69,0,0,1,0-.41c.11-1.29.21-2.57.33-3.86s.28-2.84.43-4.26c.13-1.21.62-2.5.35-3.62-.5-2.08.25-3.74,1.13-5.45.34-.66.7-1.3,1.08-2-1.45-1.64-3-2.95-5.15-3.22-3-.38-6.06-.79-9.09-1.2a1.37,1.37,0,0,1-.75-.28c-1.79-1.77-4.14-2.83-5.78-4.86-3.9-4.85-8-9.56-12-14.32a8,8,0,0,0-1.2-1.1c-1.61-1.26-3.25-2.49-4.85-3.76-1.77-1.4-3.32-3.2-5.29-4.18a67.43,67.43,0,0,1-8.26-5.28c-3.86-2.69-8-5-11.43-8.28-1.3-1.24-1.68-2.13-1-3.78a32.21,32.21,0,0,1,1.74-3.24,22.26,22.26,0,0,0,1.25-2.1c.71-1.67.11-3-1.56-3.24-3.64-.41-7.26-1.28-11.12-.5l-.67,2c3.19,1.22,6.59.22,9.65,1.3-.54,2.91-2.28,4.16-5,4.2-.34,0-.68,0-1,.05a45.05,45.05,0,0,0-6.73.58,28.72,28.72,0,0,1-10,.39c-2.7-.32-5.4-.71-8.12-.9a4.76,4.76,0,0,1-3.91-2.42c2.7-1.74,5.8-1.93,8.84-2.6l-.58-2.54c-1.13-.07-2.08-.09-3-.19-2.42-.27-4.52.85-6.76,1.4a2.91,2.91,0,0,0-2.31,2.17c-.49,1.32.22,2.09.69,3,.76,1.44,1.72,2.77,2.46,4.23a3.15,3.15,0,0,1-2.56,4.63,4,4,0,0,0-1.51.54c-2.66,1.67-5.33,3.32-7.92,5.08-3.38,2.31-6.56,4.92-10.06,7a26.28,26.28,0,0,0-8.05,7.94c-1.9,2.74-4.24,5.2-5.92,8.06a23,23,0,0,1-8.68,8.21c-1,.58-2.15,1.32-3.17,1.24a9.47,9.47,0,0,0-2.93.47,20,20,0,0,1-3.43.57c-2.23.09-4.47,0-6.8,0-.93,2-1.8,4-2.73,6a5.38,5.38,0,0,0-.36,3.59,47.45,47.45,0,0,1,.61,15c-.44,4.1-1.46,8.15-2.27,12.21a3,3,0,0,0,2.71,3.71,6.62,6.62,0,0,1,3.84,1.21c2.6,1.91,5.63,2.26,8.65,2.73a4.29,4.29,0,0,1,1.52.45,3.76,3.76,0,0,0,3.7.13q2.9-1.3,5.83-2.52c2.26-.95,4.55-1.83,6.79-2.82a3.59,3.59,0,0,0,2.16-2.06c.58-1.68,1.18-3.34,1.77-5a4.37,4.37,0,0,1,.58-1.52c1.54-1.65,1.43-3.89,2.2-5.81.6-1.51.83-3.16,1.3-4.72a76.08,76.08,0,0,0,2.87-10.41c.57-3.69,1.56-7.31,2.42-11,.72-3,1.54-6.07,2.25-9.12,1.07-4.64,2.09-9.29,3.11-13.93C221.76,280.43,222.14,279.85,223.41,280.32Zm64.09-161.77c-3.41-1.21-7-2.47-10.61-3.76a42,42,0,0,0-12.57-2.67c-5.32-.21-10.61-.89-16-.61-2.44.13-4.9.09-7.34.39-.68.08-1.36.16-2,.2-7.94.45-15.41,2.94-22.86,5.41a2.66,2.66,0,0,1-2.92-.45c-1.93-1.52-3.87-3-5.91-4.38a63.91,63.91,0,0,0-5.86-3.39,35.51,35.51,0,0,0-5-2.23c-11-3.68-21.94-7.28-32.91-10.93-1.27-.42-2.49-1-3.94-1.6a10.29,10.29,0,0,0,.24,1.13c.89,2.58,1.8,5.16,2.7,7.74a12.88,12.88,0,0,1,.65,2.15c.18,1.14-.32,1.57-1.39,1.17s-2.12-.94-3.17-1.43l-2.48-1.17-.44.36c1,7.13,3.91,13.7,6.35,20.42s6.19,12.83,10.13,18.82c-3.09,2.06-6.8,1.79-10.3,3.17,4.12,3.73,8.44,6.57,14,7.81-.81,1-1.36,1.74-2,2.43-1.31,1.48-2.67,2.91-4,4.39-.54.61-.93,1.37-1.51,1.94a25.68,25.68,0,0,0-4.65,6.7c-.95,1.82-2,3.6-2.92,5.41-.67,1.27-1.32,2.55-1.88,3.87a11.93,11.93,0,0,0-.48,2.13c3-.08,5.29-2.14,8.34-2.07-.34,1-.55,1.86-.9,2.65-2.16,4.8-4.36,9.57-6.53,14.37-1.43,3.18-3,6.32-4.21,9.57-1,2.73-1.66,5.63-2.61,8.41-1.3,3.79-1.48,7.77-2.14,11.67-.19,1.11-.64,2.22,0,3.67.91-.76,1.76-1.39,2.53-2.11,1-1,2-2.11,3.06-3,2-1.66,4.09-3.15,6-4.83,2.39-2,4.66-4.23,7-6.31a12,12,0,0,1,2.5-1.76c1.2-.6,2.15,0,2.39,1.32a7.43,7.43,0,0,1,.06,1c.11,2.73.19,5.45.35,8.18a9.36,9.36,0,0,0,1.21,4,68.07,68.07,0,0,0,13.24-23.52,4.76,4.76,0,0,0-.85-.51c-3.49-1.06-5.63-3.73-7.14-6.71A38.83,38.83,0,0,1,177,183.45a2.88,2.88,0,0,1,.21-1.58c1.34-2.77,2.67-5.55,4.19-8.22a7.1,7.1,0,0,1,2.43-2.39c2.5-1.54,5.09-2.94,7.69-4.31a18,18,0,0,1,3.77-1.57A118.5,118.5,0,0,1,220,162a5.15,5.15,0,0,0,2.13-.6c4.22-2.27,8.33-4.73,11.64-8.3a3.19,3.19,0,0,1,.77-.68,14.16,14.16,0,0,0,4.24-4.09l4.94-6.28c1.34,2.71,2.69,5.06,3.7,7.55,1.64,4,3,8.19,4.59,12.28.34.9.86,1.73,1.44,2.88,1.22-1.93,2.25-3.53,3.26-5.15s2-3.27,3-4.89,2-3.26,3.14-4.8,1.28-3.56,3.15-5.07a100,100,0,0,0,4.44,14.72,16.28,16.28,0,0,0,1.81-1.83c1.06-1.51,2-3.09,3-4.63.47-.71.74-1.79,1.85-1.68s1.46,1.12,1.84,2c.05.13.07.27.13.39a34.29,34.29,0,0,0,4.87,8c1.42-.32,2.75-.61,4.08-.93a20.11,20.11,0,0,1,10.51.2,63.92,63.92,0,0,1,14.29,6c2.19,1.26,4.52,2.32,6.57,3.78a23.86,23.86,0,0,1,7.8,8.22,13.69,13.69,0,0,1,1.67,8.64,15.58,15.58,0,0,1-3.49,8,2.71,2.71,0,0,0-.3,3.39q2.46,4.37,4.9,8.74c.78,1.4,1.51,2.83,2.33,4.36,2-2,2.33-4.82,4.31-6.55,1.53,1.78,3.06,3.28,4.27,5A50.85,50.85,0,0,0,352,221.76a4.83,4.83,0,0,0,1.19.47c.87-4.15-.09-8-.64-11.81-.75-5.19-1.82-10.33-2.88-15.47-1.32-6.42-2.2-13-4.48-19.14-1.4-3.77-3.09-7.44-4.78-11.1a2.79,2.79,0,0,1,.58-3.51,29.11,29.11,0,0,0,2.16-2.47c1-1.37,2-2.8,3.17-4.4-.86-.2-1.37-.35-1.89-.42a4.67,4.67,0,0,1-3.33-2.44,1.66,1.66,0,0,1,.09-2.18,39.13,39.13,0,0,0,3.29-5.39c1-2,.82-2-1.18-3.19a2.89,2.89,0,0,1-.56-.62c2.07-5.51,2.87-11.26,3.85-17a44.19,44.19,0,0,1,1.2-4.73,60.33,60.33,0,0,0,1.92-6.47,57.76,57.76,0,0,1,2.09-8.76c.76-2.26,1.32-4.58,2-7a8.32,8.32,0,0,0-1.49,0c-3.75.74-7.52,1.4-11.24,2.29-7.84,1.87-15.66,3.83-23.48,5.82a14,14,0,0,0-3.53,1.55c-3.07,1.8-6,3.76-9.13,5.53a45.46,45.46,0,0,1-4.57,2l-.18-.32,1.32-2-.23-.33C296.69,113.26,291.87,115.27,287.51,118.54ZM191.39,203.3c-.26,5.49,1.06,10.48,2.75,15.41a19.31,19.31,0,0,0,5.13,8c1.39,1.3,2.63,2.79,4.09,4,2,1.66,4,3.23,6.17,4.69a21,21,0,0,0,7.06,2.62c5.5,1.36,10.93,3,16.45,4.35a50.49,50.49,0,0,0,9.48,1.54,63.79,63.79,0,0,0,15.35-.65c6.63-1.32,13.25-2.78,19.78-4.5a148.06,148.06,0,0,0,14.42-4.72,39.77,39.77,0,0,0,7.39-3.91,24.23,24.23,0,0,0,7.5-7.93,37.32,37.32,0,0,0,3-5.06c1.23-3,2.15-6.19,3.13-9.31.4-1.28.63-2.62,1-4.1a10.68,10.68,0,0,0-1.38.08c-5.56,1.15-11.17.33-16.76.5a3.17,3.17,0,0,1-.61,0c-3.76-.62-7.54-1.13-11.26-1.91a31.51,31.51,0,0,1-15-7.1,17,17,0,0,0-1.45-1.14,28.9,28.9,0,0,1-7.69-8.43,11.32,11.32,0,0,1-1.65-4.37,24,24,0,0,1,.33-5.1,1.46,1.46,0,0,1,.33-.73c2.21-2.7,4.47-5.37,7.72-6.88s6.73-3,10.1-4.53c.41-.18.79-.44,1.31-.73l-2.28-5.69c-2.49,1.82-3.37,4.79-5.86,6.73-1.53-3.89-3-7.51-5.68-10.64-1,1.34-1.86,2.62-2.79,3.88-2,2.74-3.73,5.7-6.37,8-2,1.74-2.22,1.81-3.74-.49-.15-.23-.33-.44-.46-.68-1.67-2.9-3.31-5.81-5-8.7-1.09-1.87-2.25-3.7-3.48-5.72-1.83,1.54-3.52,3-5.26,4.4s-3.59,2.92-5.46,4.27-3.63,2.38-5.61,3.66c4.45,1.33,8.7,2.29,12.7,4.17a22.7,22.7,0,0,1,6.23,4.51c2.3,2.23,2.71,5.13,3.15,8a9.83,9.83,0,0,1-1.14,6.15c-1,1.87-1.85,3.81-2.83,5.69a8.5,8.5,0,0,1-3.06,3.52c-1.86,1.13-3.67,2.37-5.6,3.36-6.56,3.39-13.8,4.15-21,5-4.33.49-8.73.45-13.1.55C198.17,203.36,194.83,203.3,191.39,203.3Zm146.93,123.8h-.42c.41,4.28.63,8.59,1.31,12.83a15.56,15.56,0,0,0,2.4,6.46c2.94,4.11,7,7.17,10.92,10.36a4.59,4.59,0,0,0,1.64.79c8.43,2.38,17.45-1.77,20.74-7.55a40.93,40.93,0,0,0,3-6c1.39-3.78,2.58-7.64,3.73-11.5a12.82,12.82,0,0,0,.32-5.89,59.58,59.58,0,0,0-2.62-10.09c-2.15-6-5.18-11.25-10.32-15.36-3.75-3-8-2.7-12.19-3.2-3.51,1-7,2.14-9.66,4.73a23.22,23.22,0,0,0-6.36,9.65C339.26,317.09,337.52,321.86,338.31,327.09Zm-212.82,3.08c-.25,3.67,1.06,9.92,2.61,12.3,2.11,3.25,4.46,6.34,6.72,9.49a2.35,2.35,0,0,0,.65.48,18.8,18.8,0,0,0,10.8,3.16,26.11,26.11,0,0,0,5.27-.43,18.67,18.67,0,0,0,6-2,16.53,16.53,0,0,0,6.87-8.68,60.87,60.87,0,0,0,3.48-23,43.81,43.81,0,0,0-2.94-13.7,10.61,10.61,0,0,0-2.9-4.41c-4.93-4.17-10.42-6.12-16.85-4.09a60.94,60.94,0,0,0-5.93,2.21,16.42,16.42,0,0,0-7.65,6.25c-2.17,3.47-4,7.1-4.51,11.29C126.62,322.75,126,326.46,125.49,330.18ZM206.18,168a6.87,6.87,0,0,0-1.45,0c-2.37.63-4.78,1.14-7.07,2-4.55,1.7-9,3.63-12.58,7.09a9.16,9.16,0,0,0-3.24,6.12,21.21,21.21,0,0,0,1,8.44,8.66,8.66,0,0,0,3.5,4.68A23.22,23.22,0,0,0,198.73,200c4,.08,8.05-.28,12.08-.31a64.62,64.62,0,0,0,20.46-3.93,9.87,9.87,0,0,0,4.17-2.5c2.38-2.55,4.7-5.15,7-7.74a2.62,2.62,0,0,0,.51-.88c1.3-3.78,2-7.51-.45-11.18a6.86,6.86,0,0,0-3.09-2.86c-1.39-.56-2.83-1-4.22-1.57-3.53-1.45-7.27-1.42-11-1.71.25,2,.52,3.77.7,5.6.5,4.93.58,9.82-1.47,14.5a15.06,15.06,0,0,1-5.68,7.07,5.89,5.89,0,0,1-4.95.51,8.71,8.71,0,0,1-5.58-4.44,15.52,15.52,0,0,0-1.08-1.49,16.42,16.42,0,0,1-2.67-6.8,23.54,23.54,0,0,1,2-12.17C205.78,169.48,205.92,168.84,206.18,168Zm82.58-2.91a44.43,44.43,0,0,0-5.56.49c-1.92.42-3.73,1.37-5.65,1.78a25.92,25.92,0,0,0-9.66,4.75,12.25,12.25,0,0,0-4.23,4.28c-1.26,2.52-.72,5,.16,7.3,1.61,4.28,5,7.17,8.77,9.42a51.66,51.66,0,0,0,18.91,6.41c2.15.32,4.33,1.14,6.44,1,3.46-.25,6.88.51,10.38-.16a27.53,27.53,0,0,0,7-2,17.48,17.48,0,0,0,8.71-8.84,6.94,6.94,0,0,0,.45-4.39,14.37,14.37,0,0,0-2.84-6.3c-3.68-4.37-8.53-7.07-13.81-9.61a22.08,22.08,0,0,1-.13,10.94c-1,3.6-1.64,7.25-4,10.39-3.09,4-5.65,4.62-9.69,3.67a7.21,7.21,0,0,1-4.94-4,22,22,0,0,1-2.62-10c0-1.64,0-3.29-.05-4.92a17.91,17.91,0,0,1,1.49-7.78C288.14,166.88,288.37,166.19,288.76,165.13Zm.38,14.78a26.58,26.58,0,0,0,2.41,8.72c1.78,3.35,5.22,3.61,7.66,1.31a13.15,13.15,0,0,0,3.53-5.45c1.46-4.33,2.23-8.73,1.21-13.26-.37-1.65-1.07-3.28-3-3.77-1.39-.35-2.8-.6-4.17-1a2.52,2.52,0,0,0-2.94.86,23.33,23.33,0,0,0-3.29,5.37A45.71,45.71,0,0,0,289.14,179.91ZM211,167.58c-.87,1.74-1.84,3.4-2.53,5.17a14.65,14.65,0,0,0-1,4.34c-.08,1.33.49,2.69.48,4,0,3.51,1.9,6.2,3.62,9a3.57,3.57,0,0,0,2,1.27,4.4,4.4,0,0,0,5.47-2.49c3.52-6.76,4-13.58.29-20.48a2.05,2.05,0,0,0-2.28-1.24C215.09,167.32,213.19,167.43,211,167.58Zm35.28,79.31c.73,2.81,1.42,5.42,2.08,8,.19.75.75.86,1.38,1,2.53.4,5-.13,7.56-.6l1.79-8.84Zm.29,193.87c-7.17-5-13.41-11.34-21-15.4l-11.9,6.19c1.79.63,3.19,1.48,4.92.25a15.37,15.37,0,0,1,4-2c4.75-1.57,3-2,7,.94,3.24,2.39,6.43,4.85,9.67,7.24A14.58,14.58,0,0,0,246.53,440.76Zm-38.38-11a3.39,3.39,0,0,0,4.11.28c3.56-1.88,7.25-3.52,10.9-5.22a5.3,5.3,0,0,1,5.28.22c1.28.79,2.62,1.5,3.82,2.38,3.47,2.54,6.84,5.24,10.36,7.72s6.92,4.64,10.41,6.9a10.66,10.66,0,0,0,2,.78l.17-.37c-10.27-6.83-19.59-15-30.38-20.86Zm78.63-16.67c.6.42.9.59,1.16.81l20.8,18c1.8,1.56,2.12,1.58,4.39.14l-24-20.16Zm3.55,17.65-25.22,10.72.13.42a18.56,18.56,0,0,0,6-1.28,168.5,168.5,0,0,1,19.84-7.78,6.9,6.9,0,0,0,1.11-.61Zm-44.51-39.68c-2.18-1.74-4.23-3.42-6.32-5-3.3-2.54-6.63-5-9.95-7.55-1.41-1.07-2.9-.94-4.47-.56l19.63,13.82Zm1.05-1.81c.64,1.11,1.32.74,2,.46l22-8.5c.49-.19,1-.42,1.45-.64-1.42.06-2.62-1-4.14-.31-3.53,1.63-7.17,3-10.76,4.52S250.41,387.8,246.88,389.3Zm62.48,10.36a4.84,4.84,0,0,0-1.93-4c-3.49-3.05-6.89-6.22-10.33-9.34l-4.38-4a1.92,1.92,0,0,0-2.41-.49Zm-43.56-20c-2.13-.84-2.7-.85-4-.31q-4.07,1.68-8.15,3.33L247,385.38c1.25,1.33,1.25,1.33,2.46.82,2-.86,4-1.75,6-2.55C258.84,382.34,262.16,381.1,265.8,379.71Zm-6.69-1,0-.41a7.3,7.3,0,0,0-2.58-.08c-2.1.75-4.12,1.73-6.47,2.75-.21-.13-.73-.41-1.21-.76-1.16-.85-2.3-1.72-3.45-2.59a3.24,3.24,0,0,0-3.52-.4l7,5.44Zm-12.46,8.67c-4.25-3.12-8.45-6.17-12.61-9.29a3,3,0,0,0-3-.59l14.66,11.21Zm-12,50.42.29-.42-9.11-7.63-5.61,3.45a1.74,1.74,0,0,0,2.54.16,9.69,9.69,0,0,1,1.9-1.2,1.71,1.71,0,0,1,1.32-.08,28.94,28.94,0,0,1,7,4.77A7.1,7.1,0,0,0,234.66,437.85Zm1.18-60.57,10,7.39,1.11-1.22c-2.44-1.85-4.84-3.64-7.19-5.47A4,4,0,0,0,235.84,377.28ZM308.23,394l.47-.43a16.16,16.16,0,0,0-1.39-1.89c-1.58-1.62-3.2-3.18-4.83-4.75s-3.17-3-4.77-4.51a1.76,1.76,0,0,0-2.3-.49Zm-.92-4.91c-.06-1.17.12-2.39-.92-3.18q-2.28-1.73-4.58-3.43c-.52-.38-1-.93-1.47-.82ZM283.1,438.24l.09.44,9.18-2-1.61-1.77Zm10.4-4.95-1.59,1c1.66.53,2.5,2.21,4.63,1.54Zm-69.1,1.4,4.53,1.43.2-.36-3.21-2.42ZM250,379.12l2.21-1.1c-1.27-.91-2.44-.68-3.9-.4Zm53.55,2.48,2.5,2.34.32-.18-.7-2.78ZM209,377.69l-.07-.44-1.78-.22-.39,1.91Zm2,1,.2.49,2.3-1-.21-.48Z" transform="translate(-122.12 -90.27)"/><path d="M179.69,135.57,177,132.16c1.21-.65,1.86,0,2.49.55,1.25,1.16,2.47,2.34,3.84,3.4-1.32-2-3.31-3.56-4.65-5.8,1.45-.55,2.09.35,2.77,1s1.28,1.27,2.39.29c-1.55-1.56-2.86-3.44-4.66-4.51a12.51,12.51,0,0,1-3.7-2.66c-.45-.57-.82-1.2-1.37-2a2.18,2.18,0,0,1,2.42,1c1.49,1.76,3.67,2.42,5.57,3.62l-2.91-3.37a2.2,2.2,0,0,1,2.48.69c2.12,1.93,4.2,3.91,6.29,5.87.51.48,1,1,1.51,1.49l.35-.31a4,4,0,0,0-.55-.87c-2.14-2-4.33-4-6.43-6a17.56,17.56,0,0,1-1.61-2.27A14.71,14.71,0,0,0,180,120.9c-2.12-2.23-4.27-4.44-6.37-6.69a28.59,28.59,0,0,1-1.75-2.34,3.25,3.25,0,0,1,2.62,1.19c2.09,2,4.12,4,6.18,6a18.4,18.4,0,0,0,3.2,2.62,3.83,3.83,0,0,0-.52-1c-2.22-2.23-4.47-4.43-6.69-6.66-.71-.71-1.35-1.48-2.2-2.43a2.64,2.64,0,0,1,2.58.9c2.69,2.42,5.32,4.91,8,7.38.3.28.5.7.84.89a16.8,16.8,0,0,0,1.91.8l.28-.47-9.2-8.22,1.17-.83c-2.93-1.62-5.73-3.18-8.54-4.71-1.68-.91-3.42-1.72-5.09-2.65a9.33,9.33,0,0,1-1.54-1.37l.27-.47c1,.3,2.07.52,3.06.91,2.8,1.11,5.59,2.21,8.34,3.44a82.33,82.33,0,0,1,8.44,4.13,46.65,46.65,0,0,1,6.55,4.91,122.28,122.28,0,0,0,14.07,10.6c.74.47,1.47,1,2.28,1.51-.63.84-1.28.44-1.88.27-2.69-.78-5.35-1.67-8.07-2.33s-5.34-1-8.3-1.61a10.6,10.6,0,0,0,2.77,3.57c1.45,1.44,2.88,2.91,4.21,4.47a2.26,2.26,0,0,1,.51,1.83c-.27.76-1.15.67-1.95.64-2.77-.08-5.55,0-8.71,0l2.42,3.65a3.86,3.86,0,0,1,.58.83c.09.29.12.8,0,.94a1.25,1.25,0,0,1-1.07.28,17.77,17.77,0,0,1-2.08-1.45c-.73.7-1.54.41-2.35-.29-.67-.57-1.41-1.06-2.11-1.58Zm7.14-18.32c2,1.83,3.37,4.37,6.1,5.36C190.95,120.76,189.24,118.61,186.84,117.24Z" transform="translate(-122.12 -90.27)"/><path d="M332.1,125.92,330,127a2.1,2.1,0,0,1-1.13,2.54c-2,1.34-3.9,2.72-5.85,4.08.61.84,1.12.64,1.74.1q2.16-1.89,4.41-3.68a3.36,3.36,0,0,1,2.34-.9c-.23,1.7-1.64,2.21-2.56,3.1s-2,1.82-3.08,2.78c.45.73.92.9,1.53.43,1-.78,2-1.62,3.1-2.36a7.13,7.13,0,0,1,2.34-1.07c-.44,2.43-2.83,3.1-4.17,4.84l.59,1.47c1.38-1.09,2.3-2.65,4.18-3a1.59,1.59,0,0,1-.66,1.87c-1.27,1.12-2.6,2.18-3.89,3.28-.61.52-1.18,1.1-1.82,1.69,1.27,1.75,3.77,1.89,4.66,4a1.47,1.47,0,0,1-2,.2c-1.39-.88-2.8-1.72-4.11-2.7-1.12-.83-1.1-1.28-.16-2.33.58-.65,1.19-1.27,2-2.16-1-.56-1.68-1-2.44-1.39q-2.71-1.22-5.46-2.32c-.93-.37-1.95-.53-2.87-.92a26.11,26.11,0,0,1-3.43-1.73c-.88-.54-.81-1.32.17-1.91,1.28-.78,2.62-1.47,3.95-2.18.83-.45,1.68-.87,2.84-1.46a9.36,9.36,0,0,0-4.56-.69c-2.59.15-4.92-.92-7.36-1.49-.09,0-.14-.22-.34-.54,1.18-1.18,2.81-1.78,4.18-2.71s2.84-1.64,4.24-2.5,3.12-1.22,4.5-2.68l-3.74-1.49c-.13-1,.55-1.3,1.15-1.59,6.75-3.3,13.5-6.58,20.54-9.23a3.87,3.87,0,0,1,2.08-.27,5.25,5.25,0,0,1-.92.79c-3.51,1.84-7,3.64-10.55,5.47-.9.47-1.78,1-2.67,1.45l.17.43,3.36-1.19.24.35-3.43,2.87c2.63-1,4.57-2.67,7.29-2.52a16.62,16.62,0,0,1-2.13,1.68c-3,1.71-6.12,3.32-9.16,5a15.45,15.45,0,0,0-1.71,1.27l.22.38c.65-.31,1.3-.59,1.93-.92,3.15-1.64,6.29-3.31,9.46-4.92a20.39,20.39,0,0,1,2.73-.9,3.5,3.5,0,0,1-2.21,2.38c-4.14,2.26-8.31,4.46-12.47,6.69-.57.3-1.12.64-1.86,1.05a2.55,2.55,0,0,0,3.24.09q4.36-2.5,8.77-4.91a16.84,16.84,0,0,1,2.31-.84,1.83,1.83,0,0,1-1.2,2c-1.75,1.07-3.54,2.07-5.31,3.1l-3.09,1.83.18.36a6.11,6.11,0,0,0,1.07-.3c1.17-.56,2.31-1.19,3.49-1.74a10.32,10.32,0,0,1,4-1.41c.81,0,1.59-.73,2.4-1.09s1.46-.56,2.57-1c-.26.79-.26,1.3-.5,1.45-1.38.88-2.8,1.67-4.22,2.5-.06,0-.14.08-.19.06-1.74-.61-2.91.61-4.21,1.34s-2.55,1.54-3.84,2.3c-1.53.9-3.09,1.76-4.61,2.67-.6.36-1.13.82-1.69,1.24l.23.4a6.08,6.08,0,0,0,.86-.28c1.59-.79,3.19-1.56,4.75-2.4a11.72,11.72,0,0,0,1.82-1.29,25.5,25.5,0,0,1,6.36-3.35v1.6A1.93,1.93,0,0,0,332.1,125.92Zm-8.35,5-.24-.39-1.56,1,.19.32Zm3-2-.29-.37-1.25,1,.17.26Z" transform="translate(-122.12 -90.27)"/><path d="M170.71,114.13c.66.16,1.34.13,1.69.45,2,1.9,4,3.86,6,5.86.23.23.08.83.11,1.26-.43,0-1,.11-1.25-.11-2.21-2.21-4.36-4.48-6.52-6.74C170.68,114.82,170.71,114.72,170.71,114.13Z" transform="translate(-122.12 -90.27)"/><path d="M179.69,135.57l2.11,2,.44,1.76a1.23,1.23,0,0,1-1.82-.2c-1.21-1.18-2.44-2.33-3.6-3.56a1.39,1.39,0,0,1-.34-1.2c.35-.68.93-.28,1.38,0C178.49,134.73,179.08,135.16,179.69,135.57Z" transform="translate(-122.12 -90.27)"/><path d="M173.13,124.37a10.32,10.32,0,0,1,1.68,1q1.86,1.6,3.59,3.34c.2.2.08.71.12,1.07-.37,0-.87.19-1.08,0a22,22,0,0,1-4.72-5Z" transform="translate(-122.12 -90.27)"/><path d="M332.1,125.92a1.93,1.93,0,0,1,.26-.21l4.28-2.25c.19.47.37.7.31.81a4.43,4.43,0,0,1-4.39,2.21C332.37,126.45,332.25,126.12,332.1,125.92Z" transform="translate(-122.12 -90.27)"/><path d="M336.58,127.93c-.66,1.45-2,1.84-3.69,2.17A5.52,5.52,0,0,1,336.58,127.93Z" transform="translate(-122.12 -90.27)"/><path d="M253.94,217c-.73.66-1.32,1.11-1.82,1.64-2.95,3.16-6.49,5.4-10.84,5.61-5.35.25-10-1.58-13.09-6.18-2-3-1.37-6.33-.28-9.5a4.51,4.51,0,0,1,3.07-2.54,1.67,1.67,0,0,1,2.13.73,1.43,1.43,0,0,1-.48,2.14,3.56,3.56,0,0,0-1.55,4.14c1.13,4.63,2.75,7.39,8.38,7.06,5.35-.31,9.18-3.24,11.92-7.67a2.85,2.85,0,0,1,4.24-.88,13.78,13.78,0,0,1,1.72,2c1.3,1.58,2.51,3.24,3.89,4.74a6.79,6.79,0,0,0,4.74,2.16,34.74,34.74,0,0,0,3.69.16c4.37-.21,8.05-2.46,8.83-7.78a7.62,7.62,0,0,0-.2-2.21c-.07-.47-.33-.91-.38-1.38a1.62,1.62,0,0,1,1-1.82,1.46,1.46,0,0,1,1.91.77,7.64,7.64,0,0,1,1,2.46c.79,6.42-1.57,11.06-7.81,13.2a16,16,0,0,1-12.57-1.19,28.69,28.69,0,0,1-2.89-1.55,24.23,24.23,0,0,1-2.5-2C255.42,218.51,254.8,217.88,253.94,217Z" transform="translate(-122.12 -90.27)"/><path d="M289.36,406.83a4.47,4.47,0,0,1-2.38,1.68c-2.51,1.07-5.06,2.06-7.58,3.12-5.92,2.49-11.83,5-17.74,7.5-1.07.45-2.14.92-3.24,1.27a9,9,0,0,1-1.87.2c-.29-1.36.6-1.49,1.25-1.77,4.82-2.11,9.61-4.29,14.47-6.29,4.67-1.92,9.43-3.65,14.15-5.44.87-.33,1.78-.53,2.67-.79Z" transform="translate(-122.12 -90.27)"/><path d="M224.68,400.16a5.58,5.58,0,0,1,4.14,1.18c2.27,1.39,4.5,2.86,6.66,4.42,3.43,2.48,6.76,5.1,10.19,7.6s6.69,4.73,10,7.09c.31.22.59.47.89.7l-.19.41a14.21,14.21,0,0,1-2.58-.92c-2.3-1.34-4.6-2.7-6.77-4.22-6.87-4.83-13.7-9.74-20.53-14.63C226,401.37,225.45,400.83,224.68,400.16Z" transform="translate(-122.12 -90.27)"/><path d="M256.31,431.72a16.41,16.41,0,0,1-2.81-1,65.23,65.23,0,0,1-5.6-3.4c-6.58-4.54-13.13-9.13-19.68-13.72-.52-.36-1-.83-1.53-1.32a1.86,1.86,0,0,1,2.32.1c2.06,1.2,4.14,2.4,6.11,3.76,4,2.8,8,5.74,12,8.56,2.74,1.92,5.56,3.72,8.34,5.59.37.25.72.54,1.07.82Z" transform="translate(-122.12 -90.27)"/><path d="M260.11,435.35c.22-.36.36-.84.68-1.07a12.22,12.22,0,0,1,2.15-1.17q10.62-4.57,21.25-9.09c1.24-.53,1.26-.49,2.29.62-.82.43-1.57.88-2.37,1.23q-10.67,4.71-21.36,9.37C262,435.57,261.18,436.15,260.11,435.35Z" transform="translate(-122.12 -90.27)"/></svg>