<svg id="Layer_3" data-name="Layer 3" xmlns="http://www.w3.org/2000/svg" viewBox="0 0 274.1 424.55"><defs><style>.cls-1{fill:none;stroke:#a9a9a9;stroke-miterlimit:10;}</style></defs><title>neko_obgryz</title><path class="cls-1" d="M325.07,361.33l-1.56.09a2.85,2.85,0,0,0-1.13.21c-.94.45-.61,1.46-.3,2.2.19.46.39.92.57,1.39a5.13,5.13,0,0,1-.7,5l-5.45,7.08a5.16,5.16,0,0,0-1,4.25c1.77,8.19,7.59,35.09,7.59,35.83s2.18,12.73,2.93,16.85a3.89,3.89,0,0,1-.43,2.59l-.81,1.45a6.55,6.55,0,0,1-4.23,3.19l-9.83,2.31a2.25,2.25,0,0,0-1.7,2.62l4.65,24.21a4.36,4.36,0,0,0,2.6,3.2l12.3,5.17,7.13,3.06a2.34,2.34,0,0,1,1.3,1.41l2.13,6.39a6,6,0,0,1-.95,5.55L334,500.71a39,39,0,0,1-3.84,3.75l-1.83,1.65h0a8.43,8.43,0,0,1-5.17,1.77h-34.9a5.26,5.26,0,0,1-5.11-4l-12.72-51.3A2.16,2.16,0,0,0,268,451l-13.65,1.89a4.17,4.17,0,0,1-1.83-.16l-11.25-3.56a1.67,1.67,0,0,0-2.12,1.2l-3.69,16.16c-1.88,8.23-3.93,16.45-5.65,24.72a59.35,59.35,0,0,1-4.67,13.24c-1.31,2.24-4.52,3.42-7.12,3.42H184.87a9,9,0,0,1-8.34-5.58l-5.12-12.4a3.57,3.57,0,0,1,.41-3.46l2.69-3.71a9,9,0,0,1,4.14-3.16l18.13-6.8a4,4,0,0,0,2.54-3.24q.89-7.69,1.58-15.4.35-3.85.65-7.71.16-2,.3-4c.07-.92.51-2.35-.32-3a4,4,0,0,0-1.64-.66,42,42,0,0,1-5.58-1.81c-1.4-.56-3-.71-4.29-1.53-1.45-.92-2-2.61-2.68-4.07a6.78,6.78,0,0,1-.51-4.54l1.55-6.63,4.78-20.42,4.5-19.25,1.39-5.93h0l-9.25-10.41h0l-21.4-9.83h0s-7.52,9-8.68,9.54c-4.48,2.24-8.71,1.68-14.46.87-7.37-1-13.06-1.84-17.93-5.78-7.13-5.77-8.11-14.74-9.25-25.16-1-8.94-2.06-18.77,3.76-28.63a33.77,33.77,0,0,1,13.3-12.72c3.11-1.63,10-5.09,18.8-3.47a27.14,27.14,0,0,1,13.08,6.47,3.35,3.35,0,0,0,4.27.12l2.07-1.6a1.25,1.25,0,0,1,1-.23l6.1,1.31h0s10.15-3.8,10.75-4.62,11.86-15.33,11.86-15.33h0s10.89-7.89,11.15-8.83a8.41,8.41,0,0,0-.86-2.58,1.56,1.56,0,0,0-1.86-.93l-16.65,4.48A1.54,1.54,0,0,1,193,266L190.7,252.5a1.13,1.13,0,0,0-1.6-.79L172,259.91a3.43,3.43,0,0,1-3,0l-4.51-2.25a3.09,3.09,0,0,1-1.69-2.43l-1.81-17.34a1.66,1.66,0,0,0-2.18-1.31L150.55,240a3.13,3.13,0,0,1-3.52-1.46l-3.48-6a9.38,9.38,0,0,1-1.18-5.88c.38-3,1.08-6.39,1.49-9.34a92.3,92.3,0,0,1,6.73-23.92,1.9,1.9,0,0,0-1.57-2.65h0a2.76,2.76,0,0,1-2.37-3.6l2.28-7a3.45,3.45,0,0,1,.33-.73L161.6,159a1.1,1.1,0,0,0-.18-1.37l-9.83-9.33a2.79,2.79,0,0,1-.86-1.86l-.14-2.45a1.84,1.84,0,0,1,1.2-1.84l5.78-2.12a1.72,1.72,0,0,0,1-2.2l-9.1-24.63a3.64,3.64,0,0,1-.19-.74l-2.42-16.64a1.67,1.67,0,0,1,.57-1.51h0l2.59-.86a1.76,1.76,0,0,0,1.2-1.56l.36-5.51a1.23,1.23,0,0,1,1.08-1.14l7.5-.91a4.24,4.24,0,0,1,2,.24L195,96.87a15.64,15.64,0,0,1,2.09,1c3.57,2,7.41,3.47,11,5.29a30.09,30.09,0,0,0,3.72,1.49c.75.26,2.14,1.15,3.07,1,2.1-.32,4.21-.59,6.31-.87l7.95-1.05,15.7-2,2-.1,12.53.39a31.5,31.5,0,0,1,6.56.9l20.21,5a4,4,0,0,0,2.84-.37l10.32-5.63a24.78,24.78,0,0,1,3.85-1.69l10.12-3.46a164.27,164.27,0,0,1,24.36-6.74c2.28-.46,9.42-2,15.2-2.6a9.94,9.94,0,0,1,5.1.53,10.3,10.3,0,0,1,2.31,1.67,10,10,0,0,1,2.1,2.25,4.43,4.43,0,0,1,.49,3.15L360,109.61l-5.1,20.54a15.49,15.49,0,0,0-.1,7l2,9.28.89,4.36a8.44,8.44,0,0,1-1.16,6.24q-1.21,1.89-2.4,3.8a12.23,12.23,0,0,0-1.55,2.38,3.8,3.8,0,0,0,.62,2.89,42.25,42.25,0,0,1,3.55,8.45c.32,1.31.47,2.73.72,4.07l2,10.8,1.2,6.54a21.64,21.64,0,0,1,.31,2.59c1.18,19.69,1.47,26.28-.79,35.81a2.45,2.45,0,0,1-1.67,1.77l-.41.13a5,5,0,0,1-3.87-.38l-4.53-2.44a.87.87,0,0,0-1.27.67l-1.92,17.54a5.12,5.12,0,0,1-2.14,3.62l-1.62,1.15a2.33,2.33,0,0,1-2.77-.06l-10.35-8a.87.87,0,0,0-1.37.45l-3.58,12.4a3.42,3.42,0,0,1-1.7,2.08l-2.85,1.49a3.39,3.39,0,0,1-4.24-.92l-4.7-6a.82.82,0,0,0-1.37.13l-3.3,6.42a2.27,2.27,0,0,1-3,1l-5.85-2.93a1,1,0,0,0-1.46.86l-.17,4.07a2,2,0,0,0,1.12,1.9l7,3.51a5.35,5.35,0,0,1,1.8,1.46l8.8,11.07,4.89,6.15c1.89,2.38,3.41,4.33,6.59,4.81,1.8.27,3.63.26,5.42.55,2,.32,3.84,1.1,5.86,1,3.7-.18,5.58-3.71,8-5.94a16.15,16.15,0,0,1,4-2.83c5.09-2.35,12-2,17.23-.41a26.71,26.71,0,0,1,3.75,1.45,28.55,28.55,0,0,1,12.15,10.69c9,15.55,10.74,38,2,52.05a30.63,30.63,0,0,1-10.41,10.7,26.36,26.36,0,0,1-15.62,4,26,26,0,0,1-15.21-6.57,2.67,2.67,0,0,0-1.41-.65Z" transform="translate(-116.83 -83.83)"/></svg>