<svg id="Layer_5" data-name="Layer 5" xmlns="http://www.w3.org/2000/svg" viewBox="0 0 98.04 26.25"><defs><style>.cls-1,.cls-2{fill:none;stroke-miterlimit:10;}.cls-1{stroke:#a9a9a9;}.cls-2{stroke:#b4b6b9;}</style></defs><title>oczusie</title><path class="cls-1" d="M289.33,179.94a19.07,19.07,0,0,0,2.22,8.72c1.78,3.35,5.22,3.61,7.66,1.31a13.15,13.15,0,0,0,3.53-5.45c1.46-4.33,2.23-8.73,1.21-13.26-.37-1.65-1.07-3.28-3-3.77-1.39-.35-2.8-.6-4.17-1a2.52,2.52,0,0,0-2.94.86,23.33,23.33,0,0,0-3.29,5.37A20.86,20.86,0,0,0,289.33,179.94Z" transform="translate(-206.88 -165.85)"/><path class="cls-2" d="M212.29,167.52a2.36,2.36,0,0,0-1.94,1.26,41.35,41.35,0,0,0-1.93,4,14.65,14.65,0,0,0-1,4.34,20.92,20.92,0,0,0,.43,4.22,18.93,18.93,0,0,0,1.85,5.83c.86,1.69,1.86,3.69,3.82,4.22A4.4,4.4,0,0,0,219,188.9c3.52-6.76,4-13.58.29-20.48a2.05,2.05,0,0,0-2.28-1.24C215.47,167.31,214,167.41,212.29,167.52Z" transform="translate(-206.88 -165.85)"/></svg>