%TF.GenerationSoftware,KiCad,Pcbnew,7.0.9*%
%TF.CreationDate,2023-12-02T23:17:25+01:00*%
%TF.ProjectId,pilkbadge,70696c6b-6261-4646-9765-2e6b69636164,rev?*%
%TF.SameCoordinates,Original*%
%TF.FileFunction,Legend,Bot*%
%TF.FilePolarity,Positive*%
%FSLAX46Y46*%
G04 Gerber Fmt 4.6, Leading zero omitted, Abs format (unit mm)*
G04 Created by KiCad (PCBNEW 7.0.9) date 2023-12-02 23:17:25*
%MOMM*%
%LPD*%
G01*
G04 APERTURE LIST*
%ADD10C,0.150000*%
%ADD11C,0.120000*%
%ADD12C,0.140000*%
G04 APERTURE END LIST*
D10*
X97500000Y-54000000D02*
X98500000Y-54000000D01*
X118250000Y-53500000D02*
X118250000Y-54500000D01*
X98000000Y-53500000D02*
X98000000Y-54500000D01*
X117750000Y-54000000D02*
X118750000Y-54000000D01*
X128201316Y-86103152D02*
X128963220Y-86388866D01*
X128963220Y-86388866D02*
X128201316Y-86674580D01*
X127725125Y-86388866D02*
X126963221Y-86388866D01*
X126487030Y-86769819D02*
X126487030Y-86103152D01*
X126487030Y-85769819D02*
X126534649Y-85817438D01*
X126534649Y-85817438D02*
X126487030Y-85865057D01*
X126487030Y-85865057D02*
X126439411Y-85817438D01*
X126439411Y-85817438D02*
X126487030Y-85769819D01*
X126487030Y-85769819D02*
X126487030Y-85865057D01*
X126010840Y-86103152D02*
X126010840Y-86769819D01*
X126010840Y-86198390D02*
X125963221Y-86150771D01*
X125963221Y-86150771D02*
X125867983Y-86103152D01*
X125867983Y-86103152D02*
X125725126Y-86103152D01*
X125725126Y-86103152D02*
X125629888Y-86150771D01*
X125629888Y-86150771D02*
X125582269Y-86246009D01*
X125582269Y-86246009D02*
X125582269Y-86769819D01*
X125153697Y-86722200D02*
X125058459Y-86769819D01*
X125058459Y-86769819D02*
X124867983Y-86769819D01*
X124867983Y-86769819D02*
X124772745Y-86722200D01*
X124772745Y-86722200D02*
X124725126Y-86626961D01*
X124725126Y-86626961D02*
X124725126Y-86579342D01*
X124725126Y-86579342D02*
X124772745Y-86484104D01*
X124772745Y-86484104D02*
X124867983Y-86436485D01*
X124867983Y-86436485D02*
X125010840Y-86436485D01*
X125010840Y-86436485D02*
X125106078Y-86388866D01*
X125106078Y-86388866D02*
X125153697Y-86293628D01*
X125153697Y-86293628D02*
X125153697Y-86246009D01*
X125153697Y-86246009D02*
X125106078Y-86150771D01*
X125106078Y-86150771D02*
X125010840Y-86103152D01*
X125010840Y-86103152D02*
X124867983Y-86103152D01*
X124867983Y-86103152D02*
X124772745Y-86150771D01*
X123915602Y-86722200D02*
X124010840Y-86769819D01*
X124010840Y-86769819D02*
X124201316Y-86769819D01*
X124201316Y-86769819D02*
X124296554Y-86722200D01*
X124296554Y-86722200D02*
X124344173Y-86626961D01*
X124344173Y-86626961D02*
X124344173Y-86246009D01*
X124344173Y-86246009D02*
X124296554Y-86150771D01*
X124296554Y-86150771D02*
X124201316Y-86103152D01*
X124201316Y-86103152D02*
X124010840Y-86103152D01*
X124010840Y-86103152D02*
X123915602Y-86150771D01*
X123915602Y-86150771D02*
X123867983Y-86246009D01*
X123867983Y-86246009D02*
X123867983Y-86341247D01*
X123867983Y-86341247D02*
X124344173Y-86436485D01*
X123439411Y-86769819D02*
X123439411Y-86103152D01*
X123439411Y-86293628D02*
X123391792Y-86198390D01*
X123391792Y-86198390D02*
X123344173Y-86150771D01*
X123344173Y-86150771D02*
X123248935Y-86103152D01*
X123248935Y-86103152D02*
X123153697Y-86103152D01*
X122963220Y-86103152D02*
X122582268Y-86103152D01*
X122820363Y-85769819D02*
X122820363Y-86626961D01*
X122820363Y-86626961D02*
X122772744Y-86722200D01*
X122772744Y-86722200D02*
X122677506Y-86769819D01*
X122677506Y-86769819D02*
X122582268Y-86769819D01*
X121487029Y-86769819D02*
X121487029Y-85769819D01*
X121487029Y-86150771D02*
X121391791Y-86103152D01*
X121391791Y-86103152D02*
X121201315Y-86103152D01*
X121201315Y-86103152D02*
X121106077Y-86150771D01*
X121106077Y-86150771D02*
X121058458Y-86198390D01*
X121058458Y-86198390D02*
X121010839Y-86293628D01*
X121010839Y-86293628D02*
X121010839Y-86579342D01*
X121010839Y-86579342D02*
X121058458Y-86674580D01*
X121058458Y-86674580D02*
X121106077Y-86722200D01*
X121106077Y-86722200D02*
X121201315Y-86769819D01*
X121201315Y-86769819D02*
X121391791Y-86769819D01*
X121391791Y-86769819D02*
X121487029Y-86722200D01*
X120201315Y-86722200D02*
X120296553Y-86769819D01*
X120296553Y-86769819D02*
X120487029Y-86769819D01*
X120487029Y-86769819D02*
X120582267Y-86722200D01*
X120582267Y-86722200D02*
X120629886Y-86626961D01*
X120629886Y-86626961D02*
X120629886Y-86246009D01*
X120629886Y-86246009D02*
X120582267Y-86150771D01*
X120582267Y-86150771D02*
X120487029Y-86103152D01*
X120487029Y-86103152D02*
X120296553Y-86103152D01*
X120296553Y-86103152D02*
X120201315Y-86150771D01*
X120201315Y-86150771D02*
X120153696Y-86246009D01*
X120153696Y-86246009D02*
X120153696Y-86341247D01*
X120153696Y-86341247D02*
X120629886Y-86436485D01*
X119725124Y-86103152D02*
X119725124Y-87103152D01*
X119725124Y-86150771D02*
X119629886Y-86103152D01*
X119629886Y-86103152D02*
X119439410Y-86103152D01*
X119439410Y-86103152D02*
X119344172Y-86150771D01*
X119344172Y-86150771D02*
X119296553Y-86198390D01*
X119296553Y-86198390D02*
X119248934Y-86293628D01*
X119248934Y-86293628D02*
X119248934Y-86579342D01*
X119248934Y-86579342D02*
X119296553Y-86674580D01*
X119296553Y-86674580D02*
X119344172Y-86722200D01*
X119344172Y-86722200D02*
X119439410Y-86769819D01*
X119439410Y-86769819D02*
X119629886Y-86769819D01*
X119629886Y-86769819D02*
X119725124Y-86722200D01*
X118820362Y-86769819D02*
X118820362Y-86103152D01*
X118820362Y-85769819D02*
X118867981Y-85817438D01*
X118867981Y-85817438D02*
X118820362Y-85865057D01*
X118820362Y-85865057D02*
X118772743Y-85817438D01*
X118772743Y-85817438D02*
X118820362Y-85769819D01*
X118820362Y-85769819D02*
X118820362Y-85865057D01*
X118391791Y-86722200D02*
X118296553Y-86769819D01*
X118296553Y-86769819D02*
X118106077Y-86769819D01*
X118106077Y-86769819D02*
X118010839Y-86722200D01*
X118010839Y-86722200D02*
X117963220Y-86626961D01*
X117963220Y-86626961D02*
X117963220Y-86579342D01*
X117963220Y-86579342D02*
X118010839Y-86484104D01*
X118010839Y-86484104D02*
X118106077Y-86436485D01*
X118106077Y-86436485D02*
X118248934Y-86436485D01*
X118248934Y-86436485D02*
X118344172Y-86388866D01*
X118344172Y-86388866D02*
X118391791Y-86293628D01*
X118391791Y-86293628D02*
X118391791Y-86246009D01*
X118391791Y-86246009D02*
X118344172Y-86150771D01*
X118344172Y-86150771D02*
X118248934Y-86103152D01*
X118248934Y-86103152D02*
X118106077Y-86103152D01*
X118106077Y-86103152D02*
X118010839Y-86150771D01*
D11*
X114799624Y-70245855D02*
X115180576Y-70245855D01*
X115180576Y-70245855D02*
X115180576Y-69445855D01*
X114532957Y-70245855D02*
X114532957Y-69445855D01*
X114152005Y-70245855D02*
X114152005Y-69445855D01*
X114152005Y-69445855D02*
X113847243Y-69445855D01*
X113847243Y-69445855D02*
X113771053Y-69483950D01*
X113771053Y-69483950D02*
X113732958Y-69522045D01*
X113732958Y-69522045D02*
X113694862Y-69598236D01*
X113694862Y-69598236D02*
X113694862Y-69712521D01*
X113694862Y-69712521D02*
X113732958Y-69788712D01*
X113732958Y-69788712D02*
X113771053Y-69826807D01*
X113771053Y-69826807D02*
X113847243Y-69864902D01*
X113847243Y-69864902D02*
X114152005Y-69864902D01*
X113199624Y-69445855D02*
X113047243Y-69445855D01*
X113047243Y-69445855D02*
X112971053Y-69483950D01*
X112971053Y-69483950D02*
X112894862Y-69560140D01*
X112894862Y-69560140D02*
X112856767Y-69712521D01*
X112856767Y-69712521D02*
X112856767Y-69979188D01*
X112856767Y-69979188D02*
X112894862Y-70131569D01*
X112894862Y-70131569D02*
X112971053Y-70207760D01*
X112971053Y-70207760D02*
X113047243Y-70245855D01*
X113047243Y-70245855D02*
X113199624Y-70245855D01*
X113199624Y-70245855D02*
X113275815Y-70207760D01*
X113275815Y-70207760D02*
X113352005Y-70131569D01*
X113352005Y-70131569D02*
X113390101Y-69979188D01*
X113390101Y-69979188D02*
X113390101Y-69712521D01*
X113390101Y-69712521D02*
X113352005Y-69560140D01*
X113352005Y-69560140D02*
X113275815Y-69483950D01*
X113275815Y-69483950D02*
X113199624Y-69445855D01*
X112513910Y-69941093D02*
X111904387Y-69941093D01*
X112209148Y-70245855D02*
X112209148Y-69636331D01*
D12*
X102693609Y-45035577D02*
X102693609Y-44135577D01*
X102693609Y-44135577D02*
X102350752Y-44135577D01*
X102350752Y-44135577D02*
X102265037Y-44178434D01*
X102265037Y-44178434D02*
X102222180Y-44221291D01*
X102222180Y-44221291D02*
X102179323Y-44307005D01*
X102179323Y-44307005D02*
X102179323Y-44435577D01*
X102179323Y-44435577D02*
X102222180Y-44521291D01*
X102222180Y-44521291D02*
X102265037Y-44564148D01*
X102265037Y-44564148D02*
X102350752Y-44607005D01*
X102350752Y-44607005D02*
X102693609Y-44607005D01*
X101793609Y-45035577D02*
X101793609Y-44435577D01*
X101793609Y-44135577D02*
X101836466Y-44178434D01*
X101836466Y-44178434D02*
X101793609Y-44221291D01*
X101793609Y-44221291D02*
X101750752Y-44178434D01*
X101750752Y-44178434D02*
X101793609Y-44135577D01*
X101793609Y-44135577D02*
X101793609Y-44221291D01*
X101236466Y-45035577D02*
X101322181Y-44992720D01*
X101322181Y-44992720D02*
X101365038Y-44907005D01*
X101365038Y-44907005D02*
X101365038Y-44135577D01*
X100893609Y-45035577D02*
X100893609Y-44135577D01*
X100807895Y-44692720D02*
X100550752Y-45035577D01*
X100550752Y-44435577D02*
X100893609Y-44778434D01*
X100165038Y-45035577D02*
X100165038Y-44135577D01*
X100165038Y-44478434D02*
X100079324Y-44435577D01*
X100079324Y-44435577D02*
X99907895Y-44435577D01*
X99907895Y-44435577D02*
X99822181Y-44478434D01*
X99822181Y-44478434D02*
X99779324Y-44521291D01*
X99779324Y-44521291D02*
X99736466Y-44607005D01*
X99736466Y-44607005D02*
X99736466Y-44864148D01*
X99736466Y-44864148D02*
X99779324Y-44949862D01*
X99779324Y-44949862D02*
X99822181Y-44992720D01*
X99822181Y-44992720D02*
X99907895Y-45035577D01*
X99907895Y-45035577D02*
X100079324Y-45035577D01*
X100079324Y-45035577D02*
X100165038Y-44992720D01*
X98965038Y-45035577D02*
X98965038Y-44564148D01*
X98965038Y-44564148D02*
X99007895Y-44478434D01*
X99007895Y-44478434D02*
X99093609Y-44435577D01*
X99093609Y-44435577D02*
X99265038Y-44435577D01*
X99265038Y-44435577D02*
X99350752Y-44478434D01*
X98965038Y-44992720D02*
X99050752Y-45035577D01*
X99050752Y-45035577D02*
X99265038Y-45035577D01*
X99265038Y-45035577D02*
X99350752Y-44992720D01*
X99350752Y-44992720D02*
X99393609Y-44907005D01*
X99393609Y-44907005D02*
X99393609Y-44821291D01*
X99393609Y-44821291D02*
X99350752Y-44735577D01*
X99350752Y-44735577D02*
X99265038Y-44692720D01*
X99265038Y-44692720D02*
X99050752Y-44692720D01*
X99050752Y-44692720D02*
X98965038Y-44649862D01*
X98150752Y-45035577D02*
X98150752Y-44135577D01*
X98150752Y-44992720D02*
X98236466Y-45035577D01*
X98236466Y-45035577D02*
X98407894Y-45035577D01*
X98407894Y-45035577D02*
X98493609Y-44992720D01*
X98493609Y-44992720D02*
X98536466Y-44949862D01*
X98536466Y-44949862D02*
X98579323Y-44864148D01*
X98579323Y-44864148D02*
X98579323Y-44607005D01*
X98579323Y-44607005D02*
X98536466Y-44521291D01*
X98536466Y-44521291D02*
X98493609Y-44478434D01*
X98493609Y-44478434D02*
X98407894Y-44435577D01*
X98407894Y-44435577D02*
X98236466Y-44435577D01*
X98236466Y-44435577D02*
X98150752Y-44478434D01*
X97336466Y-44435577D02*
X97336466Y-45164148D01*
X97336466Y-45164148D02*
X97379323Y-45249862D01*
X97379323Y-45249862D02*
X97422180Y-45292720D01*
X97422180Y-45292720D02*
X97507894Y-45335577D01*
X97507894Y-45335577D02*
X97636466Y-45335577D01*
X97636466Y-45335577D02*
X97722180Y-45292720D01*
X97336466Y-44992720D02*
X97422180Y-45035577D01*
X97422180Y-45035577D02*
X97593608Y-45035577D01*
X97593608Y-45035577D02*
X97679323Y-44992720D01*
X97679323Y-44992720D02*
X97722180Y-44949862D01*
X97722180Y-44949862D02*
X97765037Y-44864148D01*
X97765037Y-44864148D02*
X97765037Y-44607005D01*
X97765037Y-44607005D02*
X97722180Y-44521291D01*
X97722180Y-44521291D02*
X97679323Y-44478434D01*
X97679323Y-44478434D02*
X97593608Y-44435577D01*
X97593608Y-44435577D02*
X97422180Y-44435577D01*
X97422180Y-44435577D02*
X97336466Y-44478434D01*
X96565037Y-44992720D02*
X96650751Y-45035577D01*
X96650751Y-45035577D02*
X96822180Y-45035577D01*
X96822180Y-45035577D02*
X96907894Y-44992720D01*
X96907894Y-44992720D02*
X96950751Y-44907005D01*
X96950751Y-44907005D02*
X96950751Y-44564148D01*
X96950751Y-44564148D02*
X96907894Y-44478434D01*
X96907894Y-44478434D02*
X96822180Y-44435577D01*
X96822180Y-44435577D02*
X96650751Y-44435577D01*
X96650751Y-44435577D02*
X96565037Y-44478434D01*
X96565037Y-44478434D02*
X96522180Y-44564148D01*
X96522180Y-44564148D02*
X96522180Y-44649862D01*
X96522180Y-44649862D02*
X96950751Y-44735577D01*
X102693609Y-46484577D02*
X102693609Y-45884577D01*
X102693609Y-46056005D02*
X102650752Y-45970291D01*
X102650752Y-45970291D02*
X102607895Y-45927434D01*
X102607895Y-45927434D02*
X102522180Y-45884577D01*
X102522180Y-45884577D02*
X102436466Y-45884577D01*
X101793609Y-46441720D02*
X101879323Y-46484577D01*
X101879323Y-46484577D02*
X102050752Y-46484577D01*
X102050752Y-46484577D02*
X102136466Y-46441720D01*
X102136466Y-46441720D02*
X102179323Y-46356005D01*
X102179323Y-46356005D02*
X102179323Y-46013148D01*
X102179323Y-46013148D02*
X102136466Y-45927434D01*
X102136466Y-45927434D02*
X102050752Y-45884577D01*
X102050752Y-45884577D02*
X101879323Y-45884577D01*
X101879323Y-45884577D02*
X101793609Y-45927434D01*
X101793609Y-45927434D02*
X101750752Y-46013148D01*
X101750752Y-46013148D02*
X101750752Y-46098862D01*
X101750752Y-46098862D02*
X102179323Y-46184577D01*
X101450751Y-45884577D02*
X101236465Y-46484577D01*
X101236465Y-46484577D02*
X101022180Y-45884577D01*
X99522180Y-46484577D02*
X100036466Y-46484577D01*
X99779323Y-46484577D02*
X99779323Y-45584577D01*
X99779323Y-45584577D02*
X99865037Y-45713148D01*
X99865037Y-45713148D02*
X99950752Y-45798862D01*
X99950752Y-45798862D02*
X100036466Y-45841720D01*
X99136466Y-46398862D02*
X99093609Y-46441720D01*
X99093609Y-46441720D02*
X99136466Y-46484577D01*
X99136466Y-46484577D02*
X99179323Y-46441720D01*
X99179323Y-46441720D02*
X99136466Y-46398862D01*
X99136466Y-46398862D02*
X99136466Y-46484577D01*
X98536466Y-45584577D02*
X98450752Y-45584577D01*
X98450752Y-45584577D02*
X98365038Y-45627434D01*
X98365038Y-45627434D02*
X98322181Y-45670291D01*
X98322181Y-45670291D02*
X98279323Y-45756005D01*
X98279323Y-45756005D02*
X98236466Y-45927434D01*
X98236466Y-45927434D02*
X98236466Y-46141720D01*
X98236466Y-46141720D02*
X98279323Y-46313148D01*
X98279323Y-46313148D02*
X98322181Y-46398862D01*
X98322181Y-46398862D02*
X98365038Y-46441720D01*
X98365038Y-46441720D02*
X98450752Y-46484577D01*
X98450752Y-46484577D02*
X98536466Y-46484577D01*
X98536466Y-46484577D02*
X98622181Y-46441720D01*
X98622181Y-46441720D02*
X98665038Y-46398862D01*
X98665038Y-46398862D02*
X98707895Y-46313148D01*
X98707895Y-46313148D02*
X98750752Y-46141720D01*
X98750752Y-46141720D02*
X98750752Y-45927434D01*
X98750752Y-45927434D02*
X98707895Y-45756005D01*
X98707895Y-45756005D02*
X98665038Y-45670291D01*
X98665038Y-45670291D02*
X98622181Y-45627434D01*
X98622181Y-45627434D02*
X98536466Y-45584577D01*
X96693609Y-46484577D02*
X97207895Y-46484577D01*
X96950752Y-46484577D02*
X96950752Y-45584577D01*
X96950752Y-45584577D02*
X97036466Y-45713148D01*
X97036466Y-45713148D02*
X97122181Y-45798862D01*
X97122181Y-45798862D02*
X97207895Y-45841720D01*
X96350752Y-45670291D02*
X96307895Y-45627434D01*
X96307895Y-45627434D02*
X96222181Y-45584577D01*
X96222181Y-45584577D02*
X96007895Y-45584577D01*
X96007895Y-45584577D02*
X95922181Y-45627434D01*
X95922181Y-45627434D02*
X95879323Y-45670291D01*
X95879323Y-45670291D02*
X95836466Y-45756005D01*
X95836466Y-45756005D02*
X95836466Y-45841720D01*
X95836466Y-45841720D02*
X95879323Y-45970291D01*
X95879323Y-45970291D02*
X96393609Y-46484577D01*
X96393609Y-46484577D02*
X95836466Y-46484577D01*
X95450752Y-46398862D02*
X95407895Y-46441720D01*
X95407895Y-46441720D02*
X95450752Y-46484577D01*
X95450752Y-46484577D02*
X95493609Y-46441720D01*
X95493609Y-46441720D02*
X95450752Y-46398862D01*
X95450752Y-46398862D02*
X95450752Y-46484577D01*
X95065038Y-45670291D02*
X95022181Y-45627434D01*
X95022181Y-45627434D02*
X94936467Y-45584577D01*
X94936467Y-45584577D02*
X94722181Y-45584577D01*
X94722181Y-45584577D02*
X94636467Y-45627434D01*
X94636467Y-45627434D02*
X94593609Y-45670291D01*
X94593609Y-45670291D02*
X94550752Y-45756005D01*
X94550752Y-45756005D02*
X94550752Y-45841720D01*
X94550752Y-45841720D02*
X94593609Y-45970291D01*
X94593609Y-45970291D02*
X95107895Y-46484577D01*
X95107895Y-46484577D02*
X94550752Y-46484577D01*
X93993609Y-45584577D02*
X93907895Y-45584577D01*
X93907895Y-45584577D02*
X93822181Y-45627434D01*
X93822181Y-45627434D02*
X93779324Y-45670291D01*
X93779324Y-45670291D02*
X93736466Y-45756005D01*
X93736466Y-45756005D02*
X93693609Y-45927434D01*
X93693609Y-45927434D02*
X93693609Y-46141720D01*
X93693609Y-46141720D02*
X93736466Y-46313148D01*
X93736466Y-46313148D02*
X93779324Y-46398862D01*
X93779324Y-46398862D02*
X93822181Y-46441720D01*
X93822181Y-46441720D02*
X93907895Y-46484577D01*
X93907895Y-46484577D02*
X93993609Y-46484577D01*
X93993609Y-46484577D02*
X94079324Y-46441720D01*
X94079324Y-46441720D02*
X94122181Y-46398862D01*
X94122181Y-46398862D02*
X94165038Y-46313148D01*
X94165038Y-46313148D02*
X94207895Y-46141720D01*
X94207895Y-46141720D02*
X94207895Y-45927434D01*
X94207895Y-45927434D02*
X94165038Y-45756005D01*
X94165038Y-45756005D02*
X94122181Y-45670291D01*
X94122181Y-45670291D02*
X94079324Y-45627434D01*
X94079324Y-45627434D02*
X93993609Y-45584577D01*
X93350752Y-45670291D02*
X93307895Y-45627434D01*
X93307895Y-45627434D02*
X93222181Y-45584577D01*
X93222181Y-45584577D02*
X93007895Y-45584577D01*
X93007895Y-45584577D02*
X92922181Y-45627434D01*
X92922181Y-45627434D02*
X92879323Y-45670291D01*
X92879323Y-45670291D02*
X92836466Y-45756005D01*
X92836466Y-45756005D02*
X92836466Y-45841720D01*
X92836466Y-45841720D02*
X92879323Y-45970291D01*
X92879323Y-45970291D02*
X93393609Y-46484577D01*
X93393609Y-46484577D02*
X92836466Y-46484577D01*
X92536466Y-45584577D02*
X91979323Y-45584577D01*
X91979323Y-45584577D02*
X92279323Y-45927434D01*
X92279323Y-45927434D02*
X92150752Y-45927434D01*
X92150752Y-45927434D02*
X92065038Y-45970291D01*
X92065038Y-45970291D02*
X92022180Y-46013148D01*
X92022180Y-46013148D02*
X91979323Y-46098862D01*
X91979323Y-46098862D02*
X91979323Y-46313148D01*
X91979323Y-46313148D02*
X92022180Y-46398862D01*
X92022180Y-46398862D02*
X92065038Y-46441720D01*
X92065038Y-46441720D02*
X92150752Y-46484577D01*
X92150752Y-46484577D02*
X92407895Y-46484577D01*
X92407895Y-46484577D02*
X92493609Y-46441720D01*
X92493609Y-46441720D02*
X92536466Y-46398862D01*
X102736466Y-47676434D02*
X102307895Y-47676434D01*
X102822180Y-47933577D02*
X102522180Y-47033577D01*
X102522180Y-47033577D02*
X102222180Y-47933577D01*
X101922180Y-47933577D02*
X101922180Y-47333577D01*
X101922180Y-47505005D02*
X101879323Y-47419291D01*
X101879323Y-47419291D02*
X101836466Y-47376434D01*
X101836466Y-47376434D02*
X101750751Y-47333577D01*
X101750751Y-47333577D02*
X101665037Y-47333577D01*
X101493608Y-47333577D02*
X101150751Y-47333577D01*
X101365037Y-47033577D02*
X101365037Y-47805005D01*
X101365037Y-47805005D02*
X101322180Y-47890720D01*
X101322180Y-47890720D02*
X101236465Y-47933577D01*
X101236465Y-47933577D02*
X101150751Y-47933577D01*
X100850751Y-47847862D02*
X100807894Y-47890720D01*
X100807894Y-47890720D02*
X100850751Y-47933577D01*
X100850751Y-47933577D02*
X100893608Y-47890720D01*
X100893608Y-47890720D02*
X100850751Y-47847862D01*
X100850751Y-47847862D02*
X100850751Y-47933577D01*
X100850751Y-47376434D02*
X100807894Y-47419291D01*
X100807894Y-47419291D02*
X100850751Y-47462148D01*
X100850751Y-47462148D02*
X100893608Y-47419291D01*
X100893608Y-47419291D02*
X100850751Y-47376434D01*
X100850751Y-47376434D02*
X100850751Y-47462148D01*
X99179323Y-47505005D02*
X99222180Y-47462148D01*
X99222180Y-47462148D02*
X99307894Y-47419291D01*
X99307894Y-47419291D02*
X99393609Y-47419291D01*
X99393609Y-47419291D02*
X99479323Y-47462148D01*
X99479323Y-47462148D02*
X99522180Y-47505005D01*
X99522180Y-47505005D02*
X99565037Y-47590720D01*
X99565037Y-47590720D02*
X99565037Y-47676434D01*
X99565037Y-47676434D02*
X99522180Y-47762148D01*
X99522180Y-47762148D02*
X99479323Y-47805005D01*
X99479323Y-47805005D02*
X99393609Y-47847862D01*
X99393609Y-47847862D02*
X99307894Y-47847862D01*
X99307894Y-47847862D02*
X99222180Y-47805005D01*
X99222180Y-47805005D02*
X99179323Y-47762148D01*
X99179323Y-47419291D02*
X99179323Y-47762148D01*
X99179323Y-47762148D02*
X99136466Y-47805005D01*
X99136466Y-47805005D02*
X99093609Y-47805005D01*
X99093609Y-47805005D02*
X99007894Y-47762148D01*
X99007894Y-47762148D02*
X98965037Y-47676434D01*
X98965037Y-47676434D02*
X98965037Y-47462148D01*
X98965037Y-47462148D02*
X99050752Y-47333577D01*
X99050752Y-47333577D02*
X99179323Y-47247862D01*
X99179323Y-47247862D02*
X99350752Y-47205005D01*
X99350752Y-47205005D02*
X99522180Y-47247862D01*
X99522180Y-47247862D02*
X99650752Y-47333577D01*
X99650752Y-47333577D02*
X99736466Y-47462148D01*
X99736466Y-47462148D02*
X99779323Y-47633577D01*
X99779323Y-47633577D02*
X99736466Y-47805005D01*
X99736466Y-47805005D02*
X99650752Y-47933577D01*
X99650752Y-47933577D02*
X99522180Y-48019291D01*
X99522180Y-48019291D02*
X99350752Y-48062148D01*
X99350752Y-48062148D02*
X99179323Y-48019291D01*
X99179323Y-48019291D02*
X99050752Y-47933577D01*
X98665037Y-47333577D02*
X98493609Y-47933577D01*
X98493609Y-47933577D02*
X98322180Y-47505005D01*
X98322180Y-47505005D02*
X98150751Y-47933577D01*
X98150751Y-47933577D02*
X97979323Y-47333577D01*
X97293609Y-47890720D02*
X97379323Y-47933577D01*
X97379323Y-47933577D02*
X97550752Y-47933577D01*
X97550752Y-47933577D02*
X97636466Y-47890720D01*
X97636466Y-47890720D02*
X97679323Y-47805005D01*
X97679323Y-47805005D02*
X97679323Y-47462148D01*
X97679323Y-47462148D02*
X97636466Y-47376434D01*
X97636466Y-47376434D02*
X97550752Y-47333577D01*
X97550752Y-47333577D02*
X97379323Y-47333577D01*
X97379323Y-47333577D02*
X97293609Y-47376434D01*
X97293609Y-47376434D02*
X97250752Y-47462148D01*
X97250752Y-47462148D02*
X97250752Y-47547862D01*
X97250752Y-47547862D02*
X97679323Y-47633577D01*
X96479323Y-47933577D02*
X96479323Y-47462148D01*
X96479323Y-47462148D02*
X96522180Y-47376434D01*
X96522180Y-47376434D02*
X96607894Y-47333577D01*
X96607894Y-47333577D02*
X96779323Y-47333577D01*
X96779323Y-47333577D02*
X96865037Y-47376434D01*
X96479323Y-47890720D02*
X96565037Y-47933577D01*
X96565037Y-47933577D02*
X96779323Y-47933577D01*
X96779323Y-47933577D02*
X96865037Y-47890720D01*
X96865037Y-47890720D02*
X96907894Y-47805005D01*
X96907894Y-47805005D02*
X96907894Y-47719291D01*
X96907894Y-47719291D02*
X96865037Y-47633577D01*
X96865037Y-47633577D02*
X96779323Y-47590720D01*
X96779323Y-47590720D02*
X96565037Y-47590720D01*
X96565037Y-47590720D02*
X96479323Y-47547862D01*
X96093608Y-47890720D02*
X96007894Y-47933577D01*
X96007894Y-47933577D02*
X95836465Y-47933577D01*
X95836465Y-47933577D02*
X95750751Y-47890720D01*
X95750751Y-47890720D02*
X95707894Y-47805005D01*
X95707894Y-47805005D02*
X95707894Y-47762148D01*
X95707894Y-47762148D02*
X95750751Y-47676434D01*
X95750751Y-47676434D02*
X95836465Y-47633577D01*
X95836465Y-47633577D02*
X95965037Y-47633577D01*
X95965037Y-47633577D02*
X96050751Y-47590720D01*
X96050751Y-47590720D02*
X96093608Y-47505005D01*
X96093608Y-47505005D02*
X96093608Y-47462148D01*
X96093608Y-47462148D02*
X96050751Y-47376434D01*
X96050751Y-47376434D02*
X95965037Y-47333577D01*
X95965037Y-47333577D02*
X95836465Y-47333577D01*
X95836465Y-47333577D02*
X95750751Y-47376434D01*
X94979323Y-47890720D02*
X95065037Y-47933577D01*
X95065037Y-47933577D02*
X95236466Y-47933577D01*
X95236466Y-47933577D02*
X95322180Y-47890720D01*
X95322180Y-47890720D02*
X95365037Y-47805005D01*
X95365037Y-47805005D02*
X95365037Y-47462148D01*
X95365037Y-47462148D02*
X95322180Y-47376434D01*
X95322180Y-47376434D02*
X95236466Y-47333577D01*
X95236466Y-47333577D02*
X95065037Y-47333577D01*
X95065037Y-47333577D02*
X94979323Y-47376434D01*
X94979323Y-47376434D02*
X94936466Y-47462148D01*
X94936466Y-47462148D02*
X94936466Y-47547862D01*
X94936466Y-47547862D02*
X95365037Y-47633577D01*
X94422179Y-47933577D02*
X94507894Y-47890720D01*
X94507894Y-47890720D02*
X94550751Y-47805005D01*
X94550751Y-47805005D02*
X94550751Y-47033577D01*
X93693608Y-47890720D02*
X93779322Y-47933577D01*
X93779322Y-47933577D02*
X93950750Y-47933577D01*
X93950750Y-47933577D02*
X94036465Y-47890720D01*
X94036465Y-47890720D02*
X94079322Y-47847862D01*
X94079322Y-47847862D02*
X94122179Y-47762148D01*
X94122179Y-47762148D02*
X94122179Y-47505005D01*
X94122179Y-47505005D02*
X94079322Y-47419291D01*
X94079322Y-47419291D02*
X94036465Y-47376434D01*
X94036465Y-47376434D02*
X93950750Y-47333577D01*
X93950750Y-47333577D02*
X93779322Y-47333577D01*
X93779322Y-47333577D02*
X93693608Y-47376434D01*
X93179321Y-47933577D02*
X93265036Y-47890720D01*
X93265036Y-47890720D02*
X93307893Y-47847862D01*
X93307893Y-47847862D02*
X93350750Y-47762148D01*
X93350750Y-47762148D02*
X93350750Y-47505005D01*
X93350750Y-47505005D02*
X93307893Y-47419291D01*
X93307893Y-47419291D02*
X93265036Y-47376434D01*
X93265036Y-47376434D02*
X93179321Y-47333577D01*
X93179321Y-47333577D02*
X93050750Y-47333577D01*
X93050750Y-47333577D02*
X92965036Y-47376434D01*
X92965036Y-47376434D02*
X92922179Y-47419291D01*
X92922179Y-47419291D02*
X92879321Y-47505005D01*
X92879321Y-47505005D02*
X92879321Y-47762148D01*
X92879321Y-47762148D02*
X92922179Y-47847862D01*
X92922179Y-47847862D02*
X92965036Y-47890720D01*
X92965036Y-47890720D02*
X93050750Y-47933577D01*
X93050750Y-47933577D02*
X93179321Y-47933577D01*
X92493607Y-47933577D02*
X92493607Y-47333577D01*
X92493607Y-47505005D02*
X92450750Y-47419291D01*
X92450750Y-47419291D02*
X92407893Y-47376434D01*
X92407893Y-47376434D02*
X92322178Y-47333577D01*
X92322178Y-47333577D02*
X92236464Y-47333577D01*
X91593607Y-47890720D02*
X91679321Y-47933577D01*
X91679321Y-47933577D02*
X91850750Y-47933577D01*
X91850750Y-47933577D02*
X91936464Y-47890720D01*
X91936464Y-47890720D02*
X91979321Y-47805005D01*
X91979321Y-47805005D02*
X91979321Y-47462148D01*
X91979321Y-47462148D02*
X91936464Y-47376434D01*
X91936464Y-47376434D02*
X91850750Y-47333577D01*
X91850750Y-47333577D02*
X91679321Y-47333577D01*
X91679321Y-47333577D02*
X91593607Y-47376434D01*
X91593607Y-47376434D02*
X91550750Y-47462148D01*
X91550750Y-47462148D02*
X91550750Y-47547862D01*
X91550750Y-47547862D02*
X91979321Y-47633577D01*
X102693609Y-49382577D02*
X102693609Y-48482577D01*
X102693609Y-48482577D02*
X102350752Y-48482577D01*
X102350752Y-48482577D02*
X102265037Y-48525434D01*
X102265037Y-48525434D02*
X102222180Y-48568291D01*
X102222180Y-48568291D02*
X102179323Y-48654005D01*
X102179323Y-48654005D02*
X102179323Y-48782577D01*
X102179323Y-48782577D02*
X102222180Y-48868291D01*
X102222180Y-48868291D02*
X102265037Y-48911148D01*
X102265037Y-48911148D02*
X102350752Y-48954005D01*
X102350752Y-48954005D02*
X102693609Y-48954005D01*
X101407895Y-49339720D02*
X101493609Y-49382577D01*
X101493609Y-49382577D02*
X101665037Y-49382577D01*
X101665037Y-49382577D02*
X101750752Y-49339720D01*
X101750752Y-49339720D02*
X101793609Y-49296862D01*
X101793609Y-49296862D02*
X101836466Y-49211148D01*
X101836466Y-49211148D02*
X101836466Y-48954005D01*
X101836466Y-48954005D02*
X101793609Y-48868291D01*
X101793609Y-48868291D02*
X101750752Y-48825434D01*
X101750752Y-48825434D02*
X101665037Y-48782577D01*
X101665037Y-48782577D02*
X101493609Y-48782577D01*
X101493609Y-48782577D02*
X101407895Y-48825434D01*
X101022180Y-49382577D02*
X101022180Y-48482577D01*
X101022180Y-48825434D02*
X100936466Y-48782577D01*
X100936466Y-48782577D02*
X100765037Y-48782577D01*
X100765037Y-48782577D02*
X100679323Y-48825434D01*
X100679323Y-48825434D02*
X100636466Y-48868291D01*
X100636466Y-48868291D02*
X100593608Y-48954005D01*
X100593608Y-48954005D02*
X100593608Y-49211148D01*
X100593608Y-49211148D02*
X100636466Y-49296862D01*
X100636466Y-49296862D02*
X100679323Y-49339720D01*
X100679323Y-49339720D02*
X100765037Y-49382577D01*
X100765037Y-49382577D02*
X100936466Y-49382577D01*
X100936466Y-49382577D02*
X101022180Y-49339720D01*
X100207894Y-49296862D02*
X100165037Y-49339720D01*
X100165037Y-49339720D02*
X100207894Y-49382577D01*
X100207894Y-49382577D02*
X100250751Y-49339720D01*
X100250751Y-49339720D02*
X100207894Y-49296862D01*
X100207894Y-49296862D02*
X100207894Y-49382577D01*
X100207894Y-48825434D02*
X100165037Y-48868291D01*
X100165037Y-48868291D02*
X100207894Y-48911148D01*
X100207894Y-48911148D02*
X100250751Y-48868291D01*
X100250751Y-48868291D02*
X100207894Y-48825434D01*
X100207894Y-48825434D02*
X100207894Y-48911148D01*
X98536466Y-48954005D02*
X98579323Y-48911148D01*
X98579323Y-48911148D02*
X98665037Y-48868291D01*
X98665037Y-48868291D02*
X98750752Y-48868291D01*
X98750752Y-48868291D02*
X98836466Y-48911148D01*
X98836466Y-48911148D02*
X98879323Y-48954005D01*
X98879323Y-48954005D02*
X98922180Y-49039720D01*
X98922180Y-49039720D02*
X98922180Y-49125434D01*
X98922180Y-49125434D02*
X98879323Y-49211148D01*
X98879323Y-49211148D02*
X98836466Y-49254005D01*
X98836466Y-49254005D02*
X98750752Y-49296862D01*
X98750752Y-49296862D02*
X98665037Y-49296862D01*
X98665037Y-49296862D02*
X98579323Y-49254005D01*
X98579323Y-49254005D02*
X98536466Y-49211148D01*
X98536466Y-48868291D02*
X98536466Y-49211148D01*
X98536466Y-49211148D02*
X98493609Y-49254005D01*
X98493609Y-49254005D02*
X98450752Y-49254005D01*
X98450752Y-49254005D02*
X98365037Y-49211148D01*
X98365037Y-49211148D02*
X98322180Y-49125434D01*
X98322180Y-49125434D02*
X98322180Y-48911148D01*
X98322180Y-48911148D02*
X98407895Y-48782577D01*
X98407895Y-48782577D02*
X98536466Y-48696862D01*
X98536466Y-48696862D02*
X98707895Y-48654005D01*
X98707895Y-48654005D02*
X98879323Y-48696862D01*
X98879323Y-48696862D02*
X99007895Y-48782577D01*
X99007895Y-48782577D02*
X99093609Y-48911148D01*
X99093609Y-48911148D02*
X99136466Y-49082577D01*
X99136466Y-49082577D02*
X99093609Y-49254005D01*
X99093609Y-49254005D02*
X99007895Y-49382577D01*
X99007895Y-49382577D02*
X98879323Y-49468291D01*
X98879323Y-49468291D02*
X98707895Y-49511148D01*
X98707895Y-49511148D02*
X98536466Y-49468291D01*
X98536466Y-49468291D02*
X98407895Y-49382577D01*
X97550752Y-49339720D02*
X97636466Y-49382577D01*
X97636466Y-49382577D02*
X97807894Y-49382577D01*
X97807894Y-49382577D02*
X97893609Y-49339720D01*
X97893609Y-49339720D02*
X97936466Y-49296862D01*
X97936466Y-49296862D02*
X97979323Y-49211148D01*
X97979323Y-49211148D02*
X97979323Y-48954005D01*
X97979323Y-48954005D02*
X97936466Y-48868291D01*
X97936466Y-48868291D02*
X97893609Y-48825434D01*
X97893609Y-48825434D02*
X97807894Y-48782577D01*
X97807894Y-48782577D02*
X97636466Y-48782577D01*
X97636466Y-48782577D02*
X97550752Y-48825434D01*
X97165037Y-49382577D02*
X97165037Y-48782577D01*
X97165037Y-48954005D02*
X97122180Y-48868291D01*
X97122180Y-48868291D02*
X97079323Y-48825434D01*
X97079323Y-48825434D02*
X96993608Y-48782577D01*
X96993608Y-48782577D02*
X96907894Y-48782577D01*
X96607894Y-49382577D02*
X96607894Y-48782577D01*
X96607894Y-48482577D02*
X96650751Y-48525434D01*
X96650751Y-48525434D02*
X96607894Y-48568291D01*
X96607894Y-48568291D02*
X96565037Y-48525434D01*
X96565037Y-48525434D02*
X96607894Y-48482577D01*
X96607894Y-48482577D02*
X96607894Y-48568291D01*
X96307894Y-48782577D02*
X95965037Y-48782577D01*
X96179323Y-48482577D02*
X96179323Y-49254005D01*
X96179323Y-49254005D02*
X96136466Y-49339720D01*
X96136466Y-49339720D02*
X96050751Y-49382577D01*
X96050751Y-49382577D02*
X95965037Y-49382577D01*
X95665037Y-49382577D02*
X95665037Y-48482577D01*
X95665037Y-48825434D02*
X95579323Y-48782577D01*
X95579323Y-48782577D02*
X95407894Y-48782577D01*
X95407894Y-48782577D02*
X95322180Y-48825434D01*
X95322180Y-48825434D02*
X95279323Y-48868291D01*
X95279323Y-48868291D02*
X95236465Y-48954005D01*
X95236465Y-48954005D02*
X95236465Y-49211148D01*
X95236465Y-49211148D02*
X95279323Y-49296862D01*
X95279323Y-49296862D02*
X95322180Y-49339720D01*
X95322180Y-49339720D02*
X95407894Y-49382577D01*
X95407894Y-49382577D02*
X95579323Y-49382577D01*
X95579323Y-49382577D02*
X95665037Y-49339720D01*
X94850751Y-49382577D02*
X94850751Y-48782577D01*
X94850751Y-48482577D02*
X94893608Y-48525434D01*
X94893608Y-48525434D02*
X94850751Y-48568291D01*
X94850751Y-48568291D02*
X94807894Y-48525434D01*
X94807894Y-48525434D02*
X94850751Y-48482577D01*
X94850751Y-48482577D02*
X94850751Y-48568291D01*
X94550751Y-48782577D02*
X94207894Y-48782577D01*
X94422180Y-48482577D02*
X94422180Y-49254005D01*
X94422180Y-49254005D02*
X94379323Y-49339720D01*
X94379323Y-49339720D02*
X94293608Y-49382577D01*
X94293608Y-49382577D02*
X94207894Y-49382577D01*
D10*
X112651316Y-52453152D02*
X113413220Y-52738866D01*
X113413220Y-52738866D02*
X112651316Y-53024580D01*
X112175125Y-52738866D02*
X111413221Y-52738866D01*
X109746554Y-52453152D02*
X109746554Y-53119819D01*
X109984649Y-52072200D02*
X110222744Y-52786485D01*
X110222744Y-52786485D02*
X109603697Y-52786485D01*
X109317982Y-52119819D02*
X108651316Y-52119819D01*
X108651316Y-52119819D02*
X109079887Y-53119819D01*
X108079887Y-52119819D02*
X107984649Y-52119819D01*
X107984649Y-52119819D02*
X107889411Y-52167438D01*
X107889411Y-52167438D02*
X107841792Y-52215057D01*
X107841792Y-52215057D02*
X107794173Y-52310295D01*
X107794173Y-52310295D02*
X107746554Y-52500771D01*
X107746554Y-52500771D02*
X107746554Y-52738866D01*
X107746554Y-52738866D02*
X107794173Y-52929342D01*
X107794173Y-52929342D02*
X107841792Y-53024580D01*
X107841792Y-53024580D02*
X107889411Y-53072200D01*
X107889411Y-53072200D02*
X107984649Y-53119819D01*
X107984649Y-53119819D02*
X108079887Y-53119819D01*
X108079887Y-53119819D02*
X108175125Y-53072200D01*
X108175125Y-53072200D02*
X108222744Y-53024580D01*
X108222744Y-53024580D02*
X108270363Y-52929342D01*
X108270363Y-52929342D02*
X108317982Y-52738866D01*
X108317982Y-52738866D02*
X108317982Y-52500771D01*
X108317982Y-52500771D02*
X108270363Y-52310295D01*
X108270363Y-52310295D02*
X108222744Y-52215057D01*
X108222744Y-52215057D02*
X108175125Y-52167438D01*
X108175125Y-52167438D02*
X108079887Y-52119819D01*
X107365601Y-53119819D02*
X107127506Y-53119819D01*
X107127506Y-53119819D02*
X107127506Y-52929342D01*
X107127506Y-52929342D02*
X107222744Y-52881723D01*
X107222744Y-52881723D02*
X107317982Y-52786485D01*
X107317982Y-52786485D02*
X107365601Y-52643628D01*
X107365601Y-52643628D02*
X107365601Y-52405533D01*
X107365601Y-52405533D02*
X107317982Y-52262676D01*
X107317982Y-52262676D02*
X107222744Y-52167438D01*
X107222744Y-52167438D02*
X107079887Y-52119819D01*
X107079887Y-52119819D02*
X106889411Y-52119819D01*
X106889411Y-52119819D02*
X106746554Y-52167438D01*
X106746554Y-52167438D02*
X106651316Y-52262676D01*
X106651316Y-52262676D02*
X106603697Y-52405533D01*
X106603697Y-52405533D02*
X106603697Y-52643628D01*
X106603697Y-52643628D02*
X106651316Y-52786485D01*
X106651316Y-52786485D02*
X106746554Y-52881723D01*
X106746554Y-52881723D02*
X106841792Y-52929342D01*
X106841792Y-52929342D02*
X106841792Y-53119819D01*
X106841792Y-53119819D02*
X106603697Y-53119819D01*
X105413220Y-52738866D02*
X104651316Y-52738866D01*
X104175125Y-52453152D02*
X103413221Y-52738866D01*
X103413221Y-52738866D02*
X104175125Y-53024580D01*
D11*
X122887719Y-113174521D02*
X122887719Y-113822140D01*
X122887719Y-113822140D02*
X122925814Y-113898331D01*
X122925814Y-113898331D02*
X122963910Y-113936426D01*
X122963910Y-113936426D02*
X123040100Y-113974521D01*
X123040100Y-113974521D02*
X123154386Y-113974521D01*
X123154386Y-113974521D02*
X123230576Y-113936426D01*
X122887719Y-113669760D02*
X122963910Y-113707855D01*
X122963910Y-113707855D02*
X123116291Y-113707855D01*
X123116291Y-113707855D02*
X123192481Y-113669760D01*
X123192481Y-113669760D02*
X123230576Y-113631664D01*
X123230576Y-113631664D02*
X123268672Y-113555474D01*
X123268672Y-113555474D02*
X123268672Y-113326902D01*
X123268672Y-113326902D02*
X123230576Y-113250712D01*
X123230576Y-113250712D02*
X123192481Y-113212617D01*
X123192481Y-113212617D02*
X123116291Y-113174521D01*
X123116291Y-113174521D02*
X122963910Y-113174521D01*
X122963910Y-113174521D02*
X122887719Y-113212617D01*
X122506766Y-113707855D02*
X122506766Y-113174521D01*
X122506766Y-112907855D02*
X122544862Y-112945950D01*
X122544862Y-112945950D02*
X122506766Y-112984045D01*
X122506766Y-112984045D02*
X122468671Y-112945950D01*
X122468671Y-112945950D02*
X122506766Y-112907855D01*
X122506766Y-112907855D02*
X122506766Y-112984045D01*
X122240100Y-113174521D02*
X121935338Y-113174521D01*
X122125814Y-112907855D02*
X122125814Y-113593569D01*
X122125814Y-113593569D02*
X122087719Y-113669760D01*
X122087719Y-113669760D02*
X122011529Y-113707855D01*
X122011529Y-113707855D02*
X121935338Y-113707855D01*
X121668671Y-113707855D02*
X121668671Y-112907855D01*
X121325814Y-113707855D02*
X121325814Y-113288807D01*
X121325814Y-113288807D02*
X121363909Y-113212617D01*
X121363909Y-113212617D02*
X121440100Y-113174521D01*
X121440100Y-113174521D02*
X121554386Y-113174521D01*
X121554386Y-113174521D02*
X121630576Y-113212617D01*
X121630576Y-113212617D02*
X121668671Y-113250712D01*
X120602004Y-113174521D02*
X120602004Y-113707855D01*
X120944861Y-113174521D02*
X120944861Y-113593569D01*
X120944861Y-113593569D02*
X120906766Y-113669760D01*
X120906766Y-113669760D02*
X120830576Y-113707855D01*
X120830576Y-113707855D02*
X120716290Y-113707855D01*
X120716290Y-113707855D02*
X120640099Y-113669760D01*
X120640099Y-113669760D02*
X120602004Y-113631664D01*
X120221051Y-113707855D02*
X120221051Y-112907855D01*
X120221051Y-113212617D02*
X120144861Y-113174521D01*
X120144861Y-113174521D02*
X119992480Y-113174521D01*
X119992480Y-113174521D02*
X119916289Y-113212617D01*
X119916289Y-113212617D02*
X119878194Y-113250712D01*
X119878194Y-113250712D02*
X119840099Y-113326902D01*
X119840099Y-113326902D02*
X119840099Y-113555474D01*
X119840099Y-113555474D02*
X119878194Y-113631664D01*
X119878194Y-113631664D02*
X119916289Y-113669760D01*
X119916289Y-113669760D02*
X119992480Y-113707855D01*
X119992480Y-113707855D02*
X120144861Y-113707855D01*
X120144861Y-113707855D02*
X120221051Y-113669760D01*
X119497241Y-113631664D02*
X119459146Y-113669760D01*
X119459146Y-113669760D02*
X119497241Y-113707855D01*
X119497241Y-113707855D02*
X119535337Y-113669760D01*
X119535337Y-113669760D02*
X119497241Y-113631664D01*
X119497241Y-113631664D02*
X119497241Y-113707855D01*
X118773432Y-113669760D02*
X118849623Y-113707855D01*
X118849623Y-113707855D02*
X119002004Y-113707855D01*
X119002004Y-113707855D02*
X119078194Y-113669760D01*
X119078194Y-113669760D02*
X119116289Y-113631664D01*
X119116289Y-113631664D02*
X119154385Y-113555474D01*
X119154385Y-113555474D02*
X119154385Y-113326902D01*
X119154385Y-113326902D02*
X119116289Y-113250712D01*
X119116289Y-113250712D02*
X119078194Y-113212617D01*
X119078194Y-113212617D02*
X119002004Y-113174521D01*
X119002004Y-113174521D02*
X118849623Y-113174521D01*
X118849623Y-113174521D02*
X118773432Y-113212617D01*
X118316290Y-113707855D02*
X118392480Y-113669760D01*
X118392480Y-113669760D02*
X118430575Y-113631664D01*
X118430575Y-113631664D02*
X118468671Y-113555474D01*
X118468671Y-113555474D02*
X118468671Y-113326902D01*
X118468671Y-113326902D02*
X118430575Y-113250712D01*
X118430575Y-113250712D02*
X118392480Y-113212617D01*
X118392480Y-113212617D02*
X118316290Y-113174521D01*
X118316290Y-113174521D02*
X118202004Y-113174521D01*
X118202004Y-113174521D02*
X118125813Y-113212617D01*
X118125813Y-113212617D02*
X118087718Y-113250712D01*
X118087718Y-113250712D02*
X118049623Y-113326902D01*
X118049623Y-113326902D02*
X118049623Y-113555474D01*
X118049623Y-113555474D02*
X118087718Y-113631664D01*
X118087718Y-113631664D02*
X118125813Y-113669760D01*
X118125813Y-113669760D02*
X118202004Y-113707855D01*
X118202004Y-113707855D02*
X118316290Y-113707855D01*
X117706765Y-113707855D02*
X117706765Y-113174521D01*
X117706765Y-113250712D02*
X117668670Y-113212617D01*
X117668670Y-113212617D02*
X117592480Y-113174521D01*
X117592480Y-113174521D02*
X117478194Y-113174521D01*
X117478194Y-113174521D02*
X117402003Y-113212617D01*
X117402003Y-113212617D02*
X117363908Y-113288807D01*
X117363908Y-113288807D02*
X117363908Y-113707855D01*
X117363908Y-113288807D02*
X117325813Y-113212617D01*
X117325813Y-113212617D02*
X117249622Y-113174521D01*
X117249622Y-113174521D02*
X117135337Y-113174521D01*
X117135337Y-113174521D02*
X117059146Y-113212617D01*
X117059146Y-113212617D02*
X117021051Y-113288807D01*
X117021051Y-113288807D02*
X117021051Y-113707855D01*
X116068670Y-112869760D02*
X116754384Y-113898331D01*
X123230576Y-114995855D02*
X123230576Y-114195855D01*
X122887719Y-114995855D02*
X122887719Y-114576807D01*
X122887719Y-114576807D02*
X122925814Y-114500617D01*
X122925814Y-114500617D02*
X123002005Y-114462521D01*
X123002005Y-114462521D02*
X123116291Y-114462521D01*
X123116291Y-114462521D02*
X123192481Y-114500617D01*
X123192481Y-114500617D02*
X123230576Y-114538712D01*
X122544862Y-114957760D02*
X122468671Y-114995855D01*
X122468671Y-114995855D02*
X122316290Y-114995855D01*
X122316290Y-114995855D02*
X122240100Y-114957760D01*
X122240100Y-114957760D02*
X122202004Y-114881569D01*
X122202004Y-114881569D02*
X122202004Y-114843474D01*
X122202004Y-114843474D02*
X122240100Y-114767283D01*
X122240100Y-114767283D02*
X122316290Y-114729188D01*
X122316290Y-114729188D02*
X122430576Y-114729188D01*
X122430576Y-114729188D02*
X122506766Y-114691093D01*
X122506766Y-114691093D02*
X122544862Y-114614902D01*
X122544862Y-114614902D02*
X122544862Y-114576807D01*
X122544862Y-114576807D02*
X122506766Y-114500617D01*
X122506766Y-114500617D02*
X122430576Y-114462521D01*
X122430576Y-114462521D02*
X122316290Y-114462521D01*
X122316290Y-114462521D02*
X122240100Y-114500617D01*
X121859147Y-114462521D02*
X121859147Y-115262521D01*
X121859147Y-114500617D02*
X121782957Y-114462521D01*
X121782957Y-114462521D02*
X121630576Y-114462521D01*
X121630576Y-114462521D02*
X121554385Y-114500617D01*
X121554385Y-114500617D02*
X121516290Y-114538712D01*
X121516290Y-114538712D02*
X121478195Y-114614902D01*
X121478195Y-114614902D02*
X121478195Y-114843474D01*
X121478195Y-114843474D02*
X121516290Y-114919664D01*
X121516290Y-114919664D02*
X121554385Y-114957760D01*
X121554385Y-114957760D02*
X121630576Y-114995855D01*
X121630576Y-114995855D02*
X121782957Y-114995855D01*
X121782957Y-114995855D02*
X121859147Y-114957760D01*
X121173433Y-114957760D02*
X121097242Y-114995855D01*
X121097242Y-114995855D02*
X120944861Y-114995855D01*
X120944861Y-114995855D02*
X120868671Y-114957760D01*
X120868671Y-114957760D02*
X120830575Y-114881569D01*
X120830575Y-114881569D02*
X120830575Y-114843474D01*
X120830575Y-114843474D02*
X120868671Y-114767283D01*
X120868671Y-114767283D02*
X120944861Y-114729188D01*
X120944861Y-114729188D02*
X121059147Y-114729188D01*
X121059147Y-114729188D02*
X121135337Y-114691093D01*
X121135337Y-114691093D02*
X121173433Y-114614902D01*
X121173433Y-114614902D02*
X121173433Y-114576807D01*
X121173433Y-114576807D02*
X121135337Y-114500617D01*
X121135337Y-114500617D02*
X121059147Y-114462521D01*
X121059147Y-114462521D02*
X120944861Y-114462521D01*
X120944861Y-114462521D02*
X120868671Y-114500617D01*
X120487718Y-114995855D02*
X120487718Y-114195855D01*
X120144861Y-114995855D02*
X120144861Y-114576807D01*
X120144861Y-114576807D02*
X120182956Y-114500617D01*
X120182956Y-114500617D02*
X120259147Y-114462521D01*
X120259147Y-114462521D02*
X120373433Y-114462521D01*
X120373433Y-114462521D02*
X120449623Y-114500617D01*
X120449623Y-114500617D02*
X120487718Y-114538712D01*
X119192480Y-114157760D02*
X119878194Y-115186331D01*
X118925813Y-114462521D02*
X118925813Y-115262521D01*
X118925813Y-114500617D02*
X118849623Y-114462521D01*
X118849623Y-114462521D02*
X118697242Y-114462521D01*
X118697242Y-114462521D02*
X118621051Y-114500617D01*
X118621051Y-114500617D02*
X118582956Y-114538712D01*
X118582956Y-114538712D02*
X118544861Y-114614902D01*
X118544861Y-114614902D02*
X118544861Y-114843474D01*
X118544861Y-114843474D02*
X118582956Y-114919664D01*
X118582956Y-114919664D02*
X118621051Y-114957760D01*
X118621051Y-114957760D02*
X118697242Y-114995855D01*
X118697242Y-114995855D02*
X118849623Y-114995855D01*
X118849623Y-114995855D02*
X118925813Y-114957760D01*
X118202003Y-114995855D02*
X118202003Y-114462521D01*
X118202003Y-114195855D02*
X118240099Y-114233950D01*
X118240099Y-114233950D02*
X118202003Y-114272045D01*
X118202003Y-114272045D02*
X118163908Y-114233950D01*
X118163908Y-114233950D02*
X118202003Y-114195855D01*
X118202003Y-114195855D02*
X118202003Y-114272045D01*
X117706766Y-114995855D02*
X117782956Y-114957760D01*
X117782956Y-114957760D02*
X117821051Y-114881569D01*
X117821051Y-114881569D02*
X117821051Y-114195855D01*
X117402003Y-114995855D02*
X117402003Y-114195855D01*
X117325813Y-114691093D02*
X117097241Y-114995855D01*
X117097241Y-114462521D02*
X117402003Y-114767283D01*
X116754384Y-114995855D02*
X116754384Y-114195855D01*
X116754384Y-114500617D02*
X116678194Y-114462521D01*
X116678194Y-114462521D02*
X116525813Y-114462521D01*
X116525813Y-114462521D02*
X116449622Y-114500617D01*
X116449622Y-114500617D02*
X116411527Y-114538712D01*
X116411527Y-114538712D02*
X116373432Y-114614902D01*
X116373432Y-114614902D02*
X116373432Y-114843474D01*
X116373432Y-114843474D02*
X116411527Y-114919664D01*
X116411527Y-114919664D02*
X116449622Y-114957760D01*
X116449622Y-114957760D02*
X116525813Y-114995855D01*
X116525813Y-114995855D02*
X116678194Y-114995855D01*
X116678194Y-114995855D02*
X116754384Y-114957760D01*
X115687717Y-114995855D02*
X115687717Y-114576807D01*
X115687717Y-114576807D02*
X115725812Y-114500617D01*
X115725812Y-114500617D02*
X115802003Y-114462521D01*
X115802003Y-114462521D02*
X115954384Y-114462521D01*
X115954384Y-114462521D02*
X116030574Y-114500617D01*
X115687717Y-114957760D02*
X115763908Y-114995855D01*
X115763908Y-114995855D02*
X115954384Y-114995855D01*
X115954384Y-114995855D02*
X116030574Y-114957760D01*
X116030574Y-114957760D02*
X116068670Y-114881569D01*
X116068670Y-114881569D02*
X116068670Y-114805379D01*
X116068670Y-114805379D02*
X116030574Y-114729188D01*
X116030574Y-114729188D02*
X115954384Y-114691093D01*
X115954384Y-114691093D02*
X115763908Y-114691093D01*
X115763908Y-114691093D02*
X115687717Y-114652998D01*
X114963907Y-114995855D02*
X114963907Y-114195855D01*
X114963907Y-114957760D02*
X115040098Y-114995855D01*
X115040098Y-114995855D02*
X115192479Y-114995855D01*
X115192479Y-114995855D02*
X115268669Y-114957760D01*
X115268669Y-114957760D02*
X115306764Y-114919664D01*
X115306764Y-114919664D02*
X115344860Y-114843474D01*
X115344860Y-114843474D02*
X115344860Y-114614902D01*
X115344860Y-114614902D02*
X115306764Y-114538712D01*
X115306764Y-114538712D02*
X115268669Y-114500617D01*
X115268669Y-114500617D02*
X115192479Y-114462521D01*
X115192479Y-114462521D02*
X115040098Y-114462521D01*
X115040098Y-114462521D02*
X114963907Y-114500617D01*
X114240097Y-114462521D02*
X114240097Y-115110140D01*
X114240097Y-115110140D02*
X114278192Y-115186331D01*
X114278192Y-115186331D02*
X114316288Y-115224426D01*
X114316288Y-115224426D02*
X114392478Y-115262521D01*
X114392478Y-115262521D02*
X114506764Y-115262521D01*
X114506764Y-115262521D02*
X114582954Y-115224426D01*
X114240097Y-114957760D02*
X114316288Y-114995855D01*
X114316288Y-114995855D02*
X114468669Y-114995855D01*
X114468669Y-114995855D02*
X114544859Y-114957760D01*
X114544859Y-114957760D02*
X114582954Y-114919664D01*
X114582954Y-114919664D02*
X114621050Y-114843474D01*
X114621050Y-114843474D02*
X114621050Y-114614902D01*
X114621050Y-114614902D02*
X114582954Y-114538712D01*
X114582954Y-114538712D02*
X114544859Y-114500617D01*
X114544859Y-114500617D02*
X114468669Y-114462521D01*
X114468669Y-114462521D02*
X114316288Y-114462521D01*
X114316288Y-114462521D02*
X114240097Y-114500617D01*
X113554382Y-114957760D02*
X113630573Y-114995855D01*
X113630573Y-114995855D02*
X113782954Y-114995855D01*
X113782954Y-114995855D02*
X113859144Y-114957760D01*
X113859144Y-114957760D02*
X113897240Y-114881569D01*
X113897240Y-114881569D02*
X113897240Y-114576807D01*
X113897240Y-114576807D02*
X113859144Y-114500617D01*
X113859144Y-114500617D02*
X113782954Y-114462521D01*
X113782954Y-114462521D02*
X113630573Y-114462521D01*
X113630573Y-114462521D02*
X113554382Y-114500617D01*
X113554382Y-114500617D02*
X113516287Y-114576807D01*
X113516287Y-114576807D02*
X113516287Y-114652998D01*
X113516287Y-114652998D02*
X113897240Y-114729188D01*
X110273433Y-68569664D02*
X110311529Y-68607760D01*
X110311529Y-68607760D02*
X110425814Y-68645855D01*
X110425814Y-68645855D02*
X110502005Y-68645855D01*
X110502005Y-68645855D02*
X110616291Y-68607760D01*
X110616291Y-68607760D02*
X110692481Y-68531569D01*
X110692481Y-68531569D02*
X110730576Y-68455379D01*
X110730576Y-68455379D02*
X110768672Y-68302998D01*
X110768672Y-68302998D02*
X110768672Y-68188712D01*
X110768672Y-68188712D02*
X110730576Y-68036331D01*
X110730576Y-68036331D02*
X110692481Y-67960140D01*
X110692481Y-67960140D02*
X110616291Y-67883950D01*
X110616291Y-67883950D02*
X110502005Y-67845855D01*
X110502005Y-67845855D02*
X110425814Y-67845855D01*
X110425814Y-67845855D02*
X110311529Y-67883950D01*
X110311529Y-67883950D02*
X110273433Y-67922045D01*
X109473433Y-68645855D02*
X109740100Y-68264902D01*
X109930576Y-68645855D02*
X109930576Y-67845855D01*
X109930576Y-67845855D02*
X109625814Y-67845855D01*
X109625814Y-67845855D02*
X109549624Y-67883950D01*
X109549624Y-67883950D02*
X109511529Y-67922045D01*
X109511529Y-67922045D02*
X109473433Y-67998236D01*
X109473433Y-67998236D02*
X109473433Y-68112521D01*
X109473433Y-68112521D02*
X109511529Y-68188712D01*
X109511529Y-68188712D02*
X109549624Y-68226807D01*
X109549624Y-68226807D02*
X109625814Y-68264902D01*
X109625814Y-68264902D02*
X109930576Y-68264902D01*
X109168672Y-67922045D02*
X109130576Y-67883950D01*
X109130576Y-67883950D02*
X109054386Y-67845855D01*
X109054386Y-67845855D02*
X108863910Y-67845855D01*
X108863910Y-67845855D02*
X108787719Y-67883950D01*
X108787719Y-67883950D02*
X108749624Y-67922045D01*
X108749624Y-67922045D02*
X108711529Y-67998236D01*
X108711529Y-67998236D02*
X108711529Y-68074426D01*
X108711529Y-68074426D02*
X108749624Y-68188712D01*
X108749624Y-68188712D02*
X109206767Y-68645855D01*
X109206767Y-68645855D02*
X108711529Y-68645855D01*
X108216290Y-67845855D02*
X108140100Y-67845855D01*
X108140100Y-67845855D02*
X108063909Y-67883950D01*
X108063909Y-67883950D02*
X108025814Y-67922045D01*
X108025814Y-67922045D02*
X107987719Y-67998236D01*
X107987719Y-67998236D02*
X107949624Y-68150617D01*
X107949624Y-68150617D02*
X107949624Y-68341093D01*
X107949624Y-68341093D02*
X107987719Y-68493474D01*
X107987719Y-68493474D02*
X108025814Y-68569664D01*
X108025814Y-68569664D02*
X108063909Y-68607760D01*
X108063909Y-68607760D02*
X108140100Y-68645855D01*
X108140100Y-68645855D02*
X108216290Y-68645855D01*
X108216290Y-68645855D02*
X108292481Y-68607760D01*
X108292481Y-68607760D02*
X108330576Y-68569664D01*
X108330576Y-68569664D02*
X108368671Y-68493474D01*
X108368671Y-68493474D02*
X108406767Y-68341093D01*
X108406767Y-68341093D02*
X108406767Y-68150617D01*
X108406767Y-68150617D02*
X108368671Y-67998236D01*
X108368671Y-67998236D02*
X108330576Y-67922045D01*
X108330576Y-67922045D02*
X108292481Y-67883950D01*
X108292481Y-67883950D02*
X108216290Y-67845855D01*
X107682957Y-67845855D02*
X107187719Y-67845855D01*
X107187719Y-67845855D02*
X107454385Y-68150617D01*
X107454385Y-68150617D02*
X107340100Y-68150617D01*
X107340100Y-68150617D02*
X107263909Y-68188712D01*
X107263909Y-68188712D02*
X107225814Y-68226807D01*
X107225814Y-68226807D02*
X107187719Y-68302998D01*
X107187719Y-68302998D02*
X107187719Y-68493474D01*
X107187719Y-68493474D02*
X107225814Y-68569664D01*
X107225814Y-68569664D02*
X107263909Y-68607760D01*
X107263909Y-68607760D02*
X107340100Y-68645855D01*
X107340100Y-68645855D02*
X107568671Y-68645855D01*
X107568671Y-68645855D02*
X107644862Y-68607760D01*
X107644862Y-68607760D02*
X107682957Y-68569664D01*
X106882957Y-67922045D02*
X106844861Y-67883950D01*
X106844861Y-67883950D02*
X106768671Y-67845855D01*
X106768671Y-67845855D02*
X106578195Y-67845855D01*
X106578195Y-67845855D02*
X106502004Y-67883950D01*
X106502004Y-67883950D02*
X106463909Y-67922045D01*
X106463909Y-67922045D02*
X106425814Y-67998236D01*
X106425814Y-67998236D02*
X106425814Y-68074426D01*
X106425814Y-68074426D02*
X106463909Y-68188712D01*
X106463909Y-68188712D02*
X106921052Y-68645855D01*
X106921052Y-68645855D02*
X106425814Y-68645855D01*
X106082956Y-68341093D02*
X105473433Y-68341093D01*
X105778194Y-68645855D02*
X105778194Y-68036331D01*
X110373433Y-103569664D02*
X110411529Y-103607760D01*
X110411529Y-103607760D02*
X110525814Y-103645855D01*
X110525814Y-103645855D02*
X110602005Y-103645855D01*
X110602005Y-103645855D02*
X110716291Y-103607760D01*
X110716291Y-103607760D02*
X110792481Y-103531569D01*
X110792481Y-103531569D02*
X110830576Y-103455379D01*
X110830576Y-103455379D02*
X110868672Y-103302998D01*
X110868672Y-103302998D02*
X110868672Y-103188712D01*
X110868672Y-103188712D02*
X110830576Y-103036331D01*
X110830576Y-103036331D02*
X110792481Y-102960140D01*
X110792481Y-102960140D02*
X110716291Y-102883950D01*
X110716291Y-102883950D02*
X110602005Y-102845855D01*
X110602005Y-102845855D02*
X110525814Y-102845855D01*
X110525814Y-102845855D02*
X110411529Y-102883950D01*
X110411529Y-102883950D02*
X110373433Y-102922045D01*
X109573433Y-103645855D02*
X109840100Y-103264902D01*
X110030576Y-103645855D02*
X110030576Y-102845855D01*
X110030576Y-102845855D02*
X109725814Y-102845855D01*
X109725814Y-102845855D02*
X109649624Y-102883950D01*
X109649624Y-102883950D02*
X109611529Y-102922045D01*
X109611529Y-102922045D02*
X109573433Y-102998236D01*
X109573433Y-102998236D02*
X109573433Y-103112521D01*
X109573433Y-103112521D02*
X109611529Y-103188712D01*
X109611529Y-103188712D02*
X109649624Y-103226807D01*
X109649624Y-103226807D02*
X109725814Y-103264902D01*
X109725814Y-103264902D02*
X110030576Y-103264902D01*
X109268672Y-102922045D02*
X109230576Y-102883950D01*
X109230576Y-102883950D02*
X109154386Y-102845855D01*
X109154386Y-102845855D02*
X108963910Y-102845855D01*
X108963910Y-102845855D02*
X108887719Y-102883950D01*
X108887719Y-102883950D02*
X108849624Y-102922045D01*
X108849624Y-102922045D02*
X108811529Y-102998236D01*
X108811529Y-102998236D02*
X108811529Y-103074426D01*
X108811529Y-103074426D02*
X108849624Y-103188712D01*
X108849624Y-103188712D02*
X109306767Y-103645855D01*
X109306767Y-103645855D02*
X108811529Y-103645855D01*
X108316290Y-102845855D02*
X108240100Y-102845855D01*
X108240100Y-102845855D02*
X108163909Y-102883950D01*
X108163909Y-102883950D02*
X108125814Y-102922045D01*
X108125814Y-102922045D02*
X108087719Y-102998236D01*
X108087719Y-102998236D02*
X108049624Y-103150617D01*
X108049624Y-103150617D02*
X108049624Y-103341093D01*
X108049624Y-103341093D02*
X108087719Y-103493474D01*
X108087719Y-103493474D02*
X108125814Y-103569664D01*
X108125814Y-103569664D02*
X108163909Y-103607760D01*
X108163909Y-103607760D02*
X108240100Y-103645855D01*
X108240100Y-103645855D02*
X108316290Y-103645855D01*
X108316290Y-103645855D02*
X108392481Y-103607760D01*
X108392481Y-103607760D02*
X108430576Y-103569664D01*
X108430576Y-103569664D02*
X108468671Y-103493474D01*
X108468671Y-103493474D02*
X108506767Y-103341093D01*
X108506767Y-103341093D02*
X108506767Y-103150617D01*
X108506767Y-103150617D02*
X108468671Y-102998236D01*
X108468671Y-102998236D02*
X108430576Y-102922045D01*
X108430576Y-102922045D02*
X108392481Y-102883950D01*
X108392481Y-102883950D02*
X108316290Y-102845855D01*
X107782957Y-102845855D02*
X107287719Y-102845855D01*
X107287719Y-102845855D02*
X107554385Y-103150617D01*
X107554385Y-103150617D02*
X107440100Y-103150617D01*
X107440100Y-103150617D02*
X107363909Y-103188712D01*
X107363909Y-103188712D02*
X107325814Y-103226807D01*
X107325814Y-103226807D02*
X107287719Y-103302998D01*
X107287719Y-103302998D02*
X107287719Y-103493474D01*
X107287719Y-103493474D02*
X107325814Y-103569664D01*
X107325814Y-103569664D02*
X107363909Y-103607760D01*
X107363909Y-103607760D02*
X107440100Y-103645855D01*
X107440100Y-103645855D02*
X107668671Y-103645855D01*
X107668671Y-103645855D02*
X107744862Y-103607760D01*
X107744862Y-103607760D02*
X107782957Y-103569664D01*
X106982957Y-102922045D02*
X106944861Y-102883950D01*
X106944861Y-102883950D02*
X106868671Y-102845855D01*
X106868671Y-102845855D02*
X106678195Y-102845855D01*
X106678195Y-102845855D02*
X106602004Y-102883950D01*
X106602004Y-102883950D02*
X106563909Y-102922045D01*
X106563909Y-102922045D02*
X106525814Y-102998236D01*
X106525814Y-102998236D02*
X106525814Y-103074426D01*
X106525814Y-103074426D02*
X106563909Y-103188712D01*
X106563909Y-103188712D02*
X107021052Y-103645855D01*
X107021052Y-103645855D02*
X106525814Y-103645855D01*
X106182956Y-103341093D02*
X105573433Y-103341093D01*
D10*
X97963220Y-86669819D02*
X97963220Y-86003152D01*
X97963220Y-85669819D02*
X98010839Y-85717438D01*
X98010839Y-85717438D02*
X97963220Y-85765057D01*
X97963220Y-85765057D02*
X97915601Y-85717438D01*
X97915601Y-85717438D02*
X97963220Y-85669819D01*
X97963220Y-85669819D02*
X97963220Y-85765057D01*
X97487030Y-86003152D02*
X97487030Y-86669819D01*
X97487030Y-86098390D02*
X97439411Y-86050771D01*
X97439411Y-86050771D02*
X97344173Y-86003152D01*
X97344173Y-86003152D02*
X97201316Y-86003152D01*
X97201316Y-86003152D02*
X97106078Y-86050771D01*
X97106078Y-86050771D02*
X97058459Y-86146009D01*
X97058459Y-86146009D02*
X97058459Y-86669819D01*
X96629887Y-86622200D02*
X96534649Y-86669819D01*
X96534649Y-86669819D02*
X96344173Y-86669819D01*
X96344173Y-86669819D02*
X96248935Y-86622200D01*
X96248935Y-86622200D02*
X96201316Y-86526961D01*
X96201316Y-86526961D02*
X96201316Y-86479342D01*
X96201316Y-86479342D02*
X96248935Y-86384104D01*
X96248935Y-86384104D02*
X96344173Y-86336485D01*
X96344173Y-86336485D02*
X96487030Y-86336485D01*
X96487030Y-86336485D02*
X96582268Y-86288866D01*
X96582268Y-86288866D02*
X96629887Y-86193628D01*
X96629887Y-86193628D02*
X96629887Y-86146009D01*
X96629887Y-86146009D02*
X96582268Y-86050771D01*
X96582268Y-86050771D02*
X96487030Y-86003152D01*
X96487030Y-86003152D02*
X96344173Y-86003152D01*
X96344173Y-86003152D02*
X96248935Y-86050771D01*
X95391792Y-86622200D02*
X95487030Y-86669819D01*
X95487030Y-86669819D02*
X95677506Y-86669819D01*
X95677506Y-86669819D02*
X95772744Y-86622200D01*
X95772744Y-86622200D02*
X95820363Y-86526961D01*
X95820363Y-86526961D02*
X95820363Y-86146009D01*
X95820363Y-86146009D02*
X95772744Y-86050771D01*
X95772744Y-86050771D02*
X95677506Y-86003152D01*
X95677506Y-86003152D02*
X95487030Y-86003152D01*
X95487030Y-86003152D02*
X95391792Y-86050771D01*
X95391792Y-86050771D02*
X95344173Y-86146009D01*
X95344173Y-86146009D02*
X95344173Y-86241247D01*
X95344173Y-86241247D02*
X95820363Y-86336485D01*
X94915601Y-86669819D02*
X94915601Y-86003152D01*
X94915601Y-86193628D02*
X94867982Y-86098390D01*
X94867982Y-86098390D02*
X94820363Y-86050771D01*
X94820363Y-86050771D02*
X94725125Y-86003152D01*
X94725125Y-86003152D02*
X94629887Y-86003152D01*
X94439410Y-86003152D02*
X94058458Y-86003152D01*
X94296553Y-85669819D02*
X94296553Y-86526961D01*
X94296553Y-86526961D02*
X94248934Y-86622200D01*
X94248934Y-86622200D02*
X94153696Y-86669819D01*
X94153696Y-86669819D02*
X94058458Y-86669819D01*
X92963219Y-86669819D02*
X92963219Y-86003152D01*
X92963219Y-86098390D02*
X92915600Y-86050771D01*
X92915600Y-86050771D02*
X92820362Y-86003152D01*
X92820362Y-86003152D02*
X92677505Y-86003152D01*
X92677505Y-86003152D02*
X92582267Y-86050771D01*
X92582267Y-86050771D02*
X92534648Y-86146009D01*
X92534648Y-86146009D02*
X92534648Y-86669819D01*
X92534648Y-86146009D02*
X92487029Y-86050771D01*
X92487029Y-86050771D02*
X92391791Y-86003152D01*
X92391791Y-86003152D02*
X92248934Y-86003152D01*
X92248934Y-86003152D02*
X92153695Y-86050771D01*
X92153695Y-86050771D02*
X92106076Y-86146009D01*
X92106076Y-86146009D02*
X92106076Y-86669819D01*
X91629886Y-86669819D02*
X91629886Y-86003152D01*
X91629886Y-85669819D02*
X91677505Y-85717438D01*
X91677505Y-85717438D02*
X91629886Y-85765057D01*
X91629886Y-85765057D02*
X91582267Y-85717438D01*
X91582267Y-85717438D02*
X91629886Y-85669819D01*
X91629886Y-85669819D02*
X91629886Y-85765057D01*
X91010839Y-86669819D02*
X91106077Y-86622200D01*
X91106077Y-86622200D02*
X91153696Y-86526961D01*
X91153696Y-86526961D02*
X91153696Y-85669819D01*
X90629886Y-86669819D02*
X90629886Y-85669819D01*
X90534648Y-86288866D02*
X90248934Y-86669819D01*
X90248934Y-86003152D02*
X90629886Y-86384104D01*
X89820362Y-86288866D02*
X89058458Y-86288866D01*
X88582267Y-86003152D02*
X87820363Y-86288866D01*
X87820363Y-86288866D02*
X88582267Y-86574580D01*
D11*
X100904144Y-98944862D02*
X100904144Y-98487719D01*
X100104144Y-98716291D02*
X100904144Y-98716291D01*
X100104144Y-98221052D02*
X100904144Y-98221052D01*
X100904144Y-98221052D02*
X100904144Y-97916290D01*
X100904144Y-97916290D02*
X100866049Y-97840100D01*
X100866049Y-97840100D02*
X100827954Y-97802005D01*
X100827954Y-97802005D02*
X100751763Y-97763909D01*
X100751763Y-97763909D02*
X100637478Y-97763909D01*
X100637478Y-97763909D02*
X100561287Y-97802005D01*
X100561287Y-97802005D02*
X100523192Y-97840100D01*
X100523192Y-97840100D02*
X100485097Y-97916290D01*
X100485097Y-97916290D02*
X100485097Y-98221052D01*
X100637478Y-97078195D02*
X100104144Y-97078195D01*
X100942240Y-97268671D02*
X100370811Y-97459148D01*
X100370811Y-97459148D02*
X100370811Y-96963909D01*
X100904144Y-96506766D02*
X100904144Y-96430576D01*
X100904144Y-96430576D02*
X100866049Y-96354385D01*
X100866049Y-96354385D02*
X100827954Y-96316290D01*
X100827954Y-96316290D02*
X100751763Y-96278195D01*
X100751763Y-96278195D02*
X100599382Y-96240100D01*
X100599382Y-96240100D02*
X100408906Y-96240100D01*
X100408906Y-96240100D02*
X100256525Y-96278195D01*
X100256525Y-96278195D02*
X100180335Y-96316290D01*
X100180335Y-96316290D02*
X100142240Y-96354385D01*
X100142240Y-96354385D02*
X100104144Y-96430576D01*
X100104144Y-96430576D02*
X100104144Y-96506766D01*
X100104144Y-96506766D02*
X100142240Y-96582957D01*
X100142240Y-96582957D02*
X100180335Y-96621052D01*
X100180335Y-96621052D02*
X100256525Y-96659147D01*
X100256525Y-96659147D02*
X100408906Y-96697243D01*
X100408906Y-96697243D02*
X100599382Y-96697243D01*
X100599382Y-96697243D02*
X100751763Y-96659147D01*
X100751763Y-96659147D02*
X100827954Y-96621052D01*
X100827954Y-96621052D02*
X100866049Y-96582957D01*
X100866049Y-96582957D02*
X100904144Y-96506766D01*
X100904144Y-95516290D02*
X100904144Y-95897242D01*
X100904144Y-95897242D02*
X100523192Y-95935338D01*
X100523192Y-95935338D02*
X100561287Y-95897242D01*
X100561287Y-95897242D02*
X100599382Y-95821052D01*
X100599382Y-95821052D02*
X100599382Y-95630576D01*
X100599382Y-95630576D02*
X100561287Y-95554385D01*
X100561287Y-95554385D02*
X100523192Y-95516290D01*
X100523192Y-95516290D02*
X100447001Y-95478195D01*
X100447001Y-95478195D02*
X100256525Y-95478195D01*
X100256525Y-95478195D02*
X100180335Y-95516290D01*
X100180335Y-95516290D02*
X100142240Y-95554385D01*
X100142240Y-95554385D02*
X100104144Y-95630576D01*
X100104144Y-95630576D02*
X100104144Y-95821052D01*
X100104144Y-95821052D02*
X100142240Y-95897242D01*
X100142240Y-95897242D02*
X100180335Y-95935338D01*
X100104144Y-94716290D02*
X100104144Y-95173433D01*
X100104144Y-94944861D02*
X100904144Y-94944861D01*
X100904144Y-94944861D02*
X100789859Y-95021052D01*
X100789859Y-95021052D02*
X100713668Y-95097242D01*
X100713668Y-95097242D02*
X100675573Y-95173433D01*
X100904144Y-93763908D02*
X100256525Y-93763908D01*
X100256525Y-93763908D02*
X100180335Y-93725813D01*
X100180335Y-93725813D02*
X100142240Y-93687718D01*
X100142240Y-93687718D02*
X100104144Y-93611527D01*
X100104144Y-93611527D02*
X100104144Y-93459146D01*
X100104144Y-93459146D02*
X100142240Y-93382956D01*
X100142240Y-93382956D02*
X100180335Y-93344861D01*
X100180335Y-93344861D02*
X100256525Y-93306765D01*
X100256525Y-93306765D02*
X100904144Y-93306765D01*
X100142240Y-92963909D02*
X100104144Y-92849623D01*
X100104144Y-92849623D02*
X100104144Y-92659147D01*
X100104144Y-92659147D02*
X100142240Y-92582956D01*
X100142240Y-92582956D02*
X100180335Y-92544861D01*
X100180335Y-92544861D02*
X100256525Y-92506766D01*
X100256525Y-92506766D02*
X100332716Y-92506766D01*
X100332716Y-92506766D02*
X100408906Y-92544861D01*
X100408906Y-92544861D02*
X100447001Y-92582956D01*
X100447001Y-92582956D02*
X100485097Y-92659147D01*
X100485097Y-92659147D02*
X100523192Y-92811528D01*
X100523192Y-92811528D02*
X100561287Y-92887718D01*
X100561287Y-92887718D02*
X100599382Y-92925813D01*
X100599382Y-92925813D02*
X100675573Y-92963909D01*
X100675573Y-92963909D02*
X100751763Y-92963909D01*
X100751763Y-92963909D02*
X100827954Y-92925813D01*
X100827954Y-92925813D02*
X100866049Y-92887718D01*
X100866049Y-92887718D02*
X100904144Y-92811528D01*
X100904144Y-92811528D02*
X100904144Y-92621051D01*
X100904144Y-92621051D02*
X100866049Y-92506766D01*
X100523192Y-91897242D02*
X100485097Y-91782956D01*
X100485097Y-91782956D02*
X100447001Y-91744861D01*
X100447001Y-91744861D02*
X100370811Y-91706765D01*
X100370811Y-91706765D02*
X100256525Y-91706765D01*
X100256525Y-91706765D02*
X100180335Y-91744861D01*
X100180335Y-91744861D02*
X100142240Y-91782956D01*
X100142240Y-91782956D02*
X100104144Y-91859146D01*
X100104144Y-91859146D02*
X100104144Y-92163908D01*
X100104144Y-92163908D02*
X100904144Y-92163908D01*
X100904144Y-92163908D02*
X100904144Y-91897242D01*
X100904144Y-91897242D02*
X100866049Y-91821051D01*
X100866049Y-91821051D02*
X100827954Y-91782956D01*
X100827954Y-91782956D02*
X100751763Y-91744861D01*
X100751763Y-91744861D02*
X100675573Y-91744861D01*
X100675573Y-91744861D02*
X100599382Y-91782956D01*
X100599382Y-91782956D02*
X100561287Y-91821051D01*
X100561287Y-91821051D02*
X100523192Y-91897242D01*
X100523192Y-91897242D02*
X100523192Y-92163908D01*
X100408906Y-91363908D02*
X100408906Y-90754385D01*
X100180335Y-89916289D02*
X100142240Y-89954385D01*
X100142240Y-89954385D02*
X100104144Y-90068670D01*
X100104144Y-90068670D02*
X100104144Y-90144861D01*
X100104144Y-90144861D02*
X100142240Y-90259147D01*
X100142240Y-90259147D02*
X100218430Y-90335337D01*
X100218430Y-90335337D02*
X100294620Y-90373432D01*
X100294620Y-90373432D02*
X100447001Y-90411528D01*
X100447001Y-90411528D02*
X100561287Y-90411528D01*
X100561287Y-90411528D02*
X100713668Y-90373432D01*
X100713668Y-90373432D02*
X100789859Y-90335337D01*
X100789859Y-90335337D02*
X100866049Y-90259147D01*
X100866049Y-90259147D02*
X100904144Y-90144861D01*
X100904144Y-90144861D02*
X100904144Y-90068670D01*
X100904144Y-90068670D02*
X100866049Y-89954385D01*
X100866049Y-89954385D02*
X100827954Y-89916289D01*
X100142240Y-88621051D02*
X100104144Y-88697242D01*
X100104144Y-88697242D02*
X100104144Y-88849623D01*
X100104144Y-88849623D02*
X100142240Y-88925813D01*
X100142240Y-88925813D02*
X100180335Y-88963908D01*
X100180335Y-88963908D02*
X100256525Y-89002004D01*
X100256525Y-89002004D02*
X100485097Y-89002004D01*
X100485097Y-89002004D02*
X100561287Y-88963908D01*
X100561287Y-88963908D02*
X100599382Y-88925813D01*
X100599382Y-88925813D02*
X100637478Y-88849623D01*
X100637478Y-88849623D02*
X100637478Y-88697242D01*
X100637478Y-88697242D02*
X100599382Y-88621051D01*
X100104144Y-88278194D02*
X100904144Y-88278194D01*
X100104144Y-87935337D02*
X100523192Y-87935337D01*
X100523192Y-87935337D02*
X100599382Y-87973432D01*
X100599382Y-87973432D02*
X100637478Y-88049623D01*
X100637478Y-88049623D02*
X100637478Y-88163909D01*
X100637478Y-88163909D02*
X100599382Y-88240099D01*
X100599382Y-88240099D02*
X100561287Y-88278194D01*
X100104144Y-87211527D02*
X100523192Y-87211527D01*
X100523192Y-87211527D02*
X100599382Y-87249622D01*
X100599382Y-87249622D02*
X100637478Y-87325813D01*
X100637478Y-87325813D02*
X100637478Y-87478194D01*
X100637478Y-87478194D02*
X100599382Y-87554384D01*
X100142240Y-87211527D02*
X100104144Y-87287718D01*
X100104144Y-87287718D02*
X100104144Y-87478194D01*
X100104144Y-87478194D02*
X100142240Y-87554384D01*
X100142240Y-87554384D02*
X100218430Y-87592480D01*
X100218430Y-87592480D02*
X100294620Y-87592480D01*
X100294620Y-87592480D02*
X100370811Y-87554384D01*
X100370811Y-87554384D02*
X100408906Y-87478194D01*
X100408906Y-87478194D02*
X100408906Y-87287718D01*
X100408906Y-87287718D02*
X100447001Y-87211527D01*
X100104144Y-86830574D02*
X100637478Y-86830574D01*
X100485097Y-86830574D02*
X100561287Y-86792479D01*
X100561287Y-86792479D02*
X100599382Y-86754384D01*
X100599382Y-86754384D02*
X100637478Y-86678193D01*
X100637478Y-86678193D02*
X100637478Y-86602003D01*
X100637478Y-85992479D02*
X99989859Y-85992479D01*
X99989859Y-85992479D02*
X99913668Y-86030574D01*
X99913668Y-86030574D02*
X99875573Y-86068670D01*
X99875573Y-86068670D02*
X99837478Y-86144860D01*
X99837478Y-86144860D02*
X99837478Y-86259146D01*
X99837478Y-86259146D02*
X99875573Y-86335336D01*
X100142240Y-85992479D02*
X100104144Y-86068670D01*
X100104144Y-86068670D02*
X100104144Y-86221051D01*
X100104144Y-86221051D02*
X100142240Y-86297241D01*
X100142240Y-86297241D02*
X100180335Y-86335336D01*
X100180335Y-86335336D02*
X100256525Y-86373432D01*
X100256525Y-86373432D02*
X100485097Y-86373432D01*
X100485097Y-86373432D02*
X100561287Y-86335336D01*
X100561287Y-86335336D02*
X100599382Y-86297241D01*
X100599382Y-86297241D02*
X100637478Y-86221051D01*
X100637478Y-86221051D02*
X100637478Y-86068670D01*
X100637478Y-86068670D02*
X100599382Y-85992479D01*
X100142240Y-85306764D02*
X100104144Y-85382955D01*
X100104144Y-85382955D02*
X100104144Y-85535336D01*
X100104144Y-85535336D02*
X100142240Y-85611526D01*
X100142240Y-85611526D02*
X100218430Y-85649622D01*
X100218430Y-85649622D02*
X100523192Y-85649622D01*
X100523192Y-85649622D02*
X100599382Y-85611526D01*
X100599382Y-85611526D02*
X100637478Y-85535336D01*
X100637478Y-85535336D02*
X100637478Y-85382955D01*
X100637478Y-85382955D02*
X100599382Y-85306764D01*
X100599382Y-85306764D02*
X100523192Y-85268669D01*
X100523192Y-85268669D02*
X100447001Y-85268669D01*
X100447001Y-85268669D02*
X100370811Y-85649622D01*
X100104144Y-84925812D02*
X100637478Y-84925812D01*
X100485097Y-84925812D02*
X100561287Y-84887717D01*
X100561287Y-84887717D02*
X100599382Y-84849622D01*
X100599382Y-84849622D02*
X100637478Y-84773431D01*
X100637478Y-84773431D02*
X100637478Y-84697241D01*
X100104144Y-83821050D02*
X100637478Y-83821050D01*
X100561287Y-83821050D02*
X100599382Y-83782955D01*
X100599382Y-83782955D02*
X100637478Y-83706765D01*
X100637478Y-83706765D02*
X100637478Y-83592479D01*
X100637478Y-83592479D02*
X100599382Y-83516288D01*
X100599382Y-83516288D02*
X100523192Y-83478193D01*
X100523192Y-83478193D02*
X100104144Y-83478193D01*
X100523192Y-83478193D02*
X100599382Y-83440098D01*
X100599382Y-83440098D02*
X100637478Y-83363907D01*
X100637478Y-83363907D02*
X100637478Y-83249622D01*
X100637478Y-83249622D02*
X100599382Y-83173431D01*
X100599382Y-83173431D02*
X100523192Y-83135336D01*
X100523192Y-83135336D02*
X100104144Y-83135336D01*
X100104144Y-82640098D02*
X100142240Y-82716288D01*
X100142240Y-82716288D02*
X100180335Y-82754383D01*
X100180335Y-82754383D02*
X100256525Y-82792479D01*
X100256525Y-82792479D02*
X100485097Y-82792479D01*
X100485097Y-82792479D02*
X100561287Y-82754383D01*
X100561287Y-82754383D02*
X100599382Y-82716288D01*
X100599382Y-82716288D02*
X100637478Y-82640098D01*
X100637478Y-82640098D02*
X100637478Y-82525812D01*
X100637478Y-82525812D02*
X100599382Y-82449621D01*
X100599382Y-82449621D02*
X100561287Y-82411526D01*
X100561287Y-82411526D02*
X100485097Y-82373431D01*
X100485097Y-82373431D02*
X100256525Y-82373431D01*
X100256525Y-82373431D02*
X100180335Y-82411526D01*
X100180335Y-82411526D02*
X100142240Y-82449621D01*
X100142240Y-82449621D02*
X100104144Y-82525812D01*
X100104144Y-82525812D02*
X100104144Y-82640098D01*
X100104144Y-81687716D02*
X100904144Y-81687716D01*
X100142240Y-81687716D02*
X100104144Y-81763907D01*
X100104144Y-81763907D02*
X100104144Y-81916288D01*
X100104144Y-81916288D02*
X100142240Y-81992478D01*
X100142240Y-81992478D02*
X100180335Y-82030573D01*
X100180335Y-82030573D02*
X100256525Y-82068669D01*
X100256525Y-82068669D02*
X100485097Y-82068669D01*
X100485097Y-82068669D02*
X100561287Y-82030573D01*
X100561287Y-82030573D02*
X100599382Y-81992478D01*
X100599382Y-81992478D02*
X100637478Y-81916288D01*
X100637478Y-81916288D02*
X100637478Y-81763907D01*
X100637478Y-81763907D02*
X100599382Y-81687716D01*
X100637478Y-80963906D02*
X100104144Y-80963906D01*
X100637478Y-81306763D02*
X100218430Y-81306763D01*
X100218430Y-81306763D02*
X100142240Y-81268668D01*
X100142240Y-81268668D02*
X100104144Y-81192478D01*
X100104144Y-81192478D02*
X100104144Y-81078192D01*
X100104144Y-81078192D02*
X100142240Y-81002001D01*
X100142240Y-81002001D02*
X100180335Y-80963906D01*
X100104144Y-80468668D02*
X100142240Y-80544858D01*
X100142240Y-80544858D02*
X100218430Y-80582953D01*
X100218430Y-80582953D02*
X100904144Y-80582953D01*
X100142240Y-79859143D02*
X100104144Y-79935334D01*
X100104144Y-79935334D02*
X100104144Y-80087715D01*
X100104144Y-80087715D02*
X100142240Y-80163905D01*
X100142240Y-80163905D02*
X100218430Y-80202001D01*
X100218430Y-80202001D02*
X100523192Y-80202001D01*
X100523192Y-80202001D02*
X100599382Y-80163905D01*
X100599382Y-80163905D02*
X100637478Y-80087715D01*
X100637478Y-80087715D02*
X100637478Y-79935334D01*
X100637478Y-79935334D02*
X100599382Y-79859143D01*
X100599382Y-79859143D02*
X100523192Y-79821048D01*
X100523192Y-79821048D02*
X100447001Y-79821048D01*
X100447001Y-79821048D02*
X100370811Y-80202001D01*
X103499624Y-70145855D02*
X103880576Y-70145855D01*
X103880576Y-70145855D02*
X103880576Y-69345855D01*
X103232957Y-70145855D02*
X103232957Y-69345855D01*
X102852005Y-70145855D02*
X102852005Y-69345855D01*
X102852005Y-69345855D02*
X102547243Y-69345855D01*
X102547243Y-69345855D02*
X102471053Y-69383950D01*
X102471053Y-69383950D02*
X102432958Y-69422045D01*
X102432958Y-69422045D02*
X102394862Y-69498236D01*
X102394862Y-69498236D02*
X102394862Y-69612521D01*
X102394862Y-69612521D02*
X102432958Y-69688712D01*
X102432958Y-69688712D02*
X102471053Y-69726807D01*
X102471053Y-69726807D02*
X102547243Y-69764902D01*
X102547243Y-69764902D02*
X102852005Y-69764902D01*
X101899624Y-69345855D02*
X101747243Y-69345855D01*
X101747243Y-69345855D02*
X101671053Y-69383950D01*
X101671053Y-69383950D02*
X101594862Y-69460140D01*
X101594862Y-69460140D02*
X101556767Y-69612521D01*
X101556767Y-69612521D02*
X101556767Y-69879188D01*
X101556767Y-69879188D02*
X101594862Y-70031569D01*
X101594862Y-70031569D02*
X101671053Y-70107760D01*
X101671053Y-70107760D02*
X101747243Y-70145855D01*
X101747243Y-70145855D02*
X101899624Y-70145855D01*
X101899624Y-70145855D02*
X101975815Y-70107760D01*
X101975815Y-70107760D02*
X102052005Y-70031569D01*
X102052005Y-70031569D02*
X102090101Y-69879188D01*
X102090101Y-69879188D02*
X102090101Y-69612521D01*
X102090101Y-69612521D02*
X102052005Y-69460140D01*
X102052005Y-69460140D02*
X101975815Y-69383950D01*
X101975815Y-69383950D02*
X101899624Y-69345855D01*
X101213910Y-69841093D02*
X100604387Y-69841093D01*
D12*
X125393609Y-44564148D02*
X125265037Y-44607005D01*
X125265037Y-44607005D02*
X125222180Y-44649862D01*
X125222180Y-44649862D02*
X125179323Y-44735577D01*
X125179323Y-44735577D02*
X125179323Y-44864148D01*
X125179323Y-44864148D02*
X125222180Y-44949862D01*
X125222180Y-44949862D02*
X125265037Y-44992720D01*
X125265037Y-44992720D02*
X125350752Y-45035577D01*
X125350752Y-45035577D02*
X125693609Y-45035577D01*
X125693609Y-45035577D02*
X125693609Y-44135577D01*
X125693609Y-44135577D02*
X125393609Y-44135577D01*
X125393609Y-44135577D02*
X125307895Y-44178434D01*
X125307895Y-44178434D02*
X125265037Y-44221291D01*
X125265037Y-44221291D02*
X125222180Y-44307005D01*
X125222180Y-44307005D02*
X125222180Y-44392720D01*
X125222180Y-44392720D02*
X125265037Y-44478434D01*
X125265037Y-44478434D02*
X125307895Y-44521291D01*
X125307895Y-44521291D02*
X125393609Y-44564148D01*
X125393609Y-44564148D02*
X125693609Y-44564148D01*
X124407895Y-44435577D02*
X124407895Y-45035577D01*
X124793609Y-44435577D02*
X124793609Y-44907005D01*
X124793609Y-44907005D02*
X124750752Y-44992720D01*
X124750752Y-44992720D02*
X124665037Y-45035577D01*
X124665037Y-45035577D02*
X124536466Y-45035577D01*
X124536466Y-45035577D02*
X124450752Y-44992720D01*
X124450752Y-44992720D02*
X124407895Y-44949862D01*
X123979323Y-45035577D02*
X123979323Y-44435577D01*
X123979323Y-44607005D02*
X123936466Y-44521291D01*
X123936466Y-44521291D02*
X123893609Y-44478434D01*
X123893609Y-44478434D02*
X123807894Y-44435577D01*
X123807894Y-44435577D02*
X123722180Y-44435577D01*
X123079323Y-44992720D02*
X123165037Y-45035577D01*
X123165037Y-45035577D02*
X123336466Y-45035577D01*
X123336466Y-45035577D02*
X123422180Y-44992720D01*
X123422180Y-44992720D02*
X123465037Y-44907005D01*
X123465037Y-44907005D02*
X123465037Y-44564148D01*
X123465037Y-44564148D02*
X123422180Y-44478434D01*
X123422180Y-44478434D02*
X123336466Y-44435577D01*
X123336466Y-44435577D02*
X123165037Y-44435577D01*
X123165037Y-44435577D02*
X123079323Y-44478434D01*
X123079323Y-44478434D02*
X123036466Y-44564148D01*
X123036466Y-44564148D02*
X123036466Y-44649862D01*
X123036466Y-44649862D02*
X123465037Y-44735577D01*
X122650751Y-44435577D02*
X122650751Y-45035577D01*
X122650751Y-44521291D02*
X122607894Y-44478434D01*
X122607894Y-44478434D02*
X122522179Y-44435577D01*
X122522179Y-44435577D02*
X122393608Y-44435577D01*
X122393608Y-44435577D02*
X122307894Y-44478434D01*
X122307894Y-44478434D02*
X122265037Y-44564148D01*
X122265037Y-44564148D02*
X122265037Y-45035577D01*
X121922179Y-44435577D02*
X121707893Y-45035577D01*
X121493608Y-44435577D02*
X121707893Y-45035577D01*
X121707893Y-45035577D02*
X121793608Y-45249862D01*
X121793608Y-45249862D02*
X121836465Y-45292720D01*
X121836465Y-45292720D02*
X121922179Y-45335577D01*
X120765037Y-44435577D02*
X120765037Y-45035577D01*
X121150751Y-44435577D02*
X121150751Y-44907005D01*
X121150751Y-44907005D02*
X121107894Y-44992720D01*
X121107894Y-44992720D02*
X121022179Y-45035577D01*
X121022179Y-45035577D02*
X120893608Y-45035577D01*
X120893608Y-45035577D02*
X120807894Y-44992720D01*
X120807894Y-44992720D02*
X120765037Y-44949862D01*
X119950751Y-44435577D02*
X119950751Y-45035577D01*
X120336465Y-44435577D02*
X120336465Y-44907005D01*
X120336465Y-44907005D02*
X120293608Y-44992720D01*
X120293608Y-44992720D02*
X120207893Y-45035577D01*
X120207893Y-45035577D02*
X120079322Y-45035577D01*
X120079322Y-45035577D02*
X119993608Y-44992720D01*
X119993608Y-44992720D02*
X119950751Y-44949862D01*
X119522179Y-44949862D02*
X119479322Y-44992720D01*
X119479322Y-44992720D02*
X119522179Y-45035577D01*
X119522179Y-45035577D02*
X119565036Y-44992720D01*
X119565036Y-44992720D02*
X119522179Y-44949862D01*
X119522179Y-44949862D02*
X119522179Y-45035577D01*
X119522179Y-44692720D02*
X119565036Y-44178434D01*
X119565036Y-44178434D02*
X119522179Y-44135577D01*
X119522179Y-44135577D02*
X119479322Y-44178434D01*
X119479322Y-44178434D02*
X119522179Y-44692720D01*
X119522179Y-44692720D02*
X119522179Y-44135577D01*
X118407894Y-45035577D02*
X118407894Y-44135577D01*
X118407894Y-44135577D02*
X117893608Y-45035577D01*
X117893608Y-45035577D02*
X117893608Y-44135577D01*
X117122180Y-44992720D02*
X117207894Y-45035577D01*
X117207894Y-45035577D02*
X117379323Y-45035577D01*
X117379323Y-45035577D02*
X117465037Y-44992720D01*
X117465037Y-44992720D02*
X117507894Y-44907005D01*
X117507894Y-44907005D02*
X117507894Y-44564148D01*
X117507894Y-44564148D02*
X117465037Y-44478434D01*
X117465037Y-44478434D02*
X117379323Y-44435577D01*
X117379323Y-44435577D02*
X117207894Y-44435577D01*
X117207894Y-44435577D02*
X117122180Y-44478434D01*
X117122180Y-44478434D02*
X117079323Y-44564148D01*
X117079323Y-44564148D02*
X117079323Y-44649862D01*
X117079323Y-44649862D02*
X117507894Y-44735577D01*
X116693608Y-45035577D02*
X116693608Y-44135577D01*
X116607894Y-44692720D02*
X116350751Y-45035577D01*
X116350751Y-44435577D02*
X116693608Y-44778434D01*
X115836465Y-45035577D02*
X115922180Y-44992720D01*
X115922180Y-44992720D02*
X115965037Y-44949862D01*
X115965037Y-44949862D02*
X116007894Y-44864148D01*
X116007894Y-44864148D02*
X116007894Y-44607005D01*
X116007894Y-44607005D02*
X115965037Y-44521291D01*
X115965037Y-44521291D02*
X115922180Y-44478434D01*
X115922180Y-44478434D02*
X115836465Y-44435577D01*
X115836465Y-44435577D02*
X115707894Y-44435577D01*
X115707894Y-44435577D02*
X115622180Y-44478434D01*
X115622180Y-44478434D02*
X115579323Y-44521291D01*
X115579323Y-44521291D02*
X115536465Y-44607005D01*
X115536465Y-44607005D02*
X115536465Y-44864148D01*
X115536465Y-44864148D02*
X115579323Y-44949862D01*
X115579323Y-44949862D02*
X115622180Y-44992720D01*
X115622180Y-44992720D02*
X115707894Y-45035577D01*
X115707894Y-45035577D02*
X115836465Y-45035577D01*
X114079323Y-45035577D02*
X114079323Y-44564148D01*
X114079323Y-44564148D02*
X114122180Y-44478434D01*
X114122180Y-44478434D02*
X114207894Y-44435577D01*
X114207894Y-44435577D02*
X114379323Y-44435577D01*
X114379323Y-44435577D02*
X114465037Y-44478434D01*
X114079323Y-44992720D02*
X114165037Y-45035577D01*
X114165037Y-45035577D02*
X114379323Y-45035577D01*
X114379323Y-45035577D02*
X114465037Y-44992720D01*
X114465037Y-44992720D02*
X114507894Y-44907005D01*
X114507894Y-44907005D02*
X114507894Y-44821291D01*
X114507894Y-44821291D02*
X114465037Y-44735577D01*
X114465037Y-44735577D02*
X114379323Y-44692720D01*
X114379323Y-44692720D02*
X114165037Y-44692720D01*
X114165037Y-44692720D02*
X114079323Y-44649862D01*
X113650751Y-45035577D02*
X113650751Y-44435577D01*
X113650751Y-44607005D02*
X113607894Y-44521291D01*
X113607894Y-44521291D02*
X113565037Y-44478434D01*
X113565037Y-44478434D02*
X113479322Y-44435577D01*
X113479322Y-44435577D02*
X113393608Y-44435577D01*
X112707894Y-44992720D02*
X112793608Y-45035577D01*
X112793608Y-45035577D02*
X112965036Y-45035577D01*
X112965036Y-45035577D02*
X113050751Y-44992720D01*
X113050751Y-44992720D02*
X113093608Y-44949862D01*
X113093608Y-44949862D02*
X113136465Y-44864148D01*
X113136465Y-44864148D02*
X113136465Y-44607005D01*
X113136465Y-44607005D02*
X113093608Y-44521291D01*
X113093608Y-44521291D02*
X113050751Y-44478434D01*
X113050751Y-44478434D02*
X112965036Y-44435577D01*
X112965036Y-44435577D02*
X112793608Y-44435577D01*
X112793608Y-44435577D02*
X112707894Y-44478434D01*
X111636465Y-44435577D02*
X111636465Y-45035577D01*
X111636465Y-44521291D02*
X111593608Y-44478434D01*
X111593608Y-44478434D02*
X111507893Y-44435577D01*
X111507893Y-44435577D02*
X111379322Y-44435577D01*
X111379322Y-44435577D02*
X111293608Y-44478434D01*
X111293608Y-44478434D02*
X111250751Y-44564148D01*
X111250751Y-44564148D02*
X111250751Y-45035577D01*
X110479322Y-44992720D02*
X110565036Y-45035577D01*
X110565036Y-45035577D02*
X110736465Y-45035577D01*
X110736465Y-45035577D02*
X110822179Y-44992720D01*
X110822179Y-44992720D02*
X110865036Y-44907005D01*
X110865036Y-44907005D02*
X110865036Y-44564148D01*
X110865036Y-44564148D02*
X110822179Y-44478434D01*
X110822179Y-44478434D02*
X110736465Y-44435577D01*
X110736465Y-44435577D02*
X110565036Y-44435577D01*
X110565036Y-44435577D02*
X110479322Y-44478434D01*
X110479322Y-44478434D02*
X110436465Y-44564148D01*
X110436465Y-44564148D02*
X110436465Y-44649862D01*
X110436465Y-44649862D02*
X110865036Y-44735577D01*
X109707893Y-44992720D02*
X109793607Y-45035577D01*
X109793607Y-45035577D02*
X109965036Y-45035577D01*
X109965036Y-45035577D02*
X110050750Y-44992720D01*
X110050750Y-44992720D02*
X110093607Y-44907005D01*
X110093607Y-44907005D02*
X110093607Y-44564148D01*
X110093607Y-44564148D02*
X110050750Y-44478434D01*
X110050750Y-44478434D02*
X109965036Y-44435577D01*
X109965036Y-44435577D02*
X109793607Y-44435577D01*
X109793607Y-44435577D02*
X109707893Y-44478434D01*
X109707893Y-44478434D02*
X109665036Y-44564148D01*
X109665036Y-44564148D02*
X109665036Y-44649862D01*
X109665036Y-44649862D02*
X110093607Y-44735577D01*
X108893607Y-45035577D02*
X108893607Y-44135577D01*
X108893607Y-44992720D02*
X108979321Y-45035577D01*
X108979321Y-45035577D02*
X109150749Y-45035577D01*
X109150749Y-45035577D02*
X109236464Y-44992720D01*
X109236464Y-44992720D02*
X109279321Y-44949862D01*
X109279321Y-44949862D02*
X109322178Y-44864148D01*
X109322178Y-44864148D02*
X109322178Y-44607005D01*
X109322178Y-44607005D02*
X109279321Y-44521291D01*
X109279321Y-44521291D02*
X109236464Y-44478434D01*
X109236464Y-44478434D02*
X109150749Y-44435577D01*
X109150749Y-44435577D02*
X108979321Y-44435577D01*
X108979321Y-44435577D02*
X108893607Y-44478434D01*
X108507892Y-44992720D02*
X108422178Y-45035577D01*
X108422178Y-45035577D02*
X108250749Y-45035577D01*
X108250749Y-45035577D02*
X108165035Y-44992720D01*
X108165035Y-44992720D02*
X108122178Y-44907005D01*
X108122178Y-44907005D02*
X108122178Y-44864148D01*
X108122178Y-44864148D02*
X108165035Y-44778434D01*
X108165035Y-44778434D02*
X108250749Y-44735577D01*
X108250749Y-44735577D02*
X108379321Y-44735577D01*
X108379321Y-44735577D02*
X108465035Y-44692720D01*
X108465035Y-44692720D02*
X108507892Y-44607005D01*
X108507892Y-44607005D02*
X108507892Y-44564148D01*
X108507892Y-44564148D02*
X108465035Y-44478434D01*
X108465035Y-44478434D02*
X108379321Y-44435577D01*
X108379321Y-44435577D02*
X108250749Y-44435577D01*
X108250749Y-44435577D02*
X108165035Y-44478434D01*
X125307895Y-46484577D02*
X125307895Y-46013148D01*
X125307895Y-46013148D02*
X125350752Y-45927434D01*
X125350752Y-45927434D02*
X125436466Y-45884577D01*
X125436466Y-45884577D02*
X125607895Y-45884577D01*
X125607895Y-45884577D02*
X125693609Y-45927434D01*
X125307895Y-46441720D02*
X125393609Y-46484577D01*
X125393609Y-46484577D02*
X125607895Y-46484577D01*
X125607895Y-46484577D02*
X125693609Y-46441720D01*
X125693609Y-46441720D02*
X125736466Y-46356005D01*
X125736466Y-46356005D02*
X125736466Y-46270291D01*
X125736466Y-46270291D02*
X125693609Y-46184577D01*
X125693609Y-46184577D02*
X125607895Y-46141720D01*
X125607895Y-46141720D02*
X125393609Y-46141720D01*
X125393609Y-46141720D02*
X125307895Y-46098862D01*
X124193609Y-46484577D02*
X124193609Y-45584577D01*
X124193609Y-45927434D02*
X124107895Y-45884577D01*
X124107895Y-45884577D02*
X123936466Y-45884577D01*
X123936466Y-45884577D02*
X123850752Y-45927434D01*
X123850752Y-45927434D02*
X123807895Y-45970291D01*
X123807895Y-45970291D02*
X123765037Y-46056005D01*
X123765037Y-46056005D02*
X123765037Y-46313148D01*
X123765037Y-46313148D02*
X123807895Y-46398862D01*
X123807895Y-46398862D02*
X123850752Y-46441720D01*
X123850752Y-46441720D02*
X123936466Y-46484577D01*
X123936466Y-46484577D02*
X124107895Y-46484577D01*
X124107895Y-46484577D02*
X124193609Y-46441720D01*
X123250751Y-46484577D02*
X123336466Y-46441720D01*
X123336466Y-46441720D02*
X123379323Y-46398862D01*
X123379323Y-46398862D02*
X123422180Y-46313148D01*
X123422180Y-46313148D02*
X123422180Y-46056005D01*
X123422180Y-46056005D02*
X123379323Y-45970291D01*
X123379323Y-45970291D02*
X123336466Y-45927434D01*
X123336466Y-45927434D02*
X123250751Y-45884577D01*
X123250751Y-45884577D02*
X123122180Y-45884577D01*
X123122180Y-45884577D02*
X123036466Y-45927434D01*
X123036466Y-45927434D02*
X122993609Y-45970291D01*
X122993609Y-45970291D02*
X122950751Y-46056005D01*
X122950751Y-46056005D02*
X122950751Y-46313148D01*
X122950751Y-46313148D02*
X122993609Y-46398862D01*
X122993609Y-46398862D02*
X123036466Y-46441720D01*
X123036466Y-46441720D02*
X123122180Y-46484577D01*
X123122180Y-46484577D02*
X123250751Y-46484577D01*
X122693608Y-45884577D02*
X122350751Y-45884577D01*
X122565037Y-45584577D02*
X122565037Y-46356005D01*
X122565037Y-46356005D02*
X122522180Y-46441720D01*
X122522180Y-46441720D02*
X122436465Y-46484577D01*
X122436465Y-46484577D02*
X122350751Y-46484577D01*
X122179322Y-45884577D02*
X121836465Y-45884577D01*
X122050751Y-45584577D02*
X122050751Y-46356005D01*
X122050751Y-46356005D02*
X122007894Y-46441720D01*
X122007894Y-46441720D02*
X121922179Y-46484577D01*
X121922179Y-46484577D02*
X121836465Y-46484577D01*
X121407893Y-46484577D02*
X121493608Y-46441720D01*
X121493608Y-46441720D02*
X121536465Y-46356005D01*
X121536465Y-46356005D02*
X121536465Y-45584577D01*
X120722179Y-46441720D02*
X120807893Y-46484577D01*
X120807893Y-46484577D02*
X120979322Y-46484577D01*
X120979322Y-46484577D02*
X121065036Y-46441720D01*
X121065036Y-46441720D02*
X121107893Y-46356005D01*
X121107893Y-46356005D02*
X121107893Y-46013148D01*
X121107893Y-46013148D02*
X121065036Y-45927434D01*
X121065036Y-45927434D02*
X120979322Y-45884577D01*
X120979322Y-45884577D02*
X120807893Y-45884577D01*
X120807893Y-45884577D02*
X120722179Y-45927434D01*
X120722179Y-45927434D02*
X120679322Y-46013148D01*
X120679322Y-46013148D02*
X120679322Y-46098862D01*
X120679322Y-46098862D02*
X121107893Y-46184577D01*
X119479321Y-46484577D02*
X119565036Y-46441720D01*
X119565036Y-46441720D02*
X119607893Y-46398862D01*
X119607893Y-46398862D02*
X119650750Y-46313148D01*
X119650750Y-46313148D02*
X119650750Y-46056005D01*
X119650750Y-46056005D02*
X119607893Y-45970291D01*
X119607893Y-45970291D02*
X119565036Y-45927434D01*
X119565036Y-45927434D02*
X119479321Y-45884577D01*
X119479321Y-45884577D02*
X119350750Y-45884577D01*
X119350750Y-45884577D02*
X119265036Y-45927434D01*
X119265036Y-45927434D02*
X119222179Y-45970291D01*
X119222179Y-45970291D02*
X119179321Y-46056005D01*
X119179321Y-46056005D02*
X119179321Y-46313148D01*
X119179321Y-46313148D02*
X119222179Y-46398862D01*
X119222179Y-46398862D02*
X119265036Y-46441720D01*
X119265036Y-46441720D02*
X119350750Y-46484577D01*
X119350750Y-46484577D02*
X119479321Y-46484577D01*
X118922178Y-45884577D02*
X118579321Y-45884577D01*
X118793607Y-46484577D02*
X118793607Y-45713148D01*
X118793607Y-45713148D02*
X118750750Y-45627434D01*
X118750750Y-45627434D02*
X118665035Y-45584577D01*
X118665035Y-45584577D02*
X118579321Y-45584577D01*
X117593607Y-46484577D02*
X117593607Y-45884577D01*
X117593607Y-45970291D02*
X117550750Y-45927434D01*
X117550750Y-45927434D02*
X117465035Y-45884577D01*
X117465035Y-45884577D02*
X117336464Y-45884577D01*
X117336464Y-45884577D02*
X117250750Y-45927434D01*
X117250750Y-45927434D02*
X117207893Y-46013148D01*
X117207893Y-46013148D02*
X117207893Y-46484577D01*
X117207893Y-46013148D02*
X117165035Y-45927434D01*
X117165035Y-45927434D02*
X117079321Y-45884577D01*
X117079321Y-45884577D02*
X116950750Y-45884577D01*
X116950750Y-45884577D02*
X116865035Y-45927434D01*
X116865035Y-45927434D02*
X116822178Y-46013148D01*
X116822178Y-46013148D02*
X116822178Y-46484577D01*
X116393607Y-46484577D02*
X116393607Y-45884577D01*
X116393607Y-45584577D02*
X116436464Y-45627434D01*
X116436464Y-45627434D02*
X116393607Y-45670291D01*
X116393607Y-45670291D02*
X116350750Y-45627434D01*
X116350750Y-45627434D02*
X116393607Y-45584577D01*
X116393607Y-45584577D02*
X116393607Y-45670291D01*
X115836464Y-46484577D02*
X115922179Y-46441720D01*
X115922179Y-46441720D02*
X115965036Y-46356005D01*
X115965036Y-46356005D02*
X115965036Y-45584577D01*
X115493607Y-46484577D02*
X115493607Y-45584577D01*
X115407893Y-46141720D02*
X115150750Y-46484577D01*
X115150750Y-45884577D02*
X115493607Y-46227434D01*
X113693608Y-46484577D02*
X113693608Y-46013148D01*
X113693608Y-46013148D02*
X113736465Y-45927434D01*
X113736465Y-45927434D02*
X113822179Y-45884577D01*
X113822179Y-45884577D02*
X113993608Y-45884577D01*
X113993608Y-45884577D02*
X114079322Y-45927434D01*
X113693608Y-46441720D02*
X113779322Y-46484577D01*
X113779322Y-46484577D02*
X113993608Y-46484577D01*
X113993608Y-46484577D02*
X114079322Y-46441720D01*
X114079322Y-46441720D02*
X114122179Y-46356005D01*
X114122179Y-46356005D02*
X114122179Y-46270291D01*
X114122179Y-46270291D02*
X114079322Y-46184577D01*
X114079322Y-46184577D02*
X113993608Y-46141720D01*
X113993608Y-46141720D02*
X113779322Y-46141720D01*
X113779322Y-46141720D02*
X113693608Y-46098862D01*
X113265036Y-45884577D02*
X113265036Y-46484577D01*
X113265036Y-45970291D02*
X113222179Y-45927434D01*
X113222179Y-45927434D02*
X113136464Y-45884577D01*
X113136464Y-45884577D02*
X113007893Y-45884577D01*
X113007893Y-45884577D02*
X112922179Y-45927434D01*
X112922179Y-45927434D02*
X112879322Y-46013148D01*
X112879322Y-46013148D02*
X112879322Y-46484577D01*
X112065036Y-46484577D02*
X112065036Y-45584577D01*
X112065036Y-46441720D02*
X112150750Y-46484577D01*
X112150750Y-46484577D02*
X112322178Y-46484577D01*
X112322178Y-46484577D02*
X112407893Y-46441720D01*
X112407893Y-46441720D02*
X112450750Y-46398862D01*
X112450750Y-46398862D02*
X112493607Y-46313148D01*
X112493607Y-46313148D02*
X112493607Y-46056005D01*
X112493607Y-46056005D02*
X112450750Y-45970291D01*
X112450750Y-45970291D02*
X112407893Y-45927434D01*
X112407893Y-45927434D02*
X112322178Y-45884577D01*
X112322178Y-45884577D02*
X112150750Y-45884577D01*
X112150750Y-45884577D02*
X112065036Y-45927434D01*
X110950750Y-46484577D02*
X110950750Y-45584577D01*
X110950750Y-45927434D02*
X110865036Y-45884577D01*
X110865036Y-45884577D02*
X110693607Y-45884577D01*
X110693607Y-45884577D02*
X110607893Y-45927434D01*
X110607893Y-45927434D02*
X110565036Y-45970291D01*
X110565036Y-45970291D02*
X110522178Y-46056005D01*
X110522178Y-46056005D02*
X110522178Y-46313148D01*
X110522178Y-46313148D02*
X110565036Y-46398862D01*
X110565036Y-46398862D02*
X110607893Y-46441720D01*
X110607893Y-46441720D02*
X110693607Y-46484577D01*
X110693607Y-46484577D02*
X110865036Y-46484577D01*
X110865036Y-46484577D02*
X110950750Y-46441720D01*
X109793607Y-46441720D02*
X109879321Y-46484577D01*
X109879321Y-46484577D02*
X110050750Y-46484577D01*
X110050750Y-46484577D02*
X110136464Y-46441720D01*
X110136464Y-46441720D02*
X110179321Y-46356005D01*
X110179321Y-46356005D02*
X110179321Y-46013148D01*
X110179321Y-46013148D02*
X110136464Y-45927434D01*
X110136464Y-45927434D02*
X110050750Y-45884577D01*
X110050750Y-45884577D02*
X109879321Y-45884577D01*
X109879321Y-45884577D02*
X109793607Y-45927434D01*
X109793607Y-45927434D02*
X109750750Y-46013148D01*
X109750750Y-46013148D02*
X109750750Y-46098862D01*
X109750750Y-46098862D02*
X110179321Y-46184577D01*
X109365035Y-45884577D02*
X109365035Y-46784577D01*
X109365035Y-45927434D02*
X109279321Y-45884577D01*
X109279321Y-45884577D02*
X109107892Y-45884577D01*
X109107892Y-45884577D02*
X109022178Y-45927434D01*
X109022178Y-45927434D02*
X108979321Y-45970291D01*
X108979321Y-45970291D02*
X108936463Y-46056005D01*
X108936463Y-46056005D02*
X108936463Y-46313148D01*
X108936463Y-46313148D02*
X108979321Y-46398862D01*
X108979321Y-46398862D02*
X109022178Y-46441720D01*
X109022178Y-46441720D02*
X109107892Y-46484577D01*
X109107892Y-46484577D02*
X109279321Y-46484577D01*
X109279321Y-46484577D02*
X109365035Y-46441720D01*
X108550749Y-46484577D02*
X108550749Y-45884577D01*
X108550749Y-45584577D02*
X108593606Y-45627434D01*
X108593606Y-45627434D02*
X108550749Y-45670291D01*
X108550749Y-45670291D02*
X108507892Y-45627434D01*
X108507892Y-45627434D02*
X108550749Y-45584577D01*
X108550749Y-45584577D02*
X108550749Y-45670291D01*
X108165035Y-46441720D02*
X108079321Y-46484577D01*
X108079321Y-46484577D02*
X107907892Y-46484577D01*
X107907892Y-46484577D02*
X107822178Y-46441720D01*
X107822178Y-46441720D02*
X107779321Y-46356005D01*
X107779321Y-46356005D02*
X107779321Y-46313148D01*
X107779321Y-46313148D02*
X107822178Y-46227434D01*
X107822178Y-46227434D02*
X107907892Y-46184577D01*
X107907892Y-46184577D02*
X108036464Y-46184577D01*
X108036464Y-46184577D02*
X108122178Y-46141720D01*
X108122178Y-46141720D02*
X108165035Y-46056005D01*
X108165035Y-46056005D02*
X108165035Y-46013148D01*
X108165035Y-46013148D02*
X108122178Y-45927434D01*
X108122178Y-45927434D02*
X108036464Y-45884577D01*
X108036464Y-45884577D02*
X107907892Y-45884577D01*
X107907892Y-45884577D02*
X107822178Y-45927434D01*
X125822180Y-47333577D02*
X125479323Y-47333577D01*
X125693609Y-47033577D02*
X125693609Y-47805005D01*
X125693609Y-47805005D02*
X125650752Y-47890720D01*
X125650752Y-47890720D02*
X125565037Y-47933577D01*
X125565037Y-47933577D02*
X125479323Y-47933577D01*
X125050751Y-47933577D02*
X125136466Y-47890720D01*
X125136466Y-47890720D02*
X125179323Y-47847862D01*
X125179323Y-47847862D02*
X125222180Y-47762148D01*
X125222180Y-47762148D02*
X125222180Y-47505005D01*
X125222180Y-47505005D02*
X125179323Y-47419291D01*
X125179323Y-47419291D02*
X125136466Y-47376434D01*
X125136466Y-47376434D02*
X125050751Y-47333577D01*
X125050751Y-47333577D02*
X124922180Y-47333577D01*
X124922180Y-47333577D02*
X124836466Y-47376434D01*
X124836466Y-47376434D02*
X124793609Y-47419291D01*
X124793609Y-47419291D02*
X124750751Y-47505005D01*
X124750751Y-47505005D02*
X124750751Y-47762148D01*
X124750751Y-47762148D02*
X124793609Y-47847862D01*
X124793609Y-47847862D02*
X124836466Y-47890720D01*
X124836466Y-47890720D02*
X124922180Y-47933577D01*
X124922180Y-47933577D02*
X125050751Y-47933577D01*
X123679323Y-47933577D02*
X123679323Y-47333577D01*
X123679323Y-47505005D02*
X123636466Y-47419291D01*
X123636466Y-47419291D02*
X123593609Y-47376434D01*
X123593609Y-47376434D02*
X123507894Y-47333577D01*
X123507894Y-47333577D02*
X123422180Y-47333577D01*
X122779323Y-47890720D02*
X122865037Y-47933577D01*
X122865037Y-47933577D02*
X123036466Y-47933577D01*
X123036466Y-47933577D02*
X123122180Y-47890720D01*
X123122180Y-47890720D02*
X123165037Y-47805005D01*
X123165037Y-47805005D02*
X123165037Y-47462148D01*
X123165037Y-47462148D02*
X123122180Y-47376434D01*
X123122180Y-47376434D02*
X123036466Y-47333577D01*
X123036466Y-47333577D02*
X122865037Y-47333577D01*
X122865037Y-47333577D02*
X122779323Y-47376434D01*
X122779323Y-47376434D02*
X122736466Y-47462148D01*
X122736466Y-47462148D02*
X122736466Y-47547862D01*
X122736466Y-47547862D02*
X123165037Y-47633577D01*
X121965037Y-47933577D02*
X121965037Y-47462148D01*
X121965037Y-47462148D02*
X122007894Y-47376434D01*
X122007894Y-47376434D02*
X122093608Y-47333577D01*
X122093608Y-47333577D02*
X122265037Y-47333577D01*
X122265037Y-47333577D02*
X122350751Y-47376434D01*
X121965037Y-47890720D02*
X122050751Y-47933577D01*
X122050751Y-47933577D02*
X122265037Y-47933577D01*
X122265037Y-47933577D02*
X122350751Y-47890720D01*
X122350751Y-47890720D02*
X122393608Y-47805005D01*
X122393608Y-47805005D02*
X122393608Y-47719291D01*
X122393608Y-47719291D02*
X122350751Y-47633577D01*
X122350751Y-47633577D02*
X122265037Y-47590720D01*
X122265037Y-47590720D02*
X122050751Y-47590720D01*
X122050751Y-47590720D02*
X121965037Y-47547862D01*
X121150751Y-47890720D02*
X121236465Y-47933577D01*
X121236465Y-47933577D02*
X121407893Y-47933577D01*
X121407893Y-47933577D02*
X121493608Y-47890720D01*
X121493608Y-47890720D02*
X121536465Y-47847862D01*
X121536465Y-47847862D02*
X121579322Y-47762148D01*
X121579322Y-47762148D02*
X121579322Y-47505005D01*
X121579322Y-47505005D02*
X121536465Y-47419291D01*
X121536465Y-47419291D02*
X121493608Y-47376434D01*
X121493608Y-47376434D02*
X121407893Y-47333577D01*
X121407893Y-47333577D02*
X121236465Y-47333577D01*
X121236465Y-47333577D02*
X121150751Y-47376434D01*
X120765036Y-47933577D02*
X120765036Y-47033577D01*
X120379322Y-47933577D02*
X120379322Y-47462148D01*
X120379322Y-47462148D02*
X120422179Y-47376434D01*
X120422179Y-47376434D02*
X120507893Y-47333577D01*
X120507893Y-47333577D02*
X120636464Y-47333577D01*
X120636464Y-47333577D02*
X120722179Y-47376434D01*
X120722179Y-47376434D02*
X120765036Y-47419291D01*
X119265036Y-47933577D02*
X119265036Y-47033577D01*
X118879322Y-47933577D02*
X118879322Y-47462148D01*
X118879322Y-47462148D02*
X118922179Y-47376434D01*
X118922179Y-47376434D02*
X119007893Y-47333577D01*
X119007893Y-47333577D02*
X119136464Y-47333577D01*
X119136464Y-47333577D02*
X119222179Y-47376434D01*
X119222179Y-47376434D02*
X119265036Y-47419291D01*
X118107893Y-47890720D02*
X118193607Y-47933577D01*
X118193607Y-47933577D02*
X118365036Y-47933577D01*
X118365036Y-47933577D02*
X118450750Y-47890720D01*
X118450750Y-47890720D02*
X118493607Y-47805005D01*
X118493607Y-47805005D02*
X118493607Y-47462148D01*
X118493607Y-47462148D02*
X118450750Y-47376434D01*
X118450750Y-47376434D02*
X118365036Y-47333577D01*
X118365036Y-47333577D02*
X118193607Y-47333577D01*
X118193607Y-47333577D02*
X118107893Y-47376434D01*
X118107893Y-47376434D02*
X118065036Y-47462148D01*
X118065036Y-47462148D02*
X118065036Y-47547862D01*
X118065036Y-47547862D02*
X118493607Y-47633577D01*
X117679321Y-47933577D02*
X117679321Y-47333577D01*
X117679321Y-47505005D02*
X117636464Y-47419291D01*
X117636464Y-47419291D02*
X117593607Y-47376434D01*
X117593607Y-47376434D02*
X117507892Y-47333577D01*
X117507892Y-47333577D02*
X117422178Y-47333577D01*
X116050750Y-47333577D02*
X116050750Y-47933577D01*
X116436464Y-47333577D02*
X116436464Y-47805005D01*
X116436464Y-47805005D02*
X116393607Y-47890720D01*
X116393607Y-47890720D02*
X116307892Y-47933577D01*
X116307892Y-47933577D02*
X116179321Y-47933577D01*
X116179321Y-47933577D02*
X116093607Y-47890720D01*
X116093607Y-47890720D02*
X116050750Y-47847862D01*
X115493606Y-47933577D02*
X115579321Y-47890720D01*
X115579321Y-47890720D02*
X115622178Y-47805005D01*
X115622178Y-47805005D02*
X115622178Y-47033577D01*
X115279320Y-47333577D02*
X114936463Y-47333577D01*
X115150749Y-47033577D02*
X115150749Y-47805005D01*
X115150749Y-47805005D02*
X115107892Y-47890720D01*
X115107892Y-47890720D02*
X115022177Y-47933577D01*
X115022177Y-47933577D02*
X114936463Y-47933577D01*
X114636463Y-47933577D02*
X114636463Y-47333577D01*
X114636463Y-47033577D02*
X114679320Y-47076434D01*
X114679320Y-47076434D02*
X114636463Y-47119291D01*
X114636463Y-47119291D02*
X114593606Y-47076434D01*
X114593606Y-47076434D02*
X114636463Y-47033577D01*
X114636463Y-47033577D02*
X114636463Y-47119291D01*
X114207892Y-47933577D02*
X114207892Y-47333577D01*
X114207892Y-47419291D02*
X114165035Y-47376434D01*
X114165035Y-47376434D02*
X114079320Y-47333577D01*
X114079320Y-47333577D02*
X113950749Y-47333577D01*
X113950749Y-47333577D02*
X113865035Y-47376434D01*
X113865035Y-47376434D02*
X113822178Y-47462148D01*
X113822178Y-47462148D02*
X113822178Y-47933577D01*
X113822178Y-47462148D02*
X113779320Y-47376434D01*
X113779320Y-47376434D02*
X113693606Y-47333577D01*
X113693606Y-47333577D02*
X113565035Y-47333577D01*
X113565035Y-47333577D02*
X113479320Y-47376434D01*
X113479320Y-47376434D02*
X113436463Y-47462148D01*
X113436463Y-47462148D02*
X113436463Y-47933577D01*
X112622178Y-47933577D02*
X112622178Y-47462148D01*
X112622178Y-47462148D02*
X112665035Y-47376434D01*
X112665035Y-47376434D02*
X112750749Y-47333577D01*
X112750749Y-47333577D02*
X112922178Y-47333577D01*
X112922178Y-47333577D02*
X113007892Y-47376434D01*
X112622178Y-47890720D02*
X112707892Y-47933577D01*
X112707892Y-47933577D02*
X112922178Y-47933577D01*
X112922178Y-47933577D02*
X113007892Y-47890720D01*
X113007892Y-47890720D02*
X113050749Y-47805005D01*
X113050749Y-47805005D02*
X113050749Y-47719291D01*
X113050749Y-47719291D02*
X113007892Y-47633577D01*
X113007892Y-47633577D02*
X112922178Y-47590720D01*
X112922178Y-47590720D02*
X112707892Y-47590720D01*
X112707892Y-47590720D02*
X112622178Y-47547862D01*
X112322177Y-47333577D02*
X111979320Y-47333577D01*
X112193606Y-47033577D02*
X112193606Y-47805005D01*
X112193606Y-47805005D02*
X112150749Y-47890720D01*
X112150749Y-47890720D02*
X112065034Y-47933577D01*
X112065034Y-47933577D02*
X111979320Y-47933577D01*
X111336463Y-47890720D02*
X111422177Y-47933577D01*
X111422177Y-47933577D02*
X111593606Y-47933577D01*
X111593606Y-47933577D02*
X111679320Y-47890720D01*
X111679320Y-47890720D02*
X111722177Y-47805005D01*
X111722177Y-47805005D02*
X111722177Y-47462148D01*
X111722177Y-47462148D02*
X111679320Y-47376434D01*
X111679320Y-47376434D02*
X111593606Y-47333577D01*
X111593606Y-47333577D02*
X111422177Y-47333577D01*
X111422177Y-47333577D02*
X111336463Y-47376434D01*
X111336463Y-47376434D02*
X111293606Y-47462148D01*
X111293606Y-47462148D02*
X111293606Y-47547862D01*
X111293606Y-47547862D02*
X111722177Y-47633577D01*
X110222177Y-47333577D02*
X110222177Y-48233577D01*
X110222177Y-47376434D02*
X110136463Y-47333577D01*
X110136463Y-47333577D02*
X109965034Y-47333577D01*
X109965034Y-47333577D02*
X109879320Y-47376434D01*
X109879320Y-47376434D02*
X109836463Y-47419291D01*
X109836463Y-47419291D02*
X109793605Y-47505005D01*
X109793605Y-47505005D02*
X109793605Y-47762148D01*
X109793605Y-47762148D02*
X109836463Y-47847862D01*
X109836463Y-47847862D02*
X109879320Y-47890720D01*
X109879320Y-47890720D02*
X109965034Y-47933577D01*
X109965034Y-47933577D02*
X110136463Y-47933577D01*
X110136463Y-47933577D02*
X110222177Y-47890720D01*
X109279319Y-47933577D02*
X109365034Y-47890720D01*
X109365034Y-47890720D02*
X109407891Y-47847862D01*
X109407891Y-47847862D02*
X109450748Y-47762148D01*
X109450748Y-47762148D02*
X109450748Y-47505005D01*
X109450748Y-47505005D02*
X109407891Y-47419291D01*
X109407891Y-47419291D02*
X109365034Y-47376434D01*
X109365034Y-47376434D02*
X109279319Y-47333577D01*
X109279319Y-47333577D02*
X109150748Y-47333577D01*
X109150748Y-47333577D02*
X109065034Y-47376434D01*
X109065034Y-47376434D02*
X109022177Y-47419291D01*
X109022177Y-47419291D02*
X108979319Y-47505005D01*
X108979319Y-47505005D02*
X108979319Y-47762148D01*
X108979319Y-47762148D02*
X109022177Y-47847862D01*
X109022177Y-47847862D02*
X109065034Y-47890720D01*
X109065034Y-47890720D02*
X109150748Y-47933577D01*
X109150748Y-47933577D02*
X109279319Y-47933577D01*
X108679319Y-47333577D02*
X108507891Y-47933577D01*
X108507891Y-47933577D02*
X108336462Y-47505005D01*
X108336462Y-47505005D02*
X108165033Y-47933577D01*
X108165033Y-47933577D02*
X107993605Y-47333577D01*
X107307891Y-47890720D02*
X107393605Y-47933577D01*
X107393605Y-47933577D02*
X107565034Y-47933577D01*
X107565034Y-47933577D02*
X107650748Y-47890720D01*
X107650748Y-47890720D02*
X107693605Y-47805005D01*
X107693605Y-47805005D02*
X107693605Y-47462148D01*
X107693605Y-47462148D02*
X107650748Y-47376434D01*
X107650748Y-47376434D02*
X107565034Y-47333577D01*
X107565034Y-47333577D02*
X107393605Y-47333577D01*
X107393605Y-47333577D02*
X107307891Y-47376434D01*
X107307891Y-47376434D02*
X107265034Y-47462148D01*
X107265034Y-47462148D02*
X107265034Y-47547862D01*
X107265034Y-47547862D02*
X107693605Y-47633577D01*
X106879319Y-47933577D02*
X106879319Y-47333577D01*
X106879319Y-47505005D02*
X106836462Y-47419291D01*
X106836462Y-47419291D02*
X106793605Y-47376434D01*
X106793605Y-47376434D02*
X106707890Y-47333577D01*
X106707890Y-47333577D02*
X106622176Y-47333577D01*
X106322176Y-47847862D02*
X106279319Y-47890720D01*
X106279319Y-47890720D02*
X106322176Y-47933577D01*
X106322176Y-47933577D02*
X106365033Y-47890720D01*
X106365033Y-47890720D02*
X106322176Y-47847862D01*
X106322176Y-47847862D02*
X106322176Y-47933577D01*
X125693609Y-49382577D02*
X125693609Y-48482577D01*
X125693609Y-48482577D02*
X125393609Y-49125434D01*
X125393609Y-49125434D02*
X125093609Y-48482577D01*
X125093609Y-48482577D02*
X125093609Y-49382577D01*
X124279324Y-49382577D02*
X124279324Y-48911148D01*
X124279324Y-48911148D02*
X124322181Y-48825434D01*
X124322181Y-48825434D02*
X124407895Y-48782577D01*
X124407895Y-48782577D02*
X124579324Y-48782577D01*
X124579324Y-48782577D02*
X124665038Y-48825434D01*
X124279324Y-49339720D02*
X124365038Y-49382577D01*
X124365038Y-49382577D02*
X124579324Y-49382577D01*
X124579324Y-49382577D02*
X124665038Y-49339720D01*
X124665038Y-49339720D02*
X124707895Y-49254005D01*
X124707895Y-49254005D02*
X124707895Y-49168291D01*
X124707895Y-49168291D02*
X124665038Y-49082577D01*
X124665038Y-49082577D02*
X124579324Y-49039720D01*
X124579324Y-49039720D02*
X124365038Y-49039720D01*
X124365038Y-49039720D02*
X124279324Y-48996862D01*
X123936466Y-48782577D02*
X123722180Y-49382577D01*
X123507895Y-48782577D02*
X123722180Y-49382577D01*
X123722180Y-49382577D02*
X123807895Y-49596862D01*
X123807895Y-49596862D02*
X123850752Y-49639720D01*
X123850752Y-49639720D02*
X123936466Y-49682577D01*
X123165038Y-49382577D02*
X123165038Y-48482577D01*
X123165038Y-48825434D02*
X123079324Y-48782577D01*
X123079324Y-48782577D02*
X122907895Y-48782577D01*
X122907895Y-48782577D02*
X122822181Y-48825434D01*
X122822181Y-48825434D02*
X122779324Y-48868291D01*
X122779324Y-48868291D02*
X122736466Y-48954005D01*
X122736466Y-48954005D02*
X122736466Y-49211148D01*
X122736466Y-49211148D02*
X122779324Y-49296862D01*
X122779324Y-49296862D02*
X122822181Y-49339720D01*
X122822181Y-49339720D02*
X122907895Y-49382577D01*
X122907895Y-49382577D02*
X123079324Y-49382577D01*
X123079324Y-49382577D02*
X123165038Y-49339720D01*
X122007895Y-49339720D02*
X122093609Y-49382577D01*
X122093609Y-49382577D02*
X122265038Y-49382577D01*
X122265038Y-49382577D02*
X122350752Y-49339720D01*
X122350752Y-49339720D02*
X122393609Y-49254005D01*
X122393609Y-49254005D02*
X122393609Y-48911148D01*
X122393609Y-48911148D02*
X122350752Y-48825434D01*
X122350752Y-48825434D02*
X122265038Y-48782577D01*
X122265038Y-48782577D02*
X122093609Y-48782577D01*
X122093609Y-48782577D02*
X122007895Y-48825434D01*
X122007895Y-48825434D02*
X121965038Y-48911148D01*
X121965038Y-48911148D02*
X121965038Y-48996862D01*
X121965038Y-48996862D02*
X122393609Y-49082577D01*
X120979323Y-48782577D02*
X120765037Y-49382577D01*
X120550752Y-48782577D02*
X120765037Y-49382577D01*
X120765037Y-49382577D02*
X120850752Y-49596862D01*
X120850752Y-49596862D02*
X120893609Y-49639720D01*
X120893609Y-49639720D02*
X120979323Y-49682577D01*
X120079323Y-49382577D02*
X120165038Y-49339720D01*
X120165038Y-49339720D02*
X120207895Y-49296862D01*
X120207895Y-49296862D02*
X120250752Y-49211148D01*
X120250752Y-49211148D02*
X120250752Y-48954005D01*
X120250752Y-48954005D02*
X120207895Y-48868291D01*
X120207895Y-48868291D02*
X120165038Y-48825434D01*
X120165038Y-48825434D02*
X120079323Y-48782577D01*
X120079323Y-48782577D02*
X119950752Y-48782577D01*
X119950752Y-48782577D02*
X119865038Y-48825434D01*
X119865038Y-48825434D02*
X119822181Y-48868291D01*
X119822181Y-48868291D02*
X119779323Y-48954005D01*
X119779323Y-48954005D02*
X119779323Y-49211148D01*
X119779323Y-49211148D02*
X119822181Y-49296862D01*
X119822181Y-49296862D02*
X119865038Y-49339720D01*
X119865038Y-49339720D02*
X119950752Y-49382577D01*
X119950752Y-49382577D02*
X120079323Y-49382577D01*
X119007895Y-48782577D02*
X119007895Y-49382577D01*
X119393609Y-48782577D02*
X119393609Y-49254005D01*
X119393609Y-49254005D02*
X119350752Y-49339720D01*
X119350752Y-49339720D02*
X119265037Y-49382577D01*
X119265037Y-49382577D02*
X119136466Y-49382577D01*
X119136466Y-49382577D02*
X119050752Y-49339720D01*
X119050752Y-49339720D02*
X119007895Y-49296862D01*
X117507895Y-49339720D02*
X117593609Y-49382577D01*
X117593609Y-49382577D02*
X117765037Y-49382577D01*
X117765037Y-49382577D02*
X117850752Y-49339720D01*
X117850752Y-49339720D02*
X117893609Y-49296862D01*
X117893609Y-49296862D02*
X117936466Y-49211148D01*
X117936466Y-49211148D02*
X117936466Y-48954005D01*
X117936466Y-48954005D02*
X117893609Y-48868291D01*
X117893609Y-48868291D02*
X117850752Y-48825434D01*
X117850752Y-48825434D02*
X117765037Y-48782577D01*
X117765037Y-48782577D02*
X117593609Y-48782577D01*
X117593609Y-48782577D02*
X117507895Y-48825434D01*
X116736466Y-49382577D02*
X116736466Y-48911148D01*
X116736466Y-48911148D02*
X116779323Y-48825434D01*
X116779323Y-48825434D02*
X116865037Y-48782577D01*
X116865037Y-48782577D02*
X117036466Y-48782577D01*
X117036466Y-48782577D02*
X117122180Y-48825434D01*
X116736466Y-49339720D02*
X116822180Y-49382577D01*
X116822180Y-49382577D02*
X117036466Y-49382577D01*
X117036466Y-49382577D02*
X117122180Y-49339720D01*
X117122180Y-49339720D02*
X117165037Y-49254005D01*
X117165037Y-49254005D02*
X117165037Y-49168291D01*
X117165037Y-49168291D02*
X117122180Y-49082577D01*
X117122180Y-49082577D02*
X117036466Y-49039720D01*
X117036466Y-49039720D02*
X116822180Y-49039720D01*
X116822180Y-49039720D02*
X116736466Y-48996862D01*
X116307894Y-48782577D02*
X116307894Y-49382577D01*
X116307894Y-48868291D02*
X116265037Y-48825434D01*
X116265037Y-48825434D02*
X116179322Y-48782577D01*
X116179322Y-48782577D02*
X116050751Y-48782577D01*
X116050751Y-48782577D02*
X115965037Y-48825434D01*
X115965037Y-48825434D02*
X115922180Y-48911148D01*
X115922180Y-48911148D02*
X115922180Y-49382577D01*
X114807894Y-49382577D02*
X114807894Y-48482577D01*
X114422180Y-49382577D02*
X114422180Y-48911148D01*
X114422180Y-48911148D02*
X114465037Y-48825434D01*
X114465037Y-48825434D02*
X114550751Y-48782577D01*
X114550751Y-48782577D02*
X114679322Y-48782577D01*
X114679322Y-48782577D02*
X114765037Y-48825434D01*
X114765037Y-48825434D02*
X114807894Y-48868291D01*
X113650751Y-49339720D02*
X113736465Y-49382577D01*
X113736465Y-49382577D02*
X113907894Y-49382577D01*
X113907894Y-49382577D02*
X113993608Y-49339720D01*
X113993608Y-49339720D02*
X114036465Y-49254005D01*
X114036465Y-49254005D02*
X114036465Y-48911148D01*
X114036465Y-48911148D02*
X113993608Y-48825434D01*
X113993608Y-48825434D02*
X113907894Y-48782577D01*
X113907894Y-48782577D02*
X113736465Y-48782577D01*
X113736465Y-48782577D02*
X113650751Y-48825434D01*
X113650751Y-48825434D02*
X113607894Y-48911148D01*
X113607894Y-48911148D02*
X113607894Y-48996862D01*
X113607894Y-48996862D02*
X114036465Y-49082577D01*
X113093607Y-49382577D02*
X113179322Y-49339720D01*
X113179322Y-49339720D02*
X113222179Y-49254005D01*
X113222179Y-49254005D02*
X113222179Y-48482577D01*
X112750750Y-48782577D02*
X112750750Y-49682577D01*
X112750750Y-48825434D02*
X112665036Y-48782577D01*
X112665036Y-48782577D02*
X112493607Y-48782577D01*
X112493607Y-48782577D02*
X112407893Y-48825434D01*
X112407893Y-48825434D02*
X112365036Y-48868291D01*
X112365036Y-48868291D02*
X112322178Y-48954005D01*
X112322178Y-48954005D02*
X112322178Y-49211148D01*
X112322178Y-49211148D02*
X112365036Y-49296862D01*
X112365036Y-49296862D02*
X112407893Y-49339720D01*
X112407893Y-49339720D02*
X112493607Y-49382577D01*
X112493607Y-49382577D02*
X112665036Y-49382577D01*
X112665036Y-49382577D02*
X112750750Y-49339720D01*
X111250750Y-49382577D02*
X111250750Y-48482577D01*
X110865036Y-49382577D02*
X110865036Y-48911148D01*
X110865036Y-48911148D02*
X110907893Y-48825434D01*
X110907893Y-48825434D02*
X110993607Y-48782577D01*
X110993607Y-48782577D02*
X111122178Y-48782577D01*
X111122178Y-48782577D02*
X111207893Y-48825434D01*
X111207893Y-48825434D02*
X111250750Y-48868291D01*
X110093607Y-49339720D02*
X110179321Y-49382577D01*
X110179321Y-49382577D02*
X110350750Y-49382577D01*
X110350750Y-49382577D02*
X110436464Y-49339720D01*
X110436464Y-49339720D02*
X110479321Y-49254005D01*
X110479321Y-49254005D02*
X110479321Y-48911148D01*
X110479321Y-48911148D02*
X110436464Y-48825434D01*
X110436464Y-48825434D02*
X110350750Y-48782577D01*
X110350750Y-48782577D02*
X110179321Y-48782577D01*
X110179321Y-48782577D02*
X110093607Y-48825434D01*
X110093607Y-48825434D02*
X110050750Y-48911148D01*
X110050750Y-48911148D02*
X110050750Y-48996862D01*
X110050750Y-48996862D02*
X110479321Y-49082577D01*
X109665035Y-49382577D02*
X109665035Y-48782577D01*
X109665035Y-48954005D02*
X109622178Y-48868291D01*
X109622178Y-48868291D02*
X109579321Y-48825434D01*
X109579321Y-48825434D02*
X109493606Y-48782577D01*
X109493606Y-48782577D02*
X109407892Y-48782577D01*
X108979320Y-49296862D02*
X108936463Y-49339720D01*
X108936463Y-49339720D02*
X108979320Y-49382577D01*
X108979320Y-49382577D02*
X109022178Y-49339720D01*
X109022178Y-49339720D02*
X108979320Y-49296862D01*
X108979320Y-49296862D02*
X108979320Y-49382577D01*
X109150749Y-48525434D02*
X109065035Y-48482577D01*
X109065035Y-48482577D02*
X108850749Y-48482577D01*
X108850749Y-48482577D02*
X108765035Y-48525434D01*
X108765035Y-48525434D02*
X108722178Y-48611148D01*
X108722178Y-48611148D02*
X108722178Y-48696862D01*
X108722178Y-48696862D02*
X108765035Y-48782577D01*
X108765035Y-48782577D02*
X108807892Y-48825434D01*
X108807892Y-48825434D02*
X108893606Y-48868291D01*
X108893606Y-48868291D02*
X108936463Y-48911148D01*
X108936463Y-48911148D02*
X108979320Y-48996862D01*
X108979320Y-48996862D02*
X108979320Y-49039720D01*
D11*
X101630576Y-112731855D02*
X101630576Y-111931855D01*
X101630576Y-111931855D02*
X101363910Y-112503283D01*
X101363910Y-112503283D02*
X101097243Y-111931855D01*
X101097243Y-111931855D02*
X101097243Y-112731855D01*
X100373433Y-112731855D02*
X100373433Y-112312807D01*
X100373433Y-112312807D02*
X100411528Y-112236617D01*
X100411528Y-112236617D02*
X100487719Y-112198521D01*
X100487719Y-112198521D02*
X100640100Y-112198521D01*
X100640100Y-112198521D02*
X100716290Y-112236617D01*
X100373433Y-112693760D02*
X100449624Y-112731855D01*
X100449624Y-112731855D02*
X100640100Y-112731855D01*
X100640100Y-112731855D02*
X100716290Y-112693760D01*
X100716290Y-112693760D02*
X100754386Y-112617569D01*
X100754386Y-112617569D02*
X100754386Y-112541379D01*
X100754386Y-112541379D02*
X100716290Y-112465188D01*
X100716290Y-112465188D02*
X100640100Y-112427093D01*
X100640100Y-112427093D02*
X100449624Y-112427093D01*
X100449624Y-112427093D02*
X100373433Y-112388998D01*
X99649623Y-112731855D02*
X99649623Y-111931855D01*
X99649623Y-112693760D02*
X99725814Y-112731855D01*
X99725814Y-112731855D02*
X99878195Y-112731855D01*
X99878195Y-112731855D02*
X99954385Y-112693760D01*
X99954385Y-112693760D02*
X99992480Y-112655664D01*
X99992480Y-112655664D02*
X100030576Y-112579474D01*
X100030576Y-112579474D02*
X100030576Y-112350902D01*
X100030576Y-112350902D02*
X99992480Y-112274712D01*
X99992480Y-112274712D02*
X99954385Y-112236617D01*
X99954385Y-112236617D02*
X99878195Y-112198521D01*
X99878195Y-112198521D02*
X99725814Y-112198521D01*
X99725814Y-112198521D02*
X99649623Y-112236617D01*
X98963908Y-112693760D02*
X99040099Y-112731855D01*
X99040099Y-112731855D02*
X99192480Y-112731855D01*
X99192480Y-112731855D02*
X99268670Y-112693760D01*
X99268670Y-112693760D02*
X99306766Y-112617569D01*
X99306766Y-112617569D02*
X99306766Y-112312807D01*
X99306766Y-112312807D02*
X99268670Y-112236617D01*
X99268670Y-112236617D02*
X99192480Y-112198521D01*
X99192480Y-112198521D02*
X99040099Y-112198521D01*
X99040099Y-112198521D02*
X98963908Y-112236617D01*
X98963908Y-112236617D02*
X98925813Y-112312807D01*
X98925813Y-112312807D02*
X98925813Y-112388998D01*
X98925813Y-112388998D02*
X99306766Y-112465188D01*
X97630575Y-112731855D02*
X97630575Y-112312807D01*
X97630575Y-112312807D02*
X97668670Y-112236617D01*
X97668670Y-112236617D02*
X97744861Y-112198521D01*
X97744861Y-112198521D02*
X97897242Y-112198521D01*
X97897242Y-112198521D02*
X97973432Y-112236617D01*
X97630575Y-112693760D02*
X97706766Y-112731855D01*
X97706766Y-112731855D02*
X97897242Y-112731855D01*
X97897242Y-112731855D02*
X97973432Y-112693760D01*
X97973432Y-112693760D02*
X98011528Y-112617569D01*
X98011528Y-112617569D02*
X98011528Y-112541379D01*
X98011528Y-112541379D02*
X97973432Y-112465188D01*
X97973432Y-112465188D02*
X97897242Y-112427093D01*
X97897242Y-112427093D02*
X97706766Y-112427093D01*
X97706766Y-112427093D02*
X97630575Y-112388998D01*
X97363908Y-112198521D02*
X97059146Y-112198521D01*
X97249622Y-111931855D02*
X97249622Y-112617569D01*
X97249622Y-112617569D02*
X97211527Y-112693760D01*
X97211527Y-112693760D02*
X97135337Y-112731855D01*
X97135337Y-112731855D02*
X97059146Y-112731855D01*
X101630576Y-114019855D02*
X101630576Y-113219855D01*
X101630576Y-113600807D02*
X101173433Y-113600807D01*
X101173433Y-114019855D02*
X101173433Y-113219855D01*
X100449624Y-114019855D02*
X100449624Y-113600807D01*
X100449624Y-113600807D02*
X100487719Y-113524617D01*
X100487719Y-113524617D02*
X100563910Y-113486521D01*
X100563910Y-113486521D02*
X100716291Y-113486521D01*
X100716291Y-113486521D02*
X100792481Y-113524617D01*
X100449624Y-113981760D02*
X100525815Y-114019855D01*
X100525815Y-114019855D02*
X100716291Y-114019855D01*
X100716291Y-114019855D02*
X100792481Y-113981760D01*
X100792481Y-113981760D02*
X100830577Y-113905569D01*
X100830577Y-113905569D02*
X100830577Y-113829379D01*
X100830577Y-113829379D02*
X100792481Y-113753188D01*
X100792481Y-113753188D02*
X100716291Y-113715093D01*
X100716291Y-113715093D02*
X100525815Y-113715093D01*
X100525815Y-113715093D02*
X100449624Y-113676998D01*
X99725814Y-113981760D02*
X99802005Y-114019855D01*
X99802005Y-114019855D02*
X99954386Y-114019855D01*
X99954386Y-114019855D02*
X100030576Y-113981760D01*
X100030576Y-113981760D02*
X100068671Y-113943664D01*
X100068671Y-113943664D02*
X100106767Y-113867474D01*
X100106767Y-113867474D02*
X100106767Y-113638902D01*
X100106767Y-113638902D02*
X100068671Y-113562712D01*
X100068671Y-113562712D02*
X100030576Y-113524617D01*
X100030576Y-113524617D02*
X99954386Y-113486521D01*
X99954386Y-113486521D02*
X99802005Y-113486521D01*
X99802005Y-113486521D02*
X99725814Y-113524617D01*
X99382957Y-114019855D02*
X99382957Y-113219855D01*
X99306767Y-113715093D02*
X99078195Y-114019855D01*
X99078195Y-113486521D02*
X99382957Y-113791283D01*
X98430576Y-113981760D02*
X98506767Y-114019855D01*
X98506767Y-114019855D02*
X98659148Y-114019855D01*
X98659148Y-114019855D02*
X98735338Y-113981760D01*
X98735338Y-113981760D02*
X98773434Y-113905569D01*
X98773434Y-113905569D02*
X98773434Y-113600807D01*
X98773434Y-113600807D02*
X98735338Y-113524617D01*
X98735338Y-113524617D02*
X98659148Y-113486521D01*
X98659148Y-113486521D02*
X98506767Y-113486521D01*
X98506767Y-113486521D02*
X98430576Y-113524617D01*
X98430576Y-113524617D02*
X98392481Y-113600807D01*
X98392481Y-113600807D02*
X98392481Y-113676998D01*
X98392481Y-113676998D02*
X98773434Y-113753188D01*
X98049624Y-114019855D02*
X98049624Y-113486521D01*
X98049624Y-113638902D02*
X98011529Y-113562712D01*
X98011529Y-113562712D02*
X97973434Y-113524617D01*
X97973434Y-113524617D02*
X97897243Y-113486521D01*
X97897243Y-113486521D02*
X97821053Y-113486521D01*
X97592482Y-113981760D02*
X97516291Y-114019855D01*
X97516291Y-114019855D02*
X97363910Y-114019855D01*
X97363910Y-114019855D02*
X97287720Y-113981760D01*
X97287720Y-113981760D02*
X97249624Y-113905569D01*
X97249624Y-113905569D02*
X97249624Y-113867474D01*
X97249624Y-113867474D02*
X97287720Y-113791283D01*
X97287720Y-113791283D02*
X97363910Y-113753188D01*
X97363910Y-113753188D02*
X97478196Y-113753188D01*
X97478196Y-113753188D02*
X97554386Y-113715093D01*
X97554386Y-113715093D02*
X97592482Y-113638902D01*
X97592482Y-113638902D02*
X97592482Y-113600807D01*
X97592482Y-113600807D02*
X97554386Y-113524617D01*
X97554386Y-113524617D02*
X97478196Y-113486521D01*
X97478196Y-113486521D02*
X97363910Y-113486521D01*
X97363910Y-113486521D02*
X97287720Y-113524617D01*
X96906767Y-113486521D02*
X96906767Y-114286521D01*
X96906767Y-113524617D02*
X96830577Y-113486521D01*
X96830577Y-113486521D02*
X96678196Y-113486521D01*
X96678196Y-113486521D02*
X96602005Y-113524617D01*
X96602005Y-113524617D02*
X96563910Y-113562712D01*
X96563910Y-113562712D02*
X96525815Y-113638902D01*
X96525815Y-113638902D02*
X96525815Y-113867474D01*
X96525815Y-113867474D02*
X96563910Y-113943664D01*
X96563910Y-113943664D02*
X96602005Y-113981760D01*
X96602005Y-113981760D02*
X96678196Y-114019855D01*
X96678196Y-114019855D02*
X96830577Y-114019855D01*
X96830577Y-114019855D02*
X96906767Y-113981760D01*
X95840100Y-114019855D02*
X95840100Y-113600807D01*
X95840100Y-113600807D02*
X95878195Y-113524617D01*
X95878195Y-113524617D02*
X95954386Y-113486521D01*
X95954386Y-113486521D02*
X96106767Y-113486521D01*
X96106767Y-113486521D02*
X96182957Y-113524617D01*
X95840100Y-113981760D02*
X95916291Y-114019855D01*
X95916291Y-114019855D02*
X96106767Y-114019855D01*
X96106767Y-114019855D02*
X96182957Y-113981760D01*
X96182957Y-113981760D02*
X96221053Y-113905569D01*
X96221053Y-113905569D02*
X96221053Y-113829379D01*
X96221053Y-113829379D02*
X96182957Y-113753188D01*
X96182957Y-113753188D02*
X96106767Y-113715093D01*
X96106767Y-113715093D02*
X95916291Y-113715093D01*
X95916291Y-113715093D02*
X95840100Y-113676998D01*
X95116290Y-113981760D02*
X95192481Y-114019855D01*
X95192481Y-114019855D02*
X95344862Y-114019855D01*
X95344862Y-114019855D02*
X95421052Y-113981760D01*
X95421052Y-113981760D02*
X95459147Y-113943664D01*
X95459147Y-113943664D02*
X95497243Y-113867474D01*
X95497243Y-113867474D02*
X95497243Y-113638902D01*
X95497243Y-113638902D02*
X95459147Y-113562712D01*
X95459147Y-113562712D02*
X95421052Y-113524617D01*
X95421052Y-113524617D02*
X95344862Y-113486521D01*
X95344862Y-113486521D02*
X95192481Y-113486521D01*
X95192481Y-113486521D02*
X95116290Y-113524617D01*
X94468671Y-113981760D02*
X94544862Y-114019855D01*
X94544862Y-114019855D02*
X94697243Y-114019855D01*
X94697243Y-114019855D02*
X94773433Y-113981760D01*
X94773433Y-113981760D02*
X94811529Y-113905569D01*
X94811529Y-113905569D02*
X94811529Y-113600807D01*
X94811529Y-113600807D02*
X94773433Y-113524617D01*
X94773433Y-113524617D02*
X94697243Y-113486521D01*
X94697243Y-113486521D02*
X94544862Y-113486521D01*
X94544862Y-113486521D02*
X94468671Y-113524617D01*
X94468671Y-113524617D02*
X94430576Y-113600807D01*
X94430576Y-113600807D02*
X94430576Y-113676998D01*
X94430576Y-113676998D02*
X94811529Y-113753188D01*
X101630576Y-115307855D02*
X101630576Y-114507855D01*
X101630576Y-114507855D02*
X101325814Y-114507855D01*
X101325814Y-114507855D02*
X101249624Y-114545950D01*
X101249624Y-114545950D02*
X101211529Y-114584045D01*
X101211529Y-114584045D02*
X101173433Y-114660236D01*
X101173433Y-114660236D02*
X101173433Y-114774521D01*
X101173433Y-114774521D02*
X101211529Y-114850712D01*
X101211529Y-114850712D02*
X101249624Y-114888807D01*
X101249624Y-114888807D02*
X101325814Y-114926902D01*
X101325814Y-114926902D02*
X101630576Y-114926902D01*
X100716291Y-115307855D02*
X100792481Y-115269760D01*
X100792481Y-115269760D02*
X100830576Y-115231664D01*
X100830576Y-115231664D02*
X100868672Y-115155474D01*
X100868672Y-115155474D02*
X100868672Y-114926902D01*
X100868672Y-114926902D02*
X100830576Y-114850712D01*
X100830576Y-114850712D02*
X100792481Y-114812617D01*
X100792481Y-114812617D02*
X100716291Y-114774521D01*
X100716291Y-114774521D02*
X100602005Y-114774521D01*
X100602005Y-114774521D02*
X100525814Y-114812617D01*
X100525814Y-114812617D02*
X100487719Y-114850712D01*
X100487719Y-114850712D02*
X100449624Y-114926902D01*
X100449624Y-114926902D02*
X100449624Y-115155474D01*
X100449624Y-115155474D02*
X100487719Y-115231664D01*
X100487719Y-115231664D02*
X100525814Y-115269760D01*
X100525814Y-115269760D02*
X100602005Y-115307855D01*
X100602005Y-115307855D02*
X100716291Y-115307855D01*
X100106766Y-115307855D02*
X100106766Y-114774521D01*
X100106766Y-114850712D02*
X100068671Y-114812617D01*
X100068671Y-114812617D02*
X99992481Y-114774521D01*
X99992481Y-114774521D02*
X99878195Y-114774521D01*
X99878195Y-114774521D02*
X99802004Y-114812617D01*
X99802004Y-114812617D02*
X99763909Y-114888807D01*
X99763909Y-114888807D02*
X99763909Y-115307855D01*
X99763909Y-114888807D02*
X99725814Y-114812617D01*
X99725814Y-114812617D02*
X99649623Y-114774521D01*
X99649623Y-114774521D02*
X99535338Y-114774521D01*
X99535338Y-114774521D02*
X99459147Y-114812617D01*
X99459147Y-114812617D02*
X99421052Y-114888807D01*
X99421052Y-114888807D02*
X99421052Y-115307855D01*
X98735337Y-115269760D02*
X98811528Y-115307855D01*
X98811528Y-115307855D02*
X98963909Y-115307855D01*
X98963909Y-115307855D02*
X99040099Y-115269760D01*
X99040099Y-115269760D02*
X99078195Y-115193569D01*
X99078195Y-115193569D02*
X99078195Y-114888807D01*
X99078195Y-114888807D02*
X99040099Y-114812617D01*
X99040099Y-114812617D02*
X98963909Y-114774521D01*
X98963909Y-114774521D02*
X98811528Y-114774521D01*
X98811528Y-114774521D02*
X98735337Y-114812617D01*
X98735337Y-114812617D02*
X98697242Y-114888807D01*
X98697242Y-114888807D02*
X98697242Y-114964998D01*
X98697242Y-114964998D02*
X99078195Y-115041188D01*
X98354385Y-115307855D02*
X98354385Y-114774521D01*
X98354385Y-114926902D02*
X98316290Y-114850712D01*
X98316290Y-114850712D02*
X98278195Y-114812617D01*
X98278195Y-114812617D02*
X98202004Y-114774521D01*
X98202004Y-114774521D02*
X98125814Y-114774521D01*
X97516290Y-115307855D02*
X97516290Y-114888807D01*
X97516290Y-114888807D02*
X97554385Y-114812617D01*
X97554385Y-114812617D02*
X97630576Y-114774521D01*
X97630576Y-114774521D02*
X97782957Y-114774521D01*
X97782957Y-114774521D02*
X97859147Y-114812617D01*
X97516290Y-115269760D02*
X97592481Y-115307855D01*
X97592481Y-115307855D02*
X97782957Y-115307855D01*
X97782957Y-115307855D02*
X97859147Y-115269760D01*
X97859147Y-115269760D02*
X97897243Y-115193569D01*
X97897243Y-115193569D02*
X97897243Y-115117379D01*
X97897243Y-115117379D02*
X97859147Y-115041188D01*
X97859147Y-115041188D02*
X97782957Y-115003093D01*
X97782957Y-115003093D02*
X97592481Y-115003093D01*
X97592481Y-115003093D02*
X97516290Y-114964998D01*
X97135337Y-114774521D02*
X97135337Y-115307855D01*
X97135337Y-114850712D02*
X97097242Y-114812617D01*
X97097242Y-114812617D02*
X97021052Y-114774521D01*
X97021052Y-114774521D02*
X96906766Y-114774521D01*
X96906766Y-114774521D02*
X96830575Y-114812617D01*
X96830575Y-114812617D02*
X96792480Y-114888807D01*
X96792480Y-114888807D02*
X96792480Y-115307855D01*
X96411527Y-115307855D02*
X96411527Y-114774521D01*
X96411527Y-114507855D02*
X96449623Y-114545950D01*
X96449623Y-114545950D02*
X96411527Y-114584045D01*
X96411527Y-114584045D02*
X96373432Y-114545950D01*
X96373432Y-114545950D02*
X96411527Y-114507855D01*
X96411527Y-114507855D02*
X96411527Y-114584045D01*
X95687718Y-115307855D02*
X95687718Y-114888807D01*
X95687718Y-114888807D02*
X95725813Y-114812617D01*
X95725813Y-114812617D02*
X95802004Y-114774521D01*
X95802004Y-114774521D02*
X95954385Y-114774521D01*
X95954385Y-114774521D02*
X96030575Y-114812617D01*
X95687718Y-115269760D02*
X95763909Y-115307855D01*
X95763909Y-115307855D02*
X95954385Y-115307855D01*
X95954385Y-115307855D02*
X96030575Y-115269760D01*
X96030575Y-115269760D02*
X96068671Y-115193569D01*
X96068671Y-115193569D02*
X96068671Y-115117379D01*
X96068671Y-115117379D02*
X96030575Y-115041188D01*
X96030575Y-115041188D02*
X95954385Y-115003093D01*
X95954385Y-115003093D02*
X95763909Y-115003093D01*
X95763909Y-115003093D02*
X95687718Y-114964998D01*
X100411528Y-116595855D02*
X100411528Y-115795855D01*
X100068671Y-116595855D02*
X100068671Y-116176807D01*
X100068671Y-116176807D02*
X100106766Y-116100617D01*
X100106766Y-116100617D02*
X100182957Y-116062521D01*
X100182957Y-116062521D02*
X100297243Y-116062521D01*
X100297243Y-116062521D02*
X100373433Y-116100617D01*
X100373433Y-116100617D02*
X100411528Y-116138712D01*
X99725814Y-116557760D02*
X99649623Y-116595855D01*
X99649623Y-116595855D02*
X99497242Y-116595855D01*
X99497242Y-116595855D02*
X99421052Y-116557760D01*
X99421052Y-116557760D02*
X99382956Y-116481569D01*
X99382956Y-116481569D02*
X99382956Y-116443474D01*
X99382956Y-116443474D02*
X99421052Y-116367283D01*
X99421052Y-116367283D02*
X99497242Y-116329188D01*
X99497242Y-116329188D02*
X99611528Y-116329188D01*
X99611528Y-116329188D02*
X99687718Y-116291093D01*
X99687718Y-116291093D02*
X99725814Y-116214902D01*
X99725814Y-116214902D02*
X99725814Y-116176807D01*
X99725814Y-116176807D02*
X99687718Y-116100617D01*
X99687718Y-116100617D02*
X99611528Y-116062521D01*
X99611528Y-116062521D02*
X99497242Y-116062521D01*
X99497242Y-116062521D02*
X99421052Y-116100617D01*
X99040099Y-116062521D02*
X99040099Y-116862521D01*
X99040099Y-116100617D02*
X98963909Y-116062521D01*
X98963909Y-116062521D02*
X98811528Y-116062521D01*
X98811528Y-116062521D02*
X98735337Y-116100617D01*
X98735337Y-116100617D02*
X98697242Y-116138712D01*
X98697242Y-116138712D02*
X98659147Y-116214902D01*
X98659147Y-116214902D02*
X98659147Y-116443474D01*
X98659147Y-116443474D02*
X98697242Y-116519664D01*
X98697242Y-116519664D02*
X98735337Y-116557760D01*
X98735337Y-116557760D02*
X98811528Y-116595855D01*
X98811528Y-116595855D02*
X98963909Y-116595855D01*
X98963909Y-116595855D02*
X99040099Y-116557760D01*
X98316289Y-116519664D02*
X98278194Y-116557760D01*
X98278194Y-116557760D02*
X98316289Y-116595855D01*
X98316289Y-116595855D02*
X98354385Y-116557760D01*
X98354385Y-116557760D02*
X98316289Y-116519664D01*
X98316289Y-116519664D02*
X98316289Y-116595855D01*
X97973433Y-116557760D02*
X97897242Y-116595855D01*
X97897242Y-116595855D02*
X97744861Y-116595855D01*
X97744861Y-116595855D02*
X97668671Y-116557760D01*
X97668671Y-116557760D02*
X97630575Y-116481569D01*
X97630575Y-116481569D02*
X97630575Y-116443474D01*
X97630575Y-116443474D02*
X97668671Y-116367283D01*
X97668671Y-116367283D02*
X97744861Y-116329188D01*
X97744861Y-116329188D02*
X97859147Y-116329188D01*
X97859147Y-116329188D02*
X97935337Y-116291093D01*
X97935337Y-116291093D02*
X97973433Y-116214902D01*
X97973433Y-116214902D02*
X97973433Y-116176807D01*
X97973433Y-116176807D02*
X97935337Y-116100617D01*
X97935337Y-116100617D02*
X97859147Y-116062521D01*
X97859147Y-116062521D02*
X97744861Y-116062521D01*
X97744861Y-116062521D02*
X97668671Y-116100617D01*
X97287718Y-116595855D02*
X97287718Y-115795855D01*
X96944861Y-116595855D02*
X96944861Y-116176807D01*
X96944861Y-116176807D02*
X96982956Y-116100617D01*
X96982956Y-116100617D02*
X97059147Y-116062521D01*
X97059147Y-116062521D02*
X97173433Y-116062521D01*
X97173433Y-116062521D02*
X97249623Y-116100617D01*
X97249623Y-116100617D02*
X97287718Y-116138712D01*
%TO.C,TP1*%
X110400000Y-73700000D02*
X110400000Y-69300000D01*
X110400000Y-69300000D02*
X106000000Y-69300000D01*
X106000000Y-73700000D02*
X110400000Y-73700000D01*
X106000000Y-69300000D02*
X106000000Y-73700000D01*
%TO.C,R2*%
X118341446Y-52333986D02*
X115749406Y-53542674D01*
X117530019Y-50593875D02*
X118341446Y-52333986D01*
X114937979Y-51802563D02*
X117530019Y-50593875D01*
%TO.C,D2*%
X113052978Y-53925390D02*
X118356168Y-54860485D01*
X112372277Y-57785836D02*
X113052978Y-53925390D01*
X117675467Y-58720932D02*
X112372277Y-57785836D01*
%TO.C,TP4*%
X101150000Y-70750000D02*
X101150000Y-73650000D01*
X101150000Y-73650000D02*
X104050000Y-73650000D01*
X104050000Y-70750000D02*
X101150000Y-70750000D01*
X104050000Y-73650000D02*
X104050000Y-70750000D01*
%TO.C,U1*%
X117000000Y-102800000D02*
X116600000Y-102800000D01*
X117000000Y-78300000D02*
X117000000Y-102800000D01*
X117000000Y-78300000D02*
X116600000Y-78300000D01*
X112700000Y-103800000D02*
X112700000Y-102800000D01*
X112700000Y-102800000D02*
X113800000Y-102800000D01*
X103700000Y-103800000D02*
X103700000Y-102800000D01*
X103700000Y-102800000D02*
X102600000Y-102800000D01*
X99400000Y-102800000D02*
X99800000Y-102800000D01*
X99400000Y-78300000D02*
X99800000Y-78300000D01*
X99400000Y-78300000D02*
X99400000Y-102800000D01*
%TO.C,D1*%
X104022702Y-58021566D02*
X98667202Y-58584452D01*
X103612950Y-54123040D02*
X104022702Y-58021566D01*
X98257450Y-54685926D02*
X103612950Y-54123040D01*
%TO.C,TP2*%
X110700000Y-102150000D02*
X110700000Y-97750000D01*
X110700000Y-97750000D02*
X106300000Y-97750000D01*
X106300000Y-102150000D02*
X110700000Y-102150000D01*
X106300000Y-97750000D02*
X106300000Y-102150000D01*
%TO.C,TP3*%
X112150000Y-70800000D02*
X112150000Y-73700000D01*
X112150000Y-73700000D02*
X115050000Y-73700000D01*
X115050000Y-70800000D02*
X112150000Y-70800000D01*
X115050000Y-73700000D02*
X115050000Y-70800000D01*
%TO.C,R1*%
X99469981Y-50593875D02*
X102062021Y-51802563D01*
X98658554Y-52333986D02*
X99469981Y-50593875D01*
X101250594Y-53542674D02*
X98658554Y-52333986D01*
%TD*%
M02*
