M48
; DRILL file {KiCad 7.0.9} date Sat 02 Dec 2023 11:17:23 PM CET
; FORMAT={-:-/ absolute / inch / decimal}
; #@! TF.CreationDate,2023-12-02T23:17:23+01:00
; #@! TF.GenerationSoftware,Kicad,Pcbnew,7.0.9
; #@! TF.FileFunction,Plated,1,2,PTH
FMAT,2
INCH
; #@! TA.AperFunction,Plated,PTH,ViaDrill
T1C0.0157
; #@! TA.AperFunction,Plated,PTH,ComponentDrill
T2C0.0394
%
G90
G05
T1
X3.937Y-4.0354
X4.0079Y-4.0551
X4.0157Y-3.0
X4.2165Y-2.7953
X4.2205Y-3.9567
X4.315Y-2.7756
X4.3228Y-3.878
X4.5118Y-3.0394
X4.5157Y-4.0472
X4.5669Y-4.0472
T2
X3.374Y-3.2575
X3.374Y-3.3575
X3.3976Y-3.1575
X3.3976Y-3.4575
X3.5236Y-3.1398
X4.9803Y-3.1398
X5.0983Y-3.1674
X5.0983Y-3.4674
X5.1219Y-3.2674
X5.1219Y-3.3674
T0
M30
