%TF.GenerationSoftware,KiCad,Pcbnew,7.0.9*%
%TF.CreationDate,2023-12-02T23:17:25+01:00*%
%TF.ProjectId,pilkbadge,70696c6b-6261-4646-9765-2e6b69636164,rev?*%
%TF.SameCoordinates,Original*%
%TF.FileFunction,Copper,L2,Bot*%
%TF.FilePolarity,Positive*%
%FSLAX46Y46*%
G04 Gerber Fmt 4.6, Leading zero omitted, Abs format (unit mm)*
G04 Created by KiCad (PCBNEW 7.0.9) date 2023-12-02 23:17:25*
%MOMM*%
%LPD*%
G01*
G04 APERTURE LIST*
G04 Aperture macros list*
%AMRoundRect*
0 Rectangle with rounded corners*
0 $1 Rounding radius*
0 $2 $3 $4 $5 $6 $7 $8 $9 X,Y pos of 4 corners*
0 Add a 4 corners polygon primitive as box body*
4,1,4,$2,$3,$4,$5,$6,$7,$8,$9,$2,$3,0*
0 Add four circle primitives for the rounded corners*
1,1,$1+$1,$2,$3*
1,1,$1+$1,$4,$5*
1,1,$1+$1,$6,$7*
1,1,$1+$1,$8,$9*
0 Add four rect primitives between the rounded corners*
20,1,$1+$1,$2,$3,$4,$5,0*
20,1,$1+$1,$4,$5,$6,$7,0*
20,1,$1+$1,$6,$7,$8,$9,0*
20,1,$1+$1,$8,$9,$2,$3,0*%
G04 Aperture macros list end*
%TA.AperFunction,NonConductor*%
%ADD10C,1.000000*%
%TD*%
%ADD11C,0.280000*%
%TA.AperFunction,NonConductor*%
%ADD12C,0.280000*%
%TD*%
%TA.AperFunction,ComponentPad*%
%ADD13C,1.700000*%
%TD*%
%TA.AperFunction,ComponentPad*%
%ADD14O,1.700000X1.700000*%
%TD*%
%TA.AperFunction,SMDPad,CuDef*%
%ADD15R,4.000000X4.000000*%
%TD*%
%TA.AperFunction,SMDPad,CuDef*%
%ADD16RoundRect,0.250000X0.104372X0.545189X-0.484728X0.270488X-0.104372X-0.545189X0.484728X-0.270488X0*%
%TD*%
%TA.AperFunction,SMDPad,CuDef*%
%ADD17RoundRect,0.250000X-0.645713X-1.358512X0.142133X-1.497431X0.645713X1.358512X-0.142133X1.497431X0*%
%TD*%
%TA.AperFunction,SMDPad,CuDef*%
%ADD18R,2.500000X2.500000*%
%TD*%
%TA.AperFunction,SMDPad,CuDef*%
%ADD19RoundRect,0.635750X0.635750X1.295250X-0.635750X1.295250X-0.635750X-1.295250X0.635750X-1.295250X0*%
%TD*%
%TA.AperFunction,SMDPad,CuDef*%
%ADD20RoundRect,0.250000X0.246242X1.483868X-0.549375X1.400245X-0.246242X-1.483868X0.549375X-1.400245X0*%
%TD*%
%TA.AperFunction,SMDPad,CuDef*%
%ADD21RoundRect,0.250000X-0.484728X-0.270488X0.104372X-0.545189X0.484728X0.270488X-0.104372X0.545189X0*%
%TD*%
%TA.AperFunction,ViaPad*%
%ADD22C,0.800000*%
%TD*%
%TA.AperFunction,Conductor*%
%ADD23C,1.000000*%
%TD*%
%TA.AperFunction,Conductor*%
%ADD24C,0.250000*%
%TD*%
G04 APERTURE END LIST*
D10*
X103500001Y-61750001D02*
G75*
G03*
X103250008Y-62504086I999999J-749999D01*
G01*
X106285747Y-64107239D02*
G75*
G03*
X107884985Y-63115013I-1285744J3857237D01*
G01*
X107884987Y-63115013D02*
G75*
G03*
X110742609Y-64301733I2865012J2865012D01*
G01*
X110742609Y-64301734D02*
G75*
G03*
X112750000Y-62000000I257392J1801734D01*
G01*
X103275536Y-62504003D02*
G75*
G03*
X106285747Y-64107238I2010211J146761D01*
G01*
D11*
D12*
X116182456Y-85647440D02*
X115915790Y-85447440D01*
X115915790Y-85447440D02*
X115649123Y-85647440D01*
X114715790Y-86180773D02*
X115182456Y-86180773D01*
X115182456Y-86914106D02*
X115182456Y-85514106D01*
X115182456Y-85514106D02*
X114515790Y-85514106D01*
X113982456Y-85514106D02*
X113982456Y-86647440D01*
X113982456Y-86647440D02*
X113915790Y-86780773D01*
X113915790Y-86780773D02*
X113849123Y-86847440D01*
X113849123Y-86847440D02*
X113715790Y-86914106D01*
X113715790Y-86914106D02*
X113449123Y-86914106D01*
X113449123Y-86914106D02*
X113315790Y-86847440D01*
X113315790Y-86847440D02*
X113249123Y-86780773D01*
X113249123Y-86780773D02*
X113182456Y-86647440D01*
X113182456Y-86647440D02*
X113182456Y-85514106D01*
X111849123Y-86914106D02*
X112515789Y-86914106D01*
X112515789Y-86914106D02*
X112515789Y-85514106D01*
X110715790Y-86914106D02*
X111382456Y-86914106D01*
X111382456Y-86914106D02*
X111382456Y-85514106D01*
X108915790Y-85514106D02*
X108649123Y-85514106D01*
X108649123Y-85514106D02*
X108515790Y-85580773D01*
X108515790Y-85580773D02*
X108382456Y-85714106D01*
X108382456Y-85714106D02*
X108315790Y-85980773D01*
X108315790Y-85980773D02*
X108315790Y-86447440D01*
X108315790Y-86447440D02*
X108382456Y-86714106D01*
X108382456Y-86714106D02*
X108515790Y-86847440D01*
X108515790Y-86847440D02*
X108649123Y-86914106D01*
X108649123Y-86914106D02*
X108915790Y-86914106D01*
X108915790Y-86914106D02*
X109049123Y-86847440D01*
X109049123Y-86847440D02*
X109182456Y-86714106D01*
X109182456Y-86714106D02*
X109249123Y-86447440D01*
X109249123Y-86447440D02*
X109249123Y-85980773D01*
X109249123Y-85980773D02*
X109182456Y-85714106D01*
X109182456Y-85714106D02*
X109049123Y-85580773D01*
X109049123Y-85580773D02*
X108915790Y-85514106D01*
X107249123Y-86180773D02*
X107715789Y-86180773D01*
X107715789Y-86914106D02*
X107715789Y-85514106D01*
X107715789Y-85514106D02*
X107049123Y-85514106D01*
X105449122Y-86914106D02*
X105449122Y-85514106D01*
X105449122Y-85514106D02*
X104915789Y-85514106D01*
X104915789Y-85514106D02*
X104782456Y-85580773D01*
X104782456Y-85580773D02*
X104715789Y-85647440D01*
X104715789Y-85647440D02*
X104649122Y-85780773D01*
X104649122Y-85780773D02*
X104649122Y-85980773D01*
X104649122Y-85980773D02*
X104715789Y-86114106D01*
X104715789Y-86114106D02*
X104782456Y-86180773D01*
X104782456Y-86180773D02*
X104915789Y-86247440D01*
X104915789Y-86247440D02*
X105449122Y-86247440D01*
X104049122Y-86914106D02*
X104049122Y-85514106D01*
X102715789Y-86914106D02*
X103382455Y-86914106D01*
X103382455Y-86914106D02*
X103382455Y-85514106D01*
X102249122Y-86914106D02*
X102249122Y-85514106D01*
X101449122Y-86914106D02*
X102049122Y-86114106D01*
X101449122Y-85514106D02*
X102249122Y-86314106D01*
D13*
%TO.P,J4,1,Pin_1*%
%TO.N,unconnected-(J4-Pin_1-Pad1)*%
X89500000Y-79750000D03*
%TD*%
%TO.P,J3,1,Pin_1*%
%TO.N,unconnected-(J3-Pin_1-Pad1)*%
X126500000Y-79750000D03*
%TD*%
%TO.P,J1,1,Pin_1*%
%TO.N,Net-(J1-Pin_1)*%
X86300000Y-80200000D03*
D14*
%TO.P,J1,2,Pin_2*%
%TO.N,Net-(J1-Pin_2)*%
X85700000Y-82740000D03*
%TO.P,J1,3,Pin_3*%
%TO.N,unconnected-(J1-Pin_3-Pad3)*%
X85700000Y-85280000D03*
%TO.P,J1,4,Pin_4*%
%TO.N,unconnected-(J1-Pin_4-Pad4)*%
X86300000Y-87820000D03*
%TD*%
D15*
%TO.P,TP1,1,1*%
%TO.N,+BATT*%
X108200000Y-71500000D03*
%TD*%
D16*
%TO.P,R2,1*%
%TO.N,Net-(J1-Pin_1)*%
X117178965Y-51816816D03*
%TO.P,R2,2*%
%TO.N,Net-(D2-A)*%
X115321035Y-52683184D03*
%TD*%
D17*
%TO.P,D2,1,K*%
%TO.N,-BATT*%
X113608803Y-56013633D03*
%TO.P,D2,2,A*%
%TO.N,Net-(D2-A)*%
X117991197Y-56786367D03*
%TD*%
D18*
%TO.P,TP4,1,1*%
%TO.N,-BATT*%
X102600000Y-72200000D03*
%TD*%
D13*
%TO.P,J2,1,Pin_1*%
%TO.N,+BATT*%
X129495661Y-80452986D03*
D14*
%TO.P,J2,2,Pin_2*%
%TO.N,Net-(J1-Pin_2)*%
X130095661Y-82992986D03*
%TO.P,J2,3,Pin_3*%
%TO.N,unconnected-(J2-Pin_3-Pad3)*%
X130095661Y-85532986D03*
%TO.P,J2,4,Pin_4*%
%TO.N,unconnected-(J2-Pin_4-Pad4)*%
X129495661Y-88072986D03*
%TD*%
D19*
%TO.P,U1,5V,5V*%
%TO.N,unconnected-(U1-Pad5V)*%
X115071500Y-101469000D03*
%TO.P,U1,B+,B+*%
%TO.N,+BATT*%
X112000000Y-77600000D03*
%TO.P,U1,B-,B-*%
%TO.N,-BATT*%
X104900000Y-77500000D03*
%TO.P,U1,G,GND*%
%TO.N,unconnected-(U1-GND-PadG)*%
X101200000Y-101500000D03*
%TO.P,U1,G2,GND*%
X101300000Y-77600000D03*
%TO.P,U1,OUT,OUT*%
%TO.N,+BATT*%
X115200000Y-77600000D03*
%TD*%
D20*
%TO.P,D1,1,K*%
%TO.N,-BATT*%
X102912811Y-56167424D03*
%TO.P,D1,2,A*%
%TO.N,Net-(D1-A)*%
X98487189Y-56632576D03*
%TD*%
D15*
%TO.P,TP2,1,1*%
%TO.N,-BATT*%
X108500000Y-99950000D03*
%TD*%
D18*
%TO.P,TP3,1,1*%
%TO.N,+BATT*%
X113600000Y-72250000D03*
%TD*%
D21*
%TO.P,R1,1*%
%TO.N,Net-(J1-Pin_1)*%
X99821035Y-51816816D03*
%TO.P,R1,2*%
%TO.N,Net-(D1-A)*%
X101678965Y-52683184D03*
%TD*%
D22*
%TO.N,+BATT*%
X114600000Y-77200000D03*
X109600000Y-70500000D03*
X107100000Y-71000000D03*
%TO.N,-BATT*%
X107200000Y-100500000D03*
X109800000Y-98500000D03*
%TO.N,unconnected-(U1-GND-PadG)*%
X100000000Y-102500000D03*
X101800000Y-103000000D03*
X102000000Y-76200000D03*
%TO.N,unconnected-(U1-Pad5V)*%
X116000000Y-102800000D03*
X114700000Y-102800000D03*
%TD*%
D23*
%TO.N,+BATT*%
X112000000Y-77600000D02*
X111250000Y-76850000D01*
X111250000Y-76850000D02*
X111250000Y-71750000D01*
X111250000Y-71750000D02*
X111000000Y-71500000D01*
X111000000Y-71500000D02*
X110000000Y-71500000D01*
%TO.N,Net-(J1-Pin_2)*%
X130295661Y-82992986D02*
X129788647Y-83500000D01*
X127500000Y-84500000D02*
X89500000Y-84500000D01*
X129788647Y-83500000D02*
X128500000Y-83500000D01*
X128500000Y-83500000D02*
X127500000Y-84500000D01*
X87740000Y-82740000D02*
X85500000Y-82740000D01*
X89500000Y-84500000D02*
X87740000Y-82740000D01*
D24*
%TO.N,Net-(J1-Pin_1)*%
X117178965Y-51816816D02*
X117862149Y-52500000D01*
X117862149Y-52500000D02*
X118000000Y-52500000D01*
X118000000Y-52500000D02*
X120000000Y-54500000D01*
X120000000Y-54500000D02*
X120000000Y-62250000D01*
X120000000Y-62250000D02*
X114750000Y-67500000D01*
X114750000Y-67500000D02*
X106500000Y-67500000D01*
X99821035Y-51816816D02*
X101387851Y-50250000D01*
X101387851Y-50250000D02*
X115612149Y-50250000D01*
X115612149Y-50250000D02*
X117178965Y-51816816D01*
%TO.N,-BATT*%
X113608803Y-56013633D02*
X113608803Y-57891197D01*
X113608803Y-57891197D02*
X112750000Y-58750000D01*
X112750000Y-58750000D02*
X112750000Y-63250000D01*
X112750000Y-63250000D02*
X111750000Y-64250000D01*
X109000000Y-64250000D02*
X107875000Y-63125000D01*
X107875000Y-63125000D02*
X106750000Y-64250000D01*
X111750000Y-64250000D02*
X109000000Y-64250000D01*
X106750000Y-64250000D02*
X104000000Y-64250000D01*
X103750000Y-64000000D02*
X104000000Y-64250000D01*
X103750000Y-61500000D02*
X103750000Y-64000000D01*
X104000000Y-64250000D02*
X102600000Y-65650000D01*
X102600000Y-65650000D02*
X102600000Y-72200000D01*
X102912811Y-60662811D02*
X103750000Y-61500000D01*
X102912811Y-56167424D02*
X102912811Y-60662811D01*
D23*
X103500000Y-74169001D02*
X103500000Y-73100000D01*
X103500000Y-73100000D02*
X102600000Y-72200000D01*
%TO.N,Net-(J1-Pin_1)*%
X106500000Y-82000000D02*
X107800000Y-80700000D01*
X105000000Y-73100000D02*
X105000000Y-69000000D01*
X107800000Y-75900000D02*
X105000000Y-73100000D01*
X107800000Y-80700000D02*
X107800000Y-75900000D01*
X105000000Y-69000000D02*
X106500000Y-67500000D01*
X86500000Y-80200000D02*
X87702081Y-80200000D01*
X89502081Y-82000000D02*
X106500000Y-82000000D01*
X87702081Y-80200000D02*
X89502081Y-82000000D01*
D24*
%TO.N,Net-(D1-A)*%
X101678965Y-52683184D02*
X101152224Y-53209925D01*
X101152224Y-53209925D02*
X99290075Y-53209925D01*
X99290075Y-53209925D02*
X98487189Y-54012811D01*
X98487189Y-54012811D02*
X98487189Y-56632576D01*
%TO.N,Net-(D2-A)*%
X115321035Y-52683184D02*
X115955477Y-52683184D01*
X115955477Y-52683184D02*
X117991197Y-54718904D01*
X117991197Y-54718904D02*
X117991197Y-56786367D01*
D23*
X117991197Y-55508803D02*
X117991197Y-56786367D01*
%TO.N,+BATT*%
X127248647Y-82500000D02*
X120100000Y-82500000D01*
X120100000Y-82500000D02*
X115200000Y-77600000D01*
X112000000Y-77600000D02*
X115200000Y-77600000D01*
X108500000Y-74100000D02*
X108500000Y-71500000D01*
X109500000Y-77000000D02*
X109500000Y-75100000D01*
X110100000Y-77600000D02*
X109500000Y-77000000D01*
X109500000Y-75100000D02*
X108500000Y-74100000D01*
X112000000Y-77600000D02*
X110100000Y-77600000D01*
X129295661Y-80452986D02*
X127248647Y-82500000D01*
%TO.N,-BATT*%
X91300000Y-88000000D02*
X89700000Y-89600000D01*
X92762742Y-80500000D02*
X103830999Y-80500000D01*
X104900000Y-75569001D02*
X103500000Y-74169001D01*
X89700000Y-89600000D02*
X85600000Y-89600000D01*
X106200000Y-88000000D02*
X91300000Y-88000000D01*
X84600000Y-81300000D02*
X84600000Y-79500000D01*
X104900000Y-77500000D02*
X104900000Y-75569001D01*
X87400000Y-78300000D02*
X88000000Y-77700000D01*
X108500000Y-99500000D02*
X108500000Y-90300000D01*
X85800000Y-78300000D02*
X87400000Y-78300000D01*
X88000000Y-77700000D02*
X89962742Y-77700000D01*
X83950000Y-81950000D02*
X84600000Y-81300000D01*
X103830999Y-80500000D02*
X104900000Y-79430999D01*
X84600000Y-79500000D02*
X85800000Y-78300000D01*
X83950000Y-87950000D02*
X83950000Y-81950000D01*
X85600000Y-89600000D02*
X83950000Y-87950000D01*
X89962742Y-77700000D02*
X92762742Y-80500000D01*
X104900000Y-79430999D02*
X104900000Y-77500000D01*
X108500000Y-90300000D02*
X106200000Y-88000000D01*
%TD*%
%TA.AperFunction,Conductor*%
%TO.N,unconnected-(U1-Pad5V)*%
G36*
X118005568Y-93194603D02*
G01*
X118071373Y-93218080D01*
X118114041Y-93273408D01*
X118119757Y-93292500D01*
X120290924Y-103457508D01*
X120285677Y-103527180D01*
X120280568Y-103538864D01*
X120126436Y-103847127D01*
X120078848Y-103898285D01*
X120042277Y-103912752D01*
X111646089Y-105767724D01*
X111576382Y-105762965D01*
X111520313Y-105721275D01*
X111495684Y-105655890D01*
X111495399Y-105650490D01*
X111426143Y-103399668D01*
X113494383Y-103399668D01*
X113555967Y-103490660D01*
X113709337Y-103644030D01*
X113709342Y-103644034D01*
X113888968Y-103765607D01*
X113888972Y-103765610D01*
X114088352Y-103850990D01*
X114088359Y-103850992D01*
X114300296Y-103897096D01*
X114349036Y-103900000D01*
X115793964Y-103900000D01*
X115842703Y-103897096D01*
X116054640Y-103850992D01*
X116054647Y-103850990D01*
X116254027Y-103765610D01*
X116254031Y-103765607D01*
X116433657Y-103644034D01*
X116433662Y-103644030D01*
X116587029Y-103490663D01*
X116587035Y-103490656D01*
X116648616Y-103399669D01*
X115071500Y-101822553D01*
X113494383Y-103399668D01*
X111426143Y-103399668D01*
X111409260Y-102850962D01*
X113300000Y-102850962D01*
X113302022Y-102884924D01*
X114717947Y-101469000D01*
X115425053Y-101469000D01*
X116840976Y-102884924D01*
X116840976Y-102884923D01*
X116843000Y-102850964D01*
X116843000Y-100087036D01*
X116840976Y-100053075D01*
X116840976Y-100053074D01*
X115425053Y-101468999D01*
X115425053Y-101469000D01*
X114717947Y-101469000D01*
X114717947Y-101468999D01*
X113302022Y-100053074D01*
X113300000Y-100087038D01*
X113300000Y-102850962D01*
X111409260Y-102850962D01*
X111307333Y-99538330D01*
X113494383Y-99538330D01*
X115071500Y-101115447D01*
X115071501Y-101115447D01*
X116648615Y-99538330D01*
X116587032Y-99447339D01*
X116433662Y-99293969D01*
X116433657Y-99293965D01*
X116254031Y-99172392D01*
X116254027Y-99172389D01*
X116054647Y-99087009D01*
X116054640Y-99087007D01*
X115842703Y-99040903D01*
X115793964Y-99038000D01*
X114349036Y-99038000D01*
X114300296Y-99040903D01*
X114088359Y-99087007D01*
X114088352Y-99087009D01*
X113888972Y-99172389D01*
X113888968Y-99172392D01*
X113709342Y-99293965D01*
X113555966Y-99447340D01*
X113494383Y-99538330D01*
X111307333Y-99538330D01*
X111104164Y-92935335D01*
X111121777Y-92867722D01*
X111173149Y-92820365D01*
X111235177Y-92807724D01*
X118005568Y-93194603D01*
G37*
%TD.AperFunction*%
%TD*%
%TA.AperFunction,Conductor*%
%TO.N,unconnected-(U1-GND-PadG)*%
G36*
X104643039Y-92319685D02*
G01*
X104688794Y-92372489D01*
X104700000Y-92424000D01*
X104700000Y-104387722D01*
X104697592Y-104412040D01*
X104526629Y-105266852D01*
X104494179Y-105328730D01*
X104433427Y-105363240D01*
X104369810Y-105361425D01*
X100274310Y-104147943D01*
X100215625Y-104110024D01*
X100187926Y-104048976D01*
X100155134Y-104078787D01*
X100086232Y-104090373D01*
X100065726Y-104086141D01*
X98678226Y-103675030D01*
X97853505Y-103430668D01*
X99622883Y-103430668D01*
X99684467Y-103521660D01*
X99837837Y-103675030D01*
X99837842Y-103675034D01*
X100017468Y-103796607D01*
X100017472Y-103796610D01*
X100149766Y-103853262D01*
X100203644Y-103897747D01*
X100220417Y-103950221D01*
X100242754Y-103924572D01*
X100309842Y-103905052D01*
X100335896Y-103907886D01*
X100428798Y-103928096D01*
X100477536Y-103931000D01*
X101922464Y-103931000D01*
X101971203Y-103928096D01*
X102183140Y-103881992D01*
X102183147Y-103881990D01*
X102382527Y-103796610D01*
X102382531Y-103796607D01*
X102562157Y-103675034D01*
X102562162Y-103675030D01*
X102715529Y-103521663D01*
X102715535Y-103521656D01*
X102777116Y-103430669D01*
X101200000Y-101853553D01*
X99622883Y-103430668D01*
X97853505Y-103430668D01*
X96478923Y-103023384D01*
X96420239Y-102985466D01*
X96391370Y-102921840D01*
X96390915Y-102918239D01*
X96386884Y-102881962D01*
X99428500Y-102881962D01*
X99430522Y-102915924D01*
X100846446Y-101500001D01*
X101553553Y-101500001D01*
X102969476Y-102915924D01*
X102969476Y-102915923D01*
X102971500Y-102881964D01*
X102971500Y-100118036D01*
X102969476Y-100084075D01*
X102969476Y-100084074D01*
X101553553Y-101499999D01*
X101553553Y-101500001D01*
X100846446Y-101500001D01*
X100846447Y-101500000D01*
X100846447Y-101499999D01*
X99430522Y-100084074D01*
X99428500Y-100118038D01*
X99428500Y-102881962D01*
X96386884Y-102881962D01*
X96302358Y-102121224D01*
X96304879Y-102079208D01*
X96893932Y-99569330D01*
X99622883Y-99569330D01*
X101200000Y-101146447D01*
X101200001Y-101146447D01*
X102777115Y-99569330D01*
X102715532Y-99478339D01*
X102562162Y-99324969D01*
X102562157Y-99324965D01*
X102382531Y-99203392D01*
X102382527Y-99203389D01*
X102183147Y-99118009D01*
X102183140Y-99118007D01*
X101971203Y-99071903D01*
X101922464Y-99069000D01*
X100477536Y-99069000D01*
X100428796Y-99071903D01*
X100216859Y-99118007D01*
X100216852Y-99118009D01*
X100017472Y-99203389D01*
X100017468Y-99203392D01*
X99837842Y-99324965D01*
X99684466Y-99478340D01*
X99622883Y-99569330D01*
X96893932Y-99569330D01*
X98577547Y-92395667D01*
X98612029Y-92334899D01*
X98673890Y-92302420D01*
X98698267Y-92300000D01*
X104576000Y-92300000D01*
X104643039Y-92319685D01*
G37*
%TD.AperFunction*%
%TD*%
%TA.AperFunction,Conductor*%
%TO.N,+BATT*%
G36*
X115344490Y-68219685D02*
G01*
X115390245Y-68272489D01*
X115401442Y-68322541D01*
X115427805Y-70563513D01*
X115408911Y-70630780D01*
X115356649Y-70677153D01*
X115287612Y-70687909D01*
X115223719Y-70659634D01*
X115213624Y-70648917D01*
X115213460Y-70649082D01*
X115207187Y-70642809D01*
X115092093Y-70556649D01*
X115092086Y-70556645D01*
X114957379Y-70506403D01*
X114957372Y-70506401D01*
X114897844Y-70500000D01*
X113850000Y-70500000D01*
X113850000Y-74000000D01*
X114897828Y-74000000D01*
X114897844Y-73999999D01*
X114957372Y-73993598D01*
X114957379Y-73993596D01*
X115092086Y-73943354D01*
X115092093Y-73943350D01*
X115207186Y-73857191D01*
X115243582Y-73808573D01*
X115299516Y-73766702D01*
X115369207Y-73761718D01*
X115430531Y-73795203D01*
X115464015Y-73856526D01*
X115466840Y-73881425D01*
X115480512Y-75043541D01*
X115461618Y-75110808D01*
X115409356Y-75157181D01*
X115356521Y-75169000D01*
X114477536Y-75169000D01*
X114428796Y-75171903D01*
X114216859Y-75218007D01*
X114216852Y-75218009D01*
X114017472Y-75303389D01*
X114017468Y-75303392D01*
X113837842Y-75424965D01*
X113687681Y-75575126D01*
X113626358Y-75608610D01*
X113556666Y-75603626D01*
X113512319Y-75575126D01*
X113362157Y-75424965D01*
X113182531Y-75303392D01*
X113182527Y-75303389D01*
X112983147Y-75218009D01*
X112983140Y-75218007D01*
X112771203Y-75171903D01*
X112722464Y-75169000D01*
X111277536Y-75169000D01*
X111228796Y-75171903D01*
X111016859Y-75218007D01*
X111016852Y-75218009D01*
X110817472Y-75303389D01*
X110817468Y-75303392D01*
X110637842Y-75424965D01*
X110484466Y-75578340D01*
X110422883Y-75669330D01*
X111453553Y-76700000D01*
X110746448Y-76700000D01*
X110230522Y-76184074D01*
X110228500Y-76218038D01*
X110228500Y-76576000D01*
X110208815Y-76643039D01*
X110156011Y-76688794D01*
X110104500Y-76700000D01*
X109051362Y-76700000D01*
X108984323Y-76680315D01*
X108963681Y-76663681D01*
X108836819Y-76536819D01*
X108803334Y-76475496D01*
X108800500Y-76449138D01*
X108800500Y-75912715D01*
X108802757Y-75823641D01*
X108802756Y-75823640D01*
X108802757Y-75823637D01*
X108791933Y-75763249D01*
X108791280Y-75758587D01*
X108785074Y-75697563D01*
X108785074Y-75697562D01*
X108774784Y-75664768D01*
X108772917Y-75657155D01*
X108766858Y-75623347D01*
X108766857Y-75623345D01*
X108744102Y-75566379D01*
X108742521Y-75561938D01*
X108724157Y-75503407D01*
X108707488Y-75473378D01*
X108704117Y-75466278D01*
X108691378Y-75434386D01*
X108691377Y-75434383D01*
X108657620Y-75383163D01*
X108655180Y-75379134D01*
X108644379Y-75359675D01*
X108625409Y-75325498D01*
X108625407Y-75325495D01*
X108606431Y-75303392D01*
X108603030Y-75299431D01*
X108598302Y-75293159D01*
X108579402Y-75264481D01*
X108536012Y-75221091D01*
X108532822Y-75217648D01*
X108492867Y-75171106D01*
X108492863Y-75171102D01*
X108465698Y-75150074D01*
X108459803Y-75144882D01*
X107526602Y-74211681D01*
X107493117Y-74150358D01*
X107498101Y-74080666D01*
X107539973Y-74024733D01*
X107605437Y-74000316D01*
X107614283Y-74000000D01*
X107950000Y-74000000D01*
X107950000Y-71750000D01*
X108450000Y-71750000D01*
X108450000Y-74000000D01*
X110247828Y-74000000D01*
X110247844Y-73999999D01*
X110307372Y-73993598D01*
X110307379Y-73993596D01*
X110442086Y-73943354D01*
X110442093Y-73943350D01*
X110557187Y-73857190D01*
X110557190Y-73857187D01*
X110643350Y-73742093D01*
X110643354Y-73742086D01*
X110693596Y-73607379D01*
X110693598Y-73607372D01*
X110699999Y-73547844D01*
X110700000Y-73547827D01*
X110700000Y-72500000D01*
X111850000Y-72500000D01*
X111850000Y-73547844D01*
X111856401Y-73607372D01*
X111856403Y-73607379D01*
X111906645Y-73742086D01*
X111906649Y-73742093D01*
X111992809Y-73857187D01*
X111992812Y-73857190D01*
X112107906Y-73943350D01*
X112107913Y-73943354D01*
X112242620Y-73993596D01*
X112242627Y-73993598D01*
X112302155Y-73999999D01*
X112302172Y-74000000D01*
X113350000Y-74000000D01*
X113350000Y-72500000D01*
X111850000Y-72500000D01*
X110700000Y-72500000D01*
X110700000Y-72000000D01*
X111850000Y-72000000D01*
X113350000Y-72000000D01*
X113350000Y-70500000D01*
X112302155Y-70500000D01*
X112242627Y-70506401D01*
X112242620Y-70506403D01*
X112107913Y-70556645D01*
X112107906Y-70556649D01*
X111992812Y-70642809D01*
X111992809Y-70642812D01*
X111906649Y-70757906D01*
X111906645Y-70757913D01*
X111856403Y-70892620D01*
X111856401Y-70892627D01*
X111850000Y-70952155D01*
X111850000Y-72000000D01*
X110700000Y-72000000D01*
X110700000Y-71750000D01*
X108450000Y-71750000D01*
X107950000Y-71750000D01*
X107950000Y-69000000D01*
X108450000Y-69000000D01*
X108450000Y-71250000D01*
X110700000Y-71250000D01*
X110700000Y-69452172D01*
X110699999Y-69452155D01*
X110693598Y-69392627D01*
X110693596Y-69392620D01*
X110643354Y-69257913D01*
X110643350Y-69257906D01*
X110557190Y-69142812D01*
X110557187Y-69142809D01*
X110442093Y-69056649D01*
X110442086Y-69056645D01*
X110307379Y-69006403D01*
X110307372Y-69006401D01*
X110247844Y-69000000D01*
X108450000Y-69000000D01*
X107950000Y-69000000D01*
X106714283Y-69000000D01*
X106647244Y-68980315D01*
X106601489Y-68927511D01*
X106591545Y-68858353D01*
X106620570Y-68794797D01*
X106626602Y-68788319D01*
X107178602Y-68236319D01*
X107239925Y-68202834D01*
X107266283Y-68200000D01*
X115277451Y-68200000D01*
X115344490Y-68219685D01*
G37*
%TD.AperFunction*%
%TD*%
M02*
